<svg width="344" height="145" viewBox="0 0 344 145" fill="none" xmlns="http://www.w3.org/2000/svg">
<path fill-rule="evenodd" clip-rule="evenodd" d="M324.312 40.0509C324.312 40.0509 325.701 36.8115 328.94 36.2562C332.179 35.7008 330.791 39.8658 330.791 39.8658C330.791 39.8658 329.773 43.6605 327.367 44.7712C327.182 45.4191 331.717 45.6042 331.717 45.6042L333.105 34.3125L328.385 32.0912L323.664 37.4594L324.312 40.0509Z" fill="url(#paint0_linear_27_17248)"/>
<path fill-rule="evenodd" clip-rule="evenodd" d="M109.122 43.6605C107.456 43.3829 92.0921 41.069 68.213 39.9583C63.7703 39.7732 58.9575 39.5881 53.9595 39.4956C21.2876 38.9402 0.555329 51.8979 0 52.2681L0.0925549 52.1756C1.57343 50.6947 13.2353 40.236 39.7986 37.9221C67.5651 35.4232 106.438 43.1052 109.122 43.6605Z" fill="url(#paint1_linear_27_17248)"/>
<g style="mix-blend-mode:multiply" opacity="0.5">
<path fill-rule="evenodd" clip-rule="evenodd" d="M68.1204 39.9585C63.6778 39.7734 58.8649 39.5882 53.8669 39.4957C21.2876 38.9404 0.555329 51.898 0 52.2683L0.0925549 52.1757C1.29577 51.0651 9.53315 44.216 31.5612 40.7915C55.9032 36.8116 68.1204 39.9585 68.1204 39.9585Z" fill="url(#paint2_linear_27_17248)"/>
</g>
<path fill-rule="evenodd" clip-rule="evenodd" d="M128.651 50.2319L125.412 56.0628C125.412 56.0628 112.732 49.9542 96.8124 47.7329C91.074 46.8999 84.8728 46.6223 78.7642 47.3627C56.2734 49.8617 32.024 59.1172 31.191 59.3948C34.1528 54.3043 61.3639 36.2561 81.4483 36.2561C100.422 36.2561 120.599 50.3244 123.005 52.083C121.617 51.0649 114.49 45.6041 105.698 40.236C100.422 36.9965 94.5911 33.8497 89.1304 31.7209C74.229 25.7974 54.6074 33.2943 52.8489 33.9422C54.2372 33.2018 72.8407 23.0208 87.3718 27.6485C102.551 32.3688 118.84 53.3788 128.651 50.2319Z" fill="url(#paint3_linear_27_17248)"/>
<g style="mix-blend-mode:multiply" opacity="0.5">
<path fill-rule="evenodd" clip-rule="evenodd" d="M105.698 40.2361C100.422 36.9967 94.5911 33.8499 89.1303 31.7211C74.229 25.7976 54.6074 33.2945 52.8488 33.9424C54.2371 33.2945 67.0097 27.8338 80.2451 28.5742C94.1283 29.2221 105.327 39.8659 105.698 40.2361Z" fill="url(#paint4_linear_27_17248)"/>
</g>
<g style="mix-blend-mode:multiply" opacity="0.5">
<path fill-rule="evenodd" clip-rule="evenodd" d="M96.8124 47.7329C91.074 46.8999 84.8728 46.6222 78.7642 47.3626C56.2734 49.8616 32.024 59.1171 31.191 59.3948C31.9314 59.0246 56.2734 48.0105 75.3397 45.8818C83.8547 44.8637 91.2591 46.0669 96.8124 47.7329Z" fill="url(#paint5_linear_27_17248)"/>
</g>
<path fill-rule="evenodd" clip-rule="evenodd" d="M127.541 51.3425C125.412 51.6202 116.712 34.5901 110.325 27.6485C103.939 20.7994 82.3739 22.6505 82.3739 22.6505C82.3739 22.6505 108.659 36.5337 116.619 43.3828C126.245 51.7127 125.042 55.7852 125.042 55.7852L127.541 51.3425Z" fill="url(#paint6_linear_27_17248)"/>
<path fill-rule="evenodd" clip-rule="evenodd" d="M161.971 55.0448C137.722 59.8577 101.996 57.1736 101.996 57.1736C102.181 56.7108 102.273 56.1555 102.458 55.6927C110.418 30.9806 127.17 18.5782 138.555 19.3187C149.384 20.0591 152.253 34.6828 153.641 35.7934C153.734 35.886 153.826 35.886 153.919 35.7934C175.021 34.9604 186.498 50.1394 161.971 55.0448Z" fill="url(#paint7_linear_27_17248)"/>
<g style="mix-blend-mode:multiply">
<path fill-rule="evenodd" clip-rule="evenodd" d="M161.971 55.0448C137.722 59.8576 101.996 57.1735 101.996 57.1735C102.181 56.7108 102.273 56.1554 102.458 55.6927C122.172 37.4593 150.402 35.9785 153.641 35.7934C153.826 35.7934 153.919 35.7934 153.919 35.7934C175.021 34.9604 186.498 50.1394 161.971 55.0448Z" fill="url(#paint8_linear_27_17248)"/>
</g>
<path fill-rule="evenodd" clip-rule="evenodd" d="M90.241 99.3787C91.907 98.1754 102.458 115.483 119.581 119.185L125.69 124.924C125.69 124.924 109.863 121.222 102.366 114.095C94.8688 106.968 90.241 99.3787 90.241 99.3787Z" fill="url(#paint9_linear_27_17248)"/>
<path fill-rule="evenodd" clip-rule="evenodd" d="M121.895 71.5197C112.454 83.737 102.736 106.413 102.736 106.413C102.458 106.228 102.088 105.95 101.81 105.672C91.3517 96.6021 79.6898 65.7813 86.6314 49.3991C93.8507 32.369 110.511 44.1235 118.47 49.1214C119.396 48.5661 137.444 36.9042 138.277 43.1054C139.11 49.3991 133.001 57.1737 121.895 71.5197Z" fill="url(#paint10_linear_27_17248)"/>
<path fill-rule="evenodd" clip-rule="evenodd" d="M215.468 44.7712C215.468 44.7712 254.896 28.9443 260.079 17.4675L263.041 18.3005C263.041 18.3005 253.045 34.1274 228.333 43.7531L215.468 44.7712Z" fill="url(#paint11_linear_27_17248)"/>
<path fill-rule="evenodd" clip-rule="evenodd" d="M314.594 17.8379C318.111 21.8178 292.103 53.379 272.759 60.0429L278.59 67.9101C278.59 67.9101 309.226 32.1839 318.852 22.5582C318.944 22.6507 320.24 18.3932 314.594 17.8379Z" fill="url(#paint12_linear_27_17248)"/>
<path fill-rule="evenodd" clip-rule="evenodd" d="M338.288 60.228C338.01 60.7834 337.733 61.3387 337.455 61.8015C336.622 63.3749 335.974 64.2079 335.974 64.2079C335.974 64.2079 334.864 57.6365 327.274 44.7714C328.107 44.4937 329.033 43.9384 329.31 43.4756C329.495 43.1054 330.143 41.9022 330.699 40.5138C331.624 38.4776 332.365 36.0712 331.161 35.7935C329.958 35.5159 327.274 35.4233 325.608 36.4414C325.238 36.6265 324.868 36.9968 324.59 37.2744C324.127 37.9223 323.942 38.8479 324.312 40.0511C314.316 25.7051 292.566 14.9687 296.824 11.5442C301.636 7.65686 317.834 12.7474 319.777 11.3591C319.592 10.8963 317.371 2.844 322.554 4.6951C327.922 6.63875 341.528 17.5602 343.008 34.868C344.027 46.2523 340.695 55.4152 338.288 60.228Z" fill="url(#paint13_linear_27_17248)"/>
<path fill-rule="evenodd" clip-rule="evenodd" d="M302.099 54.4894C300.526 64.5779 295.158 74.2961 290.622 80.9601C288.494 84.0144 286.643 86.5134 285.254 88.1794C284.144 89.5677 283.496 90.3081 283.496 90.3081C283.496 90.3081 266.373 80.6824 255.451 67.7247C245.085 55.4149 237.588 40.9764 244.715 35.238C245.085 34.9603 245.456 34.6826 245.918 34.405C252.582 30.6102 268.317 37.1816 276.369 41.0689C279.331 42.4573 281.274 43.5679 281.274 43.5679C281.274 43.5679 280.256 31.6283 287.383 29.407C295.158 27.0006 305.061 35.7933 302.099 54.4894Z" fill="url(#paint14_linear_27_17248)"/>
<g style="mix-blend-mode:multiply" opacity="0.5">
<path fill-rule="evenodd" clip-rule="evenodd" d="M285.254 88.2721C284.144 89.6604 283.496 90.4009 283.496 90.4009C283.496 90.4009 266.373 80.6826 255.451 67.7249C245.085 55.4151 237.588 40.9766 244.715 35.2382C245.548 40.4212 248.14 57.8216 260.079 70.6867C274.61 86.2359 285.254 88.2721 285.254 88.2721Z" fill="url(#paint15_linear_27_17248)"/>
</g>
<g style="mix-blend-mode:multiply">
<path fill-rule="evenodd" clip-rule="evenodd" d="M302.099 54.4894C300.526 64.5779 295.158 74.2961 290.622 80.9601L285.254 88.1794C285.254 88.1794 287.383 63.7449 276.369 41.0689C279.331 42.4573 281.274 43.5679 281.274 43.5679C281.274 43.5679 280.256 31.6283 287.383 29.407C295.158 27.0006 305.061 35.7933 302.099 54.4894Z" fill="url(#paint16_linear_27_17248)"/>
</g>
<path fill-rule="evenodd" clip-rule="evenodd" d="M279.701 60.5982C277.572 64.393 275.814 66.5217 275.814 66.5217C275.814 66.5217 243.975 47.4554 233.979 38.0148C224.816 29.3147 215.375 17.9304 227.685 13.3027C228.796 12.9325 229.999 12.5622 231.387 12.2846C249.158 8.58237 261.19 18.4857 262.393 17.3751C260.45 9.04515 267.299 -1.321 274.796 0.159879C274.888 0.159879 275.073 0.252434 275.166 0.252434L275.351 0.344989C279.331 1.45565 283.496 6.17595 286.457 16.357C291.918 34.9605 284.606 51.9906 279.701 60.5982Z" fill="url(#paint17_linear_27_17248)"/>
<g style="mix-blend-mode:multiply" opacity="0.5">
<path fill-rule="evenodd" clip-rule="evenodd" d="M279.701 60.598C277.572 64.3928 275.814 66.5216 275.814 66.5216C275.814 66.5216 243.975 47.4552 233.979 38.0146C224.816 29.3145 215.375 17.9302 227.685 13.3025C220.836 16.9121 233.794 38.3849 255.544 51.25C269.057 59.2097 276.184 60.6906 279.701 60.598Z" fill="url(#paint18_linear_27_17248)"/>
</g>
<g style="mix-blend-mode:multiply" opacity="0.5">
<path fill-rule="evenodd" clip-rule="evenodd" d="M274.795 0.159763C273.777 0.067208 271.463 0.529982 268.039 4.97262C263.226 11.0812 266.095 18.3005 266.095 18.3005L262.393 17.2824C260.449 8.95248 267.299 -1.41367 274.795 0.159763Z" fill="url(#paint19_linear_27_17248)"/>
</g>
<g style="mix-blend-mode:multiply">
<path fill-rule="evenodd" clip-rule="evenodd" d="M266.095 18.3005C266.095 18.3005 280.904 39.0328 279.701 60.5055C279.701 60.5055 291.733 42.735 287.568 20.892C283.403 -0.95095 274.518 -0.76584 269.705 1.17781C264.8 3.21402 260.727 13.9504 266.095 18.3005Z" fill="url(#paint20_linear_27_17248)"/>
</g>
<g style="mix-blend-mode:multiply" opacity="0.5">
<path fill-rule="evenodd" clip-rule="evenodd" d="M324.59 37.367C324.127 38.0149 323.942 38.9404 324.312 40.1436C314.316 25.7976 292.566 15.0613 296.824 11.6367C296.638 13.3027 315.612 27.3711 324.59 37.367Z" fill="url(#paint21_linear_27_17248)"/>
</g>
<g style="mix-blend-mode:multiply" opacity="0.5">
<path fill-rule="evenodd" clip-rule="evenodd" d="M337.455 61.8013C336.622 63.3748 335.974 64.2078 335.974 64.2078C335.974 64.2078 334.864 57.6364 327.274 44.7712C328.107 44.4936 329.033 43.9382 329.31 43.4755C333.568 50.1394 336.807 57.914 337.455 61.8013Z" fill="url(#paint22_linear_27_17248)"/>
</g>
<g style="mix-blend-mode:multiply">
<path fill-rule="evenodd" clip-rule="evenodd" d="M338.288 60.228C338.473 59.6727 342.731 44.7714 338.01 31.536C333.198 18.023 319.777 11.3591 319.777 11.3591C319.592 10.8963 317.371 2.844 322.554 4.6951C327.922 6.63875 341.528 17.5602 343.008 34.868C344.027 46.2523 340.695 55.3226 338.288 60.228Z" fill="url(#paint23_linear_27_17248)"/>
</g>
<g style="mix-blend-mode:multiply">
<path fill-rule="evenodd" clip-rule="evenodd" d="M121.525 72.2599C112.084 84.4772 102.366 107.153 102.366 107.153C102.088 106.968 101.718 106.69 101.44 106.413C96.072 80.6824 118.1 49.8617 118.1 49.8617C119.026 49.3063 137.074 37.6444 137.907 43.8456C138.832 50.1393 132.724 57.9139 121.525 72.2599Z" fill="url(#paint24_linear_27_17248)"/>
</g>
<g style="mix-blend-mode:multiply" opacity="0.5">
<path fill-rule="evenodd" clip-rule="evenodd" d="M248.14 48.8438C248.14 48.8438 260.264 68.0026 275.906 73.741L281.182 58.0067C281.182 58.0067 278.868 64.3004 277.202 65.226C275.443 66.059 254.063 53.0087 248.14 48.8438Z" fill="#2F7B24"/>
</g>
<g style="mix-blend-mode:soft-light" opacity="0.3">
<path fill-rule="evenodd" clip-rule="evenodd" d="M235.922 12.0993C221.206 14.5057 236.015 39.1253 253.415 47.4552C271.001 55.8777 272.667 48.3808 274.148 42.7349C275.629 37.0891 268.224 9.78538 235.922 12.0993Z" fill="#9BC672"/>
</g>
<g style="mix-blend-mode:soft-light" opacity="0.3">
<path fill-rule="evenodd" clip-rule="evenodd" d="M338.011 31.536C337.455 32.9243 337.178 43.6606 330.699 40.6063C331.624 38.5701 332.365 36.1637 331.161 35.886C329.958 35.6084 327.274 35.5158 325.608 36.5339C314.687 25.3348 297.379 12.3771 310.152 11.7292C328.292 11.359 338.658 29.9625 338.011 31.536Z" fill="#9BC672"/>
</g>
<g style="mix-blend-mode:soft-light" opacity="0.3">
<path fill-rule="evenodd" clip-rule="evenodd" d="M233.238 11.9143C225.464 13.9505 232.128 34.7753 247.399 36.1636C262.763 37.552 263.781 19.9665 262.948 18.3005C262.208 16.542 244.252 8.95249 233.238 11.9143Z" fill="#9BC672"/>
</g>
<g style="mix-blend-mode:soft-light" opacity="0.3">
<path fill-rule="evenodd" clip-rule="evenodd" d="M93.2028 44.401C86.076 48.4734 87.8346 69.2057 95.1464 76.6101C102.551 84.0145 116.897 49.1213 116.897 49.1213C116.897 49.1213 101.44 39.6807 93.2028 44.401Z" fill="#9BC672"/>
</g>
<g style="mix-blend-mode:soft-light" opacity="0.3">
<path fill-rule="evenodd" clip-rule="evenodd" d="M87.8346 50.232C84.4101 57.5439 92.3698 66.1515 101.163 63.9301C109.955 61.6163 111.344 50.5097 111.344 48.0107C111.251 45.5117 95.4241 34.0349 87.8346 50.232Z" fill="#9BC672"/>
</g>
<g style="mix-blend-mode:soft-light" opacity="0.3">
<path fill-rule="evenodd" clip-rule="evenodd" d="M228.055 14.2281C222.595 16.8196 234.442 28.2039 246.937 26.4454C259.431 24.6868 260.45 18.6707 260.45 18.6707C260.45 18.6707 243.142 6.91627 228.055 14.2281Z" fill="#9BC672"/>
</g>
<g style="mix-blend-mode:soft-light" opacity="0.3">
<path fill-rule="evenodd" clip-rule="evenodd" d="M312.743 13.6729C305.987 15.8942 307.19 22.8358 317.648 26.6306C328.2 30.5179 326.719 21.1699 325.978 18.5783C325.053 15.9868 318.852 11.6367 312.743 13.6729Z" fill="#9BC672"/>
</g>
<g style="mix-blend-mode:soft-light">
<path fill-rule="evenodd" clip-rule="evenodd" d="M118.563 49.1215C118.563 49.1215 101.162 73.1857 101.81 92.3446C101.81 92.252 97.0901 76.8879 118.563 49.1215Z" fill="#83EF72"/>
</g>
<path fill-rule="evenodd" clip-rule="evenodd" d="M266.095 18.3007C266.095 18.3007 282.292 42.6426 279.701 60.5057C279.701 60.5982 278.127 37.9223 266.095 18.3007Z" fill="#83EF72"/>
<path fill-rule="evenodd" clip-rule="evenodd" d="M319.777 11.4514C319.777 11.4514 349.21 24.8719 338.288 60.3204C338.288 60.2278 348.099 29.3145 319.777 11.4514Z" fill="#83EF72"/>
<path fill-rule="evenodd" clip-rule="evenodd" d="M234.997 32.554C233.701 29.4997 239.069 29.5922 240.92 34.8679C242.771 40.2361 236.385 35.7934 234.997 32.554Z" fill="#83EF72"/>
<path fill-rule="evenodd" clip-rule="evenodd" d="M266.095 22.5582C260.172 19.0411 257.951 20.0592 260.357 27.371C262.763 34.6829 269.983 29.5924 269.983 29.5924C269.983 29.5924 268.965 24.2242 266.095 22.5582Z" fill="#83EF72"/>
<g style="mix-blend-mode:soft-light">
<path fill-rule="evenodd" clip-rule="evenodd" d="M85.3356 58.1917C85.6133 63.4673 90.3336 56.9885 90.0559 53.1937C89.8708 49.399 87.4644 50.1394 87.4644 50.1394C87.4644 50.1394 85.1505 53.4714 85.3356 58.1917Z" fill="#83EF72"/>
</g>
<g style="mix-blend-mode:soft-light">
<path fill-rule="evenodd" clip-rule="evenodd" d="M106.253 68.2801C105.79 68.095 105.513 64.4853 105.79 63.1895C105.975 61.8938 109.215 62.4491 109.678 62.4491C110.14 62.4491 107.456 65.2258 106.253 68.2801Z" fill="#83EF72"/>
</g>
<g style="mix-blend-mode:soft-light" opacity="0.3">
<path fill-rule="evenodd" clip-rule="evenodd" d="M111.621 39.6809C108.474 45.882 130.132 38.5702 141.887 37.1819C153.734 35.7936 147.903 21.2624 138.647 19.3188C129.207 17.4677 115.138 32.6467 111.621 39.6809Z" fill="#9BC672"/>
</g>
<g style="mix-blend-mode:soft-light" opacity="0.3">
<path fill-rule="evenodd" clip-rule="evenodd" d="M117.082 31.9988C112.917 40.5138 130.502 42.0873 137.166 34.9605C143.923 27.8338 141.331 21.1699 138.555 20.1518C135.778 19.2262 121.895 22.0954 117.082 31.9988Z" fill="#9BC672"/>
</g>
<g style="mix-blend-mode:soft-light">
<path fill-rule="evenodd" clip-rule="evenodd" d="M122.728 25.3346C121.895 26.4453 125.597 27.0006 127.356 26.0751C129.114 25.1495 129.855 22.3729 129.855 22.3729C129.855 22.3729 125.504 21.9101 122.728 25.3346Z" fill="#83EF72"/>
</g>
<g style="mix-blend-mode:soft-light">
<path fill-rule="evenodd" clip-rule="evenodd" d="M90.4262 59.3023C91.4443 61.9864 99.5891 60.9683 100.144 59.3949C100.607 57.8215 96.2571 51.7128 94.6837 50.9724C93.0177 50.3245 89.4081 56.5257 90.4262 59.3023Z" fill="#83EF72"/>
</g>
<path opacity="0.5" fill-rule="evenodd" clip-rule="evenodd" d="M257.395 25.4273C256.192 24.9645 255.359 28.2965 255.452 30.1476C255.544 31.9987 259.339 32.3689 260.264 31.9987C261.19 31.721 258.784 25.9826 257.395 25.4273Z" fill="#83EF72"/>
<path fill-rule="evenodd" clip-rule="evenodd" d="M106.068 144.453C105.883 144.453 105.605 144.545 105.327 144.545C96.9975 144.73 89.1303 141.213 82.4664 135.845C83.9473 134.457 85.4282 132.421 83.1143 130.755C80.8004 129.181 78.394 129.829 76.728 130.57C63.8629 116.964 57.4766 97.7126 65.3437 92.3444C76.6354 84.5698 85.7058 98.2679 90.4261 99.0084C90.9814 99.1009 91.5368 99.0084 91.9996 98.6381C93.9432 97.0647 97.738 94.6583 101.81 92.3444C101.81 92.3444 101.903 92.2519 101.995 92.2519C102.828 91.7891 103.661 91.3263 104.494 90.8635C104.957 90.5859 105.513 90.3082 106.16 90.0305C112.547 86.7911 118.563 84.4772 119.118 86.6986C120.044 90.771 107.549 105.857 104.032 122.888C100.7 138.9 105.605 143.99 106.068 144.453Z" fill="url(#paint25_linear_27_17248)"/>
<g style="mix-blend-mode:multiply">
<path fill-rule="evenodd" clip-rule="evenodd" d="M106.16 144.545C105.883 144.545 105.605 144.545 105.327 144.545C105.327 144.545 79.227 127.886 90.241 99.3786C90.241 99.2861 90.3336 99.101 90.4262 99.0084C90.9815 99.101 91.5368 99.0084 91.9996 98.6382C97.738 94.103 118.193 82.4411 119.118 86.6061C120.044 90.6785 107.549 105.765 104.032 122.795C100.607 139.733 106.16 144.545 106.16 144.545Z" fill="url(#paint26_linear_27_17248)"/>
</g>
<g style="mix-blend-mode:multiply" opacity="0.5">
<path fill-rule="evenodd" clip-rule="evenodd" d="M106.068 144.453C102.643 141.954 98.7561 131.588 102.088 119.37C105.513 107.153 118.933 89.4753 116.249 87.3465C114.676 86.0507 109.77 88.0869 106.068 89.8455C112.454 86.6061 118.47 84.2922 119.026 86.5135C119.951 90.5859 107.456 105.672 103.939 122.702C100.7 138.9 105.605 143.99 106.068 144.453Z" fill="url(#paint27_linear_27_17248)"/>
</g>
<g style="mix-blend-mode:soft-light" opacity="0.3">
<path fill-rule="evenodd" clip-rule="evenodd" d="M67.8428 90.8636C60.9011 92.0669 63.215 109.93 73.3035 120.851C83.4845 131.865 87.3718 130.662 87.3718 130.662C87.3718 130.662 84.4101 110.578 89.5006 101.137C89.5932 101.23 73.8588 88.7349 67.8428 90.8636Z" fill="#9BC672"/>
</g>
<g style="mix-blend-mode:soft-light" opacity="0.3">
<path fill-rule="evenodd" clip-rule="evenodd" d="M63.4001 98.3606C61.0862 105.487 68.9534 114.743 77.7461 114.558C86.6314 114.465 87.0942 101.322 84.6877 96.8797C82.2813 92.437 67.2874 86.0507 63.4001 98.3606Z" fill="#9BC672"/>
</g>
<g style="mix-blend-mode:soft-light">
<path fill-rule="evenodd" clip-rule="evenodd" d="M90.241 99.3785C90.241 99.3785 84.9654 110.855 87.4644 121.869C89.9634 132.883 103.014 142.879 103.014 142.879C103.014 142.879 80.8004 128.441 90.241 99.3785Z" fill="#83EF72"/>
</g>
<g style="mix-blend-mode:soft-light">
<path fill-rule="evenodd" clip-rule="evenodd" d="M85.1505 111.226C83.4845 111.04 82.1887 113.91 83.6696 115.761C85.1505 117.612 86.1686 117.057 86.1686 117.057C86.1686 117.057 86.4463 111.411 85.1505 111.226Z" fill="#83EF72"/>
</g>
<g style="mix-blend-mode:soft-light">
<path fill-rule="evenodd" clip-rule="evenodd" d="M64.2331 108.264C63.7703 105.117 69.4162 108.079 70.0641 109.652C70.7119 111.226 70.2492 114.28 68.6757 114.835C67.0098 115.298 64.4182 109.467 64.2331 108.264Z" fill="#83EF72"/>
</g>
<path fill-rule="evenodd" clip-rule="evenodd" d="M181.13 44.9563C181.13 44.9563 177.613 36.4412 169.375 38.4774C161.138 40.5136 149.754 45.5116 146.052 52.4532C142.442 59.3023 159.565 79.7569 184.925 77.443C210.655 75.0366 217.411 59.1172 218.707 50.9723C219.91 42.8275 212.321 38.9402 208.619 38.6625C204.917 38.3849 200.289 45.2339 200.289 45.2339L208.619 45.0488C208.619 45.0488 212.136 47.1776 211.951 52.2681C211.766 57.3586 197.512 71.9823 179.557 71.3344C161.693 70.7791 157.714 55.9703 158.084 51.9904C158.454 48.1031 171.319 44.7712 173.17 44.8637C175.114 44.8637 181.13 44.9563 181.13 44.9563Z" fill="url(#paint28_linear_27_17248)"/>
<g style="mix-blend-mode:multiply" opacity="0.5">
<path fill-rule="evenodd" clip-rule="evenodd" d="M158.547 50.8797C158.547 50.8797 161.786 43.5679 168.728 41.1615C175.762 38.755 177.335 40.6061 178.168 40.9764C179.001 41.3466 181.037 45.0488 181.037 45.0488C181.037 45.0488 166.414 45.0488 158.547 50.8797Z" fill="url(#paint29_linear_27_17248)"/>
</g>
<g style="mix-blend-mode:multiply" opacity="0.5">
<path fill-rule="evenodd" clip-rule="evenodd" d="M200.289 45.1414C200.289 45.1414 203.898 40.5136 206.305 40.7913C208.711 41.069 211.488 44.6786 211.951 48.1031C212.228 50.2319 211.858 52.4532 211.858 52.4532C211.858 52.4532 210.748 48.4734 208.156 46.8074C205.657 45.1414 200.289 45.1414 200.289 45.1414Z" fill="url(#paint30_linear_27_17248)"/>
</g>
<g style="mix-blend-mode:soft-light" opacity="0.5">
<path fill-rule="evenodd" clip-rule="evenodd" d="M154.567 45.8818C154.567 45.8818 149.569 51.25 150.587 57.7289C151.605 64.2077 166.969 74.9441 184.462 73.1855C202.047 71.427 209.729 62.2641 209.729 62.2641C209.729 62.2641 198.623 73.2781 180.852 72.0749C163.267 70.8717 147.162 55.415 154.567 45.8818Z" fill="#83EF72"/>
</g>
<g style="mix-blend-mode:soft-light" opacity="0.5">
<path fill-rule="evenodd" clip-rule="evenodd" d="M208.063 40.6062C208.063 40.6062 212.691 41.6243 214.727 46.2521C216.764 50.8798 211.488 60.2279 211.488 60.2279C211.488 60.2279 218.522 51.5277 217.041 46.1595C215.468 40.6988 208.619 40.0509 208.063 40.6062Z" fill="#83EF72"/>
</g>
<g style="mix-blend-mode:multiply" opacity="0.5">
<path fill-rule="evenodd" clip-rule="evenodd" d="M164.378 47.4553C164.378 47.4553 172.893 45.7893 175.762 45.4191C178.631 45.0488 180.76 44.9563 180.76 44.9563C180.76 44.9563 176.41 43.3829 172.615 44.1233C169.005 44.6786 164.378 47.4553 164.378 47.4553Z" fill="url(#paint31_linear_27_17248)"/>
</g>
<path opacity="0.5" fill-rule="evenodd" clip-rule="evenodd" d="M203.436 45.0489C203.436 45.0489 208.063 43.6606 209.359 44.401C210.655 45.1414 211.488 48.9362 211.488 48.9362C211.488 48.9362 210.748 44.9563 203.436 45.0489Z" fill="url(#paint32_linear_27_17248)"/>
<path fill-rule="evenodd" clip-rule="evenodd" d="M313.206 25.4273C313.113 23.9464 316.26 24.4092 318.574 25.4273C320.888 26.4454 319.962 30.9806 319.222 31.0732C318.481 31.1657 313.206 25.4273 313.206 25.4273Z" fill="#83EF72"/>
<path fill-rule="evenodd" clip-rule="evenodd" d="M327.459 17.4676C326.534 16.6346 327.552 20.6144 328.2 21.4474C328.94 22.2804 331.809 22.373 331.809 22.373C331.809 22.373 329.403 19.1336 327.459 17.4676Z" fill="#83EF72"/>
<path fill-rule="evenodd" clip-rule="evenodd" d="M327.274 44.8638C327.274 44.8638 329.31 44.216 329.495 43.9383C329.773 43.5681 331.161 39.3105 331.161 39.3105C331.161 39.3105 329.958 43.0127 327.274 44.8638Z" fill="#83EF72"/>
<defs>
<linearGradient id="paint0_linear_27_17248" x1="327.257" y1="43.3856" x2="330.871" y2="31.1614" gradientUnits="userSpaceOnUse">
<stop stop-color="#1D6654"/>
<stop offset="0.197" stop-color="#226B50"/>
<stop offset="0.4424" stop-color="#327845"/>
<stop offset="0.7136" stop-color="#4B8D34"/>
<stop offset="1" stop-color="#6EAB1B"/>
</linearGradient>
<linearGradient id="paint1_linear_27_17248" x1="12.9841" y1="44.8295" x2="122.312" y2="44.8295" gradientUnits="userSpaceOnUse">
<stop stop-color="#3D9138"/>
<stop offset="0.3234" stop-color="#429034"/>
<stop offset="0.7256" stop-color="#528C27"/>
<stop offset="0.9946" stop-color="#60881B"/>
</linearGradient>
<linearGradient id="paint2_linear_27_17248" x1="34.0746" y1="50.6387" x2="34.0746" y2="37.1223" gradientUnits="userSpaceOnUse">
<stop offset="0.00540541" stop-color="#B464A5"/>
<stop offset="0.1992" stop-color="#BB78A4"/>
<stop offset="0.5028" stop-color="#C491A2"/>
<stop offset="0.7786" stop-color="#CAA1A1"/>
<stop offset="1" stop-color="#CCA6A1"/>
</linearGradient>
<linearGradient id="paint3_linear_27_17248" x1="42.8007" y1="42.8788" x2="140.458" y2="42.8788" gradientUnits="userSpaceOnUse">
<stop stop-color="#29BE20"/>
<stop offset="0.3234" stop-color="#279414"/>
<stop offset="0.7256" stop-color="#2F6F00"/>
<stop offset="0.9946" stop-color="#006F0B"/>
</linearGradient>
<linearGradient id="paint4_linear_27_17248" x1="79.2618" y1="38.814" x2="79.2618" y2="27.0422" gradientUnits="userSpaceOnUse">
<stop offset="0.00540541" stop-color="#B464A5"/>
<stop offset="0.1992" stop-color="#BB78A4"/>
<stop offset="0.5028" stop-color="#C491A2"/>
<stop offset="0.7786" stop-color="#CAA1A1"/>
<stop offset="1" stop-color="#CCA6A1"/>
</linearGradient>
<linearGradient id="paint5_linear_27_17248" x1="64.0088" y1="57.678" x2="64.0088" y2="43.8367" gradientUnits="userSpaceOnUse">
<stop offset="0.00540541" stop-color="#B464A5"/>
<stop offset="0.1992" stop-color="#BB78A4"/>
<stop offset="0.5028" stop-color="#C491A2"/>
<stop offset="0.7786" stop-color="#CAA1A1"/>
<stop offset="1" stop-color="#CCA6A1"/>
</linearGradient>
<linearGradient id="paint6_linear_27_17248" x1="87.7159" y1="39.148" x2="133.023" y2="39.148" gradientUnits="userSpaceOnUse">
<stop stop-color="#1EA017"/>
<stop offset="0.3234" stop-color="#279913"/>
<stop offset="0.7256" stop-color="#107400"/>
<stop offset="0.9946" stop-color="#006C04"/>
</linearGradient>
<linearGradient id="paint7_linear_27_17248" x1="136.071" y1="61.4046" x2="149.396" y2="16.3287" gradientUnits="userSpaceOnUse">
<stop stop-color="#008F6C"/>
<stop offset="0.4424" stop-color="#008E27"/>
<stop offset="1" stop-color="#5EA400"/>
</linearGradient>
<linearGradient id="paint8_linear_27_17248" x1="138.889" y1="55.2753" x2="138.889" y2="33.074" gradientUnits="userSpaceOnUse">
<stop offset="0.00540541" stop-color="#C7BDBB"/>
<stop offset="0.1992" stop-color="#D8D0CF"/>
<stop offset="0.5028" stop-color="#EDE8E8"/>
<stop offset="0.7786" stop-color="#FAF7F8"/>
<stop offset="1" stop-color="#FEFCFD"/>
</linearGradient>
<linearGradient id="paint9_linear_27_17248" x1="106.375" y1="117.456" x2="110.545" y2="103.35" gradientUnits="userSpaceOnUse">
<stop stop-color="#1D6654"/>
<stop offset="0.197" stop-color="#226B50"/>
<stop offset="0.4424" stop-color="#327845"/>
<stop offset="0.7136" stop-color="#4B8D34"/>
<stop offset="1" stop-color="#6EAB1B"/>
</linearGradient>
<linearGradient id="paint10_linear_27_17248" x1="98.1034" y1="96.1039" x2="118.57" y2="26.8696" gradientUnits="userSpaceOnUse">
<stop stop-color="#066600"/>
<stop offset="0.305" stop-color="#29A615"/>
<stop offset="1" stop-color="#8CF200"/>
</linearGradient>
<linearGradient id="paint11_linear_27_17248" x1="235.064" y1="45.7079" x2="246.101" y2="8.37123" gradientUnits="userSpaceOnUse">
<stop stop-color="#1D6654"/>
<stop offset="0.197" stop-color="#226B50"/>
<stop offset="0.4424" stop-color="#327845"/>
<stop offset="0.7136" stop-color="#4B8D34"/>
<stop offset="1" stop-color="#6EAB1B"/>
</linearGradient>
<linearGradient id="paint12_linear_27_17248" x1="287.858" y1="63.7533" x2="307.954" y2="7.52855" gradientUnits="userSpaceOnUse">
<stop stop-color="#1D6654"/>
<stop offset="0.197" stop-color="#226B50"/>
<stop offset="0.4424" stop-color="#327845"/>
<stop offset="0.7136" stop-color="#4B8D34"/>
<stop offset="1" stop-color="#6EAB1B"/>
</linearGradient>
<linearGradient id="paint13_linear_27_17248" x1="313.366" y1="50.9345" x2="328.509" y2="-0.290184" gradientUnits="userSpaceOnUse">
<stop stop-color="#3D9138"/>
<stop offset="0.2659" stop-color="#429435"/>
<stop offset="0.5972" stop-color="#529C2C"/>
<stop offset="0.962" stop-color="#6BA91D"/>
<stop offset="1" stop-color="#6EAB1B"/>
</linearGradient>
<linearGradient id="paint14_linear_27_17248" x1="272.29" y1="83.0391" x2="272.29" y2="21.5623" gradientUnits="userSpaceOnUse">
<stop stop-color="#00670F"/>
<stop offset="0.2226" stop-color="#007607"/>
<stop offset="0.4999" stop-color="#418B2F"/>
<stop offset="0.8051" stop-color="#56B00D"/>
<stop offset="1" stop-color="#66B100"/>
</linearGradient>
<linearGradient id="paint15_linear_27_17248" x1="263.59" y1="83.7808" x2="263.59" y2="28.5476" gradientUnits="userSpaceOnUse">
<stop offset="0.00540541" stop-color="#B464A5"/>
<stop offset="0.1992" stop-color="#BB78A4"/>
<stop offset="1" stop-color="#00381E"/>
</linearGradient>
<linearGradient id="paint16_linear_27_17248" x1="289.499" y1="81.1775" x2="289.499" y2="21.8184" gradientUnits="userSpaceOnUse">
<stop offset="0.00540541" stop-color="#C7BDBB"/>
<stop offset="0.1992" stop-color="#D8D0CF"/>
<stop offset="0.5028" stop-color="#EDE8E8"/>
<stop offset="0.7786" stop-color="#FAF7F8"/>
<stop offset="1" stop-color="#FEFCFD"/>
</linearGradient>
<linearGradient id="paint17_linear_27_17248" x1="248.533" y1="50.5835" x2="266.547" y2="-10.3496" gradientUnits="userSpaceOnUse">
<stop stop-color="#099E00"/>
<stop offset="0.2079" stop-color="#1D940C"/>
<stop offset="0.467" stop-color="#48B31B"/>
<stop offset="0.7519" stop-color="#5CB80B"/>
<stop offset="1" stop-color="#78CB00"/>
</linearGradient>
<linearGradient id="paint18_linear_27_17248" x1="250.731" y1="60.1839" x2="250.731" y2="6.84919" gradientUnits="userSpaceOnUse">
<stop offset="0.00540541" stop-color="#B464A5"/>
<stop offset="0.1992" stop-color="#BB78A4"/>
<stop offset="0.5028" stop-color="#C491A2"/>
<stop offset="0.7786" stop-color="#CAA1A1"/>
<stop offset="1" stop-color="#CCA6A1"/>
</linearGradient>
<linearGradient id="paint19_linear_27_17248" x1="268.407" y1="16.1342" x2="268.407" y2="-2.24787" gradientUnits="userSpaceOnUse">
<stop offset="0.00540541" stop-color="#B464A5"/>
<stop offset="0.1992" stop-color="#BB78A4"/>
<stop offset="0.5028" stop-color="#C491A2"/>
<stop offset="0.7786" stop-color="#CAA1A1"/>
<stop offset="1" stop-color="#CCA6A1"/>
</linearGradient>
<linearGradient id="paint20_linear_27_17248" x1="276.009" y1="53.4086" x2="276.009" y2="-6.85308" gradientUnits="userSpaceOnUse">
<stop offset="0.00540541" stop-color="#C7BDBB"/>
<stop offset="0.1992" stop-color="#D8D0CF"/>
<stop offset="0.5028" stop-color="#EDE8E8"/>
<stop offset="0.7786" stop-color="#FAF7F8"/>
<stop offset="1" stop-color="#FEFCFD"/>
</linearGradient>
<linearGradient id="paint21_linear_27_17248" x1="310.488" y1="36.7072" x2="310.488" y2="8.16387" gradientUnits="userSpaceOnUse">
<stop offset="0.00540541" stop-color="#B464A5"/>
<stop offset="0.1992" stop-color="#BB78A4"/>
<stop offset="0.5028" stop-color="#C491A2"/>
<stop offset="0.7786" stop-color="#CAA1A1"/>
<stop offset="1" stop-color="#CCA6A1"/>
</linearGradient>
<linearGradient id="paint22_linear_27_17248" x1="332.401" y1="61.7842" x2="332.401" y2="41.0271" gradientUnits="userSpaceOnUse">
<stop offset="0.00540541" stop-color="#B464A5"/>
<stop offset="0.1992" stop-color="#BB78A4"/>
<stop offset="0.5028" stop-color="#C491A2"/>
<stop offset="0.7786" stop-color="#CAA1A1"/>
<stop offset="1" stop-color="#CCA6A1"/>
</linearGradient>
<linearGradient id="paint23_linear_27_17248" x1="331.219" y1="53.6259" x2="331.219" y2="-2.33861" gradientUnits="userSpaceOnUse">
<stop offset="0.00540541" stop-color="#C7BDBB"/>
<stop offset="0.1992" stop-color="#D8D0CF"/>
<stop offset="0.5028" stop-color="#EDE8E8"/>
<stop offset="0.7786" stop-color="#FAF7F8"/>
<stop offset="1" stop-color="#FEFCFD"/>
</linearGradient>
<linearGradient id="paint24_linear_27_17248" x1="119.351" y1="99.3399" x2="119.351" y2="34.0744" gradientUnits="userSpaceOnUse">
<stop offset="0.00540541" stop-color="#C7BDBB"/>
<stop offset="0.1992" stop-color="#D8D0CF"/>
<stop offset="0.5028" stop-color="#EDE8E8"/>
<stop offset="0.7786" stop-color="#FAF7F8"/>
<stop offset="1" stop-color="#FEFCFD"/>
</linearGradient>
<linearGradient id="paint25_linear_27_17248" x1="81.0941" y1="131.211" x2="96.7199" y2="81.9111" gradientUnits="userSpaceOnUse">
<stop stop-color="#088E00"/>
<stop offset="0.2659" stop-color="#299518"/>
<stop offset="0.5972" stop-color="#479F19"/>
<stop offset="1" stop-color="#7AD300"/>
</linearGradient>
<linearGradient id="paint26_linear_27_17248" x1="103.338" y1="137.537" x2="103.338" y2="78.5605" gradientUnits="userSpaceOnUse">
<stop offset="0.00540541" stop-color="#C7BDBB"/>
<stop offset="0.1992" stop-color="#D8D0CF"/>
<stop offset="0.5028" stop-color="#EDE8E8"/>
<stop offset="0.7786" stop-color="#FAF7F8"/>
<stop offset="1" stop-color="#FEFCFD"/>
</linearGradient>
<linearGradient id="paint27_linear_27_17248" x1="109.991" y1="137.486" x2="109.991" y2="78.5691" gradientUnits="userSpaceOnUse">
<stop offset="0.00540541" stop-color="#B464A5"/>
<stop offset="0.1992" stop-color="#BB78A4"/>
<stop offset="0.5028" stop-color="#C491A2"/>
<stop offset="0.7786" stop-color="#CAA1A1"/>
<stop offset="1" stop-color="#CCA6A1"/>
</linearGradient>
<linearGradient id="paint28_linear_27_17248" x1="176.395" y1="72.2499" x2="189.788" y2="26.9457" gradientUnits="userSpaceOnUse">
<stop stop-color="#078200"/>
<stop offset="0.2659" stop-color="#22A30E"/>
<stop offset="0.5972" stop-color="#42A012"/>
<stop offset="1" stop-color="#6BB803"/>
</linearGradient>
<linearGradient id="paint29_linear_27_17248" x1="168.668" y1="51.9507" x2="173.032" y2="37.1888" gradientUnits="userSpaceOnUse">
<stop stop-color="#CCA6A1"/>
<stop offset="0.2214" stop-color="#CAA1A1"/>
<stop offset="0.4972" stop-color="#C491A2"/>
<stop offset="0.8008" stop-color="#BB78A4"/>
<stop offset="0.9946" stop-color="#B464A5"/>
</linearGradient>
<linearGradient id="paint30_linear_27_17248" x1="205.908" y1="49.5029" x2="208.64" y2="40.2609" gradientUnits="userSpaceOnUse">
<stop stop-color="#CCA6A1"/>
<stop offset="0.2214" stop-color="#CAA1A1"/>
<stop offset="0.4972" stop-color="#C491A2"/>
<stop offset="0.8008" stop-color="#BB78A4"/>
<stop offset="0.9946" stop-color="#B464A5"/>
</linearGradient>
<linearGradient id="paint31_linear_27_17248" x1="164.368" y1="45.639" x2="180.715" y2="45.639" gradientUnits="userSpaceOnUse">
<stop stop-color="#CCA6A1"/>
<stop offset="0.2214" stop-color="#CAA1A1"/>
<stop offset="0.4972" stop-color="#C491A2"/>
<stop offset="0.8008" stop-color="#BB78A4"/>
<stop offset="0.9946" stop-color="#B464A5"/>
</linearGradient>
<linearGradient id="paint32_linear_27_17248" x1="203.471" y1="46.5648" x2="211.515" y2="46.5648" gradientUnits="userSpaceOnUse">
<stop stop-color="#CCA6A1"/>
<stop offset="0.2214" stop-color="#CAA1A1"/>
<stop offset="0.4972" stop-color="#C491A2"/>
<stop offset="0.8008" stop-color="#BB78A4"/>
<stop offset="0.9946" stop-color="#B464A5"/>
</linearGradient>
</defs>
</svg>
