<svg width="117" height="76" viewBox="0 0 117 76" fill="none" xmlns="http://www.w3.org/2000/svg">
<path d="M10.1014 38.2408C10.1218 38.2612 10.1422 38.2612 10.1626 38.2816C10.3463 38.3632 10.5708 38.3835 10.7544 38.302L66.404 16.0967C66.5876 16.0356 66.7101 15.8928 66.7917 15.7297C66.8325 15.6685 67.5876 14.0985 68.159 12.3857C69.0773 9.69413 69.0365 8.14446 68.0161 7.55313C67.9957 7.53274 67.9549 7.53274 67.9345 7.51235C67.7508 7.4104 67.5468 7.4104 67.3427 7.47157C67.1386 7.53274 66.9958 7.67548 66.9142 7.85899C66.3224 9.16398 65.0571 10.4486 63.9348 11.4069C64.6694 9.91843 65.9142 7.85899 67.9753 5.61604C68.1998 5.37135 68.2406 4.98393 68.0569 4.69847C67.9957 4.59651 67.9141 4.53534 67.8121 4.47417C67.6284 4.35183 67.3835 4.33144 67.1795 4.413C64.9143 5.20823 63.3634 6.81908 61.8533 8.38914C61.3023 8.96008 60.7309 9.5514 60.1187 10.1019C60.5268 8.18524 60.2207 6.32971 60.2003 6.20736C60.1595 5.98307 60.037 5.79955 59.8534 5.6976C59.7718 5.63643 59.6493 5.59565 59.5473 5.59565C59.2208 5.55487 58.8943 5.75877 58.7718 6.06463C58.7718 6.06463 58.4861 6.73751 57.6086 7.75704C58.0576 6.71712 58.3229 5.94229 58.3433 5.86072C58.4453 5.53448 58.3025 5.16745 58.0168 5.00432C57.9964 5.00432 57.9759 4.98393 57.9759 4.98393C57.6494 4.82081 57.2413 4.92276 57.0372 5.20823C55.5883 7.2065 53.2416 8.30758 51.8335 8.81734C52.2212 6.41127 51.8743 3.69933 51.8539 3.5566C51.8131 3.33231 51.6906 3.1284 51.507 3.02645C51.3641 2.94489 51.2009 2.9041 51.0172 2.9245C50.6091 2.98567 50.3234 3.3527 50.3642 3.76051C50.3642 3.84207 50.5274 5.6976 48.1806 7.30845C48.5888 5.59565 50.507 2.94489 52.0784 1.27287C52.3436 0.9874 52.3436 0.5592 52.0784 0.253342C52.0375 0.192171 51.9763 0.15139 51.9151 0.110609C51.6498 -0.0525147 51.3233 -0.0321243 51.0784 0.15139C50.9764 0.232952 48.752 1.90497 43.2014 6.81908C43.1197 5.28979 44.6707 3.63816 44.6911 3.61777C44.9768 3.3323 44.9564 2.86332 44.6707 2.57786C44.6298 2.53708 44.589 2.4963 44.5278 2.4759C44.2421 2.31278 43.8748 2.33317 43.6299 2.57786C43.5483 2.65942 42.0178 4.14792 40.3036 7.59392C39.5485 5.86072 38.0792 3.86246 36.4875 2.9041C35.6304 2.37395 34.7733 2.19044 33.9775 2.35356C33.6918 2.41473 33.4673 2.61864 33.4061 2.88371C33.3244 3.14879 33.4061 3.45465 33.6305 3.63816C34.7121 4.61691 35.2427 5.6976 35.2427 6.92103C35.2427 8.85813 33.9162 10.734 32.9775 11.8351C32.7122 10.4078 32.4469 8.04251 33.1204 6.16658C33.2224 5.86072 33.1408 5.51409 32.8755 5.33057C32.8551 5.31018 32.8347 5.28979 32.7939 5.28979C32.549 5.14706 32.2225 5.14706 31.9776 5.31018C29.9981 6.65595 28.8757 9.87765 28.3247 12.141C27.4677 9.83687 26.6718 6.65595 27.5289 4.75964C27.6717 4.47417 27.5901 4.12753 27.3656 3.90324C27.3248 3.86246 27.284 3.84207 27.2432 3.80129C27.0187 3.65855 26.733 3.65855 26.5085 3.7809C21.5089 6.41127 21.2844 11.7944 21.6517 14.9753C21.0395 14.4247 20.2844 13.8334 19.4478 13.344C17.7132 12.3041 16.101 11.8963 14.6317 12.1818C14.3256 12.2429 14.0807 12.4672 14.0399 12.7731C13.9787 13.079 14.1216 13.3848 14.3869 13.5479C15.5909 14.282 16.4479 16.321 16.9989 18.4009C16.3459 17.4017 15.5704 16.4026 14.6725 15.6074C14.6317 15.587 14.6113 15.5462 14.5705 15.5258C14.4277 15.4443 14.2848 15.4035 14.1216 15.4239C13.9175 15.4443 13.7338 15.5462 13.6114 15.6889C13.4277 15.9132 13.2849 16.2395 13.2032 16.6065C13.0604 15.22 13.0196 13.813 13.0808 12.2837C13.1012 11.9983 12.9584 11.7536 12.7135 11.6108C12.6931 11.5905 12.6727 11.5904 12.6523 11.5904C12.387 11.4681 12.0605 11.4885 11.836 11.6924C8.0199 14.8733 8.16275 21.9284 8.48926 25.4356C7.7138 24.7831 6.69346 24.0286 5.61189 23.3761C3.5712 22.1323 1.85703 21.7041 0.550986 22.0508C0.224476 22.1323 0 22.4382 0 22.7848C0 23.0499 0.142848 23.2742 0.367324 23.4169C0.428544 23.4577 0.510172 23.4781 0.571393 23.4985C0.959123 23.6004 1.34685 23.7636 1.73458 23.9879C6.32613 26.761 9.73408 37.731 9.75449 37.833C9.83612 37.9961 9.93815 38.1592 10.1014 38.2408Z" fill="url(#paint0_linear_17_33)"/>
<path d="M12.5094 28.107C12.5094 28.107 10.7136 18.2176 15.0399 14.6289C14.6521 22.7647 18.0805 27.2302 18.0805 27.2302C18.0805 27.2302 15.4276 19.5838 16.6928 18.0545C19.1621 20.2363 20.6518 24.3347 20.6518 24.3347C20.6518 24.3347 20.0396 16.831 17.2438 15.1182C20.7334 14.4861 24.4678 19.0128 24.4678 19.0128C24.4678 19.0128 21.917 10.7751 28.0391 7.55337C26.5902 10.7343 29.59 16.7087 29.59 16.7087C29.59 16.7087 30.3858 10.6527 32.9979 8.87876C31.9776 11.713 33.1408 15.5261 33.1408 15.5261C33.1408 15.5261 38.9771 10.3265 34.5488 6.32995C37.0997 5.84057 40.0791 10.8362 39.875 12.3859C41.6913 8.12431 43.5075 6.37073 43.5075 6.37073C43.5075 6.37073 41.0995 8.85837 42.3443 10.877C47.9153 5.94253 50.0989 4.27051 50.0989 4.27051C50.0989 4.27051 45.6706 9.0011 46.4665 11.2644C50.0581 9.49047 49.7316 6.8601 49.7316 6.8601C49.7316 6.8601 50.2009 10.2857 49.4663 12.4675C49.4663 12.4675 53.4864 11.5499 55.5883 8.63407C55.5883 8.63407 54.2823 12.7529 52.1396 14.323C56.3026 11.5907 57.2209 9.26618 57.2209 9.26618C57.2209 9.26618 57.8943 13.2219 55.8128 14.9143C59.4044 12.9772 60.8329 9.40891 64.3225 8.18548C60.5064 12.3247 59.7105 15.7911 59.7105 15.7911C59.7105 15.7911 63.3225 13.4258 64.4857 10.8974C65.9346 11.6519 63.1593 17.3816 63.1593 17.3816L13.4073 37.3235C13.4073 37.3235 9.71367 25.2727 4.71399 24.0289C7.55055 23.2337 12.5094 28.107 12.5094 28.107Z" fill="#007A4D"/>
<path d="M32.7735 50.8439C32.7939 50.8235 32.7939 50.8031 32.8143 50.8031C32.9571 50.6808 33.1408 50.5992 33.3245 50.6196L87.0966 54.0248C87.2598 54.0452 87.4231 54.1063 87.5455 54.2287C87.5863 54.2695 88.6883 55.4113 89.6474 56.7163C91.178 58.7554 91.5861 60.0808 90.8923 60.8964C90.8718 60.9168 90.8514 60.9372 90.831 60.9576C90.7086 61.0799 90.5249 61.1615 90.3413 61.1615C90.1576 61.1615 89.9739 61.0799 89.8515 60.9372C88.974 59.9992 87.5251 59.2448 86.3007 58.735C87.3415 59.7953 88.974 61.2226 91.3616 62.548C91.6269 62.6907 91.7698 63.017 91.6881 63.3025C91.6677 63.4044 91.6065 63.486 91.5453 63.5675C91.4228 63.7103 91.2188 63.8122 91.0147 63.7918C88.8516 63.751 87.0762 62.7927 85.362 61.8955C84.7294 61.5489 84.0764 61.2226 83.4029 60.9168C84.2804 62.4257 84.5457 64.1181 84.5661 64.22C84.5865 64.4239 84.5253 64.6074 84.4029 64.7502C84.3416 64.8317 84.26 64.8929 84.1784 64.9337C83.9131 65.056 83.5866 64.9745 83.3825 64.7502C83.3825 64.7502 82.954 64.2608 81.9132 63.6287C82.5867 64.3832 83.0356 64.9949 83.0764 65.056C83.2601 65.3007 83.2397 65.6474 83.0356 65.892C83.0152 65.9124 83.0152 65.9124 82.9948 65.9328C82.7703 66.1571 82.403 66.1979 82.1173 65.994C80.3215 64.7094 78.0155 64.4239 76.6483 64.3628C77.6482 66.2999 78.1175 68.7263 78.138 68.8487C78.1788 69.0526 78.1175 69.2565 77.9951 69.3992C77.8931 69.5012 77.7706 69.5827 77.6074 69.6235C77.2401 69.6847 76.8931 69.4604 76.8115 69.0933C76.7911 69.0322 76.4034 67.4009 73.9545 66.6873C74.7912 68.033 77.1788 69.7662 78.9746 70.745C79.2807 70.9081 79.4032 71.2955 79.2603 71.6014C79.2399 71.6626 79.1991 71.7237 79.1583 71.7645C78.9746 71.9684 78.6889 72.05 78.4237 71.9684C78.3216 71.9276 75.934 71.112 69.8324 68.4816C70.1997 69.807 71.9751 70.7858 71.9955 70.7858C72.322 70.9489 72.4444 71.3567 72.2812 71.6829C72.2608 71.7237 72.22 71.7849 72.1996 71.8257C72.0159 72.05 71.669 72.1315 71.4037 71.9888C71.3221 71.948 69.5875 71.0916 67.1591 68.6448C66.9958 70.3372 66.302 72.4578 65.2204 73.722C64.6286 74.4153 63.9552 74.8027 63.2409 74.9046C62.996 74.9454 62.7308 74.8231 62.5879 74.6192C62.4451 74.4153 62.4451 74.1298 62.5675 73.9055C63.2205 72.7636 63.3634 71.7033 63.0165 70.643C62.4655 68.9914 60.8125 67.7476 59.7105 67.0747C59.8738 68.3797 60.3023 70.4595 61.4247 71.8665C61.6084 72.0908 61.6084 72.417 61.4451 72.6617C61.4247 72.6821 61.4247 72.7025 61.4043 72.7229C61.2411 72.9268 60.9554 73.0083 60.7105 72.9268C58.629 72.3354 56.7924 69.8886 55.67 68.1146C55.5884 70.3168 55.7924 73.2734 57.0576 74.6396C57.2617 74.8435 57.2821 75.1697 57.1597 75.4144C57.1393 75.4552 57.1189 75.496 57.0781 75.5367C56.9352 75.7203 56.6903 75.8018 56.4659 75.761C51.4458 74.925 49.752 70.378 49.1806 67.5641C48.8133 68.1962 48.3235 68.9098 47.7521 69.5827C46.5685 70.9489 45.3033 71.7441 43.9768 71.9276C43.6911 71.9684 43.4259 71.8257 43.3034 71.581C43.1606 71.3363 43.2014 71.0304 43.385 70.8265C44.2217 69.8682 44.3646 67.8903 44.2421 65.9532C43.9564 66.9931 43.5687 68.0534 43.0381 68.9914C43.0177 69.0322 42.9973 69.0526 42.9769 69.0933C42.8953 69.1953 42.7728 69.2769 42.63 69.3176C42.4463 69.3584 42.2627 69.338 42.1198 69.2361C41.8953 69.0934 41.6913 68.8691 41.5076 68.5632C41.7525 69.7051 42.0994 70.9081 42.5892 72.1927C42.6708 72.417 42.63 72.6821 42.4667 72.8656C42.4463 72.886 42.4463 72.886 42.4259 72.9064C42.2423 73.0899 41.9566 73.1511 41.7117 73.0491C37.5283 71.3975 35.6712 65.3211 34.9774 62.2422C34.4876 63.017 33.855 63.9549 33.1 64.8113C31.6919 66.4426 30.3655 67.299 29.141 67.3602C28.8349 67.3805 28.5492 67.1766 28.4676 66.8912C28.4064 66.6669 28.4472 66.4222 28.5901 66.2591C28.6309 66.2183 28.6921 66.1571 28.7533 66.1367C29.0594 65.9532 29.3451 65.7085 29.6104 65.3823C32.7531 61.7324 32.5898 51.4148 32.5898 51.3129C32.6102 51.1293 32.6714 50.9662 32.7735 50.8439Z" fill="url(#paint1_linear_17_33)"/>
<path d="M36.7528 60.4683C36.7528 60.4683 38.0588 69.9091 43.0177 71.8666C40.2628 64.6483 42.0381 59.6119 42.0381 59.6119C42.0381 59.6119 41.9157 67.2787 43.5074 68.2982C45.0992 65.5863 45.2216 61.4674 45.2216 61.4674C45.2216 61.4674 46.895 68.4206 44.8747 70.7655C48.2214 70.3169 50.2417 65.1377 50.2417 65.1377C50.2417 65.1377 50.3846 73.3143 56.8535 74.4154C54.6088 71.9685 55.5475 65.7087 55.5475 65.7087C55.5475 65.7087 58.0576 70.9286 60.9349 71.7442C59.1595 69.4809 59.0779 65.7087 59.0779 65.7087C59.0779 65.7087 65.8734 68.6653 63.0572 73.5794C65.5061 73.2735 66.7101 67.8904 66.057 66.5447C68.9344 69.8479 71.118 70.8878 71.118 70.8878C71.118 70.8878 68.2202 69.3585 68.7508 67.1768C75.2197 69.9907 77.689 70.8267 77.689 70.8267C77.689 70.8267 72.3015 67.87 72.3424 65.5863C76.0972 66.1369 76.587 68.5837 76.587 68.5837C76.587 68.5837 75.9952 65.362 74.6892 63.6084C74.6892 63.6084 78.5869 63.2618 81.3418 65.2397C81.3418 65.2397 78.9542 61.916 76.5666 61.1412C81.1377 62.385 82.6478 64.1794 82.6478 64.1794C82.6478 64.1794 82.0764 60.4071 79.7092 59.5099C83.5049 60.2032 85.8517 62.9763 89.3821 63.0579C84.7089 60.4479 82.9743 57.5525 82.9743 57.5525C82.9743 57.5525 86.9129 58.6128 88.7087 60.5499C89.7902 59.4488 85.5864 55.1056 85.5864 55.1056L34.8141 51.9043C34.8141 51.9043 35.0386 63.8531 30.896 66.4427C33.7121 66.3204 36.7528 60.4683 36.7528 60.4683Z" fill="#007A4D"/>
<path d="M87.8924 63.7102C84.9742 63.4451 82.1989 61.0391 79.2807 60.8759C76.3625 60.7128 73.3627 62.7926 70.4241 62.7111C67.5059 62.6295 64.6082 60.3662 61.69 60.3662C58.7718 60.3662 55.874 62.6091 52.9558 62.7111C50.0377 62.7926 47.0174 60.7128 44.0993 60.8759C41.1811 61.0391 38.4057 63.4655 35.4876 63.7102C33.406 63.8937 31.4266 61.61 29.4471 61.2633C27.4064 60.9167 24.8556 62.4256 22.9781 61.61C21.0803 60.774 20.3252 57.797 18.6723 56.5328C17.0193 55.2482 14.0807 55.3501 12.7747 53.6985C11.4891 52.0468 12.1421 49.0494 11.285 47.0716C10.4483 45.1549 7.83623 43.7479 7.46891 41.5661C7.46891 41.5254 7.4485 41.403 7.4485 41.3622C7.4485 41.3215 7.42809 41.1991 7.42809 41.1787C7.42809 41.1379 7.40769 41.036 7.40769 41.0156C7.01996 38.7115 9.10146 36.387 9.42797 34.144C9.75448 31.8807 8.46884 29.026 9.44837 26.9666C10.4075 24.9479 13.3869 24.2954 14.897 22.603C16.3459 20.9514 16.7132 17.7908 18.6111 16.5674C20.4069 15.3848 23.2842 16.3839 25.4066 15.6702C27.4268 14.977 29.1614 12.367 31.4062 12.1835C34.7529 11.898 38.2425 13.8555 41.6096 13.6516C44.9563 13.4477 48.2418 11.1028 51.5886 11.0008C54.9557 10.8989 58.3433 13.0602 61.69 13.0602C65.0571 13.0602 68.4447 10.8989 71.7914 11.0008C75.1381 11.1028 78.4236 13.4477 81.7703 13.6516C85.1171 13.8555 88.6271 11.8776 91.9738 12.1835C94.2185 12.3874 95.9531 14.9973 97.9734 15.6702C100.116 16.4043 102.973 15.3848 104.769 16.5674C106.667 17.8112 107.034 20.9718 108.483 22.603C109.993 24.3158 112.972 24.9479 113.932 26.9666C114.911 29.026 113.625 31.8807 113.952 34.144C114.279 36.3666 116.36 38.6911 115.972 41.0156C115.972 41.0564 115.952 41.1583 115.952 41.1787C115.952 41.2195 115.931 41.3418 115.931 41.3622C115.931 41.403 115.911 41.5254 115.911 41.5661C115.564 43.7479 112.952 45.1549 112.095 47.0716C111.238 49.0494 111.891 52.0468 110.605 53.6985C109.299 55.3705 106.361 55.2685 104.708 56.5328C103.055 57.797 102.3 60.774 100.402 61.61C98.5244 62.4256 95.9735 60.9167 93.9329 61.2633C91.933 61.61 89.9535 63.8733 87.8924 63.7102Z" fill="url(#paint2_linear_17_33)"/>
<path opacity="0.5" d="M113.34 38.8541C113.34 38.8745 113.319 38.9765 113.319 39.0172C113.319 39.0376 113.299 39.16 113.299 39.2008C113.299 39.2211 113.279 39.3639 113.279 39.3843C113.013 40.8728 111.564 41.9739 110.503 43.1565C110.115 43.5847 109.789 44.0129 109.564 44.4819C109.32 44.9917 109.197 45.583 109.136 46.2151C108.932 47.7851 109.014 49.5387 108.116 50.6398C106.85 52.1895 103.973 52.0875 102.361 53.2702C100.769 54.4528 100.014 57.2055 98.157 57.9804C96.3204 58.7552 93.8308 57.3483 91.8309 57.6541C89.8923 57.96 87.9536 60.0806 85.9333 59.9175C83.0968 59.6728 80.3827 57.4298 77.5461 57.2871C74.6891 57.124 71.771 59.0611 68.914 58.9795C66.057 58.898 63.2409 56.8181 60.3839 56.8181C57.5269 56.8181 54.7108 58.898 51.8538 58.9795C48.9969 59.0611 46.0583 57.124 43.2217 57.2871C40.3648 57.4502 37.6711 59.6932 34.8345 59.9175C32.8142 60.0806 30.8756 57.96 28.9369 57.6541C26.937 57.3483 24.4474 58.7348 22.6108 57.9804C20.7537 57.2055 20.0191 54.4528 18.407 53.2702C16.7948 52.0875 13.9379 52.1895 12.6522 50.6398C11.387 49.1105 12.04 46.3374 11.2033 44.4819C10.3871 42.7079 7.8362 41.4029 7.48928 39.3843C7.48928 39.3639 7.46887 39.2211 7.46887 39.2008C7.46887 39.16 7.44847 39.058 7.44847 39.0172C7.44847 38.9765 7.42806 38.8949 7.42806 38.8541C7.06074 36.7131 9.08102 34.5517 9.40753 32.4923C9.73404 30.3921 8.46881 27.7413 9.42793 25.8246C10.3666 23.9487 13.2644 23.3574 14.7337 21.7669C16.1622 20.2376 16.5091 17.3014 18.3661 16.1595C20.1211 15.0584 22.9169 15.9964 24.9984 15.3235C26.9574 14.6914 28.6512 12.2649 30.8552 12.0814C34.1203 11.8163 37.5282 13.6311 40.7933 13.4476C44.0584 13.2641 47.2623 11.0823 50.5274 11.0007C53.7925 10.9192 57.0984 12.9174 60.3839 12.9174C63.6694 12.9174 66.9753 10.9192 70.2404 11.0007C73.5055 11.0823 76.7094 13.2845 79.9745 13.4476C83.2396 13.6311 86.668 11.8163 89.9127 12.0814C92.1166 12.2649 93.8104 14.6914 95.7694 15.3235C97.8509 15.9964 100.647 15.0584 102.402 16.1595C104.259 17.3014 104.606 20.2376 106.034 21.7669C107.503 23.3574 110.401 23.9487 111.34 25.8246C111.646 26.4159 111.728 27.1092 111.707 27.8025C111.687 28.4958 111.564 29.2094 111.462 29.9435C111.34 30.8203 111.238 31.6971 111.36 32.4923C111.707 34.5517 113.727 36.7131 113.34 38.8541Z" fill="url(#paint3_linear_17_33)"/>
<path d="M112.503 38.63C112.503 38.6708 112.483 38.7523 112.483 38.7931C112.483 38.8339 112.462 38.9358 112.462 38.9766C112.462 38.997 112.442 39.1193 112.442 39.1601C112.177 40.669 110.687 41.7701 109.605 42.9731C109.258 43.381 108.952 43.7888 108.748 44.217C108.483 44.7879 108.361 45.4404 108.299 46.1133C108.136 47.6222 108.177 49.2534 107.32 50.3137C106.055 51.843 103.218 51.7614 101.626 52.9237C100.035 54.1063 99.2999 56.8387 97.4633 57.6135C95.6471 58.368 93.1778 56.9814 91.1984 57.2873C89.2597 57.5931 87.3415 59.6933 85.3416 59.5302C82.5254 59.3059 79.8317 57.0834 77.0156 56.9202C74.179 56.7571 71.2812 58.6738 68.4447 58.5922C65.6081 58.5107 62.8124 56.4512 59.9758 56.4512C57.1393 56.4512 54.3435 58.5311 51.5274 58.5922C48.6908 58.6738 45.7931 56.7571 42.9565 56.9202C40.1199 57.0834 37.4467 59.3059 34.6305 59.5302C32.6306 59.6933 30.7124 57.5931 28.7737 57.2873C26.7943 56.9814 24.325 58.368 22.5088 57.6135C20.6722 56.8387 19.9375 54.1063 18.3458 52.9237C17.3051 52.1693 15.7337 51.945 14.4277 51.4352C13.7134 51.1701 13.0808 50.8439 12.6523 50.3137C12.0197 49.5389 11.8768 48.4582 11.7748 47.3367C11.6728 46.256 11.6319 45.1141 11.2238 44.217C10.4075 42.443 7.87708 41.1584 7.53017 39.1601C7.53017 39.1193 7.50976 38.997 7.50976 38.9766C7.50976 38.9358 7.48935 38.8339 7.46895 38.7931C7.46895 38.7727 7.44854 38.6708 7.44854 38.63C7.08122 36.5094 9.08109 34.3684 9.4076 32.3089C9.55045 31.3506 9.36679 30.2495 9.22394 29.1892C9.1219 28.5367 9.04028 27.8638 9.08109 27.2317C9.1015 26.6812 9.20353 26.1714 9.44841 25.7024C10.3871 23.8469 13.2645 23.2556 14.7134 21.6855C16.1215 20.1766 16.4684 17.2607 18.305 16.1189C20.06 15.0382 22.8353 15.9558 24.8964 15.3033C26.8351 14.6712 28.5288 12.2651 30.692 12.0816C33.0592 11.8777 35.4876 12.7952 37.8956 13.2234C38.7935 13.3866 39.6914 13.4885 40.5689 13.4273C41.8545 13.3662 43.1198 12.9787 44.4054 12.5302C46.344 11.8573 48.2827 11.0417 50.2418 10.9805C53.4865 10.8989 56.772 12.8768 60.0167 12.8768C63.2614 12.8768 66.5469 10.8989 69.7915 10.9805C73.0362 11.062 76.1993 13.2438 79.4644 13.4069C82.7091 13.5905 86.0966 11.7757 89.3413 12.0612C91.5249 12.2447 93.1982 14.6508 95.1369 15.2829C97.198 15.9558 99.9733 15.0178 101.728 16.0985C103.545 17.2404 103.912 20.1562 105.32 21.6651C106.789 23.2352 109.667 23.8265 110.585 25.682C111.544 27.5783 110.279 30.2087 110.605 32.2885C110.871 34.3684 112.87 36.5094 112.503 38.63Z" fill="url(#paint4_linear_17_33)"/>
<path d="M110.483 43.1567C110.095 43.5849 109.769 44.0131 109.544 44.4821C109.299 44.9919 109.177 45.5832 109.116 46.2153C89.7494 47.8669 78.4236 44.3802 77.8522 44.1967C88.1781 46.2357 100.626 44.9511 110.483 43.1567Z" fill="url(#paint5_linear_17_33)"/>
<path d="M45.2012 49.0087C38.0996 51.9041 22.0802 51.7206 14.3868 51.4352C13.6726 51.1701 13.04 50.8438 12.6114 50.3137C11.9788 49.5388 11.836 48.4581 11.7339 47.3367C17.1826 48.5601 30.2838 50.905 45.2012 49.0087Z" fill="url(#paint6_linear_17_33)"/>
<path d="M54.3435 54.616C54.3435 54.616 80.3827 52.7809 83.1172 51.8429C85.8517 50.9049 83.3825 51.8429 83.3825 51.8429C83.3825 51.8429 71.118 57.2464 54.3435 54.616Z" fill="url(#paint7_linear_17_33)"/>
<path d="M16.3051 28.659C13.4481 29.128 10.8972 29.2096 9.18306 29.1892C9.08103 28.5367 8.9994 27.8638 9.04021 27.2317C10.7952 27.7211 13.4685 28.3532 16.3051 28.659Z" fill="url(#paint8_linear_17_33)"/>
<path d="M44.3442 12.5303C42.4667 14.6917 34.9162 14.9975 29.7532 14.5897C31.896 14.3654 35.3243 13.7333 37.8548 13.2235C38.7527 13.3867 39.6506 13.4886 40.5281 13.4275C41.7933 13.3459 43.0789 12.9789 44.3442 12.5303Z" fill="url(#paint9_linear_17_33)"/>
<path d="M111.707 27.8025C111.687 28.4958 111.564 29.2094 111.462 29.9435C107.973 29.3929 105.177 27.8025 105.177 27.8025C105.177 27.8025 109.299 27.8025 111.707 27.8025Z" fill="url(#paint10_linear_17_33)"/>
<path d="M105.034 37.7531C103.442 48.0503 95.0961 55.1666 85.8722 55.1666C85.3008 55.1666 84.7294 55.1462 84.158 55.085C68.5875 53.5558 52.9151 53.5558 37.3446 55.085C27.4881 56.0434 18.1621 48.6824 16.4684 37.7531C16.3255 36.754 16.2439 35.7753 16.2439 34.7965C16.2439 34.5926 16.2439 34.3887 16.2643 34.1848C16.5704 24.6421 23.9169 16.1596 34.1611 15.1605C51.8539 13.4273 69.6691 13.4273 87.3619 15.1605C97.5857 16.1596 104.953 24.6625 105.259 34.2052C105.3 35.3471 105.218 36.5501 105.034 37.7531Z" fill="#562500"/>
<path d="M104.687 33.9606C104.667 34.7762 104.606 35.5918 104.463 36.4075C102.871 46.5823 94.5859 53.6374 85.4232 53.6374C84.8518 53.6374 84.2804 53.617 83.709 53.5559C68.2406 52.047 52.6702 52.047 37.2018 53.5559C27.4065 54.4938 18.1417 47.2144 16.4684 36.4075C16.3459 35.5918 16.2643 34.7762 16.2439 33.9606C16.55 24.5198 23.8557 16.1189 34.0183 15.1198C51.609 13.407 69.3018 13.407 86.8925 15.1198C97.0755 16.1189 104.402 24.5198 104.687 33.9606Z" fill="url(#paint11_linear_17_33)"/>
<path d="M103.381 32.7168C103.381 33.5528 103.3 34.4092 103.157 35.2656C101.626 44.1967 93.586 50.3546 84.7294 50.3546C84.1784 50.3546 83.6275 50.3342 83.0765 50.2934C68.0978 48.968 53.0375 48.968 38.0385 50.2934C30.5083 50.9459 23.3047 47.0513 19.8356 40.6895C18.9376 39.0379 18.305 37.2231 17.9581 35.2656C17.8153 34.4092 17.7336 33.5528 17.7336 32.6964C17.7336 24.1936 24.9169 16.5472 34.957 15.65C51.9764 14.1411 69.1182 14.1411 86.1375 15.65C96.2185 16.5472 103.381 24.214 103.381 32.7168Z" fill="url(#paint12_linear_17_33)"/>
<path opacity="0.49" d="M103.381 32.7168C103.381 33.5528 103.3 34.4092 103.157 35.2656C101.626 44.1966 93.586 50.3546 84.7294 50.3546C84.1785 50.3546 83.6275 50.3342 83.0765 50.2934C68.0978 48.968 53.0376 48.968 38.0385 50.2934C30.5084 50.9459 23.3047 47.0513 19.8356 40.6895C46.9971 48.1728 96.5654 40.6487 103.381 32.7168Z" fill="#96440C"/>
<path opacity="0.55" d="M38.6302 21.1553C41.7521 21.1553 44.2829 20.4158 44.2829 19.5037C44.2829 18.5915 41.7521 17.8521 38.6302 17.8521C35.5083 17.8521 32.9775 18.5915 32.9775 19.5037C32.9775 20.4158 35.5083 21.1553 38.6302 21.1553Z" fill="#F9BE93"/>
<path opacity="0.55" d="M29.7329 21.2371C29.9573 21.91 29.1003 22.8072 27.835 23.215C26.5698 23.6228 25.3658 23.4189 25.1413 22.746C24.9168 22.0731 25.7739 21.1759 27.0392 20.7681C28.3044 20.3603 29.5084 20.5642 29.7329 21.2371Z" fill="#F9BE93"/>
<defs>
<linearGradient id="paint0_linear_17_33" x1="34" y1="-4.5" x2="36.9964" y2="29.0003" gradientUnits="userSpaceOnUse">
<stop offset="2.7e-07" stop-color="#95F31C"/>
<stop offset="1" stop-color="#008554"/>
</linearGradient>
<linearGradient id="paint1_linear_17_33" x1="28" y1="67" x2="84.4987" y2="62.9811" gradientUnits="userSpaceOnUse">
<stop stop-color="#7CFF38"/>
<stop offset="0.511698" stop-color="#2FB74D"/>
<stop offset="1" stop-color="#008C59"/>
</linearGradient>
<linearGradient id="paint2_linear_17_33" x1="38.4838" y1="-5.94302" x2="92.6316" y2="95.0358" gradientUnits="userSpaceOnUse">
<stop stop-color="#F8A45B"/>
<stop offset="0.2171" stop-color="#C97F40"/>
<stop offset="0.4733" stop-color="#985825"/>
<stop offset="0.6987" stop-color="#743C11"/>
<stop offset="0.8819" stop-color="#5E2B04"/>
<stop offset="1" stop-color="#562500"/>
</linearGradient>
<linearGradient id="paint3_linear_17_33" x1="60.9993" y1="42.4657" x2="70.0368" y2="103.005" gradientUnits="userSpaceOnUse">
<stop stop-color="#F8A45B"/>
<stop offset="0.3936" stop-color="#CC7937"/>
<stop offset="0.7917" stop-color="#A55318"/>
<stop offset="1" stop-color="#96440C"/>
</linearGradient>
<linearGradient id="paint4_linear_17_33" x1="52.5487" y1="-2.50519" x2="65.0805" y2="64.7871" gradientUnits="userSpaceOnUse">
<stop stop-color="#F8A45B"/>
<stop offset="0.3936" stop-color="#CC7937"/>
<stop offset="0.7917" stop-color="#A55318"/>
<stop offset="1" stop-color="#96440C"/>
</linearGradient>
<linearGradient id="paint5_linear_17_33" x1="94.1863" y1="43.9179" x2="94.4232" y2="48.2637" gradientUnits="userSpaceOnUse">
<stop offset="0.3844" stop-color="#96440C"/>
<stop offset="0.3989" stop-color="#9A4810"/>
<stop offset="0.5039" stop-color="#B76427"/>
</linearGradient>
<linearGradient id="paint6_linear_17_33" x1="28.497" y1="47.2115" x2="28.2202" y2="55.4304" gradientUnits="userSpaceOnUse">
<stop offset="0.3844" stop-color="#96440C"/>
<stop offset="0.3989" stop-color="#9A4810"/>
<stop offset="0.5039" stop-color="#B76427"/>
</linearGradient>
<linearGradient id="paint7_linear_17_33" x1="69.3787" y1="53.3483" x2="69.4591" y2="56.0818" gradientUnits="userSpaceOnUse">
<stop offset="0.3844" stop-color="#96440C"/>
<stop offset="0.3989" stop-color="#9A4810"/>
<stop offset="0.5039" stop-color="#B76427"/>
</linearGradient>
<linearGradient id="paint8_linear_17_33" x1="12.7595" y1="26.7647" x2="12.4281" y2="30.9855" gradientUnits="userSpaceOnUse">
<stop offset="0.3844" stop-color="#96440C"/>
<stop offset="0.3989" stop-color="#9A4810"/>
<stop offset="0.5039" stop-color="#B76427"/>
</linearGradient>
<linearGradient id="paint9_linear_17_33" x1="36.9963" y1="13.0517" x2="37.1971" y2="15.3027" gradientUnits="userSpaceOnUse">
<stop offset="0.3844" stop-color="#96440C"/>
<stop offset="0.3989" stop-color="#9A4810"/>
<stop offset="0.5039" stop-color="#B76427"/>
</linearGradient>
<linearGradient id="paint10_linear_17_33" x1="108.7" y1="26.4155" x2="107.989" y2="31.2355" gradientUnits="userSpaceOnUse">
<stop offset="0.3844" stop-color="#96440C"/>
<stop offset="0.3989" stop-color="#9A4810"/>
<stop offset="0.5039" stop-color="#B76427"/>
</linearGradient>
<linearGradient id="paint11_linear_17_33" x1="59.2086" y1="23.1414" x2="63.3653" y2="58.703" gradientUnits="userSpaceOnUse">
<stop stop-color="#F8A45B"/>
<stop offset="0.2171" stop-color="#C97F40"/>
<stop offset="0.4733" stop-color="#985825"/>
<stop offset="0.6987" stop-color="#743C11"/>
<stop offset="0.8819" stop-color="#5E2B04"/>
<stop offset="1" stop-color="#562500"/>
</linearGradient>
<linearGradient id="paint12_linear_17_33" x1="60.5667" y1="16.251" x2="60.5667" y2="55.8686" gradientUnits="userSpaceOnUse">
<stop stop-color="#F8A45B"/>
<stop offset="0.3936" stop-color="#CC7937"/>
<stop offset="0.7917" stop-color="#A55318"/>
<stop offset="1" stop-color="#96440C"/>
</linearGradient>
</defs>
</svg>
