<svg width="129" height="107" viewBox="0 0 129 107" fill="none" xmlns="http://www.w3.org/2000/svg">
<path fill-rule="evenodd" clip-rule="evenodd" d="M113.901 55.3894C114.161 63.2912 110.366 71.1931 104.959 77.3274C104.076 72.7526 102.204 69.0097 101.892 68.8537C101.736 68.7497 102.256 74.936 102.048 80.2906C99.3449 82.7339 96.7976 85.0733 94.2503 87.4126C92.9506 85.3852 91.443 83.6697 91.1831 83.7736C90.9232 83.8776 90.2473 88.0365 89.8315 91.4155C86.1405 94.6906 82.1895 97.9138 77.9267 100.565C76.887 98.4856 75.1195 95.2105 74.8076 95.2105C74.4956 95.2105 74.5996 100.149 73.8718 102.852C70.1808 104.724 66.2299 106.128 62.0191 106.751C61.3432 104.1 60.9793 101.605 60.8754 99.1094C62.9548 97.6538 64.6183 96.3022 64.4624 96.1462C64.2025 95.8863 62.6949 95.4704 60.9274 95.2105C61.1353 91.6235 61.9151 88.0885 63.0588 84.2935C66.3859 82.9938 72.1563 82.526 72.2083 82.0581C72.2083 81.7462 69.8689 80.2906 64.8263 79.4068C66.0739 76.1837 67.8934 72.9606 70.1288 69.8934C72.7801 69.8414 75.4314 69.6855 75.5873 69.2696C75.6913 68.9577 74.9115 67.5021 73.352 65.9425C78.1347 60.6919 84.165 56.3771 90.4553 54.2977C95.5499 55.3374 100.541 56.689 100.645 56.3771C100.748 56.1692 99.0329 54.6616 96.3297 53.05C101.788 52.5302 108.702 53.154 113.901 55.3894Z" fill="#507F19"/>
<path fill-rule="evenodd" clip-rule="evenodd" d="M94.1983 87.4126C96.7456 85.0732 99.2929 82.7339 101.996 80.2905C102.256 74.884 101.684 68.7497 101.84 68.8537C102.152 69.0096 104.024 72.7526 104.907 77.3273C110.366 71.245 114.109 63.3432 113.849 55.3893C94.5622 66.0464 70.3368 91.7794 61.9151 106.751C66.1259 106.127 70.0769 104.724 73.7678 102.852C74.4437 100.149 74.3397 95.2105 74.7036 95.2105C75.0155 95.2105 76.835 98.4336 77.8227 100.565C82.0856 97.9137 86.0365 94.6906 89.7275 91.4155C90.1434 88.0364 90.8192 83.8776 91.0791 83.7736C91.391 83.6696 92.8986 85.3332 94.1983 87.4126Z" fill="url(#paint0_radial_16_51)"/>
<path fill-rule="evenodd" clip-rule="evenodd" d="M61.9671 106.752C70.3888 91.7797 94.5622 65.9947 113.901 55.3896C108.702 53.2062 101.788 52.5304 96.2257 53.0502C98.877 54.6618 100.593 56.2214 100.541 56.3773C100.385 56.6373 95.4459 55.2856 90.3513 54.2979C84.0611 56.3773 78.0307 60.6921 73.248 65.9427C74.8596 67.5023 75.6393 68.9579 75.4834 69.2698C75.3274 69.6857 72.6762 69.8416 70.0249 69.8936C67.7895 72.9608 65.97 76.1839 64.7223 79.407C69.765 80.3428 72.1043 81.7984 72.1043 82.0583C72.1043 82.5262 66.2819 82.9941 62.9548 84.2937C61.7591 88.0887 61.0313 91.6237 60.8234 95.2107C62.5909 95.4187 64.0985 95.8865 64.3584 96.1465C64.5144 96.3024 62.8508 97.654 60.7714 99.1097C60.9274 101.605 61.2913 104.1 61.9671 106.752Z" fill="url(#paint1_radial_16_51)"/>
<g style="mix-blend-mode:multiply">
<path fill-rule="evenodd" clip-rule="evenodd" d="M105.427 68.8017C106.831 66.8782 108.234 64.5388 109.222 62.3554C109.326 62.1475 109.43 61.8876 109.534 61.6276C110.054 60.276 110.522 58.8204 110.418 57.3648C93.3665 67.9699 73.6119 88.6603 64.2545 102.904C64.7743 102.748 66.6458 102.177 66.9577 101.865C67.7895 100.929 67.8935 98.7975 68.2054 98.5376C68.5693 98.1737 68.8812 99.7852 68.9332 99.9412C69.0372 100.305 69.1931 100.773 69.661 100.669C69.8169 100.617 70.0249 100.513 70.1288 100.409C70.6487 100.149 71.1686 99.8372 71.6884 99.5253C73.9758 97.9657 73.9238 95.3144 73.8718 92.8191C73.8198 89.9079 75.2754 92.7671 75.8993 93.6509C76.6791 94.7426 77.9267 96.1462 77.9787 93.7549C77.9787 92.7671 77.9267 91.9354 77.7708 90.9476C77.5628 89.596 77.9267 90.7397 78.1347 91.2076C78.3426 91.7794 78.5506 92.2993 78.7585 92.8191C78.9145 93.235 79.2783 94.0148 79.7462 94.1188C79.9022 94.1188 80.1621 93.8588 80.3181 93.7549C81.0459 93.183 81.8257 92.6112 82.5535 92.0393C83.9051 90.7917 84.165 89.2321 84.7369 87.5686C85.2567 86.1129 85.1528 85.2812 85.3087 83.8256C85.3607 83.4097 85.5167 83.4097 85.6726 83.7736C86.0365 84.7093 86.2445 87.2047 86.7123 87.7765C86.8163 87.8805 86.8163 87.8805 86.9203 87.9325C87.3881 88.1404 88.1159 87.3086 88.4279 86.9967C88.6358 86.7888 88.7918 86.5808 88.9477 86.3729C90.9232 83.0978 88.7398 79.0429 89.3636 78.471C89.7795 78.0552 91.0791 79.9786 91.391 80.3945C92.1188 81.2783 93.1066 82.37 94.3022 81.4862C94.7701 81.0703 95.394 80.5505 95.6539 79.9786C96.1737 78.627 95.9138 77.1194 95.7059 75.7678C95.6539 75.5078 95.342 73.8963 95.394 73.7923C95.4979 73.5324 96.2777 75.3519 96.3297 75.4559C96.5896 75.9757 97.3694 77.5873 97.8893 77.6912C98.2532 77.6912 98.981 76.7555 99.1889 76.3916C99.5528 75.7158 99.7088 75.04 99.7088 74.2602C99.7088 74.0522 99.6048 72.9605 99.6568 72.8566C99.7088 72.8046 99.7608 72.9605 99.7608 73.0125C99.8647 73.2725 100.229 74.4681 100.541 74.3642C100.8 74.3122 100.956 73.6364 101.008 73.3764C101.528 71.349 101.216 69.6335 101.008 67.606C100.748 65.3186 101.684 66.0464 102.516 67.3981C102.88 67.9699 103.764 69.8414 104.543 69.6335C104.855 69.6854 105.219 69.1136 105.427 68.8017Z" fill="url(#paint2_radial_16_51)"/>
</g>
<g style="mix-blend-mode:multiply">
<path fill-rule="evenodd" clip-rule="evenodd" d="M64.3064 102.956C73.6119 88.7122 93.3665 68.0219 110.47 57.4168C110.834 57.1568 111.25 56.9489 111.614 56.689C109.534 56.2211 107.507 55.9612 105.375 56.0132C102.984 56.0651 104.959 57.1568 102.724 57.3648C100.385 57.5207 98.4611 57.0009 96.1737 57.6767L95.9658 57.7287C95.6539 57.8327 95.342 57.9366 95.03 58.0406C93.8864 58.5085 94.9781 58.8724 93.8864 59.1843C93.2625 59.3402 92.6387 59.4962 92.0149 59.6522C90.5593 60.0161 90.1434 60.328 88.8957 61.0558C88.6878 61.1597 88.4798 61.3157 88.3239 61.4197C88.1159 61.5756 87.908 61.7836 87.908 62.0955L87.96 62.3034C88.2199 63.1352 90.3513 64.6428 91.0791 65.3706C91.547 65.7865 92.2228 66.5663 91.0271 66.0464C89.5196 65.3706 88.8957 64.6948 87.1282 64.3829C84.5289 63.967 83.8531 64.5388 81.9816 66.1504C81.6697 66.4103 81.3578 66.6702 81.0978 66.9302C80.578 67.45 80.474 67.9179 80.422 68.5937C80.422 68.8017 80.474 68.9576 80.578 69.1656C80.8899 69.8414 82.5534 71.141 80.7859 71.349C79.8502 71.4529 79.3303 71.297 78.3426 71.6609C77.0949 72.0768 75.9513 72.4926 75.0155 73.5324C74.5996 74.0522 74.1837 74.6241 73.7678 75.1439C73.5599 75.4039 73.3 75.6638 73.4559 75.9757C73.6119 76.1836 74.0798 76.4956 74.3397 76.6515C74.7556 76.8595 75.2235 77.0674 75.6393 77.2753C76.1072 77.4833 76.5231 77.6912 76.991 77.8992C77.5108 78.1591 78.0307 78.419 78.4986 78.7309C78.4986 78.7309 79.0704 79.0949 78.8105 79.0949C78.6545 79.0949 77.5108 78.471 77.1989 78.367C76.3671 78.0551 75.5354 77.6912 74.7036 77.4833C73.8718 77.2753 72.8841 77.0674 72.1563 77.5873C71.8964 77.7952 71.4805 78.575 71.2725 78.8869C71.1166 79.1988 71.1686 79.4068 71.3765 79.6667C71.8444 80.2385 73.9238 81.0183 74.7036 81.4342C75.5874 81.9021 76.0552 82.5779 74.6516 82.6299C73.196 82.7339 72.2083 82.4739 70.6487 82.8898C69.401 83.2537 68.6213 83.5656 67.9974 84.8133C67.6335 85.5931 67.3216 86.3729 66.9577 87.1527C66.9577 87.2046 66.9057 87.2566 66.9057 87.3606L66.8537 87.4646C66.6978 88.1924 67.8935 88.3483 68.3613 88.4003C68.8292 88.4523 70.7527 88.8682 69.1411 89.1281C68.2574 89.2321 66.5418 89.7 65.918 90.3238C65.6061 90.6877 65.1902 92.6112 65.0342 93.183C64.9822 93.3909 64.8783 93.7548 64.9303 93.9628C65.0862 94.5866 67.0617 94.6906 66.6978 95.6263C66.3339 96.4581 64.5144 96.666 64.3064 98.2256C64.0985 99.8372 64.1505 101.501 64.3064 102.956Z" fill="url(#paint3_radial_16_51)"/>
</g>
<path fill-rule="evenodd" clip-rule="evenodd" d="M61.9671 106.751C64.4104 100.617 73.7678 89.3361 78.6025 83.9815C87.3361 74.3122 99.7088 63.1352 111.042 56.793C112.133 56.1691 112.757 55.8572 113.901 55.3893C112.757 56.2211 113.381 55.8052 112.185 56.585C104.336 61.6796 97.5254 67.3461 90.7672 73.7403C82.0856 81.9541 73.196 91.3115 66.1259 100.877C64.7223 102.8 63.3707 104.932 61.9671 106.751Z" fill="url(#paint4_radial_16_51)"/>
<path fill-rule="evenodd" clip-rule="evenodd" d="M108.286 59.3922C103.036 62.1994 96.6936 63.0832 89.9874 63.6031C83.1253 64.1229 76.0552 63.811 69.0371 62.4594C62.4869 61.1597 56.2486 60.3279 50.0103 59.3402C53.0775 54.2976 54.845 49.8788 54.5331 49.6709C54.1692 49.4629 46.5793 54.9214 42.3684 58.0926C38.6774 57.4167 34.8825 56.6889 30.9835 55.8572C28.1243 55.2333 25.1611 54.5055 22.1979 53.7258C23.1337 50.4506 23.7575 46.8636 23.4456 46.5517C23.0817 46.1358 18.143 49.8788 14.504 51.6983C9.04553 50.2427 3.95092 49.151 0 47.6434C5.04262 40.8853 9.72134 35.3228 15.3358 30.5921C16.8434 29.3444 18.403 28.0968 20.0145 26.9531C24.6413 29.3444 30.8796 33.8672 31.3994 33.8152C31.8153 33.7632 29.9438 29.9163 25.2651 23.574C28.1763 21.8585 31.3474 20.2989 34.8825 18.8433C37.8976 20.5068 40.6009 22.2224 40.9128 21.8585C41.1728 21.5985 41.2247 18.7913 40.7049 16.8678C45.0197 15.7241 49.6984 15.1003 54.3252 14.9963C57.8602 14.8924 61.3952 15.1003 64.8263 15.5682C69.0891 21.9104 73.5079 29.7083 74.2877 29.8123C74.7036 29.8643 75.2235 24.9776 73.8718 17.5436C82.5015 20.1949 89.4676 25.1855 94.8741 32.0477C100.696 39.3257 104.803 48.5792 108.286 59.3922Z" fill="#507F19"/>
<path fill-rule="evenodd" clip-rule="evenodd" d="M50.0103 59.3402C56.2486 60.3279 62.4869 61.1597 69.0371 62.4594C76.0552 63.811 83.1773 64.1229 89.9874 63.6031C96.6936 63.0832 103.036 62.1474 108.286 59.3922C92.2228 36.0506 26.1489 34.439 0 47.6434C3.95092 49.151 9.04553 50.1907 14.4001 51.6463C18.0391 49.8268 22.9777 46.1358 23.3416 46.4997C23.7055 46.8636 23.0297 50.3987 22.094 53.6738C25.0572 54.4535 28.0203 55.1814 30.8796 55.8052C34.7785 56.6889 38.5735 57.4167 42.2645 58.0406C46.4753 54.8694 54.1172 49.4109 54.4291 49.6189C54.845 49.8788 53.0775 54.2976 50.0103 59.3402Z" fill="url(#paint5_radial_16_51)"/>
<path fill-rule="evenodd" clip-rule="evenodd" d="M0 47.6434C26.1489 34.439 92.2228 36.0506 108.286 59.3922C104.803 48.5792 100.645 39.3257 94.8741 32.0477C89.4156 25.1855 82.4495 20.1429 73.8718 17.5436C75.2235 24.9776 74.7036 29.8643 74.2877 29.8123C73.5599 29.7603 69.0891 21.9104 64.8263 15.5682C61.3952 15.1003 57.8602 14.8924 54.3252 14.9963C49.6984 15.1003 45.0197 15.7241 40.7049 16.8678C41.2247 18.7393 41.1728 21.5985 40.9128 21.8585C40.6009 22.1704 37.8976 20.5068 34.8825 18.8433C31.3474 20.2989 28.1763 21.8585 25.2651 23.574C29.9438 29.9163 31.8153 33.7632 31.3994 33.8152C30.8796 33.8672 24.6413 29.3444 20.0145 26.9531C18.351 28.0968 16.7914 29.3444 15.3358 30.5921C9.72134 35.3748 5.04262 40.8853 0 47.6434Z" fill="url(#paint6_radial_16_51)"/>
<g style="mix-blend-mode:multiply">
<path fill-rule="evenodd" clip-rule="evenodd" d="M34.5706 51.0745C36.65 51.4384 38.6254 50.2947 40.341 49.255C41.7966 48.3193 42.7843 47.1756 43.98 45.9799C44.3439 45.616 45.9554 43.9005 46.2154 43.7445C46.2154 44.2124 43.928 47.0196 43.5121 47.6435C43.0962 48.2673 42.7843 48.7872 42.3164 49.359C41.7966 49.9828 41.0688 50.9186 40.9128 51.7503C40.8608 52.2182 41.1208 52.4262 41.5367 52.5821C42.0565 52.7381 42.7323 52.7901 43.2522 52.894C51.4659 53.6218 55.5208 44.8882 57.4443 44.4723C58.9519 44.1604 56.4566 49.7749 56.3006 50.1388C55.8847 51.2825 55.2089 53.206 55.7288 54.3496C55.9367 54.6616 56.0927 54.7135 56.3526 54.8695L56.6645 54.9735C58.2761 55.2854 61.2913 55.7013 62.8508 55.4413C67.1656 54.5056 70.4927 50.7106 73.0401 47.3835C73.196 47.1756 74.5476 45.4081 74.7556 45.824C75.0155 46.2918 71.6884 52.0623 71.2205 52.894C70.6487 53.9857 69.2971 56.1172 71.4285 56.3771H71.5325C72.4682 56.4291 75.1715 56.689 75.9513 56.4811C78.1347 55.8572 80.1101 53.5179 81.6697 51.9583C82.8654 50.7626 82.3975 52.0623 82.0336 52.7381C81.7217 53.4139 80.2141 56.0132 80.8379 56.585L80.8899 56.637C81.2018 56.845 82.7094 56.741 83.1773 56.741C84.0091 56.741 85.9845 56.793 86.7123 56.585C87.908 56.2211 89.4676 55.0255 90.5593 54.3496C92.6907 53.05 90.2474 56.1172 91.651 56.3771C92.4827 56.585 97.2134 55.8052 98.3052 55.5973C100.021 55.2854 101.684 54.8175 103.296 54.1937C101.788 52.946 100.125 51.7503 98.2532 50.6586C77.2509 38.0781 36.3901 36.6225 11.021 43.5886C11.9047 44.0045 12.8405 44.4203 13.7242 44.7843C14.608 45.1482 15.3358 44.8362 16.0636 44.3684C16.6874 44.0045 16.9994 43.5366 17.5192 43.1207C18.247 42.5489 17.5712 43.6926 17.4672 43.8485C17.2593 44.2124 16.5315 45.3041 16.5835 45.668C16.5835 45.824 16.6355 45.876 16.7914 45.9799C16.9474 46.0839 17.1033 46.1359 17.2593 46.1879C17.6752 46.3438 18.143 46.4998 18.6109 46.6038C21.0542 46.7597 22.8218 44.8882 24.5373 43.4326C27.4485 40.9893 25.8369 45.772 25.681 46.9157C25.577 47.6955 25.525 48.6832 26.4088 49.0991C28.1763 49.6709 29.7359 47.6955 30.8796 46.6038C31.4514 46.0839 30.9835 47.0196 30.8796 47.2276C30.6196 47.7994 30.3077 48.4233 29.9958 48.9951C29.5799 49.7749 28.9561 50.6067 28.4362 51.3345C28.1763 51.6984 27.2406 52.7901 28.3842 52.0623C28.9041 51.7503 29.32 51.3345 29.8918 51.0225C30.3077 50.7626 30.8276 50.5027 31.3474 50.4507C31.7633 50.4507 32.2312 50.6067 32.6471 50.7106C33.4269 50.8666 33.9987 50.9706 34.5706 51.0745Z" fill="url(#paint7_radial_16_51)"/>
</g>
<g style="mix-blend-mode:multiply">
<path fill-rule="evenodd" clip-rule="evenodd" d="M11.1769 43.4845C36.494 36.5184 77.3549 37.974 98.4091 50.5545C97.7853 48.4751 96.9535 46.3437 96.0178 44.4202C94.7181 41.8729 92.5867 40.9892 91.0791 38.8577C90.2993 37.766 90.6113 37.6101 90.4553 36.5704C90.2474 35.1668 86.6083 32.3075 85.4647 31.4238L84.9968 31.1119C84.0091 30.3841 80.734 27.7848 79.5383 28.7725C78.0307 30.0202 78.3946 37.766 74.9115 33.3472C72.5202 30.3321 71.5325 27.2649 68.1534 24.7176C67.3736 24.2497 66.6458 23.9378 65.762 23.6779C65.1902 23.5219 64.0985 23.158 63.5786 23.418L63.4747 23.5219C62.4349 24.3537 64.0985 28.4086 64.5144 29.5003C64.6184 29.7602 66.3339 34.439 64.8263 31.9956C62.6949 28.4606 60.8754 25.0295 56.8205 23.262C56.1447 23.0021 55.2609 22.9501 54.5331 22.9501C54.1692 22.9501 53.5454 22.8981 53.2854 23.0541C52.9735 23.21 52.9215 23.5219 52.9215 23.8338C52.8696 24.6136 53.4414 26.6931 53.7013 27.4729C54.2732 29.3443 53.4414 27.8887 53.0775 27.2129C52.4537 25.9133 52.2457 25.1855 51.102 24.1458C49.9584 23.158 49.4905 23.314 48.1389 23.5219C47.723 23.6259 47.4111 23.7299 47.0991 24.0418C46.9432 24.2497 46.7872 24.4057 46.6313 24.6136C45.7995 26.0173 46.6313 27.7328 47.1511 29.0844C47.2031 29.2404 48.8147 32.9314 47.8269 32.1516C47.463 31.8916 46.4753 30.436 46.0594 29.9682C44.8637 28.5126 44.084 27.6288 42.3164 26.849C39.7691 25.8093 39.8211 25.0295 36.9099 25.8613C34.7785 26.4851 33.5308 26.6931 33.8428 29.2924C34.0507 31.0079 36.3901 36.9343 32.803 36.2065C28.4362 35.3227 25.8889 30.2281 20.4304 32.9314C19.4947 33.4512 17.8311 34.387 17.0513 35.0628L16.8954 35.2707L16.8434 35.3747C16.6874 35.8426 17.3113 36.4144 17.6232 36.7263C18.247 37.2462 18.8189 37.6621 19.4427 38.2339C20.3265 39.0657 20.2225 39.4816 18.9748 39.0657C17.9871 38.7018 17.3113 38.3899 16.2196 38.1819C14.764 37.922 13.5683 37.818 12.3206 38.7538C10.0852 40.6253 7.74589 43.0166 5.92638 45.252C7.58993 44.5762 9.35745 44.0043 11.1769 43.4845Z" fill="url(#paint8_radial_16_51)"/>
</g>
<path fill-rule="evenodd" clip-rule="evenodd" d="M0 47.6434C10.5531 40.7812 32.855 38.4419 45.6435 38.3379C63.4747 38.13 90.4033 41.717 103.92 54.0376C105.843 55.7532 107.039 57.1568 108.286 59.3922L106.467 57.4167C97.8373 48.4232 82.9174 44.3163 70.8047 42.3928C52.7136 39.5336 29.4759 39.5336 11.6448 43.9524C7.27801 44.9921 4.15886 46.2917 0 47.6434Z" fill="url(#paint9_radial_16_51)"/>
<path fill-rule="evenodd" clip-rule="evenodd" d="M105.011 49.1512C104.855 48.5274 102.1 46.4479 91.651 48.5793C81.2018 50.7108 56.7685 58.6646 57.0284 59.9642C57.2884 61.2119 82.8134 57.9888 93.1586 55.4415C103.504 52.8422 105.167 49.827 105.011 49.1512Z" fill="url(#paint10_linear_16_51)"/>
<path fill-rule="evenodd" clip-rule="evenodd" d="M57.0284 59.9642C67.9974 57.209 98.825 49.6191 105.011 49.2032C105.167 49.827 103.504 52.8942 93.1586 55.4415C82.8134 57.9888 57.2884 61.2119 57.0284 59.9642Z" fill="url(#paint11_radial_16_51)"/>
<path fill-rule="evenodd" clip-rule="evenodd" d="M104.024 47.5396C104.128 47.1237 103.296 45.0963 97.2135 43.2768C91.1311 41.4573 76.0552 38.962 75.8473 39.7937C75.6393 40.6255 89.8835 46.188 96.0178 47.6956C102.204 49.2551 103.92 47.9555 104.024 47.5396Z" fill="url(#paint12_linear_16_51)"/>
<path fill-rule="evenodd" clip-rule="evenodd" d="M75.8473 39.7937C82.3455 41.4053 100.697 45.98 104.024 47.4876C103.92 47.9035 102.152 49.2031 96.0178 47.6955C89.8835 46.188 75.6393 40.6255 75.8473 39.7937Z" fill="url(#paint13_radial_16_51)"/>
<path fill-rule="evenodd" clip-rule="evenodd" d="M105.063 51.4906C104.647 50.8667 101.476 49.5151 93.7304 54.2458C85.9845 58.9765 69.1411 73.1167 69.9209 74.3123C70.7007 75.508 90.4553 65.8906 97.9412 60.7441C105.427 55.5455 105.479 52.1144 105.063 51.4906Z" fill="url(#paint14_linear_16_51)"/>
<path fill-rule="evenodd" clip-rule="evenodd" d="M69.9729 74.3122C77.8747 68.8017 100.177 53.4659 105.115 51.4905C105.531 52.1143 105.479 55.5454 97.9932 60.744C90.4553 65.8905 70.7527 75.5079 69.9729 74.3122Z" fill="url(#paint15_radial_16_51)"/>
<path fill-rule="evenodd" clip-rule="evenodd" d="M106.155 52.9461C105.791 52.7382 103.66 52.9981 100.8 57.9368C97.9412 62.8754 92.9506 75.7679 93.7304 76.1838C94.5102 76.5997 102.412 65.2668 105.011 60.1721C107.507 55.0775 106.519 53.1541 106.155 52.9461Z" fill="url(#paint16_linear_16_51)"/>
<path fill-rule="evenodd" clip-rule="evenodd" d="M93.6784 76.1838C96.3817 70.7773 104.024 55.5455 106.103 52.9462C106.467 53.1541 107.455 55.0776 104.907 60.1722C102.412 65.2668 94.4582 76.5997 93.6784 76.1838Z" fill="url(#paint17_radial_16_51)"/>
<g filter="url(#filter0_d_16_51)">
<path d="M112.445 41.0414C111.458 42.497 110.678 44.0046 109.742 45.5122C108.962 46.8638 107.975 48.1115 107.351 49.5151C107.247 49.723 107.195 49.931 107.195 50.1909C108.754 50.5028 110.106 51.4906 111.614 52.0104C113.121 51.6985 114.161 49.879 114.785 48.6833C115.668 47.1757 116.812 45.4602 116.24 43.7967C115.512 43.2768 114.785 42.7569 114.161 42.1851C113.797 41.8732 113.121 41.3013 112.757 40.7295C112.653 40.8335 112.549 40.9374 112.445 41.0414Z" fill="#579535"/>
<path d="M111.042 50.6067C111.51 49.2031 112.393 47.9554 112.965 46.6558C113.589 45.3041 114.109 43.9525 114.525 42.5489C114.421 42.4449 114.265 42.3409 114.161 42.237C113.797 41.9251 113.121 41.3532 112.757 40.7814C112.601 40.8334 112.497 40.9373 112.393 41.0413C111.406 42.4969 110.626 44.0045 109.69 45.5121C108.91 46.8637 107.923 48.1114 107.299 49.515C107.195 49.7229 107.143 49.9309 107.143 50.1908C108.494 50.4507 109.69 51.2305 110.938 51.7504C110.886 51.4904 110.886 51.0746 111.042 50.6067Z" fill="#26541E"/>
<path d="M98.0972 19.0513C94.978 17.3878 91.8069 15.8282 88.7398 14.1127C86.5044 12.917 84.269 11.6694 82.1376 10.2657C81.3578 9.74588 80.63 9.22603 79.9022 8.70617C79.6422 8.55021 79.3823 8.34227 79.1224 8.18631C77.5628 7.14659 75.8993 6.26284 74.4437 5.06716C72.9881 4.1834 71.4805 3.19567 70.3888 2C71.0646 4.39135 71.7924 6.73071 72.7281 9.01808C73.196 10.1618 73.7159 11.2535 74.4437 12.2412C75.2234 13.3329 75.6393 14.7365 76.5231 15.7243C78.3946 17.9077 80.0061 20.299 81.7737 22.5864C83.4372 24.8218 85.4646 26.7972 87.5441 28.6167C88.5838 29.5005 89.6235 30.3842 90.7152 31.268C91.8069 32.1518 93.2105 32.9316 94.1983 33.9713C94.5622 34.3872 95.082 34.5951 95.5499 34.907C96.1217 35.2709 96.6416 35.6868 97.1615 36.1027C98.3571 36.9345 99.5528 37.7662 100.696 38.702C101.736 39.5857 102.88 40.4175 103.764 41.5092C104.595 42.5489 105.375 43.6406 105.531 44.9923C105.635 46.1359 105.271 47.2276 105.115 48.3193C105.011 49.0991 105.323 50.0869 105.999 50.5547C107.195 51.2825 108.546 50.1908 109.17 49.1511C109.222 49.0991 109.222 49.0471 109.222 48.9432C110.054 48.4233 110.574 47.5396 111.042 46.7078C112.185 44.4724 112.861 41.9251 113.277 39.4818C113.693 37.0904 113.589 34.5951 112.757 32.3077C111.925 30.0723 110.418 28.1489 108.702 26.5373C106.623 24.5099 104.18 23.1062 101.736 21.5467C100.541 20.6629 99.3449 19.8311 98.0972 19.0513Z" fill="#579535"/>
<path d="M95.186 19.0514C83.9051 12.7611 70.3368 6.47083 62.123 4.07949C52.4537 1.22027 48.3468 6.26289 48.3468 6.26289C47.9829 6.62679 47.723 6.99069 47.567 7.35459C47.3071 7.66651 47.0991 8.03041 46.9952 8.55026C46.9952 8.55026 44.6038 14.6326 51.5179 21.7027C57.4963 27.837 69.401 36.8825 80.2661 43.8486C90.9752 50.7627 97.5254 53.1541 97.5254 53.1541L103.14 43.7966L105.791 39.3259L111.406 29.9684C111.458 29.9164 106.311 25.2897 95.186 19.0514Z" fill="#F5D752"/>
<path d="M95.186 19.0515C90.1954 16.2442 84.7888 13.489 79.5383 11.0457C82.3975 13.8009 83.9051 17.5439 84.373 21.4948C84.5809 23.1064 84.5289 25.2898 83.0213 26.3815C81.6177 27.3692 79.6422 27.1613 78.0307 27.0053C75.5354 26.7974 73.04 26.5894 70.5447 26.7454C69.1931 26.8493 67.7895 27.0053 66.4379 27.3172C65.3981 27.5771 64.0985 27.8371 63.2667 28.5649C62.6429 29.0847 62.0191 29.8125 61.2913 30.2284H61.2393C66.9577 34.8032 73.7679 39.6898 80.2141 43.7967C90.9232 50.7108 97.4734 53.1022 97.4734 53.1022L111.458 29.9165C111.458 29.9165 106.311 25.2898 95.186 19.0515Z" fill="#F5D752"/>
<path d="M99.1369 50.139L99.4488 49.6711C98.6171 49.3072 97.8373 48.9433 96.9535 48.5274C97.4214 47.8516 97.8893 47.1238 98.4611 46.292C98.825 45.7722 99.1889 45.2003 99.5528 44.5765C100.437 45.0443 101.216 45.4083 101.84 45.6682L102.152 45.2003C101.528 44.8884 100.748 44.5245 99.8647 44.1086C100.281 43.4328 100.748 42.705 101.164 41.9772C101.476 41.5093 101.736 40.9895 102.048 40.4696L104.18 41.7692L104.491 41.3014L102.36 40.0017C103.14 38.5981 104.024 37.1425 104.907 35.479C105.739 36.1028 106.467 36.6746 107.039 37.0905L107.351 36.6227C106.779 36.1548 106.051 35.5829 105.219 34.9591C105.843 33.8154 106.415 32.6717 107.039 31.4241C107.871 32.0479 108.65 32.6197 109.378 33.1916L109.69 32.7237C108.91 32.1519 108.13 31.528 107.299 30.9042C107.819 29.9165 108.338 28.8768 108.806 27.837C108.65 27.7331 108.494 27.6291 108.338 27.5251C107.819 28.5648 107.299 29.6046 106.831 30.5923C105.739 29.8125 104.647 28.9807 103.504 28.149C103.972 27.2132 104.439 26.2255 104.959 25.2378C104.803 25.1338 104.647 25.0298 104.491 24.9258C104.024 25.9136 103.556 26.9013 103.088 27.837C101.996 27.0573 100.852 26.2775 99.7088 25.4457C100.177 24.5619 100.593 23.6262 101.06 22.6905C100.904 22.5865 100.748 22.4825 100.593 22.3785C100.125 23.3143 99.7088 24.25 99.2409 25.1338C98.1492 24.354 96.9535 23.6262 95.8098 22.8464C96.2257 22.0146 96.6416 21.1309 97.1095 20.2471C97.0055 20.1951 96.9015 20.1431 96.7976 20.0912C96.7456 20.0392 96.6416 20.0392 96.5896 19.9872C96.1737 20.871 95.7578 21.7027 95.342 22.4825C94.1983 21.7547 93.0546 21.0269 91.8589 20.2991C92.2228 19.5713 92.5867 18.7915 92.9506 18.0637C92.7947 17.9597 92.6387 17.8558 92.4827 17.8038C92.1188 18.5836 91.7549 19.3114 91.391 20.0392C90.2474 19.3114 89.0517 18.6356 87.856 17.9597C88.1679 17.2839 88.5318 16.6081 88.8437 15.8803C88.6878 15.7763 88.5318 15.7244 88.3759 15.6204C88.0639 16.2962 87.7001 17.024 87.3881 17.6478C86.2444 16.972 85.0488 16.3482 83.8531 15.6724C84.165 15.0485 84.4769 14.3727 84.8408 13.6969C84.6849 13.5929 84.5289 13.5409 84.321 13.437C84.0091 14.1128 83.6971 14.7886 83.3332 15.4124C82.1376 14.7886 80.9419 14.1648 79.7462 13.541C80.0581 12.9171 80.37 12.2413 80.682 11.6175C80.526 11.5135 80.37 11.4615 80.1621 11.3575C79.8502 12.0334 79.5383 12.6572 79.2264 13.281C78.0307 12.6572 76.783 12.0853 75.5354 11.5135C75.8473 10.8897 76.1592 10.2658 76.4711 9.59003C76.3152 9.53804 76.1072 9.43407 75.9513 9.38209C75.6393 10.0059 75.3274 10.6817 75.0155 11.3056C74.9115 11.2536 74.7556 11.2016 74.6516 11.1496C73.5599 10.6297 72.4682 10.1619 71.4285 9.74599C71.7404 9.12216 72.0523 8.49833 72.3642 7.8745C72.2083 7.82251 72.0003 7.71854 71.8444 7.66656C71.5325 8.29039 71.2205 8.91421 70.9086 9.53804C69.609 9.01819 68.4133 8.55031 67.2176 8.08244C67.5296 7.5106 67.7895 6.88677 68.1014 6.26294C67.9454 6.21095 67.7375 6.10698 67.5815 6.055C67.2696 6.67882 66.9577 7.30265 66.6978 7.8745C65.3462 7.40663 64.0985 6.93875 62.9548 6.57485C63.2667 5.95102 63.5786 5.32719 63.8906 4.65138C63.7346 4.59939 63.5267 4.54741 63.3707 4.49542C63.0588 5.17124 62.7469 5.79507 62.4349 6.4189C60.9274 5.95102 59.5237 5.53514 58.2761 5.22322C58.536 4.70336 58.7959 4.13152 59.0559 3.55968C58.8479 3.55968 58.64 3.50769 58.484 3.50769C58.2241 4.02755 58.0162 4.54741 57.7562 5.06726C57.2884 4.96329 56.8725 4.85932 56.4566 4.75535C55.2609 4.49542 54.2732 4.23549 53.3374 4.07953C53.3894 3.97556 53.4414 3.92358 53.4414 3.81961C53.4414 3.76762 53.4414 3.71563 53.4414 3.71563C53.2335 3.76762 53.0775 3.76762 52.8696 3.76762C52.8176 3.81961 52.8176 3.92358 52.7656 3.97556C52.6616 3.97556 52.5576 3.92358 52.4017 3.92358C52.1937 4.07953 51.9338 4.23549 51.7259 4.39145C51.9858 4.44343 52.2457 4.49542 52.5057 4.54741C52.1937 5.11925 51.9338 5.69109 51.6739 6.26294C50.9461 6.00301 50.2703 5.79507 49.6984 5.63911C49.4905 5.79507 49.3345 5.89904 49.1266 6.055C49.8024 6.26294 50.5302 6.47088 51.414 6.7828C51.0501 7.45861 50.7381 8.08244 50.3742 8.70627L47.8269 7.19868C47.723 7.35464 47.619 7.5106 47.567 7.66656L49.9584 9.12216C49.6464 9.64202 49.3865 10.1619 49.1266 10.6297C48.3988 9.90194 47.775 9.27812 47.2551 8.70627C47.2031 8.9662 47.2031 9.17414 47.1511 9.43407C47.619 9.95393 48.1908 10.5258 48.8147 11.1496C48.3988 11.9294 47.9829 12.6052 47.567 13.177C47.2551 12.8131 46.9952 12.4492 46.7352 12.1373C46.7872 12.5532 46.8912 12.9691 46.9432 13.333C47.0472 13.437 47.0991 13.5409 47.2031 13.6969C47.1511 13.7489 47.0991 13.8529 47.0472 13.9049V13.9568C47.0991 14.1648 47.1511 14.4247 47.2031 14.6327C47.3071 14.4767 47.4111 14.3207 47.515 14.1128C48.0349 14.7366 48.6067 15.4124 49.2825 16.1922C49.6464 16.6081 50.0623 17.076 50.5302 17.5439C50.0623 18.2717 49.6984 18.7915 49.4905 19.0514C49.5945 19.2074 49.7504 19.3634 49.8544 19.5193C50.0623 19.2594 50.4262 18.7395 50.9461 17.9597C51.7779 18.8435 52.6616 19.7792 53.7013 20.767C53.2854 21.3908 52.8696 21.9627 52.5576 22.4305C52.7136 22.5345 52.8176 22.6905 52.9735 22.7944C53.2854 22.3266 53.7013 21.8067 54.1172 21.1829C55.001 22.0666 55.9887 22.9504 57.0284 23.8861C56.5606 24.5619 56.1447 25.0818 55.8328 25.5497C55.9887 25.6536 56.0927 25.8096 56.2486 25.9136C56.5606 25.4977 56.9764 24.9258 57.4443 24.25C58.3801 25.0818 59.3678 25.9136 60.4595 26.7973C59.9916 27.4731 59.5757 27.993 59.3158 28.3569C59.4718 28.4609 59.6277 28.5648 59.7837 28.7208C60.0436 28.3569 60.4595 27.837 60.9274 27.1612C61.7591 27.837 62.6429 28.5648 63.5266 29.2407C63.6826 29.3446 63.8386 29.5006 63.9945 29.6046C63.3707 30.4363 62.9548 30.9562 62.7989 31.2161C62.9548 31.3201 63.0588 31.4761 63.2147 31.58C63.4227 31.3721 63.8386 30.8002 64.4624 29.9685C65.5541 30.8002 66.6458 31.632 67.7895 32.4118C67.3216 33.0876 66.9057 33.6595 66.5418 34.0753C66.6978 34.1793 66.8537 34.2833 67.0097 34.3873C67.3216 33.9714 67.7375 33.3995 68.2054 32.7237C69.2971 33.5035 70.4408 34.2833 71.5325 35.0111C70.9606 35.7909 70.5447 36.3627 70.1808 36.8306C70.3368 36.9346 70.4927 37.0385 70.6487 37.1945C71.0126 36.7786 71.4285 36.1548 72.0003 35.375C73.144 36.1028 74.2877 36.8826 75.3794 37.5584C74.7556 38.4422 74.2357 39.066 73.9238 39.4819C74.0798 39.5858 74.2357 39.6898 74.3917 39.7938C74.7036 39.3779 75.2235 38.7021 75.8473 37.8183C77.043 38.5461 78.1866 39.2739 79.3823 39.9497C78.7585 40.8335 78.2386 41.5093 77.8747 42.0292C78.0307 42.1331 78.1866 42.2371 78.3426 42.3411C78.7585 41.8212 79.2264 41.1454 79.8502 40.2617C81.0459 40.9895 82.2415 41.6653 83.4372 42.2891C82.7614 43.2248 82.1895 44.0046 81.8256 44.5245C81.9816 44.6285 82.1376 44.7324 82.2935 44.7844C82.7094 44.2646 83.2813 43.4848 83.9571 42.549C85.2047 43.2248 86.4004 43.9007 87.5961 44.5245C86.8163 45.6162 86.2444 46.396 85.8286 46.9678C85.9845 47.0198 86.1925 47.1238 86.3484 47.2278C86.7643 46.6559 87.3881 45.8241 88.1159 44.7844C89.3636 45.4602 90.6113 46.0841 91.8069 46.6559C91.0271 47.7996 90.3513 48.6834 89.8834 49.3072C90.0394 49.4112 90.1954 49.4631 90.4033 49.5671C90.8712 48.9433 91.547 48.0595 92.3268 46.9158C93.6264 47.5397 94.8741 48.1635 96.0698 48.7353C95.238 49.879 94.6142 50.8148 94.0943 51.4906C94.2503 51.5426 94.4582 51.6465 94.6142 51.6985C95.134 51.0227 95.7578 50.139 96.5896 48.9953C97.4734 49.4112 98.3051 49.7751 99.1369 50.139ZM106.519 31.0602C105.895 32.3078 105.271 33.4515 104.647 34.5952C103.712 33.9194 102.62 33.1396 101.424 32.2558C101.372 32.2039 101.32 32.2039 101.268 32.1519C101.892 31.0082 102.516 29.8125 103.14 28.5648C104.335 29.4486 105.479 30.2804 106.519 31.0602ZM102.724 28.3049C102.1 29.5526 101.476 30.7483 100.852 31.8919C99.8647 31.2161 98.721 30.4363 97.4214 29.6046C98.0452 28.4609 98.6691 27.2652 99.2929 25.9656C100.489 26.6934 101.632 27.5251 102.724 28.3049ZM98.877 25.6017C98.2532 26.8493 97.6293 28.097 97.0055 29.2407C95.9138 28.5129 94.7701 27.7851 93.5225 27.0053C94.1463 25.8096 94.7701 24.6139 95.4459 23.3143C96.5896 24.0941 97.7333 24.8219 98.877 25.6017ZM94.9781 23.0024C94.3542 24.302 93.6784 25.5497 93.0546 26.6934C91.9629 26.0175 90.7672 25.2897 89.5715 24.5619C90.1954 23.3663 90.8712 22.1186 91.495 20.819C92.6387 21.5468 93.8344 22.2746 94.9781 23.0024ZM90.9752 20.507C90.2993 21.8067 89.6755 23.0544 89.0517 24.25C87.908 23.5742 86.7643 22.8984 85.5166 22.1706C86.1405 20.9749 86.8163 19.7273 87.4401 18.3756C88.6358 19.1034 89.8315 19.8312 90.9752 20.507ZM86.9722 18.1677C86.2964 19.4673 85.6726 20.767 85.0488 21.9627C83.9051 21.3388 82.7614 20.663 81.5137 19.9872C82.1376 18.7915 82.8134 17.5439 83.4372 16.2442C84.6329 16.8161 85.7766 17.4919 86.9722 18.1677ZM82.9174 15.9323C82.2415 17.2319 81.6177 18.4796 80.9939 19.6753C79.8502 19.0514 78.6545 18.4276 77.4588 17.7518C78.0827 16.6081 78.7065 15.3605 79.3823 14.0608C80.526 14.6846 81.7217 15.3085 82.9174 15.9323ZM75.1195 12.0334C76.3671 12.6052 77.6148 13.177 78.8105 13.8009C78.1866 15.1005 77.5108 16.2962 76.939 17.4919C75.6913 16.8161 74.4957 16.1922 73.352 15.6204C73.9238 14.4767 74.5476 13.281 75.1195 12.0334ZM74.2877 11.6695C74.3917 11.7214 74.5476 11.7734 74.6516 11.8254C74.0278 13.0731 73.4559 14.2688 72.8321 15.3605C71.6364 14.7366 70.4408 14.1648 69.2971 13.5929C69.8689 12.5532 70.4408 11.4095 71.0126 10.2139C72.0523 10.6817 73.144 11.1496 74.2877 11.6695ZM70.4928 10.0579C69.9209 11.2016 69.3491 12.3453 68.7772 13.385C67.5296 12.8131 66.3339 12.2413 65.1902 11.7214C65.7101 10.7337 66.2299 9.694 66.8018 8.6023C67.9974 9.01819 69.2451 9.53804 70.4928 10.0579ZM66.2819 8.39436C65.762 9.43407 65.1902 10.4738 64.6703 11.4615C63.3707 10.8897 62.175 10.3698 61.0313 9.84996C61.4992 8.9662 61.9671 8.08244 62.4869 7.09471C63.7346 7.5106 64.9823 7.92648 66.2819 8.39436ZM62.0191 6.93875C61.5512 7.8745 61.0833 8.75826 60.6154 9.64202C59.2118 9.07017 57.9122 8.55031 56.7685 8.08244C57.1324 7.35464 57.4963 6.57485 57.9122 5.74308C59.1079 6.055 60.4595 6.47088 62.0191 6.93875ZM52.9215 4.59939C53.8573 4.75535 54.897 5.01528 56.1447 5.32719C56.5086 5.43117 56.8725 5.53514 57.2884 5.63911C56.9245 6.4189 56.5606 7.19868 56.1447 7.92648C55.1569 7.56258 54.2212 7.19868 53.4414 6.93875C52.9215 6.7828 52.4537 6.57485 51.9858 6.4189C52.3497 5.79507 52.6096 5.22322 52.9215 4.59939ZM50.6862 8.91421C51.0501 8.29038 51.414 7.61457 51.7779 6.88677C52.2457 7.04273 52.7656 7.25067 53.2854 7.40663C54.0652 7.66656 54.949 8.03046 55.9367 8.39436C55.4169 9.38209 54.949 10.3178 54.4811 11.2016L50.6862 8.91421ZM54.949 11.4615C55.4169 10.5778 55.9367 9.64202 56.4566 8.55031C57.6003 9.01819 58.8999 9.53804 60.3035 10.1099C59.6277 11.3056 59.0039 12.4492 58.3801 13.489L54.949 11.4615ZM58.8479 13.8529C59.4718 12.8131 60.0956 11.6175 60.7714 10.3698C61.9151 10.8377 63.1108 11.3575 64.4104 11.9814C63.6306 13.385 62.9028 14.6846 62.227 15.8803L58.8479 13.8529ZM62.7469 16.1402C63.4227 14.9446 64.2025 13.5929 64.9823 12.1893C66.1259 12.7092 67.3216 13.281 68.5693 13.8529C67.7375 15.4124 66.9057 16.868 66.1779 18.1677L62.7469 16.1402ZM66.5938 18.4796C67.3736 17.18 68.1534 15.7244 69.0371 14.1128C70.1808 14.6846 71.3245 15.2565 72.5722 15.8803C71.6884 17.5439 70.8047 19.1034 69.9729 20.559L66.5938 18.4796ZM70.4408 20.819C71.2725 19.4153 72.1563 17.8558 73.0401 16.1402C74.1837 16.7121 75.4314 17.3359 76.6271 18.0117C75.6913 19.7792 74.7556 21.4428 73.8718 22.8984L70.4408 20.819ZM74.3917 23.1583C75.2754 21.6507 76.1592 20.0392 77.1469 18.2197C78.3426 18.8435 79.5383 19.5193 80.682 20.1431C79.6942 22.0146 78.7585 23.6782 77.8227 25.2378L74.3917 23.1583ZM78.3946 25.5497C79.2783 23.9901 80.2661 22.2746 81.2538 20.4031C82.4495 21.0789 83.6452 21.7547 84.7888 22.3785C83.8011 24.25 82.8134 26.0175 81.8776 27.6291L78.3946 25.5497ZM82.3455 27.941C83.2812 26.3814 84.217 24.6139 85.2567 22.6905C86.5044 23.4183 87.6481 24.0941 88.7918 24.7699C87.752 26.6934 86.7643 28.4089 85.8286 30.0205L82.3455 27.941ZM86.3484 30.3324C87.2842 28.7208 88.2719 27.0053 89.3116 25.0818C90.5593 25.8096 91.703 26.5374 92.7947 27.2132C91.8069 29.0847 90.8192 30.8522 89.8834 32.4638L86.3484 30.3324ZM90.3513 32.7237C91.2871 31.1641 92.2228 29.3966 93.2625 27.4731C94.5102 28.2529 95.6539 28.9807 96.7456 29.7085C95.7579 31.528 94.8221 33.2436 93.8864 34.8031L90.3513 32.7237ZM94.3542 35.1151C95.238 33.5555 96.2257 31.8919 97.2134 30.0205C98.4611 30.8522 99.6048 31.632 100.645 32.3078C99.7088 34.0753 98.773 35.6869 97.8893 37.1945L94.3542 35.1151ZM98.3571 37.5584C99.2409 36.1028 100.125 34.4392 101.06 32.6717C102.308 33.5555 103.452 34.3873 104.439 35.0631C103.556 36.6746 102.724 38.2342 101.892 39.6378L98.3571 37.5584ZM96.4337 48.3195C95.238 47.7476 93.9903 47.1758 92.6907 46.5C93.2105 45.7202 93.7824 44.8884 94.4582 43.9007C94.7701 43.4328 95.082 42.9649 95.3939 42.4451C96.7976 43.1729 97.9932 43.7967 99.033 44.3165C98.0452 45.8761 97.1615 47.1758 96.4337 48.3195ZM101.58 40.1577C100.8 41.5093 100.021 42.757 99.3449 43.8487C98.3052 43.3288 97.0575 42.705 95.7059 41.9772C96.1737 41.2494 96.6416 40.4176 97.2134 39.5858C97.5254 39.118 97.7853 38.5981 98.0972 38.0783L101.58 40.1577ZM97.5773 37.7144C96.7456 39.17 95.9138 40.4696 95.186 41.6653C94.0943 41.0934 92.8466 40.4176 91.547 39.6898C92.0669 38.91 92.5867 38.0263 93.1586 37.0905C93.4705 36.6227 93.7304 36.1028 94.0423 35.5829L97.5773 37.7144ZM93.5744 35.323C92.6907 36.8306 91.8589 38.2342 91.0791 39.4819C89.9354 38.858 88.7398 38.1822 87.4921 37.4544C88.012 36.6227 88.5838 35.7389 89.1557 34.7512C89.4676 34.2833 89.7275 33.7634 90.0394 33.2436L93.5744 35.323ZM89.5715 32.9317C88.6358 34.4912 87.804 35.8948 86.9722 37.1945C85.8286 36.5707 84.6329 35.8429 83.4372 35.167C83.9571 34.3353 84.5289 33.3995 85.1527 32.3598C85.4647 31.8919 85.7246 31.3721 86.0365 30.8522L89.5715 32.9317ZM85.5686 30.5403C84.6329 32.1519 83.7491 33.5555 82.9174 34.8551C81.7737 34.1793 80.63 33.5035 79.3823 32.7757C79.9542 31.8919 80.526 30.9562 81.2018 29.8645C81.4618 29.3966 81.7737 28.9287 82.0336 28.4609L85.5686 30.5403ZM81.5657 28.097C80.63 29.7085 79.7462 31.1641 78.9144 32.4638C77.7708 31.788 76.6271 31.1122 75.4314 30.3844C76.0032 29.5006 76.5751 28.5648 77.2509 27.4731C77.5108 27.0053 77.8227 26.5374 78.0827 26.0695L81.5657 28.097ZM77.6148 25.7576C76.6791 27.3692 75.7953 28.8248 74.9635 30.0724C74.1837 29.6046 73.352 29.0847 72.5722 28.5648C72.2083 28.3569 71.8964 28.149 71.5325 27.941C72.0523 27.1092 72.6762 26.1215 73.3 25.0818C73.5599 24.6139 73.8718 24.1461 74.1318 23.6782L77.6148 25.7576ZM73.6639 23.3663C72.7281 24.9258 71.8444 26.3814 71.0646 27.6291C69.8689 26.9013 68.7252 26.1215 67.6335 25.3937C68.2054 24.5619 68.7772 23.5742 69.453 22.4825C69.661 22.1186 69.9209 21.7027 70.1808 21.2868L73.6639 23.3663ZM69.713 20.9749C68.8292 22.5345 67.9454 23.8861 67.1657 25.0818C66.022 24.302 64.9303 23.5742 63.9425 22.8464C64.4624 22.0666 65.0342 21.1309 65.6061 20.1431C65.814 19.7792 66.074 19.3634 66.3339 18.9475L69.713 20.9749ZM65.814 18.6875C64.9823 20.1431 64.1505 21.3908 63.4747 22.5345C62.383 21.7547 61.2913 20.9749 60.3035 20.1951C60.7714 19.4673 61.2393 18.6875 61.7591 17.8558C61.9671 17.4919 62.227 17.076 62.4869 16.6601L65.814 18.6875ZM61.9671 16.3482C61.1873 17.6478 60.5115 18.7915 59.8357 19.8312C58.744 18.9995 57.7042 18.1677 56.7165 17.3879C57.0804 16.8161 57.4443 16.1922 57.8602 15.5164C58.0681 15.1525 58.3281 14.7366 58.588 14.3207L61.9671 16.3482ZM58.1201 14.0088C57.4963 15.1005 56.8725 16.0883 56.3006 17.024C55.2089 16.1402 54.1692 15.2565 53.2854 14.4767C53.7013 13.7489 54.2212 12.9171 54.7411 11.9814L58.1201 14.0088ZM49.5425 11.0456C49.8544 10.5258 50.1143 10.0059 50.4262 9.43407L54.1692 11.7214C53.7013 12.6052 53.2335 13.437 52.7656 14.1648C51.5699 12.9691 50.4782 11.9294 49.5425 11.0456ZM49.8544 15.8283C49.1266 14.9966 48.5028 14.2688 47.9829 13.6449C48.1908 13.281 48.3988 12.9171 48.6587 12.5532C48.7107 12.5012 48.7627 12.3973 48.8147 12.3453C48.9706 12.0853 49.1266 11.8254 49.2825 11.5655C50.2183 12.5012 51.31 13.489 52.5576 14.6327C51.9858 15.6204 51.4659 16.4522 50.9981 17.128C50.5822 16.6601 50.1663 16.2442 49.8544 15.8283ZM51.362 17.4919C51.7779 16.8161 52.2977 16.0363 52.8696 15.0485C52.8696 14.9966 52.9215 14.9966 52.9215 14.9446C53.8573 15.7763 54.845 16.6081 55.9367 17.4919C55.2609 18.5316 54.6371 19.4673 54.1172 20.2991C53.1295 19.3114 52.1937 18.3756 51.362 17.4919ZM54.5331 20.715C54.845 20.2471 55.2089 19.6753 55.5728 19.1034C55.8328 18.7395 56.0927 18.2717 56.3526 17.8558C57.3403 18.6356 58.3801 19.4673 59.4718 20.2991C58.692 21.4948 58.0162 22.5345 57.3923 23.4183C56.4046 22.4825 55.4689 21.5988 54.5331 20.715ZM57.9122 23.8341C58.3801 23.1583 58.8999 22.3785 59.5237 21.4948C59.6797 21.2348 59.8357 20.9749 60.0436 20.715C61.0313 21.4948 62.123 22.2746 63.2147 23.0544C62.331 24.406 61.5512 25.5497 60.9274 26.4334C59.8357 25.4977 58.8479 24.6659 57.9122 23.8341ZM63.9425 28.8248C63.0068 28.097 62.175 27.4212 61.2913 26.7453C61.8631 25.9136 62.5389 24.9258 63.3187 23.7822C63.4227 23.6262 63.5267 23.4702 63.6306 23.3143C64.6703 24.0421 65.762 24.7699 66.8537 25.5497C65.866 27.0573 65.0342 28.2529 64.4104 29.1887C64.2545 29.0847 64.0985 28.9807 63.9425 28.8248ZM64.8263 29.5526C65.4501 28.6688 66.2819 27.5251 67.1657 26.1215C67.2176 26.0695 67.2696 25.9656 67.3216 25.9136C68.4133 26.6414 69.557 27.3692 70.7527 28.149C69.7649 29.7085 68.8812 30.9562 68.1534 32.0479C67.0617 31.1641 65.918 30.3844 64.8263 29.5526ZM68.6213 32.3078C69.2451 31.4241 69.9209 30.3844 70.7007 29.1887C70.8566 28.9287 71.0646 28.6688 71.2205 28.4089C71.5844 28.6168 71.8964 28.8248 72.2603 29.0327C73.092 29.5526 73.8718 30.0204 74.6516 30.5403C73.6119 32.1519 72.6761 33.5035 71.9483 34.5952C70.8047 33.8674 69.713 33.0876 68.6213 32.3078ZM72.4162 34.9071C73.0401 33.9714 73.8198 32.8797 74.6516 31.58C74.8076 31.3201 74.9635 31.1122 75.1195 30.8522C76.3152 31.58 77.4588 32.2558 78.6025 32.9317C77.5108 34.6472 76.5751 35.9988 75.7953 37.0905C74.6516 36.4147 73.5599 35.6869 72.4162 34.9071ZM76.2632 37.4024C76.939 36.4667 77.7188 35.323 78.6025 33.9714C78.7585 33.7114 78.9145 33.5035 79.0704 33.2436C80.3181 33.9714 81.4617 34.6472 82.6054 35.323C81.5137 36.9865 80.578 38.3902 79.7982 39.5339C78.6545 38.858 77.4588 38.1302 76.2632 37.4024ZM83.8531 41.8732C82.6574 41.1974 81.4617 40.5216 80.2661 39.8458C80.8899 38.962 81.6177 37.9223 82.3975 36.6746C82.6054 36.3107 82.8654 35.9468 83.0733 35.5829C84.321 36.3107 85.5166 36.9866 86.6083 37.6104C85.6206 39.3259 84.6849 40.7295 83.8531 41.8732ZM84.373 42.1331C84.9968 41.2494 85.6726 40.2617 86.4524 39.066C86.7123 38.7021 86.9203 38.3382 87.1802 37.9223C88.4278 38.6501 89.6235 39.3259 90.7672 39.9497C89.7275 41.6133 88.7918 42.9649 88.012 44.1086C86.8163 43.4848 85.5686 42.809 84.373 42.1331ZM88.4798 44.3685C89.0517 43.5368 89.7275 42.601 90.4033 41.5093C90.6632 41.0934 90.9232 40.6775 91.2351 40.2097C92.5347 40.9375 93.7304 41.5613 94.8741 42.1851C93.8864 43.7967 92.9506 45.1483 92.1708 46.24C90.9752 45.6682 89.7275 45.0444 88.4798 44.3685Z" fill="#F5D752"/>
<path d="M62.5909 9.43408C62.4349 9.3301 62.279 9.17415 62.175 9.01819C62.227 9.12216 62.279 9.22613 62.4349 9.3301C62.4869 9.38209 62.5389 9.43408 62.5909 9.43408Z" fill="#F5D752"/>
<path d="M56.6645 11.4095C56.7165 11.4615 56.7685 11.4615 56.8205 11.5135C56.9244 11.5655 57.0284 11.6175 57.1844 11.7214C56.9764 11.6175 56.8205 11.4615 56.6125 11.3575L56.6645 11.4095Z" fill="#F5D752"/>
<g style="mix-blend-mode:multiply">
<path d="M95.186 19.0514C83.9051 12.7611 70.3368 6.47083 62.123 4.07949C52.4537 1.22027 48.3468 6.26289 48.3468 6.26289C47.9829 6.62679 47.723 6.99069 47.567 7.35459C47.3071 7.66651 47.0991 8.03041 46.9952 8.55026C46.9952 8.55026 44.6038 14.6326 51.5179 21.7027C57.4963 27.837 69.401 36.8825 80.2661 43.8486C90.9752 50.7627 97.5254 53.1541 97.5254 53.1541L111.458 29.9164C111.458 29.9164 106.311 25.2897 95.186 19.0514ZM49.8544 11.1496C49.8024 11.0456 49.7504 10.9416 49.8024 10.8376C49.7504 10.7337 49.7504 10.6817 49.7504 10.5777C49.6984 10.3698 49.8544 10.1618 50.0623 10.1618C50.6342 10.1098 51.362 10.5257 51.8298 10.8376C52.2977 11.1496 52.9735 11.6174 52.9735 12.2932C52.9735 12.9691 52.0898 13.229 51.6219 12.9691C50.8941 12.5532 50.3742 11.7734 49.8544 11.1496ZM57.7562 18.2196C57.1844 17.8037 56.7685 17.0239 57.3403 16.5561C57.4963 15.8803 58.1201 15.2564 58.8999 15.4644C60.1996 15.7243 61.2393 17.3879 60.3035 18.5835C59.7837 19.2593 58.9519 19.1034 58.3281 18.5835C58.1201 18.4796 57.9122 18.3236 57.7562 18.2196ZM54.845 15.9322C54.2732 15.6203 53.1815 14.6326 53.9093 13.9568C53.9613 13.9048 54.0133 13.9048 54.0652 13.8528C54.1172 13.7488 54.1692 13.6449 54.2732 13.5929C54.6371 13.333 55.2609 13.6449 55.5728 13.9048C55.9367 14.1647 56.2486 14.5806 56.4046 14.9965C56.8205 16.0362 55.6248 16.4001 54.845 15.9322ZM61.0833 19.9871C60.9794 19.4153 61.3952 18.6875 61.7072 18.2716C62.4869 17.2319 63.7346 17.8037 64.5664 18.5835C64.9303 18.9474 64.9823 19.3113 64.8263 19.7272C64.8263 20.0391 64.6703 20.403 64.4104 20.663C64.4104 20.7149 64.3584 20.7149 64.3064 20.7669C64.2545 20.8709 64.2025 21.0269 64.1505 21.1308C64.0465 21.3388 63.9425 21.6507 63.7346 21.7547C63.0588 22.1705 62.175 21.5987 61.6032 20.9749C61.3952 20.8189 61.2393 20.663 61.1353 20.455C61.1873 20.2991 61.1353 20.1431 61.0833 19.9871ZM47.2031 11.4095C47.2031 11.3055 47.2031 11.1496 47.2551 11.0456C47.2551 10.9936 47.2551 10.9416 47.2551 10.8896C47.3071 10.6817 47.567 10.5777 47.775 10.6817C47.8269 10.6817 47.8269 10.7337 47.8789 10.7337C48.1389 10.9936 48.1908 11.3575 48.0349 11.6694C47.9309 11.8254 47.723 11.8774 47.567 11.7734C47.4111 11.7214 47.2031 11.5654 47.2031 11.4095ZM48.2428 13.5409C48.1908 13.333 48.3468 13.177 48.5028 13.125C48.5547 13.021 48.6587 12.9691 48.8147 12.9691C49.8024 12.9171 51.8299 14.5286 51.102 15.6203C50.2703 16.972 48.3988 14.3727 48.2428 13.5409ZM51.9858 17.4918C51.9858 17.1799 52.1937 16.92 52.5576 16.868C52.9216 16.816 53.3374 17.0759 53.6494 17.2319C54.0133 17.4398 54.3252 17.6478 54.5331 18.0117C54.7411 18.4276 54.6891 19.0514 54.2212 19.2593C53.1295 19.7272 52.4017 18.6875 51.9338 17.9077C51.7779 17.6998 51.8298 17.5438 51.9858 17.4918ZM48.3988 17.1799C48.1908 16.816 47.9829 16.3481 47.9829 15.9322C48.0349 15.5683 48.5028 15.5164 48.6067 15.7763C49.2306 16.0362 50.2703 17.3359 49.3865 17.8037C48.9706 18.0637 48.6067 17.5438 48.3988 17.1799ZM51.0501 20.403C50.9981 20.2471 50.8941 20.0391 50.8941 19.8312C50.8421 19.7792 50.8421 19.7272 50.7901 19.6752C50.6862 19.5193 50.7381 19.3113 50.9461 19.2074C52.1418 18.5315 53.5974 20.9749 52.4017 21.3908C51.8299 21.6507 51.258 20.9229 51.0501 20.403ZM54.6891 24.146C54.1692 23.7301 53.7013 23.2103 54.0133 22.7424C54.5331 21.9106 55.8328 23.1063 56.1447 23.6261C56.3006 23.8861 56.5086 24.4579 56.2486 24.7178C55.9887 24.9778 55.6248 24.8218 55.3649 24.6659C55.105 24.5619 54.897 24.3539 54.6891 24.146ZM57.2364 25.7056C57.2364 25.6016 57.2884 25.5496 57.3403 25.4976C57.3923 25.4457 57.4443 25.4457 57.4963 25.4457C57.6003 25.4457 57.6523 25.4457 57.7562 25.4457C57.8082 25.3937 57.8602 25.3417 57.9122 25.3417C58.536 25.1337 59.2118 26.3814 59.1598 26.8493C59.1598 26.9532 59.0559 27.1092 58.9519 27.1612L58.8999 27.2132C58.1721 27.889 57.1324 26.3294 57.2364 25.7056ZM74.7556 37.6623C74.8596 37.7663 74.9115 37.9222 74.8076 38.0782C74.3397 38.702 73.5599 38.65 72.8841 38.3381C72.3642 38.0782 71.6364 37.6103 71.6884 36.9345C71.6884 36.8305 71.7404 36.7266 71.8444 36.6746C71.8444 36.6226 71.8444 36.6226 71.8444 36.5706C71.8444 36.3107 72.1043 36.2067 72.2603 36.2587C73.144 36.3107 74.1837 36.8825 74.7556 37.6623ZM70.3888 35.8948C69.8689 36.2587 69.1411 35.6869 68.7252 35.3749C68.3093 35.011 67.7895 34.4392 68.0494 33.8673C68.1014 33.7114 68.2054 33.7114 68.3093 33.7114C68.3093 33.7114 68.3613 33.7114 68.4133 33.7114C69.0891 33.7114 71.4805 35.115 70.3888 35.8948ZM66.1259 31.632C66.4898 31.8919 67.0617 32.3078 66.9057 32.8276C66.6978 33.4515 65.814 33.1915 65.4501 32.9316C64.8783 32.5677 64.3064 31.9959 63.9945 31.372C63.8386 31.0601 64.2545 30.7482 64.4624 30.9042C65.0342 30.9042 65.7101 31.32 66.1259 31.632ZM62.9028 30.3843C62.5909 30.5922 62.279 30.5922 61.9151 30.4363C61.2393 30.1244 60.3555 29.2926 60.6154 28.4608C60.6154 28.4088 60.6674 28.4088 60.6674 28.3569C60.8234 27.941 61.3952 27.941 61.7591 28.0969C62.227 28.3049 62.6949 28.7208 62.9548 29.1886C63.1628 29.5525 63.2667 30.0724 62.9028 30.3843ZM77.3029 33.3475C77.6148 34.1273 77.3029 34.8031 76.835 35.4269C76.4711 35.8948 76.0033 36.3627 75.3794 36.3627C74.7036 36.3627 74.0798 35.9988 73.6639 35.4789C72.9361 34.5432 73.5079 33.3995 74.3397 32.7756C74.3917 32.7756 74.3917 32.7237 74.4437 32.7237C74.5996 32.6197 74.7036 32.5677 74.8596 32.5157C75.0155 32.4637 75.1715 32.4117 75.3274 32.4117C75.3794 32.4117 75.4314 32.3598 75.4834 32.3598C76.2632 32.2558 77.043 32.5677 77.3029 33.3475ZM70.0769 30.8002C70.1808 30.4883 70.4408 30.2283 70.8567 30.0724C71.6364 29.7605 72.4682 30.2283 72.9361 30.8522C73.7679 32.1518 72.7281 34.1273 71.1166 33.4515C69.9729 32.9316 69.2451 31.6839 70.0769 30.8002ZM69.1931 27.837C70.1808 28.7727 69.609 30.1764 68.5173 30.7482C67.4256 31.32 66.022 30.3843 65.5541 29.3446C65.5021 29.1886 65.5541 29.0327 65.6581 28.9287C65.6061 28.5648 65.762 28.2009 66.074 27.837C66.4379 27.3691 66.9057 27.0052 67.5296 27.0572C68.1014 27.1612 68.7772 27.4211 69.1931 27.837ZM65.6581 25.7576C65.918 26.4854 65.5541 27.3171 64.9303 27.733C63.3707 28.8767 61.5512 26.7453 62.435 25.5496C62.5389 25.1857 62.7989 24.8738 63.2667 24.7178C64.1505 24.4579 65.3462 24.8218 65.6581 25.7576ZM61.3433 22.4825C61.9151 23.0023 62.279 23.7301 61.7072 24.4579C61.2913 25.0817 60.5635 25.4457 59.7837 25.1337C59.2118 24.8738 58.64 24.4059 58.588 23.7301C58.588 23.2103 58.8999 22.6904 59.3678 22.4825C59.4718 22.4305 59.5757 22.4305 59.6797 22.3785C59.7317 22.2745 59.7837 22.2225 59.8357 22.1705C60.3555 21.7547 60.9794 22.1186 61.3433 22.4825ZM58.3281 20.0911C58.692 20.559 58.588 21.0788 58.3281 21.5467C58.1201 21.9106 57.7042 22.4825 57.2364 22.4825C56.6125 22.4825 55.7808 21.8066 55.4169 21.1308C55.105 20.663 55.105 20.0391 55.6248 19.4153C56.4046 18.4796 57.6523 19.3113 58.3281 20.0911ZM68.4653 25.4457C68.2054 24.8738 68.5173 24.302 68.8812 23.7821C68.9852 23.5222 69.1411 23.2103 69.3491 23.0023C70.2848 22.2225 71.9484 23.1583 72.2603 24.198C72.6242 25.4976 71.3765 26.9013 70.0769 26.5893C69.4011 26.4854 68.7772 26.1215 68.4653 25.4457ZM79.7462 28.1489C80.3181 28.5648 80.3701 29.2406 80.1101 29.8644C79.6423 31.0081 78.3426 31.8399 77.2509 30.9042C76.4711 30.2283 76.5231 29.2926 77.095 28.5648C77.1989 28.3049 77.4069 28.0969 77.7188 27.941C78.3946 27.6291 79.1744 27.785 79.7462 28.1489ZM76.3152 26.9532C76.2632 28.2529 75.0675 29.5005 73.7679 28.7727C73.3 28.5128 72.7281 28.1489 72.6242 27.6291C72.5722 27.0572 72.8321 26.5374 73.144 26.0695C73.248 25.7576 73.4559 25.5496 73.7679 25.3937C74.8596 24.8218 76.3672 25.7056 76.3152 26.9532ZM68.5173 21.1308C69.0372 22.0666 68.4133 23.4182 67.6335 24.042C66.6458 24.8218 65.4501 23.99 64.8263 23.1583C63.9945 22.0146 65.0342 20.8189 66.022 20.1951C66.1259 20.0911 66.2299 20.1431 66.3339 20.1951C67.1137 19.9352 68.1014 20.403 68.5173 21.1308ZM48.9706 9.74594C48.1908 10.3178 47.4111 9.07012 47.567 8.39431C47.671 8.03041 48.1389 8.13438 48.1908 8.44629C48.7107 8.60225 49.4905 9.33005 48.9706 9.74594ZM63.7866 5.32714C64.1505 5.1192 64.6703 5.17119 65.0862 5.27516C65.5021 5.37913 66.022 5.53509 66.2819 5.847C66.5938 6.2109 66.6978 6.67878 66.3339 7.04268C65.97 7.35459 65.3981 7.30261 64.9303 7.19863C64.4624 7.04268 63.8386 6.83473 63.5267 6.47083C63.4227 6.36686 63.4227 6.2109 63.4747 6.10693C63.3707 5.847 63.5267 5.53509 63.7866 5.32714ZM58.9519 4.91126C58.8479 4.80729 58.7959 4.70332 58.7959 4.59934C58.744 4.44339 58.7959 4.28743 59.0039 4.18346C59.5757 3.92353 60.5115 4.07949 61.0833 4.28743C61.3952 4.3914 61.7591 4.49537 61.8631 4.80729C62.0191 5.17119 61.8111 5.58707 61.4472 5.69105C60.9793 5.74303 60.4595 5.58707 60.0436 5.43112C59.6797 5.27516 59.2638 5.1192 58.9519 4.91126ZM54.3252 4.18346C54.3252 4.18346 54.2732 4.18346 54.2732 4.13147C54.1172 4.0275 54.0133 3.76757 54.2212 3.61161C55.053 2.98778 56.5086 3.2997 57.2364 3.87154C57.4443 4.0275 57.4443 4.3914 57.1324 4.49537C56.7685 4.59934 56.4046 4.59934 56.0407 4.59934C55.6248 4.59934 55.2089 4.54736 54.845 4.44339C54.793 4.44339 54.6891 4.44339 54.6371 4.44339C54.4291 4.3914 54.3252 4.28743 54.3252 4.18346ZM59.1598 6.52282C59.7317 6.73076 60.2516 7.14665 60.4595 7.77048C60.6155 8.18636 60.5115 8.65424 60.0956 8.81019C59.1598 9.17409 57.7562 8.91417 56.9245 8.34232C56.7685 8.23835 56.7165 8.03041 56.8205 7.87445C56.9245 7.77048 56.9764 7.66651 57.0804 7.56253C56.9764 7.25062 57.0804 6.88672 57.3403 6.62679C57.8082 6.26289 58.64 6.31488 59.1598 6.52282ZM54.7411 5.4831C55.2609 5.63906 56.2486 6.05495 55.9887 6.78275C55.5728 7.87445 53.2854 7.09466 52.6096 6.62679C52.5057 6.52282 52.4537 6.41885 52.4537 6.26289C52.4537 6.2109 52.4017 6.2109 52.4017 6.15892C52.2457 6.00296 52.2977 5.74303 52.5057 5.63906C53.0775 5.27516 54.1172 5.32715 54.7411 5.4831ZM50.4782 5.53509C50.3742 5.43112 50.3742 5.27516 50.4262 5.1192C50.4782 5.01523 50.5822 4.96324 50.6342 4.96324C50.7381 4.85927 50.8941 4.85927 51.0501 4.91126C51.102 4.96324 51.154 5.01523 51.206 5.06722C51.258 5.06722 51.258 5.06722 51.31 5.1192C51.5699 5.27516 51.5179 5.69105 51.206 5.74303C51.102 5.74303 50.9981 5.74303 50.9461 5.74303C50.8941 5.74303 50.7901 5.74303 50.7381 5.69105C50.5822 5.63906 50.5302 5.58707 50.4782 5.53509ZM58.7959 12.2413C58.432 12.7091 57.7042 12.7091 57.1844 12.5012C56.9245 12.3972 56.7165 12.2413 56.5086 12.0853C56.2486 11.9293 56.0407 11.7214 55.8847 11.5654C55.6248 11.3055 55.4169 10.8896 55.5728 10.5257C55.7808 10.0579 56.3526 10.0579 56.8205 10.1098C57.6003 10.2658 59.5757 11.0456 58.7959 12.2413ZM49.0226 7.56253C48.7627 7.35459 48.6067 7.09466 48.7627 6.78275C48.9186 6.52282 49.1786 6.47083 49.4385 6.52282C49.5425 6.47083 49.6984 6.52282 49.8024 6.62679C49.9064 6.67878 50.0103 6.73076 50.1143 6.78275C50.2703 6.88672 50.4262 7.04268 50.3742 7.25062C50.3742 7.45856 50.2703 7.56253 50.0623 7.66651C49.9584 7.71849 49.9064 7.71849 49.8024 7.77048C49.7504 7.77048 49.7504 7.82246 49.6984 7.82246C49.4905 7.77048 49.2306 7.71849 49.0226 7.56253ZM51.5699 9.22608C51.5179 9.22608 51.5179 9.22608 51.5699 9.22608C51.414 9.12211 51.258 9.01814 51.154 8.91417C51.0501 8.81019 51.0501 8.55026 51.154 8.44629C51.7259 8.03041 52.5057 8.08239 53.1295 8.23835C53.6494 8.39431 54.4811 8.75821 54.5851 9.38204C54.6891 10.0579 53.9613 10.5257 53.3374 10.3178C52.6616 10.1618 52.0898 9.69395 51.5699 9.22608ZM59.4198 12.7611C59.5238 12.3452 59.8357 11.9813 60.3035 11.8254C60.3555 11.7734 60.4595 11.7214 60.5115 11.7214C60.5635 11.6694 60.6154 11.6694 60.6674 11.6694C61.5512 11.4095 62.7989 11.6694 63.1108 12.6571C63.3707 13.4889 62.7989 14.7886 61.9671 15.1005C61.4472 15.3084 60.7714 15.1005 60.2516 14.7366C59.5757 14.4247 58.588 13.4369 59.4198 12.7611ZM64.0465 16.66C63.8906 16.5561 63.7346 16.4001 63.6826 16.1922C63.6306 16.1402 63.6306 16.0362 63.5786 15.9842C63.4747 15.7243 63.4747 15.4644 63.5786 15.1525C63.6826 14.7886 63.8906 14.4247 64.1505 14.1127C64.7223 13.4889 65.5541 13.333 66.2819 13.8528C66.8537 14.2687 67.4256 14.9445 67.1137 15.7243C66.9057 16.2442 66.3859 17.2839 65.7101 17.3359C65.1382 17.3878 64.4624 17.1279 64.0465 16.66ZM67.3736 17.2319C67.4776 16.6081 67.8415 16.0882 68.3093 15.7763C68.6732 15.4124 69.1931 15.2044 69.661 15.3604C70.3888 15.5683 71.5845 16.0882 71.5325 16.972C71.5325 17.1279 71.4285 17.2319 71.3245 17.2839C71.2206 17.5958 71.1166 17.9077 70.9606 18.2196C70.9086 18.2716 70.9086 18.3236 70.8567 18.3756C70.3368 19.2593 69.505 19.9871 68.4653 19.4153C67.7375 18.8954 67.1657 18.1157 67.3736 17.2319ZM71.4285 20.8189C71.3245 20.559 71.2725 20.351 71.3245 20.1431C71.2725 19.5193 71.8444 18.5315 72.1563 18.2196C72.6242 17.7518 73.248 17.5958 73.8198 17.8557C74.2877 18.0637 75.0675 18.4276 75.2754 18.9994C75.4834 19.6232 75.0675 20.507 74.5476 21.0788C74.4957 21.1828 74.3917 21.2348 74.3397 21.3388C74.2877 21.3908 74.2877 21.4427 74.2357 21.4947C73.9238 21.9106 73.4559 22.1186 72.9361 21.9106C72.4162 21.6507 71.6364 21.3388 71.4285 20.8189ZM78.4986 23.4182C77.8228 23.99 76.7311 23.9381 76.1592 23.2622C75.5354 22.5344 75.5874 21.5987 76.1592 20.9749C76.3152 20.663 76.5751 20.455 76.939 20.2991C78.7585 19.5713 79.9542 22.2225 78.4986 23.4182ZM86.2964 26.4334C86.4524 27.0572 86.5564 27.941 86.0365 28.4088C85.4127 28.9807 84.373 28.6168 83.8531 28.0969C83.2293 27.4731 83.2813 26.6933 83.8011 26.1735C83.8531 25.6016 84.165 25.1337 84.8928 25.1857C85.6726 25.2377 86.1405 25.8096 86.2964 26.4334ZM83.2293 23.6261C83.3852 24.8738 82.2935 26.5374 80.8899 26.3814C80.2141 26.2774 79.5903 25.6016 79.4863 24.9258C79.3823 24.3539 79.7982 23.8861 80.1621 23.4702C80.2141 23.3662 80.2661 23.3142 80.3701 23.2103C81.0459 22.4825 83.0213 22.1705 83.2293 23.6261ZM62.9548 10.6297C62.7989 10.5777 62.6949 10.5777 62.5909 10.5257C62.123 10.3698 61.6032 10.1098 61.3433 9.64197C61.1353 9.27807 61.2393 8.96615 61.4992 8.70622C61.5512 8.29034 61.7591 8.03041 62.0191 7.87445C62.0711 7.82246 62.123 7.77048 62.227 7.77048C63.1108 7.56253 64.4624 7.71849 64.9303 8.60225C65.2422 9.22608 65.0862 10.5777 64.3064 10.7857C64.0465 10.8896 63.4747 10.8376 62.9548 10.6297ZM66.074 11.4095C65.866 11.0976 65.918 10.7857 66.1259 10.5257C66.2299 9.17409 68.3094 10.1098 68.7772 10.7857C69.0891 11.2015 69.1411 11.7734 68.7252 12.1373C68.3613 12.4492 67.7375 12.3972 67.2696 12.2413C66.8537 12.1373 66.3339 11.8774 66.074 11.4095ZM70.2328 12.7611C70.2328 12.3452 70.3888 12.0853 70.6487 11.8774C70.9606 11.4615 71.6364 11.2535 72.1563 11.4095C72.9361 11.6694 73.5599 12.3972 73.404 13.229C73.248 14.0088 72.5202 14.3207 71.7924 14.2687C71.0646 14.1647 70.2328 13.5409 70.2328 12.7611ZM74.8596 13.333C74.9115 13.281 74.9635 13.281 75.0155 13.229C75.2235 13.073 75.5354 13.021 75.7953 13.073C77.043 13.281 78.3946 14.5806 77.5108 15.8803C76.1072 17.9597 72.8841 15.0485 74.8596 13.333ZM78.7585 15.8283C78.8625 15.5164 79.1224 15.2564 79.6423 15.2564C80.474 15.2044 81.5137 15.8283 81.6697 16.712C81.8776 17.9077 80.734 18.8954 79.5903 18.4796C78.4466 18.0117 77.7188 16.712 78.7585 15.8283ZM85.6206 19.1034C85.8286 20.455 84.4769 21.2348 83.3332 20.611C82.8654 20.351 82.2415 19.9352 82.1376 19.3633C82.0336 18.8954 82.3455 18.4796 82.5535 18.0637C82.6574 17.9077 82.7614 17.8557 82.8654 17.9077C82.9174 17.8557 82.9693 17.8037 83.0733 17.7517C84.165 17.0759 85.4647 18.0117 85.6206 19.1034ZM68.1014 7.82246C67.9454 7.66651 67.9974 7.45856 68.1534 7.35459C68.1534 7.19863 68.2574 7.09466 68.4133 7.04268C68.8812 6.9387 69.505 7.09466 69.9209 7.30261C70.3368 7.51055 70.8047 8.03041 70.4408 8.55026C69.8689 9.33005 68.5173 8.29034 68.1014 7.82246ZM72.1043 9.74594C71.8964 9.43402 71.7404 8.91417 72.2083 8.75821C72.2603 8.75821 72.3123 8.75821 72.3642 8.75821C73.3 8.55026 74.3397 9.17409 74.7556 9.95388C74.8596 10.1098 74.8076 10.3178 74.5996 10.4218C73.9758 10.7337 72.6242 10.3178 72.1043 9.74594ZM76.2632 11.7734C75.8993 11.4615 75.8993 11.0976 76.1592 10.8896C76.1592 10.8376 76.1592 10.8376 76.1072 10.7857C76.0552 10.5777 76.2112 10.3698 76.4191 10.3698C77.3549 10.3178 78.5506 10.9936 79.0184 11.8254C79.4343 12.7091 78.4986 12.8651 77.8747 12.6052C77.3549 12.4492 76.7311 12.1893 76.2632 11.7734ZM86.5044 15.4644C86.8683 15.7763 87.2842 16.4001 86.7123 16.712C85.7766 17.2839 84.061 16.1922 84.5809 15.3084V15.2564C84.5289 15.1005 84.6329 14.8925 84.8408 14.8405C85.4127 14.7366 86.0365 15.1005 86.5044 15.4644ZM82.4495 12.9171C82.8134 13.229 83.2813 13.9568 82.7614 14.3727C82.2415 14.7886 81.4098 14.4766 80.9419 14.1127C80.734 13.9568 80.3181 13.6969 80.3181 13.3849C80.2661 13.177 80.3701 13.021 80.474 12.9171C80.422 12.7611 80.474 12.5532 80.63 12.5012C81.2018 12.1373 81.9816 12.4492 82.4495 12.9171Z" fill="#F5D752"/>
</g>
<path d="M84.7888 25.8615C84.8408 25.8615 84.8928 25.9135 84.9448 25.9135C85.1008 25.9135 85.2567 25.9655 85.3087 26.1214C85.3087 26.1734 85.3607 26.1734 85.3607 26.2254C85.4647 26.3294 85.5686 26.4853 85.6206 26.5893C85.6206 26.5893 85.6206 26.5893 85.6206 26.6413C85.5686 26.2774 85.3087 25.7575 84.7888 25.8615C84.8408 25.8615 84.8408 25.8615 84.7888 25.8615Z" fill="#F5D752"/>
<path d="M84.6849 27.0572C84.7368 27.1092 84.8928 27.1612 84.9448 27.1092L84.8928 27.0572C84.7888 26.9013 84.6329 26.6933 84.5289 26.5374C84.5289 26.6413 84.6329 27.0052 84.6849 27.0572Z" fill="#F5D752"/>
<path d="M71.3245 25.6016C71.4805 25.4457 71.5845 25.2897 71.6364 25.0818C71.5325 25.2897 71.4285 25.4457 71.3245 25.6016Z" fill="#F5D752"/>
<path d="M49.2825 13.7488C49.1266 13.6969 49.0226 13.8528 49.0226 14.0088C49.0226 14.1127 49.0226 14.2167 49.0746 14.2687C49.0746 14.3727 49.1266 14.4247 49.1786 14.5286C49.1266 14.4766 49.1786 14.4766 49.2306 14.6326C49.3865 14.9445 49.6464 15.1525 49.9584 15.2564C50.0103 15.2564 50.0623 15.2564 50.1143 15.2564C50.2183 15.2564 50.2703 15.2564 50.3223 15.1525C50.4782 14.8925 50.2703 14.5286 50.0623 14.2687C50.0103 14.2167 50.0103 14.1647 49.9584 14.1127C49.9064 14.0608 49.8024 14.0088 49.7504 13.9568C49.5945 13.9048 49.4385 13.8008 49.2825 13.7488Z" fill="#F3F0CC"/>
<path d="M50.7381 10.8895C50.5302 10.8895 50.5822 11.1495 50.6342 11.2534C50.7381 11.6173 50.9461 11.9812 51.258 12.1372C51.31 12.1892 51.4139 12.2412 51.5179 12.2412C51.7259 12.2931 51.7259 12.0332 51.7259 11.8773C51.6739 11.6693 51.6219 11.5134 51.5179 11.3574C51.4659 11.3054 51.4139 11.3054 51.362 11.3054C51.31 11.2534 51.31 11.2534 51.258 11.2014C51.05 11.1495 50.8941 10.8895 50.7381 10.8895Z" fill="#F3F0CC"/>
<path d="M52.5057 17.6998C52.5577 18.0637 52.8176 18.3756 53.1295 18.6355C53.2855 18.7395 53.3894 18.8435 53.5974 18.8435C53.6494 18.8435 53.6494 18.8435 53.6494 18.8435C53.7533 18.8954 53.9093 18.8954 53.9613 18.7915C54.1172 18.4796 53.8573 18.1157 53.6494 17.9077C53.4934 17.6998 53.2855 17.5438 53.0255 17.3879C52.7136 17.0759 52.4537 17.2839 52.5057 17.6998ZM53.0255 17.6998C52.8176 17.5958 52.9735 17.4398 53.0255 17.6998V17.6998Z" fill="#F3F0CC"/>
<path d="M54.4291 13.8008C54.3252 13.8528 54.3252 14.0087 54.3252 14.1127C54.3252 14.4246 54.4811 14.6846 54.6891 14.8925C54.741 14.9445 54.7411 14.9445 54.793 14.9965C54.845 15.0485 54.845 15.0485 54.897 15.1004C55.053 15.2564 55.4689 15.6203 55.6248 15.3604C55.8847 14.9965 55.4689 14.4766 55.2609 14.2687C55.053 14.0607 54.6891 13.7488 54.4291 13.8008Z" fill="#F3F0CC"/>
<path d="M52.6096 8.60228C52.4537 8.70625 52.5057 8.9142 52.5057 9.07015C52.5576 9.22611 52.6616 9.59001 52.9216 9.642C52.9735 9.642 52.9735 9.642 53.0255 9.642C53.0255 9.642 53.0255 9.642 53.0775 9.69398C53.2335 9.79795 53.5454 10.0059 53.6493 9.69398C53.7533 9.33008 53.4934 8.9142 53.2335 8.75824C53.0775 8.65427 52.7656 8.49831 52.6096 8.60228Z" fill="#F3F0CC"/>
<path d="M56.6645 10.7857C56.4046 10.7337 56.3526 11.0976 56.4046 11.2535C56.4566 11.4615 56.6645 11.9814 56.9764 11.8774C57.0804 11.9814 57.1844 12.0333 57.2883 12.0853C57.3923 12.1373 57.6003 12.1893 57.6523 11.9814C57.7042 11.6694 57.6003 11.4095 57.3923 11.2016C57.2364 10.9936 56.9244 10.7857 56.6645 10.7857Z" fill="#F3F0CC"/>
<path d="M56.0927 19.8832C55.9367 19.9871 55.9367 20.1951 55.9367 20.351C55.9367 20.403 55.9367 20.403 55.9367 20.455C55.8847 20.7669 56.0407 21.0269 56.3006 21.2348L56.3526 21.2868C56.5605 21.5467 56.8725 21.9106 57.1844 21.8586C57.2883 21.8586 57.3923 21.7547 57.4443 21.6507C57.4963 21.5987 57.5483 21.4947 57.5483 21.3388C57.6003 20.8709 57.2883 20.351 56.9764 20.0911C56.7165 19.9352 56.3526 19.6752 56.0927 19.8832Z" fill="#F3F0CC"/>
<path d="M58.1721 16.3481C58.0162 16.3481 57.9122 16.4001 57.8602 16.5561C57.8082 16.6601 57.8082 16.764 57.8082 16.868C57.8082 16.92 57.8082 17.024 57.8602 17.0759C57.8602 17.1799 57.9642 17.4398 57.9122 17.1799C57.9642 17.3879 58.0681 17.5958 58.2241 17.8037C58.3281 17.9597 58.484 18.1157 58.64 18.1676C58.744 18.1676 58.7959 18.1676 58.8479 18.1157C58.8999 18.1157 58.9519 18.1157 59.0039 18.0637C59.1079 18.0117 59.1079 17.8037 59.0559 17.6998C59.0559 17.6478 59.0559 17.5958 59.0559 17.5438C59.1079 17.7518 59.0559 17.5438 59.0559 17.4398C59.0039 17.2839 58.9519 17.1279 58.8479 16.972C58.7959 16.92 58.744 16.868 58.692 16.764C58.692 16.764 58.536 16.6081 58.64 16.712C58.484 16.5041 58.3801 16.4001 58.1721 16.3481Z" fill="#F3F0CC"/>
<path d="M60.2515 12.5011C60.0956 12.5011 60.0436 12.5531 59.9916 12.709C59.8876 12.969 60.0436 13.2809 60.1476 13.4888C60.1996 13.5928 60.3035 13.6968 60.3555 13.8007C60.3555 13.8007 60.4075 13.8527 60.4595 13.9047C60.5115 13.9567 60.5635 14.0087 60.6154 14.0087C60.6674 14.0607 60.7714 14.1127 60.8754 14.1127C60.9274 14.1127 60.9793 14.1127 60.9793 14.1127C61.0313 14.1127 61.0833 14.0607 61.0833 14.0087C61.1873 13.9047 61.1873 13.7488 61.1873 13.5928C61.1873 13.3849 61.0833 13.1249 60.9274 12.969C60.8234 12.709 60.5635 12.5011 60.2515 12.5011Z" fill="#F3F0CC"/>
<path d="M59.9396 22.9503C59.8357 22.8983 59.7837 22.8983 59.6797 22.8983C59.6277 22.8983 59.5757 23.0023 59.5237 23.0543C59.4718 23.1582 59.4718 23.2622 59.4718 23.3662C59.4718 23.6261 59.5757 23.886 59.7317 24.094C59.7837 24.198 59.9916 24.4059 60.1476 24.3539C60.2515 24.3019 60.3555 24.198 60.3555 24.094C60.4595 24.042 60.4595 23.8341 60.4595 23.7821C60.4075 23.4702 60.2515 23.1582 59.9916 23.0023C59.9916 23.0023 59.9916 22.9503 59.9396 22.9503Z" fill="#F3F0CC"/>
<path d="M61.8111 19.2593C61.6552 19.4673 61.7072 19.8832 61.8111 20.0911C61.9151 20.2991 61.9671 20.455 62.123 20.611C62.175 20.7149 62.331 20.8189 62.4349 20.8189C62.4869 20.8189 62.5389 20.8189 62.5909 20.7669C62.7469 20.8709 62.9028 20.8709 63.0068 20.7149C63.1628 20.455 63.0588 20.0911 62.9028 19.8312C62.7989 19.6752 62.6949 19.5193 62.5389 19.3633C62.383 19.2593 62.0191 18.9994 61.8111 19.2593Z" fill="#F3F0CC"/>
<path d="M64.2544 14.7885C63.9945 14.8925 63.9945 15.2044 64.0465 15.4644C64.0465 15.5683 64.0465 15.6723 64.0985 15.7763C64.2025 16.0882 64.4104 16.3481 64.7223 16.5041C64.8263 16.5561 64.9822 16.608 65.0862 16.608C65.1382 16.608 65.1902 16.5561 65.2422 16.5041L65.2942 16.4521C65.2942 16.4001 65.3461 16.4001 65.3461 16.3481C65.2942 16.4001 65.3461 16.4001 65.3461 16.2961C65.4501 16.0362 65.3461 15.7243 65.2942 15.5163C65.1902 15.2044 64.9822 14.9965 64.7223 14.7885C64.5664 14.7366 64.4104 14.6846 64.2544 14.7885Z" fill="#F3F0CC"/>
<path d="M62.123 8.70625C61.9151 8.75824 61.9671 9.17412 62.0191 9.27809C62.071 9.59001 62.279 10.0059 62.5909 10.1099C62.6429 10.1099 62.6949 10.1099 62.6949 10.1099C62.9028 10.1619 63.1108 10.1619 63.2667 10.0579C63.4227 9.90192 63.3187 9.59001 63.2667 9.43405C63.1627 9.22611 63.0588 9.01816 62.8508 8.91419C62.6429 8.70625 62.383 8.65426 62.123 8.70625Z" fill="#F3F0CC"/>
<path d="M57.7042 6.73078C57.4443 6.6788 57.3923 7.09468 57.4443 7.25064C57.4443 7.45859 57.5483 7.66653 57.6523 7.87447C57.7042 8.03043 57.8602 8.23837 58.0162 8.29036C58.1201 8.34234 58.1721 8.34234 58.2761 8.34234C58.2761 8.34234 58.3281 8.34234 58.3801 8.34234C58.3801 8.34234 58.3801 8.34234 58.432 8.34234C58.536 8.34234 58.588 8.29036 58.588 8.18639C58.64 7.97844 58.588 7.71851 58.536 7.51057C58.432 7.25064 58.2761 7.0427 58.0681 6.88674C57.9122 6.78277 57.8082 6.73078 57.7042 6.73078Z" fill="#F3F0CC"/>
<path d="M53.9093 6.15887C53.9613 6.26284 54.0132 6.4188 53.9613 6.57476C54.0132 6.52277 54.0132 6.36681 53.8053 5.95093C53.8573 6.0549 53.9093 6.10688 53.9093 6.15887Z" fill="#F3F0CC"/>
<path d="M53.9093 6.15894C53.9093 6.10695 53.8573 6.05497 53.8573 6.00298C53.8053 5.79504 53.6493 5.58709 53.4934 5.48312C53.4414 5.43114 53.3894 5.43114 53.2854 5.37915C53.2335 5.37915 53.1295 5.37915 53.1295 5.43114C53.1295 5.43114 53.1295 5.48312 53.0775 5.48312C52.8176 5.79504 53.2335 6.83475 53.5974 6.83475C53.7013 6.83475 53.7533 6.83475 53.8053 6.78277L53.8573 6.73078C53.8573 6.73078 53.9093 6.73078 53.9093 6.6788L53.9613 6.62681V6.57482C54.0133 6.47085 53.9613 6.31489 53.9093 6.15894Z" fill="#F3F0CC"/>
<path d="M67.1657 10.4737C67.1657 10.5257 67.1137 10.5257 67.1137 10.5777C67.0617 10.5777 67.0617 10.5777 67.0097 10.5777C66.9577 10.5777 66.8537 10.5257 66.7498 10.5257C66.6978 10.5257 66.6458 10.6297 66.6458 10.6816C66.6458 10.8376 66.6978 11.0455 66.8018 11.2015C66.9057 11.3575 67.1137 11.4614 67.3216 11.5134C67.3736 11.5134 67.4776 11.5654 67.5296 11.5134C67.6335 11.4614 67.6855 11.3055 67.6855 11.2015C67.6855 10.9936 67.6335 10.7336 67.4776 10.5777C67.4776 10.4737 67.3216 10.3177 67.1657 10.4737Z" fill="#F3F0CC"/>
<path d="M63.3707 25.6537C63.2667 25.6017 63.2147 25.6017 63.1108 25.6017C63.0068 25.6017 62.9028 25.7057 62.8508 25.8096C62.7988 25.9136 62.7988 26.0696 62.7988 26.1215C62.7988 26.3295 62.9028 26.5374 63.0068 26.6934C63.1108 26.8493 63.2147 27.0573 63.4227 27.1613C63.5266 27.2132 63.7346 27.2652 63.8386 27.1093C63.8386 27.0573 63.8905 27.0573 63.8905 27.0053C63.9945 26.8493 63.9945 26.6414 63.9425 26.4335C63.9425 26.4335 63.9425 26.4335 63.9425 26.3815C63.9425 26.2775 63.8905 26.1215 63.8386 26.0176C63.7866 25.9136 63.6826 25.7576 63.6306 25.6537C63.4747 25.7576 63.4227 25.7057 63.3707 25.6537Z" fill="#F3F0CC"/>
<path d="M65.5541 21.1828C65.3462 21.1828 65.2422 21.4428 65.1902 21.6507C65.1382 21.8586 65.1902 22.0666 65.2942 22.2745C65.2942 22.3265 65.3461 22.4305 65.3461 22.4825C65.3981 22.6384 65.5021 22.7944 65.6061 22.9503C65.762 23.1583 66.022 23.3662 66.3339 23.3142C66.4898 23.2623 66.6458 23.1583 66.6458 23.0023C66.6978 22.6904 66.6458 22.3785 66.5418 22.0666C66.4379 21.7547 66.2819 21.4947 66.022 21.2868C65.866 21.1308 65.7101 21.1308 65.5541 21.1828Z" fill="#F3F0CC"/>
<path d="M68.4653 16.8679C68.4133 16.8679 68.4133 16.8679 68.4133 16.8679C68.3094 16.8679 68.2054 16.9199 68.1014 16.9719C67.9974 17.0759 67.9974 17.2838 67.9974 17.4398C67.9974 17.6997 68.1014 18.0116 68.3093 18.2715C68.4133 18.4275 68.5173 18.5315 68.6733 18.5835C68.7772 18.5835 68.8812 18.5315 68.9332 18.4795C69.2451 18.1676 69.0891 17.6477 68.8812 17.2838C68.8812 17.0759 68.6732 16.8159 68.4653 16.8679Z" fill="#F3F0CC"/>
<path d="M70.7527 12.1373C70.7007 12.0853 70.6487 12.0853 70.5447 12.1373C70.4928 12.1892 70.4408 12.2412 70.3888 12.2932C70.3368 12.4492 70.3368 12.6051 70.3888 12.7611C70.4408 12.917 70.4408 13.021 70.5447 13.125C70.5967 13.229 70.7007 13.4369 70.8567 13.4889C70.9086 13.4889 70.9606 13.5409 71.0126 13.5409C71.0646 13.5409 71.1166 13.5409 71.1686 13.4889C71.2206 13.4369 71.2206 13.3329 71.2206 13.2809C71.2206 13.177 71.2206 13.073 71.1686 12.917C71.1686 12.917 71.1686 12.917 71.1686 12.8651C71.1686 12.8131 71.1686 12.8131 71.1686 12.7611C71.1166 12.5531 71.0126 12.3972 70.9086 12.2412C70.9086 12.1892 70.8567 12.1892 70.7527 12.1373Z" fill="#F3F0CC"/>
<path d="M66.4379 28.6168C66.3339 28.7208 66.3339 28.9287 66.3339 29.0327C66.3339 29.2926 66.4379 29.5526 66.5938 29.7605C66.6978 29.9685 66.9057 30.0724 67.1137 30.1764C67.3216 30.2804 67.4776 30.0724 67.4776 29.8645C67.5296 29.6565 67.4256 29.2926 67.3736 29.1887C67.2696 28.9807 67.1137 28.8248 66.9057 28.7208C66.8017 28.5648 66.5938 28.4609 66.4379 28.6168Z" fill="#F3F0CC"/>
<path d="M69.505 24.25C69.3491 24.302 69.3491 24.5619 69.3491 24.7179C69.3491 24.9778 69.453 25.2378 69.609 25.4457C69.661 25.4977 69.661 25.5497 69.713 25.6017C69.765 25.6537 69.9209 25.7576 70.0249 25.7056C70.1808 25.6537 70.1808 25.3937 70.1808 25.2378C70.1808 25.0298 70.0769 24.8739 70.0249 24.6659C69.9729 24.5619 69.9209 24.458 69.8169 24.406C69.765 24.302 69.609 24.198 69.505 24.25Z" fill="#F3F0CC"/>
<path d="M72.3642 19.2074C72.2083 19.1554 72.1043 19.2594 72.0523 19.3634C71.8444 19.5193 71.9484 19.9872 72.0523 20.1952C72.2083 20.5071 72.4682 20.923 72.8841 20.871C73.092 20.871 73.144 20.663 73.144 20.5071C73.144 20.4031 73.144 20.2991 73.092 20.1952C73.092 20.0912 72.9881 19.8313 73.092 20.1432C73.0401 19.9352 72.9881 19.7793 72.8321 19.6233C72.7281 19.4154 72.5722 19.2594 72.3642 19.2074Z" fill="#F3F0CC"/>
<path d="M74.9635 14.3206C74.7556 14.2687 74.7036 14.4766 74.7036 14.6326C74.7036 14.6845 74.7036 14.7365 74.7036 14.7885C74.5996 14.9445 74.7036 15.2044 74.7556 15.3084C74.8076 15.5163 74.9635 15.6723 75.0675 15.8282C75.1195 15.8802 75.2754 15.9842 75.3794 15.9842C75.5354 15.9842 75.5874 15.9322 75.6393 15.7762C75.7433 15.5163 75.6393 15.2564 75.5873 14.9965C75.5354 14.7885 75.3794 14.5806 75.2234 14.4246C75.1715 14.3726 75.0675 14.3206 74.9635 14.3206Z" fill="#F3F0CC"/>
<path d="M97.9932 15.7242C96.2257 13.2808 95.3939 10.5256 96.6936 7.61438C96.9535 6.99055 97.3694 6.52268 97.7853 6.05481C92.6387 7.66637 87.7 11.3054 86.0365 16.0881C83.0213 24.6657 89.5715 34.2831 95.7059 39.7416C96.6936 40.6254 97.7333 41.3532 98.877 42.081C100.125 42.8608 101.268 43.6925 102.568 44.3684C106.883 46.6037 111.146 50.0348 114.161 42.6008C117.748 33.7113 109.898 26.7452 103.816 21.6506C101.788 19.883 99.5528 17.8556 97.9932 15.7242Z" fill="#579535"/>
<path d="M101.528 5.22302C95.238 5.95082 88.1679 10.1097 86.0365 16.0881C83.7491 22.5343 86.9203 29.5524 91.2351 35.0109C90.3513 33.3473 89.5196 31.6318 88.9477 29.8123C87.856 26.4332 87.96 23.0022 89.7275 19.883C91.7549 16.348 95.134 13.6967 98.6171 11.6693C99.5528 11.1494 100.489 10.6295 101.528 10.1617C103.452 8.65409 106.155 7.61437 108.13 6.67862C105.999 6.00281 103.764 5.53494 101.528 5.22302Z" fill="#73BE46"/>
<path opacity="0.6" d="M97.8373 18.9473C99.0329 20.7668 100.644 22.3783 102.256 23.8339C104.024 25.4455 105.791 27.057 107.455 28.7726C108.234 29.5524 109.014 30.3321 109.794 31.1639C110.574 32.0477 111.198 33.0354 111.873 34.0231C112.601 35.0109 112.965 36.3625 113.173 37.5582C113.329 38.4939 113.589 39.6376 113.485 40.6253C113.173 38.9618 111.977 37.4022 111.146 35.9986C110.054 34.1791 108.65 32.5155 107.247 30.956C105.635 29.1885 103.868 27.5769 101.996 26.0693C100.125 24.5097 98.1492 22.9502 96.0178 21.8065C95.8618 21.7545 95.9658 22.0664 96.0697 22.1184C99.7088 24.5617 103.192 27.5769 106.259 30.696C106.987 31.4238 107.611 32.2036 108.286 32.9834C108.91 33.7112 109.43 34.595 110.054 35.3228C110.73 36.1026 111.146 36.9863 111.665 37.8701C112.341 38.9618 112.965 39.8975 113.329 41.1452C113.329 41.1972 113.381 41.2492 113.381 41.2492C113.381 41.3011 113.329 41.3531 113.329 41.4051C113.329 41.4051 113.329 41.4571 113.277 41.4571C113.121 41.1452 113.017 40.7293 112.861 40.4694C112.549 39.9495 112.237 39.3777 111.925 38.8578C111.25 37.7141 110.418 36.6224 109.586 35.6347C107.923 33.6592 105.947 31.9437 103.92 30.3321C103.816 30.2282 103.868 30.5921 103.92 30.6441C105.999 32.4636 108.026 34.491 109.794 36.6744C110.626 37.7141 111.406 38.9098 112.081 40.0535C112.445 40.7293 112.809 41.717 113.329 42.2369C113.381 42.2889 113.433 42.3409 113.485 42.2889C113.849 42.0289 113.901 41.717 113.797 41.3011C114.005 40.6773 113.901 39.9495 113.901 39.3257C113.849 38.182 113.589 37.0383 113.277 35.9466C112.601 33.7632 111.146 31.7877 109.638 30.1242C107.871 28.1487 105.947 26.2253 103.92 24.5097C101.788 22.6902 99.5528 21.0267 97.9412 18.7393C97.7853 18.5834 97.7853 18.8433 97.8373 18.9473Z" fill="#63A53B"/>
<path opacity="0.6" d="M92.6387 24.3017C94.6142 27.2649 96.8495 29.8642 99.5008 32.2036C99.7088 32.4115 99.6048 31.8917 99.5528 31.7877C98.4611 30.54 97.3174 29.3964 96.1217 28.2007C94.8741 26.953 93.7824 25.4974 92.6907 24.0938C92.5867 23.9378 92.5867 24.2498 92.6387 24.3017Z" fill="#63A53B"/>
<path opacity="0.6" d="M91.2351 24.4057C91.7549 25.3935 92.4308 26.3292 93.1066 27.265C93.8344 28.2527 94.5102 29.2924 95.4979 30.0722C95.8098 30.3321 95.6539 29.7083 95.5499 29.5523C94.0423 27.8888 92.5347 26.1213 91.3391 24.2498C91.2351 24.0938 91.1831 24.3537 91.2351 24.4057Z" fill="#63A53B"/>
<path opacity="0.6" d="M106.779 6.3147C102.516 6.3147 98.2012 6.99051 94.2503 8.65406C94.1463 8.70604 94.2503 8.91399 94.3542 8.91399C96.4856 8.18619 98.6691 7.7703 100.852 7.4064C101.892 7.25044 102.932 7.19846 104.024 7.09448C104.18 7.09448 104.336 7.09448 104.543 7.0425C104.128 7.14647 103.66 7.30243 103.244 7.4064C102.672 7.51037 102.152 7.82228 101.58 7.97824C100.904 8.18619 100.177 8.34214 99.5008 8.60207C96.9015 9.5898 94.4582 11.0974 92.2748 12.7609C92.2228 12.8129 92.3268 12.9689 92.3788 12.9689C94.6661 11.4093 97.1615 10.1616 99.7088 9.17392C100.281 8.96597 100.852 8.75803 101.424 8.65406C100.8 8.96597 100.177 9.27789 99.6048 9.5898C98.773 10.0577 97.9412 10.3696 97.1615 10.8894C95.9138 11.7212 94.6661 12.501 93.4705 13.4368C92.7947 14.0086 92.1188 14.5804 91.495 15.2043C90.7672 15.9321 90.2473 16.8158 89.6235 17.5956C89.6235 17.5956 89.6235 17.6996 89.6755 17.6996C90.8712 16.3999 91.9629 15.1523 93.4185 14.1126C94.7181 13.1768 96.0178 12.2931 97.3694 11.4093C98.773 10.4736 100.437 9.74576 101.944 9.01796C103.348 8.34214 104.803 7.82229 106.311 7.35441C106.571 7.30243 106.779 7.25044 107.039 7.09448C107.143 7.0425 107.091 6.73058 106.935 6.6786C106.987 6.57463 106.883 6.3147 106.779 6.3147Z" fill="#63A53B"/>
<path d="M108.546 39.4298C100.489 34.3352 86.5044 29.3965 76.7311 28.8247C72.2083 28.5648 67.4256 29.3445 63.0588 30.4882C59.3678 31.476 55.4689 32.9835 52.6616 35.6348C52.8176 35.6348 52.9215 35.5828 53.0775 35.5828C54.897 35.3749 56.7165 35.4269 58.536 35.6868C62.4349 36.2586 66.1779 37.7143 69.713 39.3778C73.6639 41.2493 77.2509 43.4847 80.8379 45.98C84.373 48.4233 87.908 50.9186 91.8069 52.7382C95.6019 54.4537 99.8647 55.4934 103.972 54.4017C106.467 53.7779 108.702 52.4782 110.158 50.3468C111.146 48.9432 111.769 47.3836 112.185 45.7201C111.925 43.1728 111.51 41.2493 108.546 39.4298Z" fill="#73BE46"/>
<path d="M110.574 48.5273C108.858 49.9829 105.375 49.2032 103.348 48.8393C100.177 48.2674 97.2654 47.1237 94.4062 45.7721C93.2625 45.2522 92.1188 44.8363 90.9751 44.3685C88.7917 43.3807 86.7123 42.2371 84.6329 41.1454C80.474 39.0659 75.8473 37.4544 71.3765 36.2067C70.3888 35.9468 69.3491 35.7908 68.3613 35.4789C67.1656 35.115 65.918 34.8551 64.6703 34.6991C62.4869 34.4392 60.3035 34.0233 58.0681 34.2312C58.0161 34.2312 58.0681 34.4912 58.1201 34.4912C60.4595 34.5432 62.8508 35.115 65.1382 35.4789C66.2819 35.6868 67.4256 35.8948 68.5173 36.2587C69.609 36.5706 70.7527 36.7785 71.8444 37.0905C74.1317 37.7663 76.4191 38.65 78.6545 39.5338C81.0459 40.4176 83.3852 41.4053 85.6206 42.601C87.7 43.6927 89.7795 44.8363 91.9629 45.7201C94.0943 46.6039 96.1217 47.5916 98.3051 48.4234C101.528 49.671 104.907 49.9829 108.286 49.879C100.8 51.0227 93.1586 49.0472 86.4524 45.5641C84.4769 44.5244 82.6054 43.3807 80.7339 42.2371C84.217 45.1483 88.4278 47.2277 92.6387 48.7353C96.7976 50.1909 101.372 51.4905 105.843 51.1786C107.715 50.9707 110.158 50.5548 110.574 48.5273Z" fill="#63A53B"/>
<path d="M109.794 50.0349C109.066 50.5027 108.442 50.9186 107.663 51.2825C106.831 51.6464 105.947 52.0103 105.063 52.2703C103.088 52.7901 101.008 52.8941 98.981 52.6861C96.9535 52.4782 95.03 51.6984 93.1586 50.9706C90.9752 50.1388 88.7917 49.2551 86.9203 47.8515C86.8163 47.7475 86.8683 48.1114 86.9722 48.1634C88.7918 49.567 90.8712 50.5547 92.9506 51.4385C94.9261 52.2703 97.0055 53.05 99.1889 53.362C101.06 53.6219 102.984 53.4659 104.803 53.102C105.791 52.8941 106.675 52.3222 107.559 51.8544C108.442 51.3865 109.118 50.8147 109.898 50.2428C109.95 50.2428 109.846 49.9829 109.794 50.0349Z" fill="#63A53B"/>
<path d="M100.281 36.7785C100.125 36.7266 100.229 37.0385 100.333 37.0905C101.32 37.5583 102.36 38.0262 103.296 38.598C104.491 39.3258 105.583 40.2616 106.623 41.1973C107.663 42.0291 108.598 42.9129 109.378 44.0046C109.742 44.4724 110.054 44.9923 110.314 45.5122C110.574 46.032 111.094 46.9158 110.938 47.4876C110.938 47.5396 110.938 47.5916 110.99 47.6956C110.938 47.6436 110.938 47.6436 110.886 47.6436C110.262 47.6436 109.586 47.4876 108.962 47.2797C108.234 47.0197 107.455 46.9158 106.727 46.7078C104.959 46.188 103.296 45.2522 101.684 44.4724C98.6171 42.9129 95.4459 41.4573 92.2748 40.0536C89.2076 38.702 86.2444 37.2464 83.1253 35.9988C81.4618 35.3229 79.7982 34.7511 78.1347 34.2832C76.5751 33.8673 75.0155 33.7634 73.404 33.5554C73.3 33.5554 73.404 33.7634 73.4559 33.7634C74.9635 34.0753 76.4711 34.2312 77.9267 34.6991C79.7462 35.2709 81.5137 35.9988 83.2813 36.7266C86.6083 38.0782 89.7275 39.7417 93.0546 41.1453C94.6142 41.8212 96.0698 42.601 97.5774 43.3288C99.1889 44.0566 100.8 44.7844 102.412 45.5641C103.868 46.2919 105.375 47.0717 106.935 47.5396C108.182 47.9555 109.742 48.3714 111.094 48.2674C111.198 48.2674 111.198 48.1114 111.146 48.0075C111.198 48.0595 111.25 48.0595 111.25 48.0075C111.666 47.2797 111.094 46.2919 110.782 45.5641C110.262 44.3165 109.378 43.2248 108.494 42.237C107.403 41.0414 105.947 40.1056 104.647 39.1179C103.296 38.0262 101.84 37.4024 100.281 36.7785Z" fill="#63A53B"/>
<path d="M104.543 42.0811C102.412 40.8854 100.229 39.7417 98.0452 38.702C95.7579 37.6103 93.4185 36.6745 91.1311 35.6348C88.9997 34.6991 86.8683 33.6594 84.5809 33.0875C84.5289 33.0875 84.5809 33.2435 84.6329 33.2955C87.0242 34.0233 89.2076 35.167 91.495 36.2067C93.6784 37.2464 95.9138 38.1821 98.0972 39.2738C100.177 40.2616 102.256 41.4053 104.284 42.5489C105.271 43.1208 106.259 43.6926 107.299 44.2645C108.182 44.7323 109.17 45.2522 109.898 45.928C110.054 46.084 110.002 45.7201 109.95 45.6161C109.378 44.9923 108.598 44.4724 107.871 44.0565C106.779 43.2767 105.635 42.7049 104.543 42.0811Z" fill="#63A53B"/>
<path d="M76.731 28.8247C72.2083 28.5648 67.4256 29.3445 63.0588 30.4882C59.3678 31.476 55.4689 32.9835 52.6616 35.6348C52.8176 35.6348 52.9215 35.5828 53.0775 35.5828C53.8053 35.5308 54.5331 35.4789 55.3129 35.4789C59.5237 33.8153 63.9945 32.8796 68.5693 32.6716C74.9635 32.4637 81.3578 33.6074 87.3881 35.7388C90.6113 36.8825 93.8344 38.2341 96.8496 39.7937C99.4488 41.1453 102.776 42.9128 104.232 45.5641C104.751 46.5518 105.063 47.7995 104.491 48.8392C103.868 49.9829 102.568 50.5547 101.32 50.7107C100.073 50.8667 98.721 50.8147 97.3694 50.6067C99.5528 51.4905 101.84 52.0623 104.232 52.0103C104.647 52.0103 104.647 52.5822 104.336 52.6862C101.736 53.5179 98.981 53.8818 96.2777 53.5699C94.4062 53.31 92.5347 52.8421 90.7672 52.2183C91.1831 52.4262 91.547 52.6342 91.9629 52.7901C95.7578 54.5057 100.021 55.5454 104.128 54.4537C106.623 53.8298 108.858 52.5302 110.314 50.3988C111.302 48.9952 111.925 47.4356 112.341 45.7721C111.977 43.1728 111.562 41.2493 108.598 39.3778C100.541 34.3352 86.5564 29.3445 76.731 28.8247Z" fill="#73BE46"/>
<path opacity="0.6" d="M95.342 51.3345C94.6661 51.0226 93.9383 50.7627 93.2625 50.5027C91.495 49.8269 89.9354 48.9951 88.3239 48.0074C85.5166 46.2919 82.8134 44.4204 80.1101 42.6009C78.8625 41.7691 77.6668 40.8854 76.4191 40.1056C74.8596 39.1698 73.196 38.3381 71.5844 37.4543C70.0769 36.6225 68.4653 36.2066 66.8537 35.6348C65.5541 35.1669 64.0465 34.699 62.6429 34.907C62.5389 34.907 62.6429 35.2709 62.7469 35.2709C64.3584 35.2709 65.918 36.1027 67.3216 36.7785C69.0371 37.6622 70.7007 38.494 72.3123 39.4298C73.8198 40.3135 75.3794 41.1973 76.887 42.133C78.1347 42.9128 79.3303 43.7966 80.526 44.6283C83.1253 46.3439 85.7766 48.0074 88.4798 49.567C89.9354 50.3988 91.3391 51.0746 92.9506 51.5424C93.7304 51.7504 94.4582 51.9583 95.238 52.1663C96.0178 52.3742 96.7976 52.4262 97.5773 52.5302C97.7853 52.5822 97.6293 52.0623 97.4734 52.0103C96.7976 51.6984 96.0178 51.6464 95.342 51.3345Z" fill="#73BE46"/>
<path opacity="0.6" d="M95.9658 16.556C96.7456 17.4397 97.3694 18.5314 98.0972 19.4672C98.721 20.299 99.3449 21.2867 100.073 22.0145C100.904 22.7943 101.632 23.73 102.412 24.5618C103.348 25.5495 104.284 26.4333 105.271 27.369C108.39 30.3322 111.821 33.2954 112.965 37.5582C113.017 37.6622 113.277 38.0261 113.277 37.7142C113.329 36.9864 113.069 36.4146 112.861 35.6868C112.549 34.5951 112.133 33.5553 111.562 32.5676C110.314 30.2802 108.702 28.2528 106.727 26.5892C105.739 25.7575 104.803 24.7697 103.868 23.886C102.88 22.9502 101.84 21.9625 100.904 20.9748C100.073 20.091 99.1889 19.2592 98.3052 18.4275C97.5254 17.6997 96.8496 16.8679 95.9658 16.1921C95.8098 16.1401 95.9138 16.504 95.9658 16.556Z" fill="#73BE46"/>
<path opacity="0.6" d="M102.256 6.8346C100.333 6.73063 98.4091 7.35446 96.5896 7.82234C94.6661 8.34219 92.5867 9.48588 91.1831 10.8375C89.6235 12.3451 88.1679 13.8007 87.3361 15.8281C86.6083 17.4917 86.2444 19.8311 86.4524 21.6506C86.4524 21.7025 86.5564 21.8585 86.5564 21.7545C86.6603 19.883 87.2322 17.6996 88.1159 16.0361C89.0517 14.2686 90.5073 12.9169 91.9629 11.5653C93.4185 10.2137 95.4979 9.48588 97.2654 8.70609C98.929 7.97829 100.593 7.40645 102.412 7.14652C102.464 7.19851 102.36 6.88659 102.256 6.8346Z" fill="#73BE46"/>
<path opacity="0.6" d="M72.1563 4.54736C72.8321 5.01523 73.3 5.74303 73.9758 6.2109C74.8596 6.83473 75.7953 7.45856 76.5751 8.18636C77.043 8.60225 77.6148 8.91416 78.0827 9.27806C78.7585 9.79792 79.5383 10.2138 80.2661 10.6297C80.422 10.6817 80.3181 10.3698 80.2141 10.3178C78.9145 9.33005 77.6148 8.39431 76.3671 7.40658C75.6913 6.88672 74.9635 6.31487 74.2357 5.847C73.5079 5.37913 72.8841 4.70331 72.1563 4.28743C72.0003 4.18346 72.1043 4.49537 72.1563 4.54736Z" fill="#73BE46"/>
</g>
<defs>
<filter id="filter0_d_16_51" x="42.5954" y="0" width="85.7986" height="68.9014" filterUnits="userSpaceOnUse" color-interpolation-filters="sRGB">
<feFlood flood-opacity="0" result="BackgroundImageFix"/>
<feColorMatrix in="SourceAlpha" type="matrix" values="0 0 0 0 0 0 0 0 0 0 0 0 0 0 0 0 0 0 127 0" result="hardAlpha"/>
<feOffset dx="4" dy="6"/>
<feGaussianBlur stdDeviation="4"/>
<feComposite in2="hardAlpha" operator="out"/>
<feColorMatrix type="matrix" values="0 0 0 0 0 0 0 0 0 0 0 0 0 0 0 0 0 0 0.6 0"/>
<feBlend mode="normal" in2="BackgroundImageFix" result="effect1_dropShadow_16_51"/>
<feBlend mode="normal" in="SourceGraphic" in2="effect1_dropShadow_16_51" result="shape"/>
</filter>
<radialGradient id="paint0_radial_16_51" cx="0" cy="0" r="1" gradientUnits="userSpaceOnUse" gradientTransform="translate(92.1509 132.954) rotate(-134.708) scale(77.73)">
<stop stop-color="#26B90B"/>
<stop offset="0.7219" stop-color="#1D7B03"/>
<stop offset="1" stop-color="#1A6200"/>
</radialGradient>
<radialGradient id="paint1_radial_16_51" cx="0" cy="0" r="1" gradientUnits="userSpaceOnUse" gradientTransform="translate(55.3831 86.9144) rotate(-134.708) scale(68.9815)">
<stop stop-color="#8DEF1B"/>
<stop offset="0.5176" stop-color="#57B110"/>
<stop offset="1" stop-color="#217406"/>
</radialGradient>
<radialGradient id="paint2_radial_16_51" cx="0" cy="0" r="1" gradientUnits="userSpaceOnUse" gradientTransform="translate(124.053 74.9759) rotate(-134.708) scale(82.8919 82.8919)">
<stop stop-color="#D0D9C5"/>
<stop offset="0.6288" stop-color="#F0F3ED"/>
<stop offset="1" stop-color="white"/>
</radialGradient>
<radialGradient id="paint3_radial_16_51" cx="0" cy="0" r="1" gradientUnits="userSpaceOnUse" gradientTransform="translate(96.0156 37.1312) rotate(-134.708) scale(87.4458 87.4458)">
<stop stop-color="#D0D9C5"/>
<stop offset="0.6288" stop-color="#F0F3ED"/>
<stop offset="1" stop-color="white"/>
</radialGradient>
<radialGradient id="paint4_radial_16_51" cx="0" cy="0" r="1" gradientUnits="userSpaceOnUse" gradientTransform="translate(61.7526 98.4319) rotate(-134.708) scale(86.7905)">
<stop stop-color="#008300"/>
<stop offset="0.9692" stop-color="#004500"/>
<stop offset="1" stop-color="#004300"/>
</radialGradient>
<radialGradient id="paint5_radial_16_51" cx="0" cy="0" r="1" gradientUnits="userSpaceOnUse" gradientTransform="translate(9.76921 69.5595) rotate(-83.8117) scale(116.065 116.065)">
<stop stop-color="#26B90B"/>
<stop offset="0.7219" stop-color="#1D7B03"/>
<stop offset="1" stop-color="#1A6200"/>
</radialGradient>
<radialGradient id="paint6_radial_16_51" cx="0" cy="0" r="1" gradientUnits="userSpaceOnUse" gradientTransform="translate(16.1245 17.1303) rotate(-83.8117) scale(118.974 118.974)">
<stop stop-color="#8DEF1B"/>
<stop offset="0.5176" stop-color="#57B110"/>
<stop offset="1" stop-color="#217406"/>
</radialGradient>
<radialGradient id="paint7_radial_16_51" cx="0" cy="0" r="1" gradientUnits="userSpaceOnUse" gradientTransform="translate(90.3497 99.11) rotate(-83.8117) scale(116.376 116.377)">
<stop stop-color="#D0D9C5"/>
<stop offset="0.6288" stop-color="#F0F3ED"/>
<stop offset="1" stop-color="white"/>
</radialGradient>
<radialGradient id="paint8_radial_16_51" cx="0" cy="0" r="1" gradientUnits="userSpaceOnUse" gradientTransform="translate(106.294 14.8198) rotate(-83.8117) scale(121.156 121.156)">
<stop stop-color="#D0D9C5"/>
<stop offset="0.6288" stop-color="#F0F3ED"/>
<stop offset="1" stop-color="white"/>
</radialGradient>
<radialGradient id="paint9_radial_16_51" cx="0" cy="0" r="1" gradientUnits="userSpaceOnUse" gradientTransform="translate(10.176 44.1656) rotate(-83.8117) scale(136.084 136.084)">
<stop stop-color="#008300"/>
<stop offset="0.9692" stop-color="#004500"/>
<stop offset="1" stop-color="#004300"/>
</radialGradient>
<linearGradient id="paint10_linear_16_51" x1="58.7873" y1="50.1875" x2="103.385" y2="58.292" gradientUnits="userSpaceOnUse">
<stop stop-color="#FF7C5E"/>
<stop offset="1" stop-color="#FFF05C"/>
</linearGradient>
<radialGradient id="paint11_radial_16_51" cx="0" cy="0" r="1" gradientUnits="userSpaceOnUse" gradientTransform="translate(62.5742 62.644) rotate(64.0704) scale(43.1295 43.1294)">
<stop stop-color="#FFA633"/>
<stop offset="0.1138" stop-color="#FFB841"/>
<stop offset="0.3513" stop-color="#FFD75B"/>
<stop offset="0.5825" stop-color="#FFED6D"/>
<stop offset="0.8028" stop-color="#FFFA78"/>
<stop offset="1" stop-color="#FFFF7C"/>
</radialGradient>
<linearGradient id="paint12_linear_16_51" x1="75.5597" y1="41.5063" x2="104.196" y2="46.7102" gradientUnits="userSpaceOnUse">
<stop stop-color="#FF7C5E"/>
<stop offset="1" stop-color="#FFF05C"/>
</linearGradient>
<radialGradient id="paint13_radial_16_51" cx="0" cy="0" r="1" gradientUnits="userSpaceOnUse" gradientTransform="translate(76.7256 45.8606) rotate(64.0704) scale(30.317 30.317)">
<stop stop-color="#FFA633"/>
<stop offset="0.1138" stop-color="#FFB841"/>
<stop offset="0.3513" stop-color="#FFD75B"/>
<stop offset="0.5825" stop-color="#FFED6D"/>
<stop offset="0.8028" stop-color="#FFFA78"/>
<stop offset="1" stop-color="#FFFF7C"/>
</radialGradient>
<linearGradient id="paint14_linear_16_51" x1="72.5013" y1="60.0354" x2="102.812" y2="65.5437" gradientUnits="userSpaceOnUse">
<stop stop-color="#FF7C5E"/>
<stop offset="1" stop-color="#FFF05C"/>
</linearGradient>
<radialGradient id="paint15_radial_16_51" cx="0" cy="0" r="1" gradientUnits="userSpaceOnUse" gradientTransform="translate(75.9425 76.5431) rotate(64.0704) scale(37.8765 37.8765)">
<stop stop-color="#FFA633"/>
<stop offset="0.1138" stop-color="#FFB841"/>
<stop offset="0.3513" stop-color="#FFD75B"/>
<stop offset="0.5825" stop-color="#FFED6D"/>
<stop offset="0.8028" stop-color="#FFFA78"/>
<stop offset="1" stop-color="#FFFF7C"/>
</radialGradient>
<linearGradient id="paint16_linear_16_51" x1="95.7905" y1="63.8146" x2="104.795" y2="65.451" gradientUnits="userSpaceOnUse">
<stop stop-color="#FF7C5E"/>
<stop offset="1" stop-color="#FFF05C"/>
</linearGradient>
<radialGradient id="paint17_radial_16_51" cx="0" cy="0" r="1" gradientUnits="userSpaceOnUse" gradientTransform="translate(97.4951 75.5208) rotate(64.0704) scale(27.929 27.929)">
<stop stop-color="#FFA633"/>
<stop offset="0.1138" stop-color="#FFB841"/>
<stop offset="0.3513" stop-color="#FFD75B"/>
<stop offset="0.5825" stop-color="#FFED6D"/>
<stop offset="0.8028" stop-color="#FFFA78"/>
<stop offset="1" stop-color="#FFFF7C"/>
</radialGradient>
</defs>
</svg>
