<svg width="121" height="107" viewBox="0 0 121 107" fill="none" xmlns="http://www.w3.org/2000/svg">
<path fill-rule="evenodd" clip-rule="evenodd" d="M6.49316 55.3894C6.23323 63.2912 10.0282 71.1931 15.4347 77.3274C16.3185 72.7526 18.19 69.0097 18.5019 68.8537C18.6578 68.7497 18.138 74.936 18.3459 80.2906C21.0492 82.7339 23.5965 85.0733 26.1438 87.4126C27.4434 85.3852 28.951 83.6697 29.211 83.7736C29.4709 83.8776 30.1467 88.0365 30.5626 91.4155C34.2536 94.6906 38.2045 97.9138 42.4673 100.565C43.5071 98.4856 45.2746 95.2105 45.5865 95.2105C45.8984 95.2105 45.7944 100.149 46.5222 102.852C50.2132 104.724 54.1641 106.128 58.375 106.751C59.0508 104.1 59.4147 101.605 59.5187 99.1094C57.4392 97.6538 55.7757 96.3022 55.9317 96.1462C56.1916 95.8863 57.6992 95.4704 59.4667 95.2105C59.2587 91.6235 58.479 88.0885 57.3353 84.2935C54.0082 82.9938 48.2378 82.526 48.1858 82.0581C48.1858 81.7462 50.5251 80.2906 55.5678 79.4068C54.3201 76.1837 52.5006 72.9606 50.2652 69.8934C47.6139 69.8414 44.9627 69.6855 44.8067 69.2696C44.7027 68.9577 45.4825 67.5021 47.0421 65.9425C42.2594 60.6919 36.229 56.3771 29.9388 54.2977C24.8441 55.3374 19.8535 56.689 19.7495 56.3771C19.6456 56.1692 21.3611 54.6616 24.0644 53.05C18.6059 52.5302 11.6917 53.154 6.49316 55.3894Z" fill="#507F19"/>
<path fill-rule="evenodd" clip-rule="evenodd" d="M26.1958 87.4126C23.6485 85.0732 21.1012 82.7339 18.3979 80.2905C18.138 74.884 18.7098 68.7497 18.5538 68.8537C18.2419 69.0096 16.3704 72.7526 15.4867 77.3273C10.0282 71.245 6.28519 63.3432 6.54512 55.3893C25.8319 66.0464 50.0572 91.7794 58.4789 106.751C54.2681 106.127 50.3172 104.724 46.6262 102.852C45.9504 100.149 46.0543 95.2105 45.6904 95.2105C45.3785 95.2105 43.559 98.4336 42.5713 100.565C38.3085 97.9137 34.3575 94.6906 30.6665 91.4155C30.2506 88.0364 29.5748 83.8776 29.3149 83.7736C29.003 83.6696 27.4954 85.3332 26.1958 87.4126Z" fill="url(#paint0_radial_16_138)"/>
<path fill-rule="evenodd" clip-rule="evenodd" d="M58.4269 106.752C50.0052 91.7797 25.8318 65.9947 6.49312 55.3896C11.6917 53.2062 18.6058 52.5304 24.1683 53.0502C21.517 54.6618 19.8015 56.2214 19.8535 56.3773C20.0094 56.6373 24.9481 55.2856 30.0427 54.2979C36.333 56.3773 42.3633 60.6921 47.146 65.9427C45.5345 67.5023 44.7547 68.9579 44.9106 69.2698C45.0666 69.6857 47.7179 69.8416 50.3691 69.8936C52.6045 72.9608 54.424 76.1839 55.6717 79.407C50.6291 80.3428 48.2897 81.7984 48.2897 82.0583C48.2897 82.5262 54.1121 82.9941 57.4392 84.2937C58.6349 88.0887 59.3627 91.6237 59.5706 95.2107C57.8031 95.4187 56.2955 95.8865 56.0356 96.1465C55.8796 96.3024 57.5432 97.654 59.6226 99.1097C59.4667 101.605 59.1028 104.1 58.4269 106.752Z" fill="url(#paint1_radial_16_138)"/>
<g style="mix-blend-mode:multiply">
<path fill-rule="evenodd" clip-rule="evenodd" d="M14.9668 68.8017C13.5632 66.8782 12.1596 64.5388 11.1719 62.3554C11.0679 62.1475 10.9639 61.8876 10.86 61.6276C10.3401 60.276 9.87223 58.8204 9.9762 57.3648C27.0275 67.9699 46.7821 88.6603 56.1396 102.904C55.6197 102.748 53.7482 102.177 53.4363 101.865C52.6046 100.929 52.5006 98.7975 52.1887 98.5376C51.8248 98.1737 51.5128 99.7852 51.4609 99.9412C51.3569 100.305 51.2009 100.773 50.7331 100.669C50.5771 100.617 50.3692 100.513 50.2652 100.409C49.7453 100.149 49.2255 99.8372 48.7056 99.5253C46.4182 97.9657 46.4702 95.3144 46.5222 92.8191C46.5742 89.9079 45.1186 92.7671 44.4948 93.6509C43.715 94.7426 42.4673 96.1462 42.4153 93.7549C42.4153 92.7671 42.4673 91.9354 42.6233 90.9476C42.8312 89.596 42.4673 90.7397 42.2594 91.2076C42.0514 91.7794 41.8435 92.2993 41.6355 92.8191C41.4796 93.235 41.1157 94.0148 40.6478 94.1188C40.4919 94.1188 40.2319 93.8588 40.076 93.7549C39.3482 93.183 38.5684 92.6112 37.8406 92.0393C36.489 90.7917 36.229 89.2321 35.6572 87.5686C35.1373 86.1129 35.2413 85.2812 35.0853 83.8256C35.0333 83.4097 34.8774 83.4097 34.7214 83.7736C34.3575 84.7093 34.1496 87.2047 33.6817 87.7765C33.5777 87.8805 33.5778 87.8805 33.4738 87.9325C33.0059 88.1404 32.2781 87.3086 31.9662 86.9967C31.7582 86.7888 31.6023 86.5808 31.4463 86.3729C29.4709 83.0978 31.6543 79.0429 31.0304 78.471C30.6146 78.0552 29.3149 79.9786 29.003 80.3945C28.2752 81.2783 27.2875 82.37 26.0918 81.4862C25.6239 81.0703 25.0001 80.5505 24.7402 79.9786C24.2203 78.627 24.4802 77.1194 24.6882 75.7678C24.7402 75.5078 25.0521 73.8963 25.0001 73.7923C24.8961 73.5324 24.1163 75.3519 24.0643 75.4559C23.8044 75.9757 23.0246 77.5873 22.5048 77.6912C22.1409 77.6912 21.4131 76.7555 21.2051 76.3916C20.8412 75.7158 20.6853 75.04 20.6853 74.2602C20.6853 74.0522 20.7892 72.9605 20.7373 72.8566C20.6853 72.8046 20.6333 72.9605 20.6333 73.0125C20.5293 73.2725 20.1654 74.4681 19.8535 74.3642C19.5936 74.3122 19.4376 73.6364 19.3856 73.3764C18.8658 71.349 19.1777 69.6335 19.3856 67.606C19.6456 65.3186 18.7098 66.0464 17.878 67.3981C17.5141 67.9699 16.6304 69.8414 15.8506 69.6335C15.5387 69.6854 15.1748 69.1136 14.9668 68.8017Z" fill="url(#paint2_radial_16_138)"/>
</g>
<g style="mix-blend-mode:multiply">
<path fill-rule="evenodd" clip-rule="evenodd" d="M56.0876 102.956C46.7821 88.7122 27.0275 68.0219 9.92419 57.4168C9.56029 57.1568 9.1444 56.9489 8.7805 56.689C10.8599 56.2211 12.8874 55.9612 15.0188 56.0132C17.4101 56.0651 15.4347 57.1568 17.6701 57.3648C20.0094 57.5207 21.9329 57.0009 24.2203 57.6767L24.4282 57.7287C24.7401 57.8327 25.0521 57.9366 25.364 58.0406C26.5077 58.5085 25.416 58.8724 26.5077 59.1843C27.1315 59.3402 27.7553 59.4962 28.3791 59.6522C29.8347 60.0161 30.2506 60.328 31.4983 61.0558C31.7062 61.1597 31.9142 61.3157 32.0701 61.4197C32.2781 61.5756 32.486 61.7836 32.486 62.0955L32.434 62.3034C32.1741 63.1352 30.0427 64.6428 29.3149 65.3706C28.847 65.7865 28.1712 66.5663 29.3669 66.0464C30.8745 65.3706 31.4983 64.6948 33.2658 64.3829C35.8651 63.967 36.5409 64.5388 38.4124 66.1504C38.7243 66.4103 39.0362 66.6702 39.2962 66.9302C39.816 67.45 39.92 67.9179 39.972 68.5937C39.972 68.8017 39.92 68.9576 39.816 69.1656C39.5041 69.8414 37.8406 71.141 39.6081 71.349C40.5438 71.4529 41.0637 71.297 42.0514 71.6609C43.2991 72.0768 44.4428 72.4926 45.3785 73.5324C45.7944 74.0522 46.2103 74.6241 46.6262 75.1439C46.8341 75.4039 47.094 75.6638 46.9381 75.9757C46.7821 76.1836 46.3142 76.4956 46.0543 76.6515C45.6384 76.8595 45.1706 77.0674 44.7547 77.2753C44.2868 77.4833 43.8709 77.6912 43.403 77.8992C42.8832 78.1591 42.3633 78.419 41.8955 78.7309C41.8955 78.7309 41.3236 79.0949 41.5835 79.0949C41.7395 79.0949 42.8832 78.471 43.1951 78.367C44.0269 78.0551 44.8586 77.6912 45.6904 77.4833C46.5222 77.2753 47.5099 77.0674 48.2377 77.5873C48.4976 77.7952 48.9135 78.575 49.1215 78.8869C49.2774 79.1988 49.2255 79.4068 49.0175 79.6667C48.5496 80.2385 46.4702 81.0183 45.6904 81.4342C44.8067 81.9021 44.3388 82.5779 45.7424 82.6299C47.198 82.7339 48.1857 82.4739 49.7453 82.8898C50.993 83.2537 51.7728 83.5656 52.3966 84.8133C52.7605 85.5931 53.0724 86.3729 53.4363 87.1527C53.4363 87.2046 53.4883 87.2566 53.4883 87.3606L53.5403 87.4646C53.6962 88.1924 52.5006 88.3483 52.0327 88.4003C51.5648 88.4523 49.6413 88.8682 51.2529 89.1281C52.1367 89.2321 53.8522 89.7 54.476 90.3238C54.7879 90.6877 55.2038 92.6112 55.3598 93.183C55.4118 93.3909 55.5157 93.7548 55.4637 93.9628C55.3078 94.5866 53.3323 94.6906 53.6962 95.6263C54.0601 96.4581 55.8796 96.666 56.0876 98.2256C56.2955 99.8372 56.2435 101.501 56.0876 102.956Z" fill="url(#paint3_radial_16_138)"/>
</g>
<path fill-rule="evenodd" clip-rule="evenodd" d="M58.4269 106.751C55.9836 100.617 46.6262 89.3361 41.7915 83.9815C33.0579 74.3122 20.6852 63.1352 9.35234 56.793C8.26063 56.1691 7.6368 55.8572 6.49311 55.3893C7.6368 56.2211 7.01297 55.8052 8.20865 56.585C16.0585 61.6796 22.8686 67.3461 29.6268 73.7403C38.3084 81.9541 47.198 91.3115 54.2681 100.877C55.6717 102.8 57.0233 104.932 58.4269 106.751Z" fill="url(#paint4_radial_16_138)"/>
<path fill-rule="evenodd" clip-rule="evenodd" d="M12.1076 59.3922C17.3582 62.1994 23.7005 63.0832 30.4066 63.6031C37.2687 64.1229 44.3388 63.811 51.3569 62.4594C57.9071 61.1597 64.1454 60.3279 70.3837 59.3402C67.3165 54.2976 65.549 49.8788 65.8609 49.6709C66.2248 49.4629 73.8148 54.9214 78.0256 58.0926C81.7166 57.4167 85.5116 56.6889 89.4105 55.8572C92.2697 55.2333 95.2329 54.5055 98.1961 53.7258C97.2604 50.4506 96.6365 46.8636 96.9484 46.5517C97.3123 46.1358 102.251 49.8788 105.89 51.6983C111.349 50.2427 116.443 49.151 120.394 47.6434C115.351 40.8853 110.673 35.3228 105.058 30.5921C103.551 29.3444 101.991 28.0968 100.38 26.9531C95.7528 29.3444 89.5145 33.8672 88.9946 33.8152C88.5787 33.7632 90.4502 29.9163 95.1289 23.574C92.2177 21.8585 89.0466 20.2989 85.5116 18.8433C82.4964 20.5068 79.7931 22.2224 79.4812 21.8585C79.2213 21.5985 79.1693 18.7913 79.6892 16.8678C75.3743 15.7241 70.6956 15.1003 66.0689 14.9963C62.5338 14.8924 58.9988 15.1003 55.5677 15.5682C51.3049 21.9104 46.8861 29.7083 46.1063 29.8123C45.6905 29.8643 45.1706 24.9776 46.5222 17.5436C37.8926 20.1949 30.9265 25.1855 25.52 32.0477C19.6975 39.3257 15.5907 48.5792 12.1076 59.3922Z" fill="#507F19"/>
<path fill-rule="evenodd" clip-rule="evenodd" d="M70.3837 59.3402C64.1454 60.3279 57.9071 61.1597 51.3569 62.4594C44.3388 63.811 37.2168 64.1229 30.4066 63.6031C23.7005 63.0832 17.3582 62.1474 12.1076 59.3922C28.1712 36.0506 94.2452 34.439 120.394 47.6434C116.443 49.151 111.349 50.1907 105.994 51.6463C102.355 49.8268 97.4163 46.1358 97.0524 46.4997C96.6885 46.8636 97.3643 50.3987 98.3001 53.6738C95.3369 54.4535 92.3737 55.1814 89.5145 55.8052C85.6155 56.6889 81.8206 57.4167 78.1296 58.0406C73.9187 54.8694 66.2768 49.4109 65.9649 49.6189C65.549 49.8788 67.3165 54.2976 70.3837 59.3402Z" fill="url(#paint5_radial_16_138)"/>
<path fill-rule="evenodd" clip-rule="evenodd" d="M120.394 47.6434C94.2452 34.439 28.1712 36.0506 12.1076 59.3922C15.5907 48.5792 19.7495 39.3257 25.52 32.0477C30.9785 25.1855 37.9446 20.1429 46.5222 17.5436C45.1706 24.9776 45.6905 29.8643 46.1063 29.8123C46.8341 29.7603 51.3049 21.9104 55.5677 15.5682C58.9988 15.1003 62.5338 14.8924 66.0689 14.9963C70.6956 15.1003 75.3743 15.7241 79.6892 16.8678C79.1693 18.7393 79.2213 21.5985 79.4812 21.8585C79.7931 22.1704 82.4964 20.5068 85.5116 18.8433C89.0466 20.2989 92.2177 21.8585 95.1289 23.574C90.4502 29.9163 88.5787 33.7632 88.9946 33.8152C89.5145 33.8672 95.7528 29.3444 100.38 26.9531C102.043 28.0968 103.603 29.3444 105.058 30.5921C110.673 35.3748 115.351 40.8853 120.394 47.6434Z" fill="url(#paint6_radial_16_138)"/>
<g style="mix-blend-mode:multiply">
<path fill-rule="evenodd" clip-rule="evenodd" d="M85.8235 51.0745C83.744 51.4384 81.7686 50.2947 80.0531 49.255C78.5975 48.3193 77.6097 47.1756 76.4141 45.9799C76.0502 45.616 74.4386 43.9005 74.1787 43.7445C74.1787 44.2124 76.466 47.0196 76.8819 47.6435C77.2978 48.2673 77.6097 48.7872 78.0776 49.359C78.5975 49.9828 79.3253 50.9186 79.4812 51.7503C79.5332 52.2182 79.2733 52.4262 78.8574 52.5821C78.3375 52.7381 77.6617 52.7901 77.1419 52.894C68.9281 53.6218 64.8732 44.8882 62.9497 44.4723C61.4421 44.1604 63.9375 49.7749 64.0934 50.1388C64.5093 51.2825 65.1851 53.206 64.6653 54.3496C64.4573 54.6616 64.3014 54.7135 64.0414 54.8695L63.7295 54.9735C62.118 55.2854 59.1028 55.7013 57.5432 55.4413C53.2284 54.5056 49.9013 50.7106 47.354 47.3835C47.198 47.1756 45.8464 45.4081 45.6385 45.824C45.3785 46.2918 48.7056 52.0623 49.1735 52.894C49.7453 53.9857 51.097 56.1172 48.9655 56.3771H48.8616C47.9258 56.4291 45.2226 56.689 44.4428 56.4811C42.2594 55.8572 40.2839 53.5179 38.7243 51.9583C37.5287 50.7626 37.9965 52.0623 38.3604 52.7381C38.6724 53.4139 40.1799 56.0132 39.5561 56.585L39.5041 56.637C39.1922 56.845 37.6846 56.741 37.2168 56.741C36.385 56.741 34.4095 56.793 33.6817 56.585C32.486 56.2211 30.9265 55.0255 29.8348 54.3496C27.7034 53.05 30.1467 56.1172 28.7431 56.3771C27.9113 56.585 23.1806 55.8052 22.0889 55.5973C20.3734 55.2854 18.7098 54.8175 17.0983 54.1937C18.6058 52.946 20.2694 51.7503 22.1409 50.6586C43.1431 38.0781 84.004 36.6225 109.373 43.5886C108.489 44.0045 107.554 44.4203 106.67 44.7843C105.786 45.1482 105.058 44.8362 104.33 44.3684C103.707 44.0045 103.395 43.5366 102.875 43.1207C102.147 42.5489 102.823 43.6926 102.927 43.8485C103.135 44.2124 103.863 45.3041 103.811 45.668C103.811 45.824 103.759 45.876 103.603 45.9799C103.447 46.0839 103.291 46.1359 103.135 46.1879C102.719 46.3438 102.251 46.4998 101.783 46.6038C99.3398 46.7597 97.5723 44.8882 95.8567 43.4326C92.9455 40.9893 94.5571 45.772 94.7131 46.9157C94.817 47.6955 94.869 48.6832 93.9853 49.0991C92.2177 49.6709 90.6582 47.6955 89.5145 46.6038C88.9426 46.0839 89.4105 47.0196 89.5145 47.2276C89.7744 47.7994 90.0863 48.4233 90.3982 48.9951C90.8141 49.7749 91.4379 50.6067 91.9578 51.3345C92.2177 51.6984 93.1535 52.7901 92.0098 52.0623C91.4899 51.7503 91.074 51.3345 90.5022 51.0225C90.0863 50.7626 89.5665 50.5027 89.0466 50.4507C88.6307 50.4507 88.1628 50.6067 87.747 50.7106C86.9672 50.8666 86.3953 50.9706 85.8235 51.0745Z" fill="url(#paint7_radial_16_138)"/>
</g>
<g style="mix-blend-mode:multiply">
<path fill-rule="evenodd" clip-rule="evenodd" d="M109.217 43.4845C83.9 36.5184 43.0392 37.974 21.9849 50.5545C22.6087 48.4751 23.4405 46.3437 24.3763 44.4202C25.6759 41.8729 27.8073 40.9892 29.3149 38.8577C30.0947 37.766 29.7828 37.6101 29.9387 36.5704C30.1467 35.1668 33.7857 32.3075 34.9294 31.4238L35.3972 31.1119C36.385 30.3841 39.6601 27.7848 40.8558 28.7725C42.3633 30.0202 41.9994 37.766 45.4825 33.3472C47.8738 30.3321 48.8616 27.2649 52.2406 24.7176C53.0204 24.2497 53.7482 23.9378 54.632 23.6779C55.2038 23.5219 56.2955 23.158 56.8154 23.418L56.9194 23.5219C57.9591 24.3537 56.2955 28.4086 55.8797 29.5003C55.7757 29.7602 54.0602 34.439 55.5677 31.9956C57.6992 28.4606 59.5187 25.0295 63.5736 23.262C64.2494 23.0021 65.1331 22.9501 65.8609 22.9501C66.2248 22.9501 66.8487 22.8981 67.1086 23.0541C67.4205 23.21 67.4725 23.5219 67.4725 23.8338C67.5245 24.6136 66.9526 26.6931 66.6927 27.4729C66.1209 29.3443 66.9526 27.8887 67.3165 27.2129C67.9404 25.9133 68.1483 25.1855 69.292 24.1458C70.4357 23.158 70.9036 23.314 72.2552 23.5219C72.6711 23.6259 72.983 23.7299 73.2949 24.0418C73.4509 24.2497 73.6068 24.4057 73.7628 24.6136C74.5945 26.0173 73.7628 27.7328 73.2429 29.0844C73.1909 29.2404 71.5794 32.9314 72.5671 32.1516C72.931 31.8916 73.9187 30.436 74.3346 29.9682C75.5303 28.5126 76.3101 27.6288 78.0776 26.849C80.6249 25.8093 80.5729 25.0295 83.4841 25.8613C85.6155 26.4851 86.8632 26.6931 86.5513 29.2924C86.3433 31.0079 84.004 36.9343 87.591 36.2065C91.9578 35.3227 94.5051 30.2281 99.9636 32.9314C100.899 33.4512 102.563 34.387 103.343 35.0628L103.499 35.2707L103.551 35.3747C103.707 35.8426 103.083 36.4144 102.771 36.7263C102.147 37.2462 101.575 37.6621 100.951 38.2339C100.068 39.0657 100.172 39.4816 101.419 39.0657C102.407 38.7018 103.083 38.3899 104.174 38.1819C105.63 37.922 106.826 37.818 108.073 38.7538C110.309 40.6253 112.648 43.0166 114.468 45.252C112.804 44.5762 111.037 44.0043 109.217 43.4845Z" fill="url(#paint8_radial_16_138)"/>
</g>
<path fill-rule="evenodd" clip-rule="evenodd" d="M120.394 47.6434C109.841 40.7812 87.539 38.4419 74.7505 38.3379C56.9194 38.13 29.9907 41.717 16.4744 54.0376C14.551 55.7532 13.3553 57.1568 12.1076 59.3922L13.9271 57.4167C22.5568 48.4232 37.4767 44.3163 49.5894 42.3928C67.6804 39.5336 90.9181 39.5336 108.749 43.9524C113.116 44.9921 116.235 46.2917 120.394 47.6434Z" fill="url(#paint9_radial_16_138)"/>
<path fill-rule="evenodd" clip-rule="evenodd" d="M15.3827 49.1512C15.5387 48.5274 18.2939 46.4479 28.7431 48.5793C39.1922 50.7108 63.6255 58.6646 63.3656 59.9642C63.1057 61.2119 37.5807 57.9888 27.2355 55.4415C16.8903 52.8422 15.2268 49.827 15.3827 49.1512Z" fill="url(#paint10_linear_16_138)"/>
<path fill-rule="evenodd" clip-rule="evenodd" d="M63.3656 59.9642C52.3966 57.209 21.569 49.6191 15.3827 49.2032C15.2268 49.827 16.8903 52.8942 27.2355 55.4415C37.5807 57.9888 63.1057 61.2119 63.3656 59.9642Z" fill="url(#paint11_radial_16_138)"/>
<path fill-rule="evenodd" clip-rule="evenodd" d="M16.3704 47.5396C16.2665 47.1237 17.0983 45.0963 23.1806 43.2768C29.2629 41.4573 44.3388 38.962 44.5468 39.7937C44.7547 40.6255 30.5106 46.188 24.3763 47.6956C18.19 49.2551 16.4744 47.9555 16.3704 47.5396Z" fill="url(#paint12_linear_16_138)"/>
<path fill-rule="evenodd" clip-rule="evenodd" d="M44.5468 39.7937C38.0485 41.4053 19.6975 45.98 16.3704 47.4876C16.4744 47.9035 18.2419 49.2031 24.3763 47.6955C30.5106 46.188 44.7547 40.6255 44.5468 39.7937Z" fill="url(#paint13_radial_16_138)"/>
<path fill-rule="evenodd" clip-rule="evenodd" d="M15.3307 51.4906C15.7466 50.8667 18.9177 49.5151 26.6636 54.2458C34.4095 58.9765 51.2529 73.1167 50.4731 74.3123C49.6933 75.508 29.9387 65.8906 22.4528 60.7441C14.9668 55.5455 14.9148 52.1144 15.3307 51.4906Z" fill="url(#paint14_linear_16_138)"/>
<path fill-rule="evenodd" clip-rule="evenodd" d="M50.4211 74.3122C42.5193 68.8017 20.2174 53.4659 15.2787 51.4905C14.8629 52.1143 14.9148 55.5454 22.4008 60.744C29.9387 65.8905 49.6414 75.5079 50.4211 74.3122Z" fill="url(#paint15_radial_16_138)"/>
<path fill-rule="evenodd" clip-rule="evenodd" d="M14.239 52.9461C14.6029 52.7382 16.7344 52.9981 19.5936 57.9368C22.4528 62.8754 27.4434 75.7679 26.6636 76.1838C25.8839 76.5997 17.982 65.2668 15.3827 60.1721C12.8874 55.0775 13.8751 53.1541 14.239 52.9461Z" fill="url(#paint16_linear_16_138)"/>
<path fill-rule="evenodd" clip-rule="evenodd" d="M26.7156 76.1838C24.0123 70.7773 16.3704 55.5455 14.291 52.9462C13.9271 53.1541 12.9394 55.0776 15.4867 60.1722C17.982 65.2668 25.9358 76.5997 26.7156 76.1838Z" fill="url(#paint17_radial_16_138)"/>
<g filter="url(#filter0_d_16_138)">
<path d="M7.94874 41.0414C8.93647 42.497 9.71626 44.0046 10.652 45.5122C11.4318 46.8638 12.4195 48.1115 13.0434 49.5151C13.1473 49.723 13.1993 49.931 13.1993 50.1909C11.6397 50.5028 10.2881 51.4906 8.78052 52.0104C7.27293 51.6985 6.23321 49.879 5.60938 48.6833C4.72562 47.1757 3.58193 45.4602 4.15378 43.7967C4.88158 43.2768 5.60938 42.7569 6.23321 42.1851C6.59711 41.8732 7.27293 41.3013 7.63683 40.7295C7.7408 40.8335 7.84477 40.9374 7.94874 41.0414Z" fill="#579535"/>
<path d="M9.35238 50.6067C8.88451 49.2031 8.00075 47.9554 7.4289 46.6558C6.80507 45.3041 6.28522 43.9525 5.86933 42.5489C5.9733 42.4449 6.12926 42.3409 6.23323 42.237C6.59713 41.9251 7.27295 41.3532 7.63685 40.7814C7.79281 40.8334 7.89678 40.9373 8.00075 41.0413C8.98848 42.4969 9.76827 44.0045 10.704 45.5121C11.4838 46.8637 12.4715 48.1114 13.0954 49.515C13.1993 49.7229 13.2513 49.9309 13.2513 50.1908C11.8997 50.4507 10.704 51.2305 9.45636 51.7504C9.50834 51.4904 9.50833 51.0746 9.35238 50.6067Z" fill="#26541E"/>
<path d="M22.2968 19.0513C25.416 17.3878 28.5871 15.8282 31.6543 14.1127C33.8897 12.917 36.1251 11.6694 38.2565 10.2657C39.0363 9.74588 39.7641 9.22603 40.4919 8.70617C40.7518 8.55021 41.0117 8.34227 41.2717 8.18631C42.8312 7.14659 44.4948 6.26284 45.9504 5.06716C47.406 4.1834 48.9136 3.19567 50.0053 2C49.3295 4.39135 48.6017 6.73071 47.6659 9.01808C47.198 10.1618 46.6782 11.2535 45.9504 12.2412C45.1706 13.3329 44.7547 14.7365 43.871 15.7243C41.9995 17.9077 40.3879 20.299 38.6204 22.5864C36.9568 24.8218 34.9294 26.7972 32.85 28.6167C31.8102 29.5005 30.7705 30.3842 29.6788 31.268C28.5871 32.1518 27.1835 32.9316 26.1958 33.9713C25.8319 34.3872 25.312 34.5951 24.8441 34.907C24.2723 35.2709 23.7525 35.6868 23.2326 36.1027C22.0369 36.9345 20.8412 37.7662 19.6976 38.702C18.6578 39.5857 17.5141 40.4175 16.6304 41.5092C15.7986 42.5489 15.0188 43.6406 14.8629 44.9923C14.7589 46.1359 15.1228 47.2276 15.2788 48.3193C15.3827 49.0991 15.0708 50.0869 14.395 50.5547C13.1993 51.2825 11.8477 50.1908 11.2239 49.1511C11.1719 49.0991 11.1719 49.0471 11.1719 48.9432C10.3401 48.4233 9.82025 47.5396 9.35238 46.7078C8.20869 44.4724 7.53288 41.9251 7.11699 39.4818C6.70111 37.0904 6.80508 34.5951 7.63685 32.3077C8.46862 30.0723 9.97621 28.1489 11.6917 26.5373C13.7712 24.5099 16.2145 23.1062 18.6578 21.5467C19.8535 20.6629 21.0492 19.8311 22.2968 19.0513Z" fill="#579535"/>
<path d="M25.208 19.0514C36.4889 12.7611 50.0572 6.47083 58.271 4.07949C67.9404 1.22027 72.0472 6.26289 72.0472 6.26289C72.4111 6.62679 72.6711 6.99069 72.827 7.35459C73.087 7.66651 73.2949 8.03041 73.3989 8.55026C73.3989 8.55026 75.7902 14.6326 68.8761 21.7027C62.8977 27.837 50.993 36.8825 40.128 43.8486C29.4189 50.7627 22.8687 53.1541 22.8687 53.1541L17.2542 43.7966L14.6029 39.3259L8.98846 29.9684C8.93647 29.9164 14.0831 25.2897 25.208 19.0514Z" fill="#F5D752"/>
<path d="M25.208 19.0515C30.1987 16.2442 35.6052 13.489 40.8558 11.0457C37.9965 13.8009 36.4889 17.5439 36.0211 21.4948C35.8131 23.1064 35.8651 25.2898 37.3727 26.3815C38.7763 27.3692 40.7518 27.1613 42.3633 27.0053C44.8587 26.7974 47.354 26.5894 49.8493 26.7454C51.2009 26.8493 52.6045 27.0053 53.9562 27.3172C54.9959 27.5771 56.2955 27.8371 57.1273 28.5649C57.7511 29.0847 58.375 29.8125 59.1028 30.2284H59.1548C53.4363 34.8032 46.6262 39.6898 40.1799 43.7967C29.4709 50.7108 22.9207 53.1022 22.9207 53.1022L8.93648 29.9165C8.93648 29.9165 14.0831 25.2898 25.208 19.0515Z" fill="#F5D752"/>
<path d="M21.2571 50.139L20.9452 49.6711C21.777 49.3072 22.5568 48.9433 23.4405 48.5274C22.9727 47.8516 22.5048 47.1238 21.9329 46.292C21.569 45.7722 21.2051 45.2003 20.8412 44.5765C19.9575 45.0443 19.1777 45.4083 18.5539 45.6682L18.242 45.2003C18.8658 44.8884 19.6456 44.5245 20.5293 44.1086C20.1134 43.4328 19.6456 42.705 19.2297 41.9772C18.9178 41.5093 18.6578 40.9895 18.3459 40.4696L16.2145 41.7692L15.9026 41.3014L18.034 40.0017C17.2542 38.5981 16.3705 37.1425 15.4867 35.479C14.6549 36.1028 13.9271 36.6746 13.3553 37.0905L13.0434 36.6227C13.6152 36.1548 14.343 35.5829 15.1748 34.9591C14.551 33.8154 13.9791 32.6717 13.3553 31.4241C12.5235 32.0479 11.7437 32.6197 11.0159 33.1916L10.704 32.7237C11.4838 32.1519 12.2636 31.528 13.0954 30.9042C12.5755 29.9165 12.0556 28.8768 11.5878 27.837C11.7437 27.7331 11.8997 27.6291 12.0556 27.5251C12.5755 28.5648 13.0954 29.6046 13.5632 30.5923C14.6549 29.8125 15.7466 28.9807 16.8903 28.149C16.4224 27.2132 15.9546 26.2255 15.4347 25.2378C15.5907 25.1338 15.7466 25.0298 15.9026 24.9258C16.3705 25.9136 16.8383 26.9013 17.3062 27.837C18.3979 27.0573 19.5416 26.2775 20.6853 25.4457C20.2174 24.5619 19.8015 23.6262 19.3337 22.6905C19.4896 22.5865 19.6456 22.4825 19.8015 22.3785C20.2694 23.3143 20.6853 24.25 21.1532 25.1338C22.2449 24.354 23.4405 23.6262 24.5842 22.8464C24.1683 22.0146 23.7524 21.1309 23.2846 20.2471C23.3885 20.1951 23.4925 20.1431 23.5965 20.0912C23.6485 20.0392 23.7524 20.0392 23.8044 19.9872C24.2203 20.871 24.6362 21.7027 25.0521 22.4825C26.1958 21.7547 27.3395 21.0269 28.5351 20.2991C28.1712 19.5713 27.8073 18.7915 27.4434 18.0637C27.5994 17.9597 27.7554 17.8558 27.9113 17.8038C28.2752 18.5836 28.6391 19.3114 29.003 20.0392C30.1467 19.3114 31.3424 18.6356 32.538 17.9597C32.2261 17.2839 31.8622 16.6081 31.5503 15.8803C31.7063 15.7763 31.8622 15.7244 32.0182 15.6204C32.3301 16.2962 32.694 17.024 33.0059 17.6478C34.1496 16.972 35.3453 16.3482 36.541 15.6724C36.229 15.0485 35.9171 14.3727 35.5532 13.6969C35.7092 13.5929 35.8651 13.5409 36.0731 13.437C36.385 14.1128 36.6969 14.7886 37.0608 15.4124C38.2565 14.7886 39.4522 14.1648 40.6478 13.541C40.3359 12.9171 40.024 12.2413 39.7121 11.6175C39.868 11.5135 40.024 11.4615 40.2319 11.3575C40.5439 12.0334 40.8558 12.6572 41.1677 13.281C42.3634 12.6572 43.611 12.0853 44.8587 11.5135C44.5468 10.8897 44.2348 10.2658 43.9229 9.59003C44.0789 9.53804 44.2868 9.43407 44.4428 9.38209C44.7547 10.0059 45.0666 10.6817 45.3785 11.3056C45.4825 11.2536 45.6385 11.2016 45.7424 11.1496C46.8341 10.6297 47.9258 10.1619 48.9656 9.74599C48.6536 9.12216 48.3417 8.49833 48.0298 7.8745C48.1858 7.82251 48.3937 7.71854 48.5497 7.66656C48.8616 8.29039 49.1735 8.91421 49.4854 9.53804C50.7851 9.01819 51.9807 8.55031 53.1764 8.08244C52.8645 7.5106 52.6046 6.88677 52.2927 6.26294C52.4486 6.21095 52.6566 6.10698 52.8125 6.055C53.1244 6.67882 53.4363 7.30265 53.6963 7.8745C55.0479 7.40663 56.2956 6.93875 57.4392 6.57485C57.1273 5.95102 56.8154 5.32719 56.5035 4.65138C56.6595 4.59939 56.8674 4.54741 57.0234 4.49542C57.3353 5.17124 57.6472 5.79507 57.9591 6.4189C59.4667 5.95102 60.8703 5.53514 62.118 5.22322C61.858 4.70336 61.5981 4.13152 61.3382 3.55968C61.5461 3.55968 61.7541 3.50769 61.91 3.50769C62.17 4.02755 62.3779 4.54741 62.6378 5.06726C63.1057 4.96329 63.5216 4.85932 63.9375 4.75535C65.1331 4.49542 66.1209 4.23549 67.0566 4.07953C67.0046 3.97556 66.9526 3.92358 66.9526 3.81961C66.9526 3.76762 66.9526 3.71563 66.9526 3.71563C67.1606 3.76762 67.3165 3.76762 67.5245 3.76762C67.5765 3.81961 67.5765 3.92358 67.6285 3.97556C67.7324 3.97556 67.8364 3.92358 67.9924 3.92358C68.2003 4.07953 68.4602 4.23549 68.6682 4.39145C68.4082 4.44343 68.1483 4.49542 67.8884 4.54741C68.2003 5.11925 68.4602 5.69109 68.7202 6.26294C69.448 6.00301 70.1238 5.79507 70.6956 5.63911C70.9036 5.79507 71.0595 5.89904 71.2675 6.055C70.5917 6.26294 69.8639 6.47088 68.9801 6.7828C69.344 7.45861 69.6559 8.08244 70.0198 8.70627L72.5671 7.19868C72.6711 7.35464 72.7751 7.5106 72.827 7.66656L70.4357 9.12216C70.7476 9.64202 71.0075 10.1619 71.2675 10.6297C71.9953 9.90194 72.6191 9.27812 73.139 8.70627C73.1909 8.9662 73.1909 9.17414 73.2429 9.43407C72.7751 9.95393 72.2032 10.5258 71.5794 11.1496C71.9953 11.9294 72.4112 12.6052 72.827 13.177C73.139 12.8131 73.3989 12.4492 73.6588 12.1373C73.6068 12.5532 73.5029 12.9691 73.4509 13.333C73.3469 13.437 73.2949 13.5409 73.1909 13.6969C73.2429 13.7489 73.2949 13.8529 73.3469 13.9049V13.9568C73.2949 14.1648 73.2429 14.4247 73.1909 14.6327C73.087 14.4767 72.983 14.3207 72.879 14.1128C72.3592 14.7366 71.7873 15.4124 71.1115 16.1922C70.7476 16.6081 70.3317 17.076 69.8639 17.5439C70.3317 18.2717 70.6956 18.7915 70.9036 19.0514C70.7996 19.2074 70.6436 19.3634 70.5397 19.5193C70.3317 19.2594 69.9678 18.7395 69.448 17.9597C68.6162 18.8435 67.7324 19.7792 66.6927 20.767C67.1086 21.3908 67.5245 21.9627 67.8364 22.4305C67.6804 22.5345 67.5765 22.6905 67.4205 22.7944C67.1086 22.3266 66.6927 21.8067 66.2768 21.1829C65.3931 22.0666 64.4053 22.9504 63.3656 23.8861C63.8335 24.5619 64.2494 25.0818 64.5613 25.5497C64.4053 25.6536 64.3014 25.8096 64.1454 25.9136C63.8335 25.4977 63.4176 24.9258 62.9497 24.25C62.014 25.0818 61.0263 25.9136 59.9346 26.7973C60.4024 27.4731 60.8183 27.993 61.0783 28.3569C60.9223 28.4609 60.7663 28.5648 60.6104 28.7208C60.3504 28.3569 59.9346 27.837 59.4667 27.1612C58.6349 27.837 57.7512 28.5648 56.8674 29.2407C56.7114 29.3446 56.5555 29.5006 56.3995 29.6046C57.0234 30.4363 57.4392 30.9562 57.5952 31.2161C57.4392 31.3201 57.3353 31.4761 57.1793 31.58C56.9714 31.3721 56.5555 30.8002 55.9317 29.9685C54.84 30.8002 53.7483 31.632 52.6046 32.4118C53.0724 33.0876 53.4883 33.6595 53.8522 34.0753C53.6963 34.1793 53.5403 34.2833 53.3844 34.3873C53.0724 33.9714 52.6566 33.3995 52.1887 32.7237C51.097 33.5035 49.9533 34.2833 48.8616 35.0111C49.4334 35.7909 49.8493 36.3627 50.2132 36.8306C50.0573 36.9346 49.9013 37.0385 49.7453 37.1945C49.3814 36.7786 48.9656 36.1548 48.3937 35.375C47.25 36.1028 46.1063 36.8826 45.0146 37.5584C45.6385 38.4422 46.1583 39.066 46.4702 39.4819C46.3143 39.5858 46.1583 39.6898 46.0024 39.7938C45.6905 39.3779 45.1706 38.7021 44.5468 37.8183C43.3511 38.5461 42.2074 39.2739 41.0117 39.9497C41.6356 40.8335 42.1554 41.5093 42.5193 42.0292C42.3634 42.1331 42.2074 42.2371 42.0514 42.3411C41.6356 41.8212 41.1677 41.1454 40.5439 40.2617C39.3482 40.9895 38.1525 41.6653 36.9568 42.2891C37.6327 43.2248 38.2045 44.0046 38.5684 44.5245C38.4124 44.6285 38.2565 44.7324 38.1005 44.7844C37.6846 44.2646 37.1128 43.4848 36.437 42.549C35.1893 43.2248 33.9936 43.9007 32.798 44.5245C33.5778 45.6162 34.1496 46.396 34.5655 46.9678C34.4095 47.0198 34.2016 47.1238 34.0456 47.2278C33.6297 46.6559 33.0059 45.8241 32.2781 44.7844C31.0305 45.4602 29.7828 46.0841 28.5871 46.6559C29.3669 47.7996 30.0427 48.6834 30.5106 49.3072C30.3546 49.4112 30.1987 49.4631 29.9907 49.5671C29.5229 48.9433 28.847 48.0595 28.0673 46.9158C26.7676 47.5397 25.52 48.1635 24.3243 48.7353C25.1561 49.879 25.7799 50.8148 26.2998 51.4906C26.1438 51.5426 25.9358 51.6465 25.7799 51.6985C25.26 51.0227 24.6362 50.139 23.8044 48.9953C22.9207 49.4112 22.0889 49.7751 21.2571 50.139ZM13.8751 31.0602C14.499 32.3078 15.1228 33.4515 15.7466 34.5952C16.6824 33.9194 17.7741 33.1396 18.9697 32.2558C19.0217 32.2039 19.0737 32.2039 19.1257 32.1519C18.5019 31.0082 17.8781 29.8125 17.2542 28.5648C16.0586 29.4486 14.9149 30.2804 13.8751 31.0602ZM17.6701 28.3049C18.2939 29.5526 18.9178 30.7483 19.5416 31.8919C20.5293 31.2161 21.673 30.4363 22.9727 29.6046C22.3488 28.4609 21.725 27.2652 21.1012 25.9656C19.9055 26.6934 18.7618 27.5251 17.6701 28.3049ZM21.5171 25.6017C22.1409 26.8493 22.7647 28.097 23.3885 29.2407C24.4802 28.5129 25.6239 27.7851 26.8716 27.0053C26.2478 25.8096 25.6239 24.6139 24.9481 23.3143C23.8044 24.0941 22.6607 24.8219 21.5171 25.6017ZM25.416 23.0024C26.0398 24.302 26.7156 25.5497 27.3395 26.6934C28.4312 26.0175 29.6268 25.2897 30.8225 24.5619C30.1987 23.3663 29.5229 22.1186 28.899 20.819C27.7554 21.5468 26.5597 22.2746 25.416 23.0024ZM29.4189 20.507C30.0947 21.8067 30.7185 23.0544 31.3424 24.25C32.4861 23.5742 33.6297 22.8984 34.8774 22.1706C34.2536 20.9749 33.5778 19.7273 32.9539 18.3756C31.7583 19.1034 30.5626 19.8312 29.4189 20.507ZM33.4218 18.1677C34.0976 19.4673 34.7214 20.767 35.3453 21.9627C36.489 21.3388 37.6327 20.663 38.8803 19.9872C38.2565 18.7915 37.5807 17.5439 36.9568 16.2442C35.7612 16.8161 34.6175 17.4919 33.4218 18.1677ZM37.4767 15.9323C38.1525 17.2319 38.7763 18.4796 39.4002 19.6753C40.5439 19.0514 41.7395 18.4276 42.9352 17.7518C42.3114 16.6081 41.6875 15.3605 41.0117 14.0608C39.868 14.6846 38.6724 15.3085 37.4767 15.9323ZM45.2746 12.0334C44.0269 12.6052 42.7792 13.177 41.5836 13.8009C42.2074 15.1005 42.8832 16.2962 43.4551 17.4919C44.7027 16.8161 45.8984 16.1922 47.0421 15.6204C46.4702 14.4767 45.8464 13.281 45.2746 12.0334ZM46.1063 11.6695C46.0024 11.7214 45.8464 11.7734 45.7424 11.8254C46.3663 13.0731 46.9381 14.2688 47.5619 15.3605C48.7576 14.7366 49.9533 14.1648 51.097 13.5929C50.5251 12.5532 49.9533 11.4095 49.3814 10.2139C48.3417 10.6817 47.25 11.1496 46.1063 11.6695ZM49.9013 10.0579C50.4731 11.2016 51.045 12.3453 51.6168 13.385C52.8645 12.8131 54.0602 12.2413 55.2039 11.7214C54.684 10.7337 54.1641 9.694 53.5923 8.6023C52.3966 9.01819 51.149 9.53804 49.9013 10.0579ZM54.1122 8.39436C54.632 9.43407 55.2039 10.4738 55.7237 11.4615C57.0234 10.8897 58.219 10.3698 59.3627 9.84996C58.8948 8.9662 58.427 8.08244 57.9071 7.09471C56.6595 7.5106 55.4118 7.92648 54.1122 8.39436ZM58.375 6.93875C58.8429 7.8745 59.3107 8.75826 59.7786 9.64202C61.1822 9.07017 62.4819 8.55031 63.6256 8.08244C63.2617 7.35464 62.8978 6.57485 62.4819 5.74308C61.2862 6.055 59.9346 6.47088 58.375 6.93875ZM67.4725 4.59939C66.5368 4.75535 65.497 5.01528 64.2494 5.32719C63.8855 5.43117 63.5216 5.53514 63.1057 5.63911C63.4696 6.4189 63.8335 7.19868 64.2494 7.92648C65.2371 7.56258 66.1729 7.19868 66.9526 6.93875C67.4725 6.7828 67.9404 6.57485 68.4082 6.4189C68.0443 5.79507 67.7844 5.22322 67.4725 4.59939ZM69.7079 8.91421C69.344 8.29038 68.9801 7.61457 68.6162 6.88677C68.1483 7.04273 67.6285 7.25067 67.1086 7.40663C66.3288 7.66656 65.4451 8.03046 64.4573 8.39436C64.9772 9.38209 65.4451 10.3178 65.9129 11.2016L69.7079 8.91421ZM65.4451 11.4615C64.9772 10.5778 64.4573 9.64202 63.9375 8.55031C62.7938 9.01819 61.4941 9.53804 60.0905 10.1099C60.7663 11.3056 61.3902 12.4492 62.014 13.489L65.4451 11.4615ZM61.5461 13.8529C60.9223 12.8131 60.2985 11.6175 59.6226 10.3698C58.479 10.8377 57.2833 11.3575 55.9836 11.9814C56.7634 13.385 57.4912 14.6846 58.167 15.8803L61.5461 13.8529ZM57.6472 16.1402C56.9714 14.9446 56.1916 13.5929 55.4118 12.1893C54.2681 12.7092 53.0724 13.281 51.8248 13.8529C52.6566 15.4124 53.4883 16.868 54.2161 18.1677L57.6472 16.1402ZM53.8002 18.4796C53.0204 17.18 52.2407 15.7244 51.3569 14.1128C50.2132 14.6846 49.0695 15.2565 47.8219 15.8803C48.7056 17.5439 49.5894 19.1034 50.4212 20.559L53.8002 18.4796ZM49.9533 20.819C49.1215 19.4153 48.2378 17.8558 47.354 16.1402C46.2103 16.7121 44.9627 17.3359 43.767 18.0117C44.7027 19.7792 45.6385 21.4428 46.5222 22.8984L49.9533 20.819ZM46.0024 23.1583C45.1186 21.6507 44.2349 20.0392 43.2471 18.2197C42.0515 18.8435 40.8558 19.5193 39.7121 20.1431C40.6998 22.0146 41.6356 23.6782 42.5713 25.2378L46.0024 23.1583ZM41.9995 25.5497C41.1157 23.9901 40.128 22.2746 39.1402 20.4031C37.9446 21.0789 36.7489 21.7547 35.6052 22.3785C36.5929 24.25 37.5807 26.0175 38.5164 27.6291L41.9995 25.5497ZM38.0485 27.941C37.1128 26.3814 36.1771 24.6139 35.1373 22.6905C33.8897 23.4183 32.746 24.0941 31.6023 24.7699C32.642 26.6934 33.6297 28.4089 34.5655 30.0205L38.0485 27.941ZM34.0456 30.3324C33.1099 28.7208 32.1222 27.0053 31.0824 25.0818C29.8348 25.8096 28.6911 26.5374 27.5994 27.2132C28.5871 29.0847 29.5749 30.8522 30.5106 32.4638L34.0456 30.3324ZM30.0427 32.7237C29.107 31.1641 28.1712 29.3966 27.1315 27.4731C25.8839 28.2529 24.7402 28.9807 23.6485 29.7085C24.6362 31.528 25.5719 33.2436 26.5077 34.8031L30.0427 32.7237ZM26.0398 35.1151C25.1561 33.5555 24.1683 31.8919 23.1806 30.0205C21.9329 30.8522 20.7893 31.632 19.7495 32.3078C20.6853 34.0753 21.621 35.6869 22.5048 37.1945L26.0398 35.1151ZM22.0369 37.5584C21.1532 36.1028 20.2694 34.4392 19.3337 32.6717C18.086 33.5555 16.9423 34.3873 15.9546 35.0631C16.8383 36.6746 17.6701 38.2342 18.5019 39.6378L22.0369 37.5584ZM23.9604 48.3195C25.1561 47.7476 26.4037 47.1758 27.7034 46.5C27.1835 45.7202 26.6117 44.8884 25.9359 43.9007C25.6239 43.4328 25.312 42.9649 25.0001 42.4451C23.5965 43.1729 22.4008 43.7967 21.3611 44.3165C22.3488 45.8761 23.2326 47.1758 23.9604 48.3195ZM18.8138 40.1577C19.5936 41.5093 20.3734 42.757 21.0492 43.8487C22.0889 43.3288 23.3366 42.705 24.6882 41.9772C24.2203 41.2494 23.7524 40.4176 23.1806 39.5858C22.8687 39.118 22.6088 38.5981 22.2968 38.0783L18.8138 40.1577ZM22.8167 37.7144C23.6485 39.17 24.4802 40.4696 25.208 41.6653C26.2997 41.0934 27.5474 40.4176 28.847 39.6898C28.3272 38.91 27.8073 38.0263 27.2355 37.0905C26.9236 36.6227 26.6637 36.1028 26.3517 35.5829L22.8167 37.7144ZM26.8196 35.323C27.7034 36.8306 28.5351 38.2342 29.3149 39.4819C30.4586 38.858 31.6543 38.1822 32.9019 37.4544C32.3821 36.6227 31.8102 35.7389 31.2384 34.7512C30.9265 34.2833 30.6666 33.7634 30.3546 33.2436L26.8196 35.323ZM30.8225 32.9317C31.7583 34.4912 32.59 35.8948 33.4218 37.1945C34.5655 36.5707 35.7612 35.8429 36.9568 35.167C36.437 34.3353 35.8651 33.3995 35.2413 32.3598C34.9294 31.8919 34.6695 31.3721 34.3575 30.8522L30.8225 32.9317ZM34.8254 30.5403C35.7612 32.1519 36.6449 33.5555 37.4767 34.8551C38.6204 34.1793 39.7641 33.5035 41.0117 32.7757C40.4399 31.8919 39.868 30.9562 39.1922 29.8645C38.9323 29.3966 38.6204 28.9287 38.3605 28.4609L34.8254 30.5403ZM38.8283 28.097C39.7641 29.7085 40.6478 31.1641 41.4796 32.4638C42.6233 31.788 43.767 31.1122 44.9627 30.3844C44.3908 29.5006 43.819 28.5648 43.1431 27.4731C42.8832 27.0053 42.5713 26.5374 42.3114 26.0695L38.8283 28.097ZM42.7792 25.7576C43.715 27.3692 44.5988 28.8248 45.4305 30.0724C46.2103 29.6046 47.0421 29.0847 47.8219 28.5648C48.1858 28.3569 48.4977 28.149 48.8616 27.941C48.3417 27.1092 47.7179 26.1215 47.0941 25.0818C46.8341 24.6139 46.5222 24.1461 46.2623 23.6782L42.7792 25.7576ZM46.7302 23.3663C47.6659 24.9258 48.5497 26.3814 49.3295 27.6291C50.5251 26.9013 51.6688 26.1215 52.7605 25.3937C52.1887 24.5619 51.6168 23.5742 50.941 22.4825C50.7331 22.1186 50.4731 21.7027 50.2132 21.2868L46.7302 23.3663ZM50.6811 20.9749C51.5648 22.5345 52.4486 23.8861 53.2284 25.0818C54.3721 24.302 55.4638 23.5742 56.4515 22.8464C55.9317 22.0666 55.3598 21.1309 54.788 20.1431C54.58 19.7792 54.3201 19.3634 54.0602 18.9475L50.6811 20.9749ZM54.58 18.6875C55.4118 20.1431 56.2436 21.3908 56.9194 22.5345C58.0111 21.7547 59.1028 20.9749 60.0905 20.1951C59.6226 19.4673 59.1548 18.6875 58.6349 17.8558C58.427 17.4919 58.167 17.076 57.9071 16.6601L54.58 18.6875ZM58.427 16.3482C59.2068 17.6478 59.8826 18.7915 60.5584 19.8312C61.6501 18.9995 62.6898 18.1677 63.6775 17.3879C63.3136 16.8161 62.9497 16.1922 62.5339 15.5164C62.3259 15.1525 62.066 14.7366 61.8061 14.3207L58.427 16.3482ZM62.2739 14.0088C62.8978 15.1005 63.5216 16.0883 64.0934 17.024C65.1851 16.1402 66.2248 15.2565 67.1086 14.4767C66.6927 13.7489 66.1729 12.9171 65.653 11.9814L62.2739 14.0088ZM70.8516 11.0456C70.5397 10.5258 70.2797 10.0059 69.9678 9.43407L66.2248 11.7214C66.6927 12.6052 67.1606 13.437 67.6285 14.1648C68.8241 12.9691 69.9158 11.9294 70.8516 11.0456ZM70.5397 15.8283C71.2675 14.9966 71.8913 14.2688 72.4112 13.6449C72.2032 13.281 71.9953 12.9171 71.7353 12.5532C71.6834 12.5012 71.6314 12.3973 71.5794 12.3453C71.4234 12.0853 71.2675 11.8254 71.1115 11.5655C70.1758 12.5012 69.0841 13.489 67.8364 14.6327C68.4082 15.6204 68.9281 16.4522 69.396 17.128C69.8119 16.6601 70.2278 16.2442 70.5397 15.8283ZM69.0321 17.4919C68.6162 16.8161 68.0963 16.0363 67.5245 15.0485C67.5245 14.9966 67.4725 14.9966 67.4725 14.9446C66.5368 15.7763 65.549 16.6081 64.4573 17.4919C65.1331 18.5316 65.757 19.4673 66.2768 20.2991C67.2646 19.3114 68.2003 18.3756 69.0321 17.4919ZM65.8609 20.715C65.549 20.2471 65.1851 19.6753 64.8212 19.1034C64.5613 18.7395 64.3014 18.2717 64.0414 17.8558C63.0537 18.6356 62.014 19.4673 60.9223 20.2991C61.7021 21.4948 62.3779 22.5345 63.0017 23.4183C63.9895 22.4825 64.9252 21.5988 65.8609 20.715ZM62.4819 23.8341C62.014 23.1583 61.4941 22.3785 60.8703 21.4948C60.7143 21.2348 60.5584 20.9749 60.3504 20.715C59.3627 21.4948 58.271 22.2746 57.1793 23.0544C58.0631 24.406 58.8429 25.5497 59.4667 26.4334C60.5584 25.4977 61.5461 24.6659 62.4819 23.8341ZM56.4515 28.8248C57.3873 28.097 58.219 27.4212 59.1028 26.7453C58.5309 25.9136 57.8551 24.9258 57.0753 23.7822C56.9714 23.6262 56.8674 23.4702 56.7634 23.3143C55.7237 24.0421 54.632 24.7699 53.5403 25.5497C54.528 27.0573 55.3598 28.2529 55.9836 29.1887C56.1396 29.0847 56.2956 28.9807 56.4515 28.8248ZM55.5678 29.5526C54.9439 28.6688 54.1122 27.5251 53.2284 26.1215C53.1764 26.0695 53.1244 25.9656 53.0724 25.9136C51.9807 26.6414 50.837 27.3692 49.6414 28.149C50.6291 29.7085 51.5129 30.9562 52.2407 32.0479C53.3324 31.1641 54.4761 30.3844 55.5678 29.5526ZM51.7728 32.3078C51.149 31.4241 50.4731 30.3844 49.6934 29.1887C49.5374 28.9287 49.3295 28.6688 49.1735 28.4089C48.8096 28.6168 48.4977 28.8248 48.1338 29.0327C47.302 29.5526 46.5222 30.0204 45.7424 30.5403C46.7822 32.1519 47.7179 33.5035 48.4457 34.5952C49.5894 33.8674 50.6811 33.0876 51.7728 32.3078ZM47.9778 34.9071C47.354 33.9714 46.5742 32.8797 45.7424 31.58C45.5865 31.3201 45.4305 31.1122 45.2746 30.8522C44.0789 31.58 42.9352 32.2558 41.7915 32.9317C42.8832 34.6472 43.819 35.9988 44.5988 37.0905C45.7424 36.4147 46.8341 35.6869 47.9778 34.9071ZM44.1309 37.4024C43.4551 36.4667 42.6753 35.323 41.7915 33.9714C41.6356 33.7114 41.4796 33.5035 41.3236 33.2436C40.076 33.9714 38.9323 34.6472 37.7886 35.323C38.8803 36.9865 39.8161 38.3902 40.5958 39.5339C41.7395 38.858 42.9352 38.1302 44.1309 37.4024ZM36.541 41.8732C37.7366 41.1974 38.9323 40.5216 40.128 39.8458C39.5041 38.962 38.7763 37.9223 37.9966 36.6746C37.7886 36.3107 37.5287 35.9468 37.3207 35.5829C36.0731 36.3107 34.8774 36.9866 33.7857 37.6104C34.7734 39.3259 35.7092 40.7295 36.541 41.8732ZM36.0211 42.1331C35.3973 41.2494 34.7214 40.2617 33.9417 39.066C33.6817 38.7021 33.4738 38.3382 33.2139 37.9223C31.9662 38.6501 30.7705 39.3259 29.6268 39.9497C30.6666 41.6133 31.6023 42.9649 32.3821 44.1086C33.5778 43.4848 34.8254 42.809 36.0211 42.1331ZM31.9142 44.3685C31.3424 43.5368 30.6666 42.601 29.9907 41.5093C29.7308 41.0934 29.4709 40.6775 29.159 40.2097C27.8593 40.9375 26.6637 41.5613 25.52 42.1851C26.5077 43.7967 27.4434 45.1483 28.2232 46.24C29.4189 45.6682 30.6666 45.0444 31.9142 44.3685Z" fill="#F5D752"/>
<path d="M57.8031 9.43408C57.9591 9.3301 58.1151 9.17415 58.219 9.01819C58.167 9.12216 58.1151 9.22613 57.9591 9.3301C57.9071 9.38209 57.8551 9.43408 57.8031 9.43408Z" fill="#F5D752"/>
<path d="M63.7295 11.4095C63.6775 11.4615 63.6255 11.4615 63.5736 11.5135C63.4696 11.5655 63.3656 11.6175 63.2097 11.7214C63.4176 11.6175 63.5736 11.4615 63.7815 11.3575L63.7295 11.4095Z" fill="#F5D752"/>
<g style="mix-blend-mode:multiply">
<path d="M25.208 19.0514C36.4889 12.7611 50.0572 6.47083 58.271 4.07949C67.9404 1.22027 72.0472 6.26289 72.0472 6.26289C72.4111 6.62679 72.6711 6.99069 72.827 7.35459C73.087 7.66651 73.2949 8.03041 73.3989 8.55026C73.3989 8.55026 75.7902 14.6326 68.8761 21.7027C62.8977 27.837 50.993 36.8825 40.128 43.8486C29.4189 50.7627 22.8687 53.1541 22.8687 53.1541L8.93647 29.9164C8.93647 29.9164 14.0831 25.2897 25.208 19.0514ZM70.5396 11.1496C70.5916 11.0456 70.6436 10.9416 70.5916 10.8376C70.6436 10.7337 70.6436 10.6817 70.6436 10.5777C70.6956 10.3698 70.5396 10.1618 70.3317 10.1618C69.7599 10.1098 69.0321 10.5257 68.5642 10.8376C68.0963 11.1496 67.4205 11.6174 67.4205 12.2932C67.4205 12.9691 68.3043 13.229 68.7721 12.9691C69.4999 12.5532 70.0198 11.7734 70.5396 11.1496ZM62.6378 18.2196C63.2096 17.8037 63.6255 17.0239 63.0537 16.5561C62.8977 15.8803 62.2739 15.2564 61.4941 15.4644C60.1945 15.7243 59.1548 17.3879 60.0905 18.5835C60.6104 19.2593 61.4421 19.1034 62.066 18.5835C62.2739 18.4796 62.4818 18.3236 62.6378 18.2196ZM65.549 15.9322C66.1209 15.6203 67.2126 14.6326 66.4848 13.9568C66.4328 13.9048 66.3808 13.9048 66.3288 13.8528C66.2768 13.7488 66.2248 13.6449 66.1209 13.5929C65.757 13.333 65.1331 13.6449 64.8212 13.9048C64.4573 14.1647 64.1454 14.5806 63.9894 14.9965C63.5735 16.0362 64.7692 16.4001 65.549 15.9322ZM59.3107 19.9871C59.4147 19.4153 58.9988 18.6875 58.6869 18.2716C57.9071 17.2319 56.6594 17.8037 55.8277 18.5835C55.4638 18.9474 55.4118 19.3113 55.5677 19.7272C55.5677 20.0391 55.7237 20.403 55.9836 20.663C55.9836 20.7149 56.0356 20.7149 56.0876 20.7669C56.1396 20.8709 56.1916 21.0269 56.2435 21.1308C56.3475 21.3388 56.4515 21.6507 56.6594 21.7547C57.3353 22.1705 58.219 21.5987 58.7909 20.9749C58.9988 20.8189 59.1548 20.663 59.2587 20.455C59.2067 20.2991 59.2587 20.1431 59.3107 19.9871ZM73.1909 11.4095C73.1909 11.3055 73.1909 11.1496 73.1389 11.0456C73.1389 10.9936 73.1389 10.9416 73.1389 10.8896C73.087 10.6817 72.827 10.5777 72.6191 10.6817C72.5671 10.6817 72.5671 10.7337 72.5151 10.7337C72.2552 10.9936 72.2032 11.3575 72.3591 11.6694C72.4631 11.8254 72.6711 11.8774 72.827 11.7734C72.983 11.7214 73.1909 11.5654 73.1909 11.4095ZM72.1512 13.5409C72.2032 13.333 72.0472 13.177 71.8913 13.125C71.8393 13.021 71.7353 12.9691 71.5794 12.9691C70.5916 12.9171 68.5642 14.5286 69.292 15.6203C70.1238 16.972 71.9952 14.3727 72.1512 13.5409ZM68.4082 17.4918C68.4082 17.1799 68.2003 16.92 67.8364 16.868C67.4725 16.816 67.0566 17.0759 66.7447 17.2319C66.3808 17.4398 66.0689 17.6478 65.8609 18.0117C65.653 18.4276 65.705 19.0514 66.1728 19.2593C67.2645 19.7272 67.9923 18.6875 68.4602 17.9077C68.6162 17.6998 68.5642 17.5438 68.4082 17.4918ZM71.9953 17.1799C72.2032 16.816 72.4111 16.3481 72.4111 15.9322C72.3591 15.5683 71.8913 15.5164 71.7873 15.7763C71.1635 16.0362 70.1238 17.3359 71.0075 17.8037C71.4234 18.0637 71.7873 17.5438 71.9953 17.1799ZM69.344 20.403C69.396 20.2471 69.4999 20.0391 69.4999 19.8312C69.5519 19.7792 69.5519 19.7272 69.6039 19.6752C69.7079 19.5193 69.6559 19.3113 69.4479 19.2074C68.2523 18.5315 66.7967 20.9749 67.9923 21.3908C68.5642 21.6507 69.136 20.9229 69.344 20.403ZM65.705 24.146C66.2248 23.7301 66.6927 23.2103 66.3808 22.7424C65.8609 21.9106 64.5613 23.1063 64.2494 23.6261C64.0934 23.8861 63.8855 24.4579 64.1454 24.7178C64.4053 24.9778 64.7692 24.8218 65.0292 24.6659C65.2891 24.5619 65.497 24.3539 65.705 24.146ZM63.1577 25.7056C63.1577 25.6016 63.1057 25.5496 63.0537 25.4976C63.0017 25.4457 62.9497 25.4457 62.8977 25.4457C62.7938 25.4457 62.7418 25.4457 62.6378 25.4457C62.5858 25.3937 62.5338 25.3417 62.4818 25.3417C61.858 25.1337 61.1822 26.3814 61.2342 26.8493C61.2342 26.9532 61.3382 27.1092 61.4421 27.1612L61.4941 27.2132C62.2219 27.889 63.2616 26.3294 63.1577 25.7056ZM45.6384 37.6623C45.5345 37.7663 45.4825 37.9222 45.5865 38.0782C46.0543 38.702 46.8341 38.65 47.5099 38.3381C48.0298 38.0782 48.7576 37.6103 48.7056 36.9345C48.7056 36.8305 48.6536 36.7266 48.5497 36.6746C48.5497 36.6226 48.5497 36.6226 48.5497 36.5706C48.5497 36.3107 48.2897 36.2067 48.1338 36.2587C47.25 36.3107 46.2103 36.8825 45.6384 37.6623ZM50.0053 35.8948C50.5251 36.2587 51.2529 35.6869 51.6688 35.3749C52.0847 35.011 52.6045 34.4392 52.3446 33.8673C52.2926 33.7114 52.1887 33.7114 52.0847 33.7114C52.0847 33.7114 52.0327 33.7114 51.9807 33.7114C51.3049 33.7114 48.9136 35.115 50.0053 35.8948ZM54.2681 31.632C53.9042 31.8919 53.3323 32.3078 53.4883 32.8276C53.6962 33.4515 54.58 33.1915 54.9439 32.9316C55.5157 32.5677 56.0876 31.9959 56.3995 31.372C56.5555 31.0601 56.1396 30.7482 55.9316 30.9042C55.3598 30.9042 54.684 31.32 54.2681 31.632ZM57.4912 30.3843C57.8031 30.5922 58.115 30.5922 58.4789 30.4363C59.1548 30.1244 60.0385 29.2926 59.7786 28.4608C59.7786 28.4088 59.7266 28.4088 59.7266 28.3569C59.5706 27.941 58.9988 27.941 58.6349 28.0969C58.167 28.3049 57.6992 28.7208 57.4392 29.1886C57.2313 29.5525 57.1273 30.0724 57.4912 30.3843ZM43.0911 33.3475C42.7792 34.1273 43.0911 34.8031 43.559 35.4269C43.9229 35.8948 44.3908 36.3627 45.0146 36.3627C45.6904 36.3627 46.3143 35.9988 46.7301 35.4789C47.4579 34.5432 46.8861 33.3995 46.0543 32.7756C46.0023 32.7756 46.0023 32.7237 45.9504 32.7237C45.7944 32.6197 45.6904 32.5677 45.5345 32.5157C45.3785 32.4637 45.2226 32.4117 45.0666 32.4117C45.0146 32.4117 44.9626 32.3598 44.9106 32.3598C44.1309 32.2558 43.3511 32.5677 43.0911 33.3475ZM50.3172 30.8002C50.2132 30.4883 49.9533 30.2283 49.5374 30.0724C48.7576 29.7605 47.9258 30.2283 47.4579 30.8522C46.6262 32.1518 47.6659 34.1273 49.2775 33.4515C50.4211 32.9316 51.1489 31.6839 50.3172 30.8002ZM51.2009 27.837C50.2132 28.7727 50.785 30.1764 51.8767 30.7482C52.9684 31.32 54.3721 30.3843 54.8399 29.3446C54.8919 29.1886 54.8399 29.0327 54.736 28.9287C54.7879 28.5648 54.632 28.2009 54.3201 27.837C53.9562 27.3691 53.4883 27.0052 52.8645 27.0572C52.2926 27.1612 51.6168 27.4211 51.2009 27.837ZM54.736 25.7576C54.476 26.4854 54.8399 27.3171 55.4638 27.733C57.0233 28.8767 58.8428 26.7453 57.9591 25.5496C57.8551 25.1857 57.5952 24.8738 57.1273 24.7178C56.2436 24.4579 55.0479 24.8218 54.736 25.7576ZM59.0508 22.4825C58.4789 23.0023 58.115 23.7301 58.6869 24.4579C59.1028 25.0817 59.8306 25.4457 60.6104 25.1337C61.1822 24.8738 61.754 24.4059 61.806 23.7301C61.806 23.2103 61.4941 22.6904 61.0262 22.4825C60.9223 22.4305 60.8183 22.4305 60.7143 22.3785C60.6623 22.2745 60.6104 22.2225 60.5584 22.1705C60.0385 21.7547 59.4147 22.1186 59.0508 22.4825ZM62.066 20.0911C61.7021 20.559 61.806 21.0788 62.066 21.5467C62.2739 21.9106 62.6898 22.4825 63.1577 22.4825C63.7815 22.4825 64.6133 21.8066 64.9772 21.1308C65.2891 20.663 65.2891 20.0391 64.7692 19.4153C63.9894 18.4796 62.7418 19.3113 62.066 20.0911ZM51.9287 25.4457C52.1887 24.8738 51.8767 24.302 51.5128 23.7821C51.4089 23.5222 51.2529 23.2103 51.045 23.0023C50.1092 22.2225 48.4457 23.1583 48.1338 24.198C47.7699 25.4976 49.0175 26.9013 50.3172 26.5893C50.993 26.4854 51.6168 26.1215 51.9287 25.4457ZM40.6478 28.1489C40.076 28.5648 40.024 29.2406 40.2839 29.8644C40.7518 31.0081 42.0514 31.8399 43.1431 30.9042C43.9229 30.2283 43.8709 29.2926 43.2991 28.5648C43.1951 28.3049 42.9872 28.0969 42.6753 27.941C41.9994 27.6291 41.2197 27.785 40.6478 28.1489ZM44.0789 26.9532C44.1309 28.2529 45.3265 29.5005 46.6262 28.7727C47.0941 28.5128 47.6659 28.1489 47.7699 27.6291C47.8218 27.0572 47.5619 26.5374 47.25 26.0695C47.146 25.7576 46.9381 25.5496 46.6262 25.3937C45.5345 24.8218 44.0269 25.7056 44.0789 26.9532ZM51.8767 21.1308C51.3569 22.0666 51.9807 23.4182 52.7605 24.042C53.7482 24.8218 54.9439 23.99 55.5677 23.1583C56.3995 22.0146 55.3598 20.8189 54.3721 20.1951C54.2681 20.0911 54.1641 20.1431 54.0601 20.1951C53.2804 19.9352 52.2926 20.403 51.8767 21.1308ZM71.4234 9.74594C72.2032 10.3178 72.983 9.07012 72.827 8.39431C72.7231 8.03041 72.2552 8.13438 72.2032 8.44629C71.6833 8.60225 70.9035 9.33005 71.4234 9.74594ZM56.6075 5.32714C56.2436 5.1192 55.7237 5.17119 55.3078 5.27516C54.8919 5.37913 54.3721 5.53509 54.1121 5.847C53.8002 6.2109 53.6962 6.67878 54.0601 7.04268C54.424 7.35459 54.9959 7.30261 55.4638 7.19863C55.9316 7.04268 56.5555 6.83473 56.8674 6.47083C56.9714 6.36686 56.9714 6.2109 56.9194 6.10693C57.0233 5.847 56.8674 5.53509 56.6075 5.32714ZM61.4421 4.91126C61.5461 4.80729 61.5981 4.70332 61.5981 4.59934C61.6501 4.44339 61.5981 4.28743 61.3901 4.18346C60.8183 3.92353 59.8826 4.07949 59.3107 4.28743C58.9988 4.3914 58.6349 4.49537 58.5309 4.80729C58.375 5.17119 58.5829 5.58707 58.9468 5.69105C59.4147 5.74303 59.9345 5.58707 60.3504 5.43112C60.7143 5.27516 61.1302 5.1192 61.4421 4.91126ZM66.0689 4.18346C66.0689 4.18346 66.1209 4.18346 66.1209 4.13147C66.2768 4.0275 66.3808 3.76757 66.1728 3.61161C65.3411 2.98778 63.8855 3.2997 63.1577 3.87154C62.9497 4.0275 62.9497 4.3914 63.2616 4.49537C63.6255 4.59934 63.9894 4.59934 64.3533 4.59934C64.7692 4.59934 65.1851 4.54736 65.549 4.44339C65.601 4.44339 65.705 4.44339 65.757 4.44339C65.9649 4.3914 66.0689 4.28743 66.0689 4.18346ZM61.2342 6.52282C60.6623 6.73076 60.1425 7.14665 59.9345 7.77048C59.7786 8.18636 59.8826 8.65424 60.2984 8.81019C61.2342 9.17409 62.6378 8.91417 63.4696 8.34232C63.6255 8.23835 63.6775 8.03041 63.5735 7.87445C63.4696 7.77048 63.4176 7.66651 63.3136 7.56253C63.4176 7.25062 63.3136 6.88672 63.0537 6.62679C62.5858 6.26289 61.754 6.31488 61.2342 6.52282ZM65.653 5.4831C65.1331 5.63906 64.1454 6.05495 64.4053 6.78275C64.8212 7.87445 67.1086 7.09466 67.7844 6.62679C67.8884 6.52282 67.9404 6.41885 67.9404 6.26289C67.9404 6.2109 67.9923 6.2109 67.9923 6.15892C68.1483 6.00296 68.0963 5.74303 67.8884 5.63906C67.3165 5.27516 66.2768 5.32715 65.653 5.4831ZM69.9158 5.53509C70.0198 5.43112 70.0198 5.27516 69.9678 5.1192C69.9158 5.01523 69.8118 4.96324 69.7599 4.96324C69.6559 4.85927 69.4999 4.85927 69.344 4.91126C69.292 4.96324 69.24 5.01523 69.188 5.06722C69.136 5.06722 69.136 5.06722 69.084 5.1192C68.8241 5.27516 68.8761 5.69105 69.188 5.74303C69.292 5.74303 69.396 5.74303 69.4479 5.74303C69.4999 5.74303 69.6039 5.74303 69.6559 5.69105C69.8118 5.63906 69.8638 5.58707 69.9158 5.53509ZM61.5981 12.2413C61.962 12.7091 62.6898 12.7091 63.2096 12.5012C63.4696 12.3972 63.6775 12.2413 63.8855 12.0853C64.1454 11.9293 64.3533 11.7214 64.5093 11.5654C64.7692 11.3055 64.9772 10.8896 64.8212 10.5257C64.6133 10.0579 64.0414 10.0579 63.5735 10.1098C62.7938 10.2658 60.8183 11.0456 61.5981 12.2413ZM71.3714 7.56253C71.6313 7.35459 71.7873 7.09466 71.6313 6.78275C71.4754 6.52282 71.2155 6.47083 70.9555 6.52282C70.8516 6.47083 70.6956 6.52282 70.5916 6.62679C70.4877 6.67878 70.3837 6.73076 70.2797 6.78275C70.1238 6.88672 69.9678 7.04268 70.0198 7.25062C70.0198 7.45856 70.1238 7.56253 70.3317 7.66651C70.4357 7.71849 70.4877 7.71849 70.5916 7.77048C70.6436 7.77048 70.6436 7.82246 70.6956 7.82246C70.9035 7.77048 71.1635 7.71849 71.3714 7.56253ZM68.8241 9.22608C68.8761 9.22608 68.8761 9.22608 68.8241 9.22608C68.9801 9.12211 69.136 9.01814 69.24 8.91417C69.344 8.81019 69.344 8.55026 69.24 8.44629C68.6682 8.03041 67.8884 8.08239 67.2645 8.23835C66.7447 8.39431 65.9129 8.75821 65.8089 9.38204C65.705 10.0579 66.4328 10.5257 67.0566 10.3178C67.7324 10.1618 68.3043 9.69395 68.8241 9.22608ZM60.9743 12.7611C60.8703 12.3452 60.5584 11.9813 60.0905 11.8254C60.0385 11.7734 59.9345 11.7214 59.8826 11.7214C59.8306 11.6694 59.7786 11.6694 59.7266 11.6694C58.8428 11.4095 57.5952 11.6694 57.2833 12.6571C57.0233 13.4889 57.5952 14.7886 58.427 15.1005C58.9468 15.3084 59.6226 15.1005 60.1425 14.7366C60.8183 14.4247 61.806 13.4369 60.9743 12.7611ZM56.3475 16.66C56.5035 16.5561 56.6594 16.4001 56.7114 16.1922C56.7634 16.1402 56.7634 16.0362 56.8154 15.9842C56.9194 15.7243 56.9194 15.4644 56.8154 15.1525C56.7114 14.7886 56.5035 14.4247 56.2435 14.1127C55.6717 13.4889 54.8399 13.333 54.1121 13.8528C53.5403 14.2687 52.9684 14.9445 53.2804 15.7243C53.4883 16.2442 54.0082 17.2839 54.684 17.3359C55.2558 17.3878 55.9316 17.1279 56.3475 16.66ZM53.0204 17.2319C52.9165 16.6081 52.5526 16.0882 52.0847 15.7763C51.7208 15.4124 51.2009 15.2044 50.7331 15.3604C50.0053 15.5683 48.8096 16.0882 48.8616 16.972C48.8616 17.1279 48.9655 17.2319 49.0695 17.2839C49.1735 17.5958 49.2775 17.9077 49.4334 18.2196C49.4854 18.2716 49.4854 18.3236 49.5374 18.3756C50.0572 19.2593 50.889 19.9871 51.9287 19.4153C52.6565 18.8954 53.2284 18.1157 53.0204 17.2319ZM48.9655 20.8189C49.0695 20.559 49.1215 20.351 49.0695 20.1431C49.1215 19.5193 48.5496 18.5315 48.2377 18.2196C47.7699 17.7518 47.146 17.5958 46.5742 17.8557C46.1063 18.0637 45.3265 18.4276 45.1186 18.9994C44.9106 19.6232 45.3265 20.507 45.8464 21.0788C45.8984 21.1828 46.0023 21.2348 46.0543 21.3388C46.1063 21.3908 46.1063 21.4427 46.1583 21.4947C46.4702 21.9106 46.9381 22.1186 47.4579 21.9106C47.9778 21.6507 48.7576 21.3388 48.9655 20.8189ZM41.8955 23.4182C42.5713 23.99 43.663 23.9381 44.2348 23.2622C44.8587 22.5344 44.8067 21.5987 44.2348 20.9749C44.0789 20.663 43.8189 20.455 43.455 20.2991C41.6355 19.5713 40.4399 22.2225 41.8955 23.4182ZM34.0976 26.4334C33.9416 27.0572 33.8377 27.941 34.3575 28.4088C34.9814 28.9807 36.0211 28.6168 36.5409 28.0969C37.1648 27.4731 37.1128 26.6933 36.5929 26.1735C36.5409 25.6016 36.229 25.1337 35.5012 25.1857C34.7214 25.2377 34.2536 25.8096 34.0976 26.4334ZM37.1648 23.6261C37.0088 24.8738 38.1005 26.5374 39.5041 26.3814C40.1799 26.2774 40.8038 25.6016 40.9077 24.9258C41.0117 24.3539 40.5958 23.8861 40.2319 23.4702C40.1799 23.3662 40.1279 23.3142 40.024 23.2103C39.3482 22.4825 37.3727 22.1705 37.1648 23.6261ZM57.4392 10.6297C57.5952 10.5777 57.6992 10.5777 57.8031 10.5257C58.271 10.3698 58.7909 10.1098 59.0508 9.64197C59.2587 9.27807 59.1548 8.96615 58.8948 8.70622C58.8428 8.29034 58.6349 8.03041 58.375 7.87445C58.323 7.82246 58.271 7.77048 58.167 7.77048C57.2833 7.56253 55.9316 7.71849 55.4638 8.60225C55.1518 9.22608 55.3078 10.5777 56.0876 10.7857C56.3475 10.8896 56.9194 10.8376 57.4392 10.6297ZM54.3201 11.4095C54.528 11.0976 54.476 10.7857 54.2681 10.5257C54.1641 9.17409 52.0847 10.1098 51.6168 10.7857C51.3049 11.2015 51.2529 11.7734 51.6688 12.1373C52.0327 12.4492 52.6565 12.3972 53.1244 12.2413C53.5403 12.1373 54.0601 11.8774 54.3201 11.4095ZM50.1612 12.7611C50.1612 12.3452 50.0053 12.0853 49.7453 11.8774C49.4334 11.4615 48.7576 11.2535 48.2377 11.4095C47.4579 11.6694 46.8341 12.3972 46.9901 13.229C47.146 14.0088 47.8738 14.3207 48.6016 14.2687C49.3294 14.1647 50.1612 13.5409 50.1612 12.7611ZM45.5345 13.333C45.4825 13.281 45.4305 13.281 45.3785 13.229C45.1706 13.073 44.8587 13.021 44.5987 13.073C43.3511 13.281 41.9994 14.5806 42.8832 15.8803C44.2868 17.9597 47.5099 15.0485 45.5345 13.333ZM41.6355 15.8283C41.5316 15.5164 41.2716 15.2564 40.7518 15.2564C39.92 15.2044 38.8803 15.8283 38.7243 16.712C38.5164 17.9077 39.6601 18.8954 40.8038 18.4796C41.9474 18.0117 42.6753 16.712 41.6355 15.8283ZM34.7734 19.1034C34.5655 20.455 35.9171 21.2348 37.0608 20.611C37.5287 20.351 38.1525 19.9352 38.2565 19.3633C38.3604 18.8954 38.0485 18.4796 37.8406 18.0637C37.7366 17.9077 37.6326 17.8557 37.5287 17.9077C37.4767 17.8557 37.4247 17.8037 37.3207 17.7517C36.229 17.0759 34.9294 18.0117 34.7734 19.1034ZM52.2926 7.82246C52.4486 7.66651 52.3966 7.45856 52.2406 7.35459C52.2406 7.19863 52.1367 7.09466 51.9807 7.04268C51.5128 6.9387 50.889 7.09466 50.4731 7.30261C50.0572 7.51055 49.5894 8.03041 49.9533 8.55026C50.5251 9.33005 51.8767 8.29034 52.2926 7.82246ZM48.2897 9.74594C48.4977 9.43402 48.6536 8.91417 48.1858 8.75821C48.1338 8.75821 48.0818 8.75821 48.0298 8.75821C47.094 8.55026 46.0543 9.17409 45.6384 9.95388C45.5345 10.1098 45.5865 10.3178 45.7944 10.4218C46.4182 10.7337 47.7699 10.3178 48.2897 9.74594ZM44.1309 11.7734C44.4948 11.4615 44.4948 11.0976 44.2348 10.8896C44.2348 10.8376 44.2348 10.8376 44.2868 10.7857C44.3388 10.5777 44.1828 10.3698 43.9749 10.3698C43.0392 10.3178 41.8435 10.9936 41.3756 11.8254C40.9597 12.7091 41.8955 12.8651 42.5193 12.6052C43.0392 12.4492 43.663 12.1893 44.1309 11.7734ZM33.8897 15.4644C33.5258 15.7763 33.1099 16.4001 33.6817 16.712C34.6175 17.2839 36.333 16.1922 35.8131 15.3084V15.2564C35.8651 15.1005 35.7611 14.8925 35.5532 14.8405C34.9814 14.7366 34.3575 15.1005 33.8897 15.4644ZM37.9445 12.9171C37.5806 13.229 37.1128 13.9568 37.6326 14.3727C38.1525 14.7886 38.9843 14.4766 39.4521 14.1127C39.6601 13.9568 40.076 13.6969 40.076 13.3849C40.128 13.177 40.024 13.021 39.92 12.9171C39.972 12.7611 39.92 12.5532 39.764 12.5012C39.1922 12.1373 38.4124 12.4492 37.9445 12.9171Z" fill="#F5D752"/>
</g>
<path d="M35.6052 25.8615C35.5532 25.8615 35.5012 25.9135 35.4492 25.9135C35.2933 25.9135 35.1373 25.9655 35.0853 26.1214C35.0853 26.1734 35.0334 26.1734 35.0334 26.2254C34.9294 26.3294 34.8254 26.4853 34.7734 26.5893C34.7734 26.5893 34.7734 26.5893 34.7734 26.6413C34.8254 26.2774 35.0853 25.7575 35.6052 25.8615C35.5532 25.8615 35.5532 25.8615 35.6052 25.8615Z" fill="#F5D752"/>
<path d="M35.7092 27.0572C35.6572 27.1092 35.5012 27.1612 35.4492 27.1092L35.5012 27.0572C35.6052 26.9013 35.7611 26.6933 35.8651 26.5374C35.8651 26.6413 35.7611 27.0052 35.7092 27.0572Z" fill="#F5D752"/>
<path d="M49.0695 25.6016C48.9136 25.4457 48.8096 25.2897 48.7576 25.0818C48.8616 25.2897 48.9655 25.4457 49.0695 25.6016Z" fill="#F5D752"/>
<path d="M71.1115 13.7488C71.2675 13.6969 71.3714 13.8528 71.3714 14.0088C71.3714 14.1127 71.3714 14.2167 71.3194 14.2687C71.3194 14.3727 71.2675 14.4247 71.2155 14.5286C71.2675 14.4766 71.2155 14.4766 71.1635 14.6326C71.0075 14.9445 70.7476 15.1525 70.4357 15.2564C70.3837 15.2564 70.3317 15.2564 70.2797 15.2564C70.1758 15.2564 70.1238 15.2564 70.0718 15.1525C69.9158 14.8925 70.1238 14.5286 70.3317 14.2687C70.3837 14.2167 70.3837 14.1647 70.4357 14.1127C70.4877 14.0608 70.5916 14.0088 70.6436 13.9568C70.7996 13.9048 70.9555 13.8008 71.1115 13.7488Z" fill="#F3F0CC"/>
<path d="M69.6559 10.8895C69.8638 10.8895 69.8119 11.1495 69.7599 11.2534C69.6559 11.6173 69.448 11.9812 69.136 12.1372C69.0841 12.1892 68.9801 12.2412 68.8761 12.2412C68.6682 12.2931 68.6682 12.0332 68.6682 11.8773C68.7202 11.6693 68.7721 11.5134 68.8761 11.3574C68.9281 11.3054 68.9801 11.3054 69.0321 11.3054C69.0841 11.2534 69.0841 11.2534 69.136 11.2014C69.344 11.1495 69.4999 10.8895 69.6559 10.8895Z" fill="#F3F0CC"/>
<path d="M67.8884 17.6998C67.8364 18.0637 67.5765 18.3756 67.2646 18.6355C67.1086 18.7395 67.0046 18.8435 66.7967 18.8435C66.7447 18.8435 66.7447 18.8435 66.7447 18.8435C66.6407 18.8954 66.4848 18.8954 66.4328 18.7915C66.2768 18.4796 66.5368 18.1157 66.7447 17.9077C66.9007 17.6998 67.1086 17.5438 67.3685 17.3879C67.6804 17.0759 67.9404 17.2839 67.8884 17.6998ZM67.3685 17.6998C67.5765 17.5958 67.4205 17.4398 67.3685 17.6998V17.6998Z" fill="#F3F0CC"/>
<path d="M65.9649 13.8008C66.0689 13.8528 66.0689 14.0087 66.0689 14.1127C66.0689 14.4246 65.9129 14.6846 65.705 14.8925C65.653 14.9445 65.653 14.9445 65.601 14.9965C65.549 15.0485 65.549 15.0485 65.497 15.1004C65.3411 15.2564 64.9252 15.6203 64.7692 15.3604C64.5093 14.9965 64.9252 14.4766 65.1331 14.2687C65.3411 14.0607 65.705 13.7488 65.9649 13.8008Z" fill="#F3F0CC"/>
<path d="M67.7844 8.60228C67.9404 8.70625 67.8884 8.9142 67.8884 9.07015C67.8364 9.22611 67.7324 9.59001 67.4725 9.642C67.4205 9.642 67.4205 9.642 67.3685 9.642C67.3685 9.642 67.3685 9.642 67.3165 9.69398C67.1606 9.79795 66.8487 10.0059 66.7447 9.69398C66.6407 9.33008 66.9006 8.9142 67.1606 8.75824C67.3165 8.65427 67.6285 8.49831 67.7844 8.60228Z" fill="#F3F0CC"/>
<path d="M63.7295 10.7857C63.9895 10.7337 64.0414 11.0976 63.9895 11.2535C63.9375 11.4615 63.7295 11.9814 63.4176 11.8774C63.3136 11.9814 63.2097 12.0333 63.1057 12.0853C63.0017 12.1373 62.7938 12.1893 62.7418 11.9814C62.6898 11.6694 62.7938 11.4095 63.0017 11.2016C63.1577 10.9936 63.4696 10.7857 63.7295 10.7857Z" fill="#F3F0CC"/>
<path d="M64.3014 19.8832C64.4573 19.9871 64.4573 20.1951 64.4573 20.351C64.4573 20.403 64.4573 20.403 64.4573 20.455C64.5093 20.7669 64.3534 21.0269 64.0934 21.2348L64.0414 21.2868C63.8335 21.5467 63.5216 21.9106 63.2097 21.8586C63.1057 21.8586 63.0017 21.7547 62.9497 21.6507C62.8977 21.5987 62.8458 21.4947 62.8458 21.3388C62.7938 20.8709 63.1057 20.351 63.4176 20.0911C63.6775 19.9352 64.0414 19.6752 64.3014 19.8832Z" fill="#F3F0CC"/>
<path d="M62.2219 16.3481C62.3779 16.3481 62.4818 16.4001 62.5338 16.5561C62.5858 16.6601 62.5858 16.764 62.5858 16.868C62.5858 16.92 62.5858 17.024 62.5338 17.0759C62.5338 17.1799 62.4299 17.4398 62.4818 17.1799C62.4299 17.3879 62.3259 17.5958 62.1699 17.8037C62.066 17.9597 61.91 18.1157 61.754 18.1676C61.6501 18.1676 61.5981 18.1676 61.5461 18.1157C61.4941 18.1157 61.4421 18.1157 61.3901 18.0637C61.2862 18.0117 61.2862 17.8037 61.3382 17.6998C61.3382 17.6478 61.3382 17.5958 61.3382 17.5438C61.2862 17.7518 61.3382 17.5438 61.3382 17.4398C61.3901 17.2839 61.4421 17.1279 61.5461 16.972C61.5981 16.92 61.6501 16.868 61.7021 16.764C61.7021 16.764 61.858 16.6081 61.754 16.712C61.91 16.5041 62.014 16.4001 62.2219 16.3481Z" fill="#F3F0CC"/>
<path d="M60.1425 12.5011C60.2984 12.5011 60.3504 12.5531 60.4024 12.709C60.5064 12.969 60.3504 13.2809 60.2465 13.4888C60.1945 13.5928 60.0905 13.6968 60.0385 13.8007C60.0385 13.8007 59.9865 13.8527 59.9345 13.9047C59.8826 13.9567 59.8306 14.0087 59.7786 14.0087C59.7266 14.0607 59.6226 14.1127 59.5187 14.1127C59.4667 14.1127 59.4147 14.1127 59.4147 14.1127C59.3627 14.1127 59.3107 14.0607 59.3107 14.0087C59.2067 13.9047 59.2067 13.7488 59.2067 13.5928C59.2067 13.3849 59.3107 13.1249 59.4667 12.969C59.5706 12.709 59.8306 12.5011 60.1425 12.5011Z" fill="#F3F0CC"/>
<path d="M60.4544 22.9503C60.5584 22.8983 60.6104 22.8983 60.7143 22.8983C60.7663 22.8983 60.8183 23.0023 60.8703 23.0543C60.9223 23.1582 60.9223 23.2622 60.9223 23.3662C60.9223 23.6261 60.8183 23.886 60.6623 24.094C60.6104 24.198 60.4024 24.4059 60.2465 24.3539C60.1425 24.3019 60.0385 24.198 60.0385 24.094C59.9345 24.042 59.9345 23.8341 59.9345 23.7821C59.9865 23.4702 60.1425 23.1582 60.4024 23.0023C60.4024 23.0023 60.4024 22.9503 60.4544 22.9503Z" fill="#F3F0CC"/>
<path d="M58.5829 19.2593C58.7389 19.4673 58.6869 19.8832 58.5829 20.0911C58.479 20.2991 58.427 20.455 58.271 20.611C58.219 20.7149 58.0631 20.8189 57.9591 20.8189C57.9071 20.8189 57.8551 20.8189 57.8031 20.7669C57.6472 20.8709 57.4912 20.8709 57.3873 20.7149C57.2313 20.455 57.3353 20.0911 57.4912 19.8312C57.5952 19.6752 57.6992 19.5193 57.8551 19.3633C58.0111 19.2593 58.375 18.9994 58.5829 19.2593Z" fill="#F3F0CC"/>
<path d="M56.1396 14.7885C56.3995 14.8925 56.3995 15.2044 56.3475 15.4644C56.3475 15.5683 56.3475 15.6723 56.2955 15.7763C56.1916 16.0882 55.9836 16.3481 55.6717 16.5041C55.5677 16.5561 55.4118 16.608 55.3078 16.608C55.2558 16.608 55.2038 16.5561 55.1519 16.5041L55.0999 16.4521C55.0999 16.4001 55.0479 16.4001 55.0479 16.3481C55.0999 16.4001 55.0479 16.4001 55.0479 16.2961C54.9439 16.0362 55.0479 15.7243 55.0999 15.5163C55.2038 15.2044 55.4118 14.9965 55.6717 14.7885C55.8277 14.7366 55.9836 14.6846 56.1396 14.7885Z" fill="#F3F0CC"/>
<path d="M58.271 8.70625C58.479 8.75824 58.427 9.17412 58.375 9.27809C58.323 9.59001 58.1151 10.0059 57.8031 10.1099C57.7512 10.1099 57.6992 10.1099 57.6992 10.1099C57.4912 10.1619 57.2833 10.1619 57.1273 10.0579C56.9714 9.90192 57.0753 9.59001 57.1273 9.43405C57.2313 9.22611 57.3353 9.01816 57.5432 8.91419C57.7512 8.70625 58.0111 8.65426 58.271 8.70625Z" fill="#F3F0CC"/>
<path d="M62.6898 6.73078C62.9497 6.6788 63.0017 7.09468 62.9497 7.25064C62.9497 7.45859 62.8457 7.66653 62.7418 7.87447C62.6898 8.03043 62.5338 8.23837 62.3779 8.29036C62.2739 8.34234 62.2219 8.34234 62.1179 8.34234C62.1179 8.34234 62.066 8.34234 62.014 8.34234C62.014 8.34234 62.014 8.34234 61.962 8.34234C61.858 8.34234 61.806 8.29036 61.806 8.18639C61.754 7.97844 61.806 7.71851 61.858 7.51057C61.962 7.25064 62.1179 7.0427 62.3259 6.88674C62.4818 6.78277 62.5858 6.73078 62.6898 6.73078Z" fill="#F3F0CC"/>
<path d="M66.4848 6.15887C66.4328 6.26284 66.3808 6.4188 66.4328 6.57476C66.3808 6.52277 66.3808 6.36681 66.5887 5.95093C66.5368 6.0549 66.4848 6.10688 66.4848 6.15887Z" fill="#F3F0CC"/>
<path d="M66.4848 6.15894C66.4848 6.10695 66.5368 6.05497 66.5368 6.00298C66.5888 5.79504 66.7447 5.58709 66.9007 5.48312C66.9527 5.43114 67.0046 5.43114 67.1086 5.37915C67.1606 5.37915 67.2646 5.37915 67.2646 5.43114C67.2646 5.43114 67.2646 5.48312 67.3166 5.48312C67.5765 5.79504 67.1606 6.83475 66.7967 6.83475C66.6927 6.83475 66.6407 6.83475 66.5888 6.78277L66.5368 6.73078C66.5368 6.73078 66.4848 6.73078 66.4848 6.6788L66.4328 6.62681V6.57482C66.3808 6.47085 66.4328 6.31489 66.4848 6.15894Z" fill="#F3F0CC"/>
<path d="M53.2284 10.4737C53.2284 10.5257 53.2804 10.5257 53.2804 10.5777C53.3323 10.5777 53.3323 10.5777 53.3843 10.5777C53.4363 10.5777 53.5403 10.5257 53.6443 10.5257C53.6962 10.5257 53.7482 10.6297 53.7482 10.6816C53.7482 10.8376 53.6962 11.0455 53.5923 11.2015C53.4883 11.3575 53.2804 11.4614 53.0724 11.5134C53.0204 11.5134 52.9165 11.5654 52.8645 11.5134C52.7605 11.4614 52.7085 11.3055 52.7085 11.2015C52.7085 10.9936 52.7605 10.7336 52.9165 10.5777C52.9165 10.4737 53.0724 10.3177 53.2284 10.4737Z" fill="#F3F0CC"/>
<path d="M57.0233 25.6537C57.1273 25.6017 57.1793 25.6017 57.2833 25.6017C57.3872 25.6017 57.4912 25.7057 57.5432 25.8096C57.5952 25.9136 57.5952 26.0696 57.5952 26.1215C57.5952 26.3295 57.4912 26.5374 57.3872 26.6934C57.2833 26.8493 57.1793 27.0573 56.9714 27.1613C56.8674 27.2132 56.6594 27.2652 56.5555 27.1093C56.5555 27.0573 56.5035 27.0573 56.5035 27.0053C56.3995 26.8493 56.3995 26.6414 56.4515 26.4335C56.4515 26.4335 56.4515 26.4335 56.4515 26.3815C56.4515 26.2775 56.5035 26.1215 56.5555 26.0176C56.6075 25.9136 56.7114 25.7576 56.7634 25.6537C56.9194 25.7576 56.9714 25.7057 57.0233 25.6537Z" fill="#F3F0CC"/>
<path d="M54.8399 21.1828C55.0479 21.1828 55.1519 21.4428 55.2038 21.6507C55.2558 21.8586 55.2039 22.0666 55.0999 22.2745C55.0999 22.3265 55.0479 22.4305 55.0479 22.4825C54.9959 22.6384 54.8919 22.7944 54.788 22.9503C54.632 23.1583 54.3721 23.3662 54.0602 23.3142C53.9042 23.2623 53.7482 23.1583 53.7482 23.0023C53.6963 22.6904 53.7482 22.3785 53.8522 22.0666C53.9562 21.7547 54.1121 21.4947 54.3721 21.2868C54.528 21.1308 54.684 21.1308 54.8399 21.1828Z" fill="#F3F0CC"/>
<path d="M51.9287 16.8679C51.9807 16.8679 51.9807 16.8679 51.9807 16.8679C52.0847 16.8679 52.1887 16.9199 52.2926 16.9719C52.3966 17.0759 52.3966 17.2838 52.3966 17.4398C52.3966 17.6997 52.2926 18.0116 52.0847 18.2715C51.9807 18.4275 51.8767 18.5315 51.7208 18.5835C51.6168 18.5835 51.5128 18.5315 51.4609 18.4795C51.1489 18.1676 51.3049 17.6477 51.5128 17.2838C51.5128 17.0759 51.7208 16.8159 51.9287 16.8679Z" fill="#F3F0CC"/>
<path d="M49.6414 12.1373C49.6933 12.0853 49.7453 12.0853 49.8493 12.1373C49.9013 12.1892 49.9533 12.2412 50.0053 12.2932C50.0572 12.4492 50.0572 12.6051 50.0053 12.7611C49.9533 12.917 49.9533 13.021 49.8493 13.125C49.7973 13.229 49.6933 13.4369 49.5374 13.4889C49.4854 13.4889 49.4334 13.5409 49.3814 13.5409C49.3294 13.5409 49.2775 13.5409 49.2255 13.4889C49.1735 13.4369 49.1735 13.3329 49.1735 13.2809C49.1735 13.177 49.1735 13.073 49.2255 12.917C49.2255 12.917 49.2255 12.917 49.2255 12.8651C49.2255 12.8131 49.2255 12.8131 49.2255 12.7611C49.2775 12.5531 49.3814 12.3972 49.4854 12.2412C49.4854 12.1892 49.5374 12.1892 49.6414 12.1373Z" fill="#F3F0CC"/>
<path d="M53.9562 28.6168C54.0601 28.7208 54.0602 28.9287 54.0602 29.0327C54.0602 29.2926 53.9562 29.5526 53.8002 29.7605C53.6962 29.9685 53.4883 30.0724 53.2804 30.1764C53.0724 30.2804 52.9165 30.0724 52.9165 29.8645C52.8645 29.6565 52.9684 29.2926 53.0204 29.1887C53.1244 28.9807 53.2804 28.8248 53.4883 28.7208C53.5923 28.5648 53.8002 28.4609 53.9562 28.6168Z" fill="#F3F0CC"/>
<path d="M50.889 24.25C51.045 24.302 51.045 24.5619 51.045 24.7179C51.045 24.9778 50.941 25.2378 50.7851 25.4457C50.7331 25.4977 50.7331 25.5497 50.6811 25.6017C50.6291 25.6537 50.4731 25.7576 50.3692 25.7056C50.2132 25.6537 50.2132 25.3937 50.2132 25.2378C50.2132 25.0298 50.3172 24.8739 50.3692 24.6659C50.4212 24.5619 50.4731 24.458 50.5771 24.406C50.6291 24.302 50.7851 24.198 50.889 24.25Z" fill="#F3F0CC"/>
<path d="M48.0298 19.2074C48.1858 19.1554 48.2897 19.2594 48.3417 19.3634C48.5496 19.5193 48.4457 19.9872 48.3417 20.1952C48.1857 20.5071 47.9258 20.923 47.5099 20.871C47.302 20.871 47.25 20.663 47.25 20.5071C47.25 20.4031 47.25 20.2991 47.302 20.1952C47.302 20.0912 47.406 19.8313 47.302 20.1432C47.354 19.9352 47.406 19.7793 47.5619 19.6233C47.6659 19.4154 47.8219 19.2594 48.0298 19.2074Z" fill="#F3F0CC"/>
<path d="M45.4305 14.3206C45.6385 14.2687 45.6904 14.4766 45.6904 14.6326C45.6904 14.6845 45.6904 14.7365 45.6904 14.7885C45.7944 14.9445 45.6904 15.2044 45.6384 15.3084C45.5865 15.5163 45.4305 15.6723 45.3265 15.8282C45.2746 15.8802 45.1186 15.9842 45.0146 15.9842C44.8587 15.9842 44.8067 15.9322 44.7547 15.7762C44.6507 15.5163 44.7547 15.2564 44.8067 14.9965C44.8587 14.7885 45.0146 14.5806 45.1706 14.4246C45.2226 14.3726 45.3265 14.3206 45.4305 14.3206Z" fill="#F3F0CC"/>
<path d="M22.4008 15.7242C24.1683 13.2808 25.0001 10.5256 23.7005 7.61438C23.4405 6.99055 23.0246 6.52268 22.6088 6.05481C27.7554 7.66637 32.694 11.3054 34.3576 16.0881C37.3727 24.6657 30.8225 34.2831 24.6882 39.7416C23.7005 40.6254 22.6608 41.3532 21.5171 42.081C20.2694 42.8608 19.1257 43.6925 17.8261 44.3684C13.5112 46.6037 9.24841 50.0348 6.23323 42.6008C2.64621 33.7113 10.4961 26.7452 16.5784 21.6506C18.6059 19.883 20.8412 17.8556 22.4008 15.7242Z" fill="#579535"/>
<path d="M18.8658 5.22302C25.1561 5.95082 32.2261 10.1097 34.3575 16.0881C36.6449 22.5343 33.4738 29.5524 29.159 35.0109C30.0427 33.3473 30.8745 31.6318 31.4463 29.8123C32.538 26.4332 32.4341 23.0022 30.6665 19.883C28.6391 16.348 25.26 13.6967 21.777 11.6693C20.8412 11.1494 19.9055 10.6295 18.8658 10.1617C16.9423 8.65409 14.239 7.61437 12.2636 6.67862C14.395 6.00281 16.6304 5.53494 18.8658 5.22302Z" fill="#73BE46"/>
<path opacity="0.6" d="M22.5568 18.9473C21.3611 20.7668 19.7495 22.3783 18.138 23.8339C16.3705 25.4455 14.603 27.057 12.9394 28.7726C12.1596 29.5524 11.3798 30.3321 10.6 31.1639C9.82026 32.0477 9.19643 33.0354 8.52061 34.0231C7.79281 35.0109 7.42891 36.3625 7.22097 37.5582C7.06501 38.4939 6.80508 39.6376 6.90905 40.6253C7.22096 38.9618 8.41664 37.4022 9.24841 35.9986C10.3401 34.1791 11.7437 32.5155 13.1473 30.956C14.7589 29.1885 16.5264 27.5769 18.3979 26.0693C20.2694 24.5097 22.2449 22.9502 24.3763 21.8065C24.5322 21.7545 24.4283 22.0664 24.3243 22.1184C20.6853 24.5617 17.2022 27.5769 14.1351 30.696C13.4073 31.4238 12.7834 32.2036 12.1076 32.9834C11.4838 33.7112 10.9639 34.595 10.3401 35.3228C9.6643 36.1026 9.24841 36.9863 8.72855 37.8701C8.05274 38.9618 7.42891 39.8975 7.06501 41.1452C7.06501 41.1972 7.01302 41.2492 7.01302 41.2492C7.01302 41.3011 7.06501 41.3531 7.06501 41.4051C7.06501 41.4051 7.06501 41.4571 7.117 41.4571C7.27295 41.1452 7.37692 40.7293 7.53288 40.4694C7.84479 39.9495 8.15671 39.3777 8.46862 38.8578C9.14444 37.7141 9.97621 36.6224 10.808 35.6347C12.4715 33.6592 14.447 31.9437 16.4744 30.3321C16.5784 30.2282 16.5264 30.5921 16.4744 30.6441C14.395 32.4636 12.3676 34.491 10.6 36.6744C9.76827 37.7141 8.98848 38.9098 8.31266 40.0535C7.94876 40.7293 7.58487 41.717 7.06501 42.2369C7.01302 42.2889 6.96103 42.3409 6.90905 42.2889C6.54515 42.0289 6.49317 41.717 6.59714 41.3011C6.38919 40.6773 6.49316 39.9495 6.49316 39.3257C6.54515 38.182 6.80508 37.0383 7.117 35.9466C7.79281 33.7632 9.24841 31.7877 10.756 30.1242C12.5235 28.1487 14.447 26.2253 16.4744 24.5097C18.6059 22.6902 20.8412 21.0267 22.4528 18.7393C22.6088 18.5834 22.6088 18.8433 22.5568 18.9473Z" fill="#63A53B"/>
<path opacity="0.6" d="M27.7553 24.3017C25.7799 27.2649 23.5445 29.8642 20.8932 32.2036C20.6853 32.4115 20.7892 31.8917 20.8412 31.7877C21.9329 30.54 23.0766 29.3964 24.2723 28.2007C25.52 26.953 26.6117 25.4974 27.7034 24.0938C27.8073 23.9378 27.8073 24.2498 27.7553 24.3017Z" fill="#63A53B"/>
<path opacity="0.6" d="M29.159 24.4057C28.6391 25.3935 27.9633 26.3292 27.2875 27.265C26.5597 28.2527 25.8839 29.2924 24.8961 30.0722C24.5842 30.3321 24.7402 29.7083 24.8441 29.5523C26.3517 27.8888 27.8593 26.1213 29.055 24.2498C29.159 24.0938 29.2109 24.3537 29.159 24.4057Z" fill="#63A53B"/>
<path opacity="0.6" d="M13.6152 6.3147C17.878 6.3147 22.1928 6.99051 26.1438 8.65406C26.2477 8.70604 26.1438 8.91399 26.0398 8.91399C23.9084 8.18619 21.725 7.7703 19.5416 7.4064C18.5019 7.25044 17.4621 7.19846 16.3704 7.09448C16.2145 7.09448 16.0585 7.09448 15.8506 7.0425C16.2665 7.14647 16.7343 7.30243 17.1502 7.4064C17.7221 7.51037 18.2419 7.82228 18.8138 7.97824C19.4896 8.18619 20.2174 8.34214 20.8932 8.60207C23.4925 9.5898 25.9358 11.0974 28.1192 12.7609C28.1712 12.8129 28.0672 12.9689 28.0153 12.9689C25.7279 11.4093 23.2326 10.1616 20.6853 9.17392C20.1134 8.96597 19.5416 8.75803 18.9697 8.65406C19.5936 8.96597 20.2174 9.27789 20.7892 9.5898C21.621 10.0577 22.4528 10.3696 23.2326 10.8894C24.4802 11.7212 25.7279 12.501 26.9236 13.4368C27.5994 14.0086 28.2752 14.5804 28.899 15.2043C29.6268 15.9321 30.1467 16.8158 30.7705 17.5956C30.7705 17.5956 30.7705 17.6996 30.7185 17.6996C29.5228 16.3999 28.4311 15.1523 26.9755 14.1126C25.6759 13.1768 24.3762 12.2931 23.0246 11.4093C21.621 10.4736 19.9575 9.74576 18.4499 9.01796C17.0462 8.34214 15.5906 7.82229 14.0831 7.35441C13.8231 7.30243 13.6152 7.25044 13.3553 7.09448C13.2513 7.0425 13.3033 6.73058 13.4592 6.6786C13.4072 6.57463 13.5112 6.3147 13.6152 6.3147Z" fill="#63A53B"/>
<path d="M11.8477 39.4298C19.9055 34.3352 33.8897 29.3965 43.663 28.8247C48.1858 28.5648 52.9685 29.3445 57.3353 30.4882C61.0263 31.476 64.9252 32.9835 67.7324 35.6348C67.5765 35.6348 67.4725 35.5828 67.3165 35.5828C65.497 35.3749 63.6775 35.4269 61.858 35.6868C57.9591 36.2586 54.2161 37.7143 50.6811 39.3778C46.7302 41.2493 43.1431 43.4847 39.5561 45.98C36.0211 48.4233 32.486 50.9186 28.5871 52.7382C24.7921 54.4537 20.5293 55.4934 16.4224 54.4017C13.9271 53.7779 11.6917 52.4782 10.2361 50.3468C9.24839 48.9432 8.62456 47.3836 8.20868 45.7201C8.4686 43.1728 8.88449 41.2493 11.8477 39.4298Z" fill="#73BE46"/>
<path d="M9.82022 48.5273C11.5358 49.9829 15.0188 49.2032 17.0462 48.8393C20.2174 48.2674 23.1286 47.1237 25.9878 45.7721C27.1315 45.2522 28.2752 44.8363 29.4189 44.3685C31.6023 43.3807 33.6817 42.2371 35.7611 41.1454C39.92 39.0659 44.5467 37.4544 49.0175 36.2067C50.0052 35.9468 51.045 35.7908 52.0327 35.4789C53.2284 35.115 54.476 34.8551 55.7237 34.6991C57.9071 34.4392 60.0905 34.0233 62.3259 34.2312C62.3779 34.2312 62.3259 34.4912 62.2739 34.4912C59.9345 34.5432 57.5432 35.115 55.2558 35.4789C54.1121 35.6868 52.9684 35.8948 51.8767 36.2587C50.785 36.5706 49.6413 36.7785 48.5496 37.0905C46.2623 37.7663 43.9749 38.65 41.7395 39.5338C39.3482 40.4176 37.0088 41.4053 34.7734 42.601C32.694 43.6927 30.6145 44.8363 28.4311 45.7201C26.2997 46.6039 24.2723 47.5916 22.0889 48.4234C18.8657 49.671 15.4867 49.9829 12.1076 49.879C19.5935 51.0227 27.2355 49.0472 33.9416 45.5641C35.9171 44.5244 37.7886 43.3807 39.6601 42.2371C36.177 45.1483 31.9662 47.2277 27.7553 48.7353C23.5965 50.1909 19.0217 51.4905 14.5509 51.1786C12.6794 50.9707 10.2361 50.5548 9.82022 48.5273Z" fill="#63A53B"/>
<path d="M10.6 50.0349C11.3278 50.5027 11.9516 50.9186 12.7314 51.2825C13.5632 51.6464 14.4469 52.0103 15.3307 52.2703C17.3062 52.7901 19.3856 52.8941 21.413 52.6861C23.4405 52.4782 25.364 51.6984 27.2355 50.9706C29.4189 50.1388 31.6023 49.2551 33.4738 47.8515C33.5777 47.7475 33.5257 48.1114 33.4218 48.1634C31.6023 49.567 29.5228 50.5547 27.4434 51.4385C25.4679 52.2703 23.3885 53.05 21.2051 53.362C19.3336 53.6219 17.4101 53.4659 15.5906 53.102C14.6029 52.8941 13.7191 52.3222 12.8354 51.8544C11.9516 51.3865 11.2758 50.8147 10.496 50.2428C10.444 50.2428 10.548 49.9829 10.6 50.0349Z" fill="#63A53B"/>
<path d="M20.1134 36.7785C20.2694 36.7266 20.1654 37.0385 20.0614 37.0905C19.0737 37.5583 18.034 38.0262 17.0983 38.598C15.9026 39.3258 14.8109 40.2616 13.7712 41.1973C12.7314 42.0291 11.7957 42.9129 11.0159 44.0046C10.652 44.4724 10.3401 44.9923 10.0802 45.5122C9.82024 46.032 9.30038 46.9158 9.45634 47.4876C9.45634 47.5396 9.45634 47.5916 9.40435 47.6956C9.45634 47.6436 9.45634 47.6436 9.50832 47.6436C10.1322 47.6436 10.808 47.4876 11.4318 47.2797C12.1596 47.0197 12.9394 46.9158 13.6672 46.7078C15.4347 46.188 17.0982 45.2522 18.7098 44.4724C21.777 42.9129 24.9481 41.4573 28.1192 40.0536C31.1864 38.702 34.1496 37.2464 37.2687 35.9988C38.9323 35.3229 40.5958 34.7511 42.2594 34.2832C43.819 33.8673 45.3785 33.7634 46.9901 33.5554C47.0941 33.5554 46.9901 33.7634 46.9381 33.7634C45.4305 34.0753 43.9229 34.2312 42.4673 34.6991C40.6478 35.2709 38.8803 35.9988 37.1128 36.7266C33.7857 38.0782 30.6665 39.7417 27.3395 41.1453C25.7799 41.8212 24.3243 42.601 22.8167 43.3288C21.2051 44.0566 19.5936 44.7844 17.982 45.5641C16.5264 46.2919 15.0188 47.0717 13.4592 47.5396C12.2116 47.9555 10.652 48.3714 9.30038 48.2674C9.19641 48.2674 9.19641 48.1114 9.24839 48.0075C9.19641 48.0595 9.14442 48.0595 9.14442 48.0075C8.72853 47.2797 9.30038 46.2919 9.61229 45.5641C10.1321 44.3165 11.0159 43.2248 11.8997 42.237C12.9914 41.0414 14.447 40.1056 15.7466 39.1179C17.0982 38.0262 18.5539 37.4024 20.1134 36.7785Z" fill="#63A53B"/>
<path d="M15.8506 42.0811C17.982 40.8854 20.1654 39.7417 22.3488 38.702C24.6362 37.6103 26.9755 36.6745 29.2629 35.6348C31.3943 34.6991 33.5257 33.6594 35.8131 33.0875C35.8651 33.0875 35.8131 33.2435 35.7611 33.2955C33.3698 34.0233 31.1864 35.167 28.899 36.2067C26.7156 37.2464 24.4802 38.1821 22.2968 39.2738C20.2174 40.2616 18.1379 41.4053 16.1105 42.5489C15.1228 43.1208 14.135 43.6926 13.0953 44.2645C12.2116 44.7323 11.2238 45.2522 10.496 45.928C10.3401 46.084 10.3921 45.7201 10.4441 45.6161C11.0159 44.9923 11.7957 44.4724 12.5235 44.0565C13.6152 43.2767 14.7589 42.7049 15.8506 42.0811Z" fill="#63A53B"/>
<path d="M43.663 28.8247C48.1858 28.5648 52.9685 29.3445 57.3353 30.4882C61.0263 31.476 64.9252 32.9835 67.7324 35.6348C67.5765 35.6348 67.4725 35.5828 67.3165 35.5828C66.5887 35.5308 65.8609 35.4789 65.0811 35.4789C60.8703 33.8153 56.3995 32.8796 51.8248 32.6716C45.4305 32.4637 39.0363 33.6074 33.0059 35.7388C29.7828 36.8825 26.5597 38.2341 23.5445 39.7937C20.9452 41.1453 17.6181 42.9128 16.1625 45.5641C15.6427 46.5518 15.3307 47.7995 15.9026 48.8392C16.5264 49.9829 17.8261 50.5547 19.0737 50.7107C20.3214 50.8667 21.673 50.8147 23.0246 50.6067C20.8412 51.4905 18.5539 52.0623 16.1625 52.0103C15.7466 52.0103 15.7466 52.5822 16.0585 52.6862C18.6578 53.5179 21.4131 53.8818 24.1163 53.5699C25.9878 53.31 27.8593 52.8421 29.6268 52.2183C29.2109 52.4262 28.847 52.6342 28.4312 52.7901C24.6362 54.5057 20.3734 55.5454 16.2665 54.4537C13.7712 53.8298 11.5358 52.5302 10.0802 50.3988C9.09244 48.9952 8.46861 47.4356 8.05272 45.7721C8.41662 43.1728 8.83252 41.2493 11.7957 39.3778C19.8535 34.3352 33.8377 29.3445 43.663 28.8247Z" fill="#73BE46"/>
<path opacity="0.6" d="M25.0521 51.3345C25.7279 51.0226 26.4557 50.7627 27.1315 50.5027C28.899 49.8269 30.4586 48.9951 32.0702 48.0074C34.8774 46.2919 37.5807 44.4204 40.2839 42.6009C41.5316 41.7691 42.7273 40.8854 43.9749 40.1056C45.5345 39.1698 47.198 38.3381 48.8096 37.4543C50.3172 36.6225 51.9287 36.2066 53.5403 35.6348C54.8399 35.1669 56.3475 34.699 57.7512 34.907C57.8551 34.907 57.7512 35.2709 57.6472 35.2709C56.0356 35.2709 54.476 36.1027 53.0724 36.7785C51.3569 37.6622 49.6933 38.494 48.0818 39.4298C46.5742 40.3135 45.0146 41.1973 43.507 42.133C42.2594 42.9128 41.0637 43.7966 39.868 44.6283C37.2687 46.3439 34.6175 48.0074 31.9142 49.567C30.4586 50.3988 29.055 51.0746 27.4434 51.5424C26.6636 51.7504 25.9358 51.9583 25.1561 52.1663C24.3763 52.3742 23.5965 52.4262 22.8167 52.5302C22.6088 52.5822 22.7647 52.0623 22.9207 52.0103C23.5965 51.6984 24.3763 51.6464 25.0521 51.3345Z" fill="#73BE46"/>
<path opacity="0.6" d="M24.4283 16.556C23.6485 17.4397 23.0246 18.5314 22.2968 19.4672C21.673 20.299 21.0492 21.2867 20.3214 22.0145C19.4896 22.7943 18.7618 23.73 17.982 24.5618C17.0463 25.5495 16.1105 26.4333 15.1228 27.369C12.0036 30.3322 8.57258 33.2954 7.42889 37.5582C7.37691 37.6622 7.11699 38.0261 7.11699 37.7142C7.065 36.9864 7.32492 36.4146 7.53287 35.6868C7.84478 34.5951 8.26067 33.5553 8.83251 32.5676C10.0802 30.2802 11.6917 28.2528 13.6672 26.5892C14.6549 25.7575 15.5907 24.7697 16.5264 23.886C17.5141 22.9502 18.5539 21.9625 19.4896 20.9748C20.3214 20.091 21.2051 19.2592 22.0889 18.4275C22.8687 17.6997 23.5445 16.8679 24.4283 16.1921C24.5842 16.1401 24.4802 16.504 24.4283 16.556Z" fill="#73BE46"/>
<path opacity="0.6" d="M18.138 6.8346C20.0614 6.73063 21.9849 7.35446 23.8044 7.82234C25.7279 8.34219 27.8073 9.48588 29.2109 10.8375C30.7705 12.3451 32.2261 13.8007 33.0579 15.8281C33.7857 17.4917 34.1496 19.8311 33.9416 21.6506C33.9416 21.7025 33.8377 21.8585 33.8377 21.7545C33.7337 19.883 33.1619 17.6996 32.2781 16.0361C31.3423 14.2686 29.8867 12.9169 28.4311 11.5653C26.9755 10.2137 24.8961 9.48588 23.1286 8.70609C21.465 7.97829 19.8015 7.40645 17.982 7.14652C17.93 7.19851 18.034 6.88659 18.138 6.8346Z" fill="#73BE46"/>
<path opacity="0.6" d="M48.2377 4.54736C47.5619 5.01523 47.094 5.74303 46.4182 6.2109C45.5345 6.83473 44.5987 7.45856 43.8189 8.18636C43.3511 8.60225 42.7792 8.91416 42.3114 9.27806C41.6355 9.79792 40.8557 10.2138 40.1279 10.6297C39.972 10.6817 40.076 10.3698 40.1799 10.3178C41.4796 9.33005 42.7792 8.39431 44.0269 7.40658C44.7027 6.88672 45.4305 6.31487 46.1583 5.847C46.8861 5.37913 47.5099 4.70331 48.2377 4.28743C48.3937 4.18346 48.2897 4.49537 48.2377 4.54736Z" fill="#73BE46"/>
</g>
<defs>
<filter id="filter0_d_16_138" x="3.05176e-05" y="0" width="85.7986" height="68.9014" filterUnits="userSpaceOnUse" color-interpolation-filters="sRGB">
<feFlood flood-opacity="0" result="BackgroundImageFix"/>
<feColorMatrix in="SourceAlpha" type="matrix" values="0 0 0 0 0 0 0 0 0 0 0 0 0 0 0 0 0 0 127 0" result="hardAlpha"/>
<feOffset dx="4" dy="6"/>
<feGaussianBlur stdDeviation="4"/>
<feComposite in2="hardAlpha" operator="out"/>
<feColorMatrix type="matrix" values="0 0 0 0 0 0 0 0 0 0 0 0 0 0 0 0 0 0 0.6 0"/>
<feBlend mode="normal" in2="BackgroundImageFix" result="effect1_dropShadow_16_138"/>
<feBlend mode="normal" in="SourceGraphic" in2="effect1_dropShadow_16_138" result="shape"/>
</filter>
<radialGradient id="paint0_radial_16_138" cx="0" cy="0" r="1" gradientUnits="userSpaceOnUse" gradientTransform="translate(28.2432 132.954) rotate(-45.2917) scale(77.73)">
<stop stop-color="#26B90B"/>
<stop offset="0.7219" stop-color="#1D7B03"/>
<stop offset="1" stop-color="#1A6200"/>
</radialGradient>
<radialGradient id="paint1_radial_16_138" cx="0" cy="0" r="1" gradientUnits="userSpaceOnUse" gradientTransform="translate(65.0109 86.9144) rotate(-45.2917) scale(68.9815)">
<stop stop-color="#8DEF1B"/>
<stop offset="0.5176" stop-color="#57B110"/>
<stop offset="1" stop-color="#217406"/>
</radialGradient>
<radialGradient id="paint2_radial_16_138" cx="0" cy="0" r="1" gradientUnits="userSpaceOnUse" gradientTransform="translate(-3.65905 74.9759) rotate(-45.2917) scale(82.8919 82.8919)">
<stop stop-color="#D0D9C5"/>
<stop offset="0.6288" stop-color="#F0F3ED"/>
<stop offset="1" stop-color="white"/>
</radialGradient>
<radialGradient id="paint3_radial_16_138" cx="0" cy="0" r="1" gradientUnits="userSpaceOnUse" gradientTransform="translate(24.3784 37.1312) rotate(-45.2917) scale(87.4458 87.4458)">
<stop stop-color="#D0D9C5"/>
<stop offset="0.6288" stop-color="#F0F3ED"/>
<stop offset="1" stop-color="white"/>
</radialGradient>
<radialGradient id="paint4_radial_16_138" cx="0" cy="0" r="1" gradientUnits="userSpaceOnUse" gradientTransform="translate(58.6414 98.4319) rotate(-45.2917) scale(86.7905)">
<stop stop-color="#008300"/>
<stop offset="0.9692" stop-color="#004500"/>
<stop offset="1" stop-color="#004300"/>
</radialGradient>
<radialGradient id="paint5_radial_16_138" cx="0" cy="0" r="1" gradientUnits="userSpaceOnUse" gradientTransform="translate(110.625 69.5595) rotate(-96.1883) scale(116.065 116.065)">
<stop stop-color="#26B90B"/>
<stop offset="0.7219" stop-color="#1D7B03"/>
<stop offset="1" stop-color="#1A6200"/>
</radialGradient>
<radialGradient id="paint6_radial_16_138" cx="0" cy="0" r="1" gradientUnits="userSpaceOnUse" gradientTransform="translate(104.27 17.1303) rotate(-96.1883) scale(118.974 118.974)">
<stop stop-color="#8DEF1B"/>
<stop offset="0.5176" stop-color="#57B110"/>
<stop offset="1" stop-color="#217406"/>
</radialGradient>
<radialGradient id="paint7_radial_16_138" cx="0" cy="0" r="1" gradientUnits="userSpaceOnUse" gradientTransform="translate(30.0443 99.11) rotate(-96.1883) scale(116.376 116.377)">
<stop stop-color="#D0D9C5"/>
<stop offset="0.6288" stop-color="#F0F3ED"/>
<stop offset="1" stop-color="white"/>
</radialGradient>
<radialGradient id="paint8_radial_16_138" cx="0" cy="0" r="1" gradientUnits="userSpaceOnUse" gradientTransform="translate(14.1002 14.8198) rotate(-96.1883) scale(121.156 121.156)">
<stop stop-color="#D0D9C5"/>
<stop offset="0.6288" stop-color="#F0F3ED"/>
<stop offset="1" stop-color="white"/>
</radialGradient>
<radialGradient id="paint9_radial_16_138" cx="0" cy="0" r="1" gradientUnits="userSpaceOnUse" gradientTransform="translate(110.218 44.1656) rotate(-96.1883) scale(136.084 136.084)">
<stop stop-color="#008300"/>
<stop offset="0.9692" stop-color="#004500"/>
<stop offset="1" stop-color="#004300"/>
</radialGradient>
<linearGradient id="paint10_linear_16_138" x1="61.6067" y1="50.1875" x2="17.0094" y2="58.292" gradientUnits="userSpaceOnUse">
<stop stop-color="#FF7C5E"/>
<stop offset="1" stop-color="#FFF05C"/>
</linearGradient>
<radialGradient id="paint11_radial_16_138" cx="0" cy="0" r="1" gradientUnits="userSpaceOnUse" gradientTransform="translate(57.8199 62.644) rotate(115.93) scale(43.1295 43.1294)">
<stop stop-color="#FFA633"/>
<stop offset="0.1138" stop-color="#FFB841"/>
<stop offset="0.3513" stop-color="#FFD75B"/>
<stop offset="0.5825" stop-color="#FFED6D"/>
<stop offset="0.8028" stop-color="#FFFA78"/>
<stop offset="1" stop-color="#FFFF7C"/>
</radialGradient>
<linearGradient id="paint12_linear_16_138" x1="44.8344" y1="41.5063" x2="16.1982" y2="46.7102" gradientUnits="userSpaceOnUse">
<stop stop-color="#FF7C5E"/>
<stop offset="1" stop-color="#FFF05C"/>
</linearGradient>
<radialGradient id="paint13_radial_16_138" cx="0" cy="0" r="1" gradientUnits="userSpaceOnUse" gradientTransform="translate(43.6685 45.8606) rotate(115.93) scale(30.317 30.317)">
<stop stop-color="#FFA633"/>
<stop offset="0.1138" stop-color="#FFB841"/>
<stop offset="0.3513" stop-color="#FFD75B"/>
<stop offset="0.5825" stop-color="#FFED6D"/>
<stop offset="0.8028" stop-color="#FFFA78"/>
<stop offset="1" stop-color="#FFFF7C"/>
</radialGradient>
<linearGradient id="paint14_linear_16_138" x1="47.8928" y1="60.0354" x2="17.5816" y2="65.5437" gradientUnits="userSpaceOnUse">
<stop stop-color="#FF7C5E"/>
<stop offset="1" stop-color="#FFF05C"/>
</linearGradient>
<radialGradient id="paint15_radial_16_138" cx="0" cy="0" r="1" gradientUnits="userSpaceOnUse" gradientTransform="translate(44.4515 76.5431) rotate(115.93) scale(37.8765 37.8765)">
<stop stop-color="#FFA633"/>
<stop offset="0.1138" stop-color="#FFB841"/>
<stop offset="0.3513" stop-color="#FFD75B"/>
<stop offset="0.5825" stop-color="#FFED6D"/>
<stop offset="0.8028" stop-color="#FFFA78"/>
<stop offset="1" stop-color="#FFFF7C"/>
</radialGradient>
<linearGradient id="paint16_linear_16_138" x1="24.6036" y1="63.8146" x2="15.599" y2="65.451" gradientUnits="userSpaceOnUse">
<stop stop-color="#FF7C5E"/>
<stop offset="1" stop-color="#FFF05C"/>
</linearGradient>
<radialGradient id="paint17_radial_16_138" cx="0" cy="0" r="1" gradientUnits="userSpaceOnUse" gradientTransform="translate(22.8989 75.5208) rotate(115.93) scale(27.929 27.929)">
<stop stop-color="#FFA633"/>
<stop offset="0.1138" stop-color="#FFB841"/>
<stop offset="0.3513" stop-color="#FFD75B"/>
<stop offset="0.5825" stop-color="#FFED6D"/>
<stop offset="0.8028" stop-color="#FFFA78"/>
<stop offset="1" stop-color="#FFFF7C"/>
</radialGradient>
</defs>
</svg>
