<svg width="101" height="109" viewBox="0 0 101 109" fill="none" xmlns="http://www.w3.org/2000/svg">
<path d="M13.5653 61.3022C13.5995 61.3022 13.5995 61.3022 13.6338 61.3022C13.8049 61.3022 13.976 61.3707 14.1129 61.5076L49.1231 99.1188C49.2258 99.2215 49.2943 99.3926 49.2943 99.5637C49.2943 99.6322 49.2943 101.138 49.1231 102.678C48.8494 105.108 48.2333 106.271 47.2409 106.374C47.2066 106.374 47.2066 106.374 47.1724 106.374C47.0013 106.374 46.8302 106.306 46.6933 106.203C46.5564 106.066 46.488 105.895 46.488 105.724C46.488 104.492 45.9746 103.02 45.4955 101.857C45.5297 103.294 45.7351 105.347 46.5222 107.811C46.6249 108.085 46.488 108.393 46.2484 108.564C46.18 108.599 46.0773 108.633 45.9746 108.667C45.8035 108.701 45.5982 108.633 45.4613 108.496C43.9897 107.059 43.3737 105.211 42.7919 103.465C42.5865 102.815 42.347 102.165 42.0732 101.514C41.6967 103.157 40.7727 104.492 40.7043 104.56C40.6016 104.731 40.4305 104.8 40.2593 104.834C40.1567 104.834 40.0882 104.834 39.9856 104.8C39.7118 104.697 39.5407 104.458 39.5407 104.15C39.5407 104.15 39.5749 103.534 39.2669 102.404C39.2327 103.362 39.13 104.081 39.13 104.15C39.0958 104.458 38.8562 104.663 38.5482 104.697H38.514C38.206 104.697 37.9322 104.492 37.8637 104.184C37.4531 102.096 36.0499 100.385 35.1601 99.461C34.5783 101.48 33.3121 103.465 33.2436 103.568C33.1409 103.739 32.9698 103.842 32.7645 103.842C32.6276 103.842 32.4907 103.842 32.3538 103.739C32.0458 103.534 31.9774 103.157 32.1485 102.849C32.1827 102.781 32.9698 101.412 31.772 99.2899C31.464 100.762 31.9774 103.534 32.5934 105.382C32.696 105.69 32.5249 106.032 32.2169 106.169C32.1485 106.203 32.08 106.203 32.0458 106.203C31.8062 106.237 31.5324 106.1 31.3956 105.861C31.3613 105.758 30.232 103.636 27.7337 97.8183C27.1177 98.9819 27.6995 100.83 27.6995 100.83C27.8021 101.172 27.631 101.514 27.323 101.651C27.2888 101.686 27.2203 101.686 27.1861 101.686C26.9123 101.72 26.6385 101.549 26.5359 101.275C26.5016 101.206 25.8514 99.461 25.783 96.1756C24.5509 97.2365 22.7029 98.2632 21.0944 98.4343C20.2388 98.537 19.5201 98.3659 18.9383 97.9552C18.733 97.8183 18.6303 97.5788 18.6988 97.3392C18.733 97.0996 18.9041 96.8943 19.1437 96.8259C20.3415 96.4494 21.1286 95.8334 21.6077 94.8751C22.3264 93.3693 21.9842 91.4186 21.642 90.2208C20.8891 91.2475 19.8281 92.9586 19.6912 94.6698C19.657 94.9436 19.4517 95.1831 19.1779 95.2516C19.1437 95.2516 19.1437 95.2516 19.1095 95.2516C18.8699 95.2858 18.6303 95.1489 18.4934 94.9436C17.4325 93.164 17.7747 90.255 18.1512 88.3043C16.6454 89.7759 14.8658 91.9662 14.8316 93.7458C14.8316 94.0196 14.6604 94.2591 14.3867 94.3618C14.3524 94.3618 14.284 94.396 14.2498 94.396C14.0444 94.4302 13.8049 94.3276 13.668 94.1565C10.759 90.2892 12.5728 86.0113 14.0102 83.6842C13.3257 83.8895 12.5386 84.0606 11.7173 84.1633C10.0061 84.3344 8.60295 84.0606 7.54203 83.3077C7.3367 83.1366 7.23403 82.8628 7.30247 82.6233C7.37092 82.3495 7.57626 82.1784 7.85004 82.1441C9.04785 82.0072 10.451 80.741 11.6488 79.3378C10.7932 79.8854 9.80076 80.3645 8.80829 80.6383C8.77407 80.6383 8.73984 80.6725 8.70562 80.6725C8.56873 80.6725 8.43184 80.6725 8.32917 80.6041C8.19227 80.5014 8.05538 80.3645 8.02116 80.1934C7.95271 79.9539 7.95271 79.6458 8.02116 79.3378C7.43936 80.2961 6.8918 81.357 6.37845 82.5548C6.27578 82.7601 6.07044 82.9313 5.8651 82.9313C5.83088 82.9313 5.83088 82.9313 5.79665 82.9313C5.55709 82.9313 5.31753 82.7944 5.21486 82.5548C3.40103 78.6534 6.10466 73.2461 7.6447 70.6452C6.78913 70.8505 5.72821 71.0901 4.66729 71.1927C2.6139 71.3981 1.14231 71.1243 0.252507 70.3714C0.047168 70.166 -0.0212782 69.858 0.0813912 69.6185C0.184061 69.4131 0.389399 69.2762 0.594738 69.2762C0.663184 69.2762 0.731631 69.2762 0.800077 69.2762C1.14231 69.3447 1.48454 69.3447 1.89522 69.3105C6.48112 68.8313 13.1204 61.576 13.1889 61.5076C13.2573 61.4049 13.4284 61.3365 13.5653 61.3022Z" fill="url(#paint0_linear_41_3958)"/>
<path d="M11.7173 70.0633C11.7173 70.0633 6.72068 77.0791 8.73985 81.4596C11.4093 74.9915 15.7214 72.8012 15.7214 72.8012C15.7214 72.8012 10.8617 77.7635 11.3066 79.4062C14.0444 78.6191 16.6796 75.9839 16.6796 75.9839C16.6796 75.9839 13.4626 81.5965 10.6563 81.8703C13.1204 83.6499 17.6721 81.4939 17.6721 81.4939C17.6721 81.4939 12.6755 86.9696 16.2689 91.7266C16.3032 88.7149 20.8206 85.19 20.8206 85.19C20.8206 85.19 19.2121 90.1865 20.5811 92.5137C20.8206 89.9127 23.1136 87.4145 23.1136 87.4145C23.1136 87.4145 25.7145 93.5746 20.8206 95.0462C22.6002 96.3467 26.7754 93.5746 27.1861 92.3084C27.015 96.2783 27.8021 98.2974 27.8021 98.2974C27.8021 98.2974 26.8439 95.4911 28.555 94.396C31.0876 100.248 32.1827 102.336 32.1827 102.336C32.1827 102.336 30.4715 97.0312 31.9089 95.5596C34.0307 98.2632 32.8329 100.18 32.8329 100.18C32.8329 100.18 34.4414 97.6814 34.681 95.7307C34.681 95.7307 37.4531 97.921 38.0348 100.933C38.0348 100.933 38.5482 97.2707 37.4531 95.2516C39.6776 98.9134 39.5407 101.035 39.5407 101.035C39.5407 101.035 41.5256 98.1947 40.5331 96.1414C42.5865 98.9477 42.4154 102.233 44.6741 104.492C43.2368 99.8717 43.887 96.8943 43.887 96.8943C43.887 96.8943 45.8035 100.043 45.8035 102.438C47.2066 102.37 47.1382 96.9285 47.1382 96.9285L15.7898 63.2529C15.7898 63.2529 8.50028 71.2611 4.15395 70.3713C6.10466 72.0141 11.7173 70.0633 11.7173 70.0633Z" fill="#318063"/>
<path d="M46.6933 92.1031C46.6933 92.0689 46.6933 92.0689 46.6933 92.0347C46.7275 91.8636 46.8302 91.6924 47.0013 91.624L91.3887 65.7513C91.5256 65.6829 91.6967 65.6486 91.8336 65.6829C91.9021 65.6829 93.3737 66.0251 94.811 66.5384C97.104 67.3598 98.1307 68.1812 98.028 69.1736C98.028 69.2078 98.028 69.2078 98.028 69.2421C97.9938 69.4132 97.8911 69.5843 97.7542 69.6527C97.6173 69.7554 97.412 69.7896 97.2409 69.7554C96.0431 69.4816 94.503 69.6527 93.271 69.8923C94.6741 70.2003 96.7275 70.4399 99.3285 70.2345C99.6365 70.2003 99.9103 70.4057 99.9787 70.6794C100.013 70.7821 100.013 70.8848 100.013 70.9532C99.9787 71.1243 99.876 71.2955 99.7049 71.4323C97.9595 72.5275 96.0431 72.7328 94.195 72.9382C93.5106 73.0066 92.8261 73.0751 92.1074 73.2119C93.6132 73.9306 94.7084 75.1284 94.7768 75.2311C94.9137 75.368 94.9479 75.5733 94.9479 75.7445C94.9479 75.8471 94.9137 75.9156 94.8452 76.0182C94.7084 76.2578 94.4003 76.3605 94.1266 76.292C94.1266 76.292 93.5105 76.1209 92.3812 76.1894C93.3394 76.4289 93.9897 76.6685 94.0581 76.7027C94.3319 76.8054 94.503 77.0792 94.4688 77.3872V77.4214C94.4003 77.7294 94.1266 77.9347 93.8186 77.9347C91.6967 77.8663 89.7118 78.8588 88.6166 79.5432C90.4305 80.5357 92.1074 82.2469 92.1758 82.3153C92.3127 82.4522 92.3812 82.6575 92.347 82.8286C92.347 82.9655 92.2785 83.1024 92.1758 83.2051C91.9363 83.4447 91.5256 83.4447 91.286 83.2051C91.2518 83.1709 90.054 82.0757 87.7268 82.7944C89.0958 83.4104 91.9021 83.5131 93.8528 83.342C94.195 83.3078 94.4688 83.5473 94.5372 83.8553C94.5372 83.9238 94.5372 83.9922 94.5372 84.0265C94.503 84.266 94.3319 84.5056 94.0581 84.574C93.9554 84.6083 91.6283 85.2243 85.3997 86.3879C86.3921 87.2434 88.3086 87.0723 88.3429 87.0723C88.6851 87.0381 88.9931 87.2777 89.0273 87.6199C89.0273 87.6883 89.0273 87.7226 89.0273 87.791C88.9931 88.0648 88.7878 88.3044 88.4797 88.3386C88.3771 88.3386 86.5632 88.6124 83.3463 87.9621C84.1334 89.3995 84.7152 91.4529 84.5099 93.0271C84.4072 93.8827 84.0992 94.5672 83.5516 95.0121C83.3805 95.1832 83.1067 95.2174 82.9014 95.1148C82.6618 95.0121 82.5249 94.8067 82.4907 94.5672C82.388 93.3351 81.9431 92.4111 81.1218 91.7267C79.8213 90.7 77.8363 90.5973 76.6043 90.6657C77.4257 91.624 78.863 93.0271 80.5058 93.5747C80.7795 93.6774 80.9507 93.917 80.9507 94.1907C80.9507 94.225 80.9507 94.225 80.9507 94.2592C80.9164 94.4987 80.7453 94.7041 80.5058 94.8067C78.555 95.4228 75.783 94.4645 73.9691 93.6774C75.0643 95.457 76.8097 97.7157 78.555 98.1264C78.8288 98.1948 79.0342 98.4002 79.0342 98.674C79.0342 98.7082 79.0342 98.7766 79.0342 98.8109C78.9999 99.0162 78.863 99.2215 78.6577 99.3242C74.2429 101.309 70.4784 98.6055 68.5277 96.689C68.5619 97.4077 68.5619 98.2291 68.4592 99.0504C68.2539 100.762 67.6721 102.062 66.7138 102.918C66.5085 103.089 66.2347 103.123 65.9951 103.02C65.7556 102.883 65.6187 102.644 65.6529 102.37C65.7898 101.172 64.8658 99.5295 63.7364 98.0579C64.0786 99.0162 64.3182 100.077 64.3867 101.104C64.3867 101.138 64.3867 101.172 64.3867 101.206C64.3867 101.343 64.3182 101.48 64.2155 101.549C64.1129 101.686 63.9418 101.754 63.7706 101.754C63.4969 101.754 63.2231 101.686 62.9493 101.549C63.7364 102.336 64.6604 103.089 65.7556 103.842C65.9609 103.979 66.0636 104.218 66.0294 104.458C66.0294 104.492 66.0294 104.492 66.0294 104.526C65.9951 104.766 65.7898 104.971 65.5502 105.039C61.3408 105.963 56.6522 102.13 54.4962 100.043C54.5304 100.898 54.4962 101.994 54.3935 103.089C54.1539 105.108 53.5379 106.511 52.6139 107.196C52.3743 107.367 52.0663 107.367 51.8268 107.196C51.6556 107.059 51.553 106.819 51.5872 106.614C51.5872 106.545 51.6214 106.477 51.6556 106.443C51.7925 106.135 51.8952 105.792 51.9294 105.382C52.477 100.83 46.8644 92.7191 46.796 92.6507C46.6933 92.4111 46.6591 92.24 46.6933 92.1031Z" fill="url(#paint1_linear_41_3958)"/>
<path d="M54.8042 95.8335C54.8042 95.8335 60.5537 102.267 65.2765 101.241C59.5612 97.2024 58.3634 92.5138 58.3634 92.5138C58.3634 92.5138 62.1279 98.3318 63.8391 98.2976C63.668 95.457 61.683 92.3085 61.683 92.3085C61.683 92.3085 66.4401 96.6891 66.0978 99.4954C68.3908 97.4762 67.2956 92.5481 67.2956 92.5481C67.2956 92.5481 71.5051 98.6398 76.9466 96.1757C74.0376 95.457 71.5735 90.2893 71.5735 90.2893C71.5735 90.2893 76.091 92.9587 78.6577 92.1374C76.1936 91.316 74.2429 88.544 74.2429 88.544C74.2429 88.544 80.848 87.3461 81.1902 92.4454C82.8672 90.9738 81.0533 86.3195 79.8897 85.635C83.7227 86.6617 85.8788 86.3537 85.8788 86.3537C85.8788 86.3537 82.9356 86.6617 82.2169 84.7452C88.514 83.5816 90.7727 82.9998 90.7727 82.9998C90.7727 82.9998 85.2285 83.4789 84.0992 81.7678C87.1793 80.2962 88.7878 81.9047 88.7878 81.9047C88.7878 81.9047 86.7001 79.7828 84.8521 79.1326C84.8521 79.1326 87.5899 76.9081 90.67 77.0108C90.67 77.0108 87.2135 75.7103 84.989 76.3263C89.0273 74.9574 91.0807 75.5392 91.0807 75.5392C91.0807 75.5392 88.7535 72.9724 86.529 73.4858C89.746 72.0826 92.8945 73.0067 95.5639 71.2955C90.7385 71.7062 87.9664 70.3715 87.9664 70.3715C87.9664 70.3715 91.4572 69.1737 93.7843 69.7212C94.0239 68.3523 88.6851 67.1887 88.6851 67.1887L49.0547 90.3578C49.0547 90.3578 55.2491 99.2216 53.4353 103.26C55.4886 101.754 54.8042 95.8335 54.8042 95.8335Z" fill="#318063"/>
<path d="M13.5653 47.3735C13.5995 47.3735 13.5995 47.3735 13.6338 47.3735C13.8049 47.3735 13.976 47.3051 14.1129 47.1682L49.1231 9.55698C49.2258 9.45431 49.2943 9.28319 49.2943 9.11207C49.2943 9.04363 49.2943 7.53781 49.1231 5.99777C48.8494 3.56793 48.2333 2.40434 47.2409 2.30167C47.2066 2.30167 47.2066 2.30167 47.1724 2.30167C47.0013 2.30167 46.8302 2.37012 46.6933 2.47279C46.5564 2.60968 46.488 2.7808 46.488 2.95191C46.488 4.18394 45.9746 5.65554 45.4955 6.81912C45.5297 5.38175 45.7351 3.32837 46.5222 0.8643C46.6249 0.590514 46.488 0.282506 46.2484 0.111391C46.18 0.0771675 46.0773 0.0429444 45.9746 0.00872122C45.8035 -0.0255019 45.5982 0.0429444 45.4613 0.179837C43.9897 1.61721 43.3737 3.46526 42.7919 5.21064C42.5865 5.86088 42.347 6.51112 42.0732 7.16136C41.6967 5.51865 40.7727 4.18394 40.7043 4.1155C40.6016 3.94438 40.4305 3.87594 40.2593 3.84171C40.1567 3.84171 40.0882 3.84171 39.9856 3.87594C39.7118 3.9786 39.5407 4.21817 39.5407 4.52617C39.5407 4.52617 39.5749 5.14219 39.2669 6.27155C39.2327 5.31331 39.13 4.59462 39.13 4.52617C39.0958 4.21817 38.8562 4.01283 38.5482 3.9786H38.514C38.206 3.9786 37.9322 4.18394 37.8637 4.49195C37.4531 6.57956 36.0499 8.29072 35.1601 9.21474C34.5783 7.19558 33.3121 5.21064 33.2436 5.10797C33.1409 4.93685 32.9698 4.83418 32.7645 4.83418C32.6276 4.83418 32.4907 4.83418 32.3538 4.93685C32.0458 5.14219 31.9774 5.51865 32.1485 5.82665C32.1827 5.8951 32.9698 7.26403 31.772 9.38586C31.464 7.91427 31.9774 5.14219 32.5934 3.29414C32.696 2.98613 32.5249 2.6439 32.2169 2.50701C32.1485 2.47279 32.08 2.47279 32.0458 2.47279C31.7378 2.40434 31.4982 2.50701 31.3613 2.74657C31.3271 2.84924 30.1978 4.97108 27.6995 10.789C27.0834 9.62542 27.6652 7.77737 27.6652 7.77737C27.7679 7.43514 27.5968 7.09291 27.2888 6.95602C27.2546 6.92179 27.1861 6.92179 27.1519 6.92179C26.8781 6.88757 26.6043 7.05869 26.5017 7.33247C26.4674 7.40092 25.8172 9.1463 25.7487 12.4317C24.5167 11.3708 22.6687 10.3441 21.0602 10.173C20.2046 10.0703 19.4859 10.2414 18.9041 10.6521C18.6988 10.789 18.5961 11.0286 18.6646 11.2681C18.6988 11.5077 18.8699 11.713 19.1095 11.7815C20.3073 12.1579 21.0944 12.7739 21.5735 13.7322C22.2922 15.238 21.95 17.1887 21.6077 18.3865C20.8548 17.3598 19.7939 15.6487 19.657 13.9375C19.6228 13.6638 19.4175 13.4242 19.1437 13.3557C19.1095 13.3557 19.1095 13.3557 19.0752 13.3557C18.8357 13.3215 18.5961 13.4584 18.4592 13.6638C17.3983 15.4434 17.7405 18.3523 18.117 20.303C16.6112 18.8314 14.8316 16.6412 14.7973 14.8616C14.7973 14.5878 14.6262 14.3482 14.3524 14.2455C14.3182 14.2455 14.2498 14.2113 14.2155 14.2113C14.0102 14.1771 13.7706 14.2798 13.6338 14.4509C10.7248 18.3181 12.5386 22.596 13.976 24.9232C13.2915 24.7178 12.5044 24.5467 11.683 24.444C9.97188 24.2729 8.56873 24.5467 7.50781 25.2996C7.30247 25.4707 7.1998 25.7445 7.26825 25.9841C7.3367 26.2579 7.54204 26.429 7.81582 26.4632C9.01363 26.6001 10.4168 27.8664 11.6146 29.2695C10.759 28.7219 9.76654 28.2428 8.77407 27.969C8.73985 27.969 8.70562 27.9348 8.6714 27.9348C8.53451 27.9348 8.39761 27.9348 8.29494 28.0032C8.15805 28.1059 8.02116 28.2428 7.98694 28.4139C7.91849 28.6535 7.91849 28.9615 7.98694 29.2695C7.40514 28.3113 6.85757 27.2503 6.34423 26.0525C6.24156 25.8472 6.03622 25.6761 5.83088 25.6761C5.79666 25.6761 5.79666 25.6761 5.76243 25.6761C5.52287 25.6761 5.28331 25.813 5.18064 26.0525C3.36681 29.954 6.07044 35.3612 7.61048 37.9622C6.7549 37.7568 5.69399 37.5173 4.63307 37.4146C2.57968 37.2093 1.10809 37.4831 0.218285 38.236C0.0129464 38.4413 -0.0554999 38.7493 0.0471695 38.9889C0.149839 39.1942 0.355178 39.3311 0.560517 39.3311C0.628963 39.3311 0.697409 39.3311 0.765855 39.3311C1.10809 39.2627 1.45032 39.2627 1.861 39.2969C6.4469 39.776 13.0862 47.0313 13.1546 47.0998C13.2573 47.2709 13.4284 47.3393 13.5653 47.3735Z" fill="url(#paint2_linear_41_3958)"/>
<path d="M11.7173 38.6123C11.7173 38.6123 6.72068 31.5966 8.73985 27.216C11.4093 33.6842 15.7214 35.8745 15.7214 35.8745C15.7214 35.8745 10.8617 30.9121 11.3066 29.2694C14.0444 30.0565 16.6796 32.6917 16.6796 32.6917C16.6796 32.6917 13.4626 27.0791 10.6563 26.8053C13.1204 25.0257 17.6721 27.1818 17.6721 27.1818C17.6721 27.1818 12.6755 21.7061 16.2689 16.9491C16.3032 19.9607 20.8206 23.4857 20.8206 23.4857C20.8206 23.4857 19.2121 18.4891 20.5811 16.1619C20.8206 18.7629 23.1136 21.2612 23.1136 21.2612C23.1136 21.2612 25.7145 15.101 20.8206 13.6294C22.6002 12.3289 26.7754 15.101 27.1861 16.3673C27.015 12.3974 27.8021 10.3782 27.8021 10.3782C27.8021 10.3782 26.8439 13.1845 28.555 14.2797C31.0876 8.42751 32.1827 6.3399 32.1827 6.3399C32.1827 6.3399 30.4715 11.6445 31.9089 13.1161C34.0307 10.4124 32.8329 8.49595 32.8329 8.49595C32.8329 8.49595 34.4414 10.9942 34.681 12.945C34.681 12.945 37.4531 10.7547 38.0348 7.74304C38.0348 7.74304 38.5482 11.4049 37.4531 13.4241C39.6776 9.76221 39.5407 7.64037 39.5407 7.64037C39.5407 7.64037 41.5256 10.4809 40.5331 12.5343C42.5865 9.72798 42.4154 6.44256 44.6741 4.18384C43.2368 8.80396 43.887 11.7814 43.887 11.7814C43.887 11.7814 45.8035 8.63285 45.8035 6.23723C47.2066 6.30567 47.1382 11.7471 47.1382 11.7471L15.7898 45.4227C15.7898 45.4227 8.50028 37.4145 4.15395 38.3043C6.10466 36.6616 11.7173 38.6123 11.7173 38.6123Z" fill="#318063"/>
<path d="M46.6933 16.607C46.6933 16.6412 46.6933 16.6412 46.6933 16.6755C46.7275 16.8466 46.8302 17.0177 47.0013 17.0861L91.3887 42.9246C91.5256 42.993 91.6967 43.0273 91.8336 42.993C91.9021 42.993 93.3737 42.6508 94.811 42.1375C97.104 41.3161 98.1307 40.4948 98.028 39.5023C98.028 39.4681 98.028 39.4681 98.028 39.4338C97.9938 39.2627 97.8911 39.0916 97.7542 39.0232C97.6173 38.9205 97.412 38.8863 97.2409 38.9205C96.0431 39.1943 94.503 39.0232 93.271 38.7836C94.6741 38.4756 96.7275 38.236 99.3285 38.4414C99.6365 38.4756 99.9103 38.2703 99.9787 37.9965C100.013 37.8938 100.013 37.7911 100.013 37.7227C99.9787 37.5516 99.876 37.3805 99.7049 37.2436C97.9595 36.1484 96.0431 35.9431 94.195 35.7377C93.5106 35.6693 92.8261 35.6008 92.1074 35.464C93.6132 34.7453 94.7084 33.5475 94.7768 33.4448C94.9137 33.3079 94.9479 33.1026 94.9479 32.9314C94.9479 32.8288 94.9137 32.7603 94.8452 32.6577C94.7084 32.4181 94.4003 32.3154 94.1266 32.3839C94.1266 32.3839 93.5105 32.555 92.3812 32.4865C93.3394 32.247 93.9897 32.0074 94.0581 31.9732C94.3319 31.8705 94.503 31.5967 94.4688 31.2887V31.2545C94.4003 30.9465 94.1266 30.7412 93.8186 30.7412C91.6967 30.8096 89.7118 29.8171 88.6166 29.1327C90.4305 28.1402 92.1074 26.4291 92.1758 26.3606C92.3127 26.2237 92.3812 26.0184 92.347 25.8473C92.347 25.7104 92.2785 25.5735 92.1758 25.4708C91.9363 25.2312 91.5256 25.2312 91.286 25.4708C91.2518 25.505 90.054 26.6002 87.7268 25.8815C89.0958 25.2655 91.9021 25.1628 93.8528 25.3339C94.195 25.3681 94.4688 25.1286 94.5372 24.8206C94.5372 24.7521 94.5372 24.6837 94.5372 24.6494C94.503 24.4099 94.3319 24.1703 94.0581 24.1019C93.9554 24.0677 91.6283 23.4516 85.3997 22.2881C86.3921 21.4325 88.3086 21.6036 88.3429 21.6036C88.6851 21.6378 88.9931 21.3983 89.0273 21.056C89.0273 20.9876 89.0273 20.9534 89.0273 20.8849C88.9931 20.6111 88.7878 20.3716 88.4797 20.3373C88.3771 20.3373 86.5632 20.0635 83.3463 20.7138C84.1334 19.2764 84.7152 17.223 84.5099 15.6488C84.4072 14.7932 84.0992 14.1087 83.5516 13.6638C83.3805 13.4927 83.1067 13.4585 82.9014 13.5612C82.6618 13.6638 82.5249 13.8692 82.4907 14.1087C82.388 15.3408 81.9431 16.2648 81.1218 16.9492C79.8213 17.9759 77.8363 18.0786 76.6043 18.0102C77.4257 17.0519 78.863 15.6488 80.5058 15.1012C80.7795 14.9985 80.9507 14.759 80.9507 14.4852C80.9507 14.451 80.9507 14.451 80.9507 14.4167C80.9164 14.1772 80.7453 13.9718 80.5058 13.8692C78.555 13.2531 75.783 14.2114 73.9691 14.9985C75.0643 13.2189 76.8097 10.9602 78.555 10.5495C78.8288 10.4811 79.0342 10.2757 79.0342 10.0019C79.0342 9.96772 79.0342 9.89928 79.0342 9.86506C78.9999 9.65972 78.863 9.45438 78.6577 9.35171C74.2429 7.36677 70.4784 10.0704 68.5277 11.9869C68.5619 11.2682 68.5619 10.4468 68.4592 9.62549C68.2539 7.91434 67.6721 6.61386 66.7138 5.75828C66.5085 5.58716 66.2347 5.55294 65.9951 5.65561C65.7556 5.7925 65.6187 6.03206 65.6529 6.30585C65.7898 7.50366 64.8658 9.14637 63.7364 10.618C64.0786 9.65972 64.3182 8.5988 64.3867 7.5721C64.3867 7.53788 64.3867 7.50366 64.3867 7.46944C64.3867 7.33254 64.3182 7.19565 64.2155 7.1272C64.1129 6.99031 63.9418 6.92187 63.7706 6.92187C63.4969 6.92187 63.2231 6.99031 62.9493 7.1272C63.7364 6.34007 64.6604 5.58716 65.7556 4.83425C65.9609 4.69736 66.0636 4.4578 66.0294 4.21824C66.0294 4.18402 66.0294 4.18402 66.0294 4.14979C65.9951 3.91023 65.7898 3.70489 65.5502 3.63645C61.3408 2.74664 56.6522 6.54541 54.4962 8.63302C54.5304 7.77744 54.4962 6.6823 54.3935 5.58716C54.1539 3.568 53.5379 2.16485 52.6139 1.48039C52.3743 1.30927 52.0663 1.30927 51.8268 1.48039C51.6556 1.61728 51.553 1.85684 51.5872 2.06218C51.5872 2.13063 51.6214 2.19907 51.6556 2.2333C51.7925 2.5413 51.8952 2.88354 51.9294 3.29421C52.477 7.84589 46.8644 15.9568 46.796 16.0252C46.6933 16.2648 46.6591 16.4359 46.6933 16.607Z" fill="url(#paint3_linear_41_3958)"/>
<path d="M54.8042 12.8767C54.8042 12.8767 60.5537 6.44271 65.2765 7.4694C59.5612 11.5077 58.3634 16.1963 58.3634 16.1963C58.3634 16.1963 62.1279 10.3784 63.8391 10.4126C63.668 13.2531 61.683 16.4016 61.683 16.4016C61.683 16.4016 66.4401 12.0211 66.0978 9.21478C68.3908 11.2339 67.2956 16.1621 67.2956 16.1621C67.2956 16.1621 71.5051 10.0704 76.9466 12.5344C74.0376 13.2531 71.5735 18.4208 71.5735 18.4208C71.5735 18.4208 76.091 15.7514 78.6577 16.5728C76.1936 17.3941 74.2429 20.1662 74.2429 20.1662C74.2429 20.1662 80.848 21.364 81.1902 16.2647C82.8672 17.7363 81.0533 22.3907 79.8897 23.0752C83.7227 22.0485 85.8788 22.3565 85.8788 22.3565C85.8788 22.3565 82.9356 22.0485 82.2169 23.965C88.514 25.1285 90.7727 25.7103 90.7727 25.7103C90.7727 25.7103 85.2285 25.2312 84.0992 26.9424C87.1793 28.414 88.7878 26.8055 88.7878 26.8055C88.7878 26.8055 86.7001 28.9273 84.8521 29.5775C84.8521 29.5775 87.5899 31.802 90.67 31.6994C90.67 31.6994 87.2135 32.9999 84.989 32.3838C89.0273 33.7528 91.0807 33.171 91.0807 33.171C91.0807 33.171 88.7535 35.7377 86.529 35.2244C89.746 36.6275 92.8945 35.7035 95.5639 37.4146C90.7385 37.004 87.9664 38.3387 87.9664 38.3387C87.9664 38.3387 91.4572 39.5365 93.7843 38.9889C94.0239 40.3578 88.6851 41.5214 88.6851 41.5214L49.0547 18.3181C49.0547 18.3181 55.2491 9.45435 53.4353 5.41602C55.4886 6.95606 54.8042 12.8767 54.8042 12.8767Z" fill="#318063"/>
<path d="M97.9253 52.3358C97.9253 56.4083 93.4763 59.8649 92.4839 63.6294C91.4572 67.5309 93.5448 72.7328 91.5598 76.1209C89.5749 79.5774 83.9965 80.3645 81.1902 83.1708C78.3839 85.9771 77.5968 91.5555 74.1403 93.5404C70.7179 95.5254 65.5502 93.4378 61.6488 94.4645C57.8843 95.4569 54.4277 99.9059 50.3552 99.9059C46.2826 99.9059 42.8261 95.4569 39.0615 94.4645C35.1601 93.4378 29.9582 95.5254 26.5701 93.5404C23.0793 91.5213 22.3264 85.9771 19.5201 83.1708C16.7138 80.3645 11.1355 79.5774 9.15052 76.1209C7.16558 72.6985 9.25319 67.5309 8.2265 63.6294C7.23403 59.8649 2.78502 56.4083 2.78502 52.3358C2.78502 48.2632 7.23403 44.8067 8.2265 41.0421C9.25319 37.1407 7.16558 31.9388 9.15052 28.5507C11.1355 25.0599 16.7138 24.307 19.5201 21.5007C22.3264 18.6944 23.1136 13.1161 26.5701 11.1311C29.9924 9.14619 35.1601 11.2338 39.0615 10.2071C42.8261 9.21463 46.2826 4.76562 50.3552 4.76562C54.4277 4.76562 57.8843 9.21463 61.6488 10.2071C65.5502 11.2338 70.7522 9.14619 74.1403 11.1311C77.5968 13.1161 78.3839 18.6944 81.1902 21.5007C83.9965 24.307 89.5749 25.0942 91.5598 28.5507C93.5448 31.973 91.4572 37.1407 92.4839 41.0421C93.4763 44.8067 97.9253 48.229 97.9253 52.3358Z" fill="url(#paint4_linear_41_3958)"/>
<path d="M95.5297 49.9401C95.5297 50.7957 95.3244 51.6513 94.9821 52.4726C94.5372 53.4993 93.9212 54.526 93.2368 55.5185C92.0732 57.2296 90.8069 58.9408 90.362 60.6862C89.7118 63.0818 90.3278 66.025 90.3278 68.6602C90.3278 70.0633 90.1225 71.4322 89.4722 72.5616C89.2669 72.9038 89.0273 73.2118 88.7878 73.4856C86.529 76.0181 82.0116 76.8395 79.616 79.2351C76.9466 81.9045 76.2279 87.1749 72.9424 89.0914C69.6912 90.9736 64.7631 88.9887 61.067 89.9812C57.5078 90.9394 54.2224 95.1489 50.3552 95.1489C46.488 95.1489 43.2025 90.9394 39.6433 89.9812C35.9472 88.9887 31.0191 90.9736 27.7679 89.0914C24.4825 87.1749 23.7296 81.9045 21.0944 79.2351C18.425 76.5657 13.1546 75.847 11.2381 72.5616C11.1697 72.4247 11.1012 72.2878 11.0328 72.1509C10.5537 71.1242 10.4168 69.9949 10.4168 68.7628C10.3826 66.0934 11.0328 63.116 10.3826 60.6862C9.42431 57.127 5.21486 53.8415 5.21486 49.9743C5.21486 46.1071 9.42431 42.8217 10.3826 39.2625C11.375 35.5664 9.39009 30.6383 11.2724 27.3871C13.1889 24.1017 18.4592 23.3487 21.1286 20.7136C23.798 18.0442 24.5167 12.7738 27.8021 10.8573C31.0533 8.97503 35.9815 10.96 39.6776 9.9675C43.271 9.00925 46.5222 4.7998 50.3894 4.7998C54.2566 4.7998 57.542 9.00925 61.1012 9.9675C64.7973 10.96 69.7255 8.97503 72.9767 10.8573C76.1594 12.7053 76.9466 17.7704 79.4448 20.474C79.5133 20.5424 79.5817 20.6451 79.6502 20.7136C81.5667 22.6301 84.8179 23.5541 87.2135 25.1283C88.1717 25.7444 88.9589 26.463 89.5064 27.3871C91.3887 30.6383 89.4038 35.5664 90.3962 39.2625C91.3203 42.7875 95.5297 46.0729 95.5297 49.9401Z" fill="url(#paint5_linear_41_3958)"/>
<path d="M89.438 60.0702C88.4455 63.7321 90.4305 68.626 88.5824 71.8087C86.7001 75.0599 81.464 75.7786 78.8288 78.4138C76.1936 81.049 75.475 86.2851 72.2238 88.1674C69.0068 90.0155 64.1471 88.0647 60.4852 89.023C56.9602 89.9812 53.709 94.1565 49.8761 94.1565C46.0431 94.1565 42.7919 89.9812 39.2669 89.023C35.605 88.0305 30.7111 90.0155 27.5283 88.1674C24.2771 86.2851 23.5585 81.049 20.9233 78.4138C18.2881 75.7786 13.052 75.0599 11.1697 71.8087C9.32164 68.5918 11.2724 63.7321 10.3141 60.0702C9.35586 56.5452 5.21486 53.294 5.21486 49.461C5.21486 47.4761 6.34423 45.628 7.54204 43.8484C8.36339 42.6164 9.21897 41.4186 9.80076 40.2208C10.0061 39.7759 10.1772 39.331 10.3141 38.8519C11.3066 35.19 9.32164 30.2961 11.1697 27.1133C13.0177 23.8279 18.2539 23.1092 20.8891 20.474C23.5242 17.8389 24.2429 12.6027 27.4941 10.7204C30.7111 8.8724 35.5708 10.8231 39.2327 9.86487C42.7576 8.90662 46.0088 4.76562 49.8418 4.76562C53.6748 4.76562 56.926 8.94085 60.451 9.86487C64.1129 10.8573 69.0068 8.8724 72.1895 10.7204C75.3038 12.5001 76.091 17.3597 78.4524 20.0976C78.555 20.2345 78.6919 20.3372 78.7946 20.474C80.6769 22.3563 83.8938 23.2803 86.2895 24.8204C87.2135 25.4364 88.0348 26.1551 88.5482 27.0791C90.3962 30.2961 88.4455 35.1558 89.4038 38.8176C90.362 42.3426 94.5372 45.5938 94.5372 49.4268C94.5372 53.294 90.3962 56.511 89.438 60.0702Z" fill="url(#paint6_linear_41_3958)"/>
<path d="M26.7754 42.103C20.4784 43.0955 12.6413 43.6088 7.50781 43.8142C8.32917 42.5821 9.18475 41.3843 9.76654 40.1865C14.2498 40.4603 20.3757 40.6999 26.6043 40.4261C27.6652 40.3919 27.8364 41.9319 26.7754 42.103Z" fill="url(#paint7_linear_41_3958)"/>
<path d="M94.9821 52.4727C94.5372 53.4994 93.9212 54.526 93.2368 55.5185C45.119 56.8874 21.7104 65.7855 10.9643 72.1852C10.4852 71.1585 10.3483 70.0291 10.3483 68.7971C11.1355 67.8731 11.991 66.8806 12.9493 65.7855C39.5407 55.3816 80.8822 52.986 94.9821 52.4727Z" fill="url(#paint8_linear_41_3958)"/>
<path d="M90.3278 68.6602C90.3278 70.0633 90.1225 71.4322 89.4722 72.5616C89.2669 72.9038 89.0273 73.2118 88.7878 73.4856C84.1334 74.6834 72.258 77.5239 60.8275 78.6533C60.0403 78.7218 59.8692 77.5582 60.6563 77.4213C72.3264 75.2652 84.065 71.09 90.3278 68.6602Z" fill="url(#paint9_linear_41_3958)"/>
<path d="M87.2135 25.0601C81.2587 26.6343 64.2498 30.8095 49.568 30.878C48.644 30.878 48.5413 29.5775 49.4311 29.4064C61.1012 27.2161 73.0109 22.9382 79.4106 20.4399C79.4791 20.5084 79.5475 20.6111 79.616 20.6795C81.5667 22.5618 84.8179 23.4858 87.2135 25.0601Z" fill="url(#paint10_linear_41_3958)"/>
<path d="M50.3894 69.687C49.7734 69.687 49.1574 69.5159 48.6098 69.2079L26.0225 56.1689C24.8932 55.5186 24.2087 54.355 24.2087 53.0546C24.2087 51.7541 24.8932 50.5905 26.0225 49.9403L48.6098 36.9012C49.1574 36.5932 49.7734 36.4221 50.3894 36.4221C52.3743 36.4221 53.9828 38.0306 53.9828 40.0155V43.301H72.7371C74.414 43.301 75.8172 44.6699 75.8172 46.381V59.7623C75.8172 61.4392 74.4483 62.8424 72.7371 62.8424H53.9828V66.1278C54.017 68.0785 52.3743 69.687 50.3894 69.687Z" fill="url(#paint11_linear_41_3958)"/>
<path d="M50.3894 37.3119C51.7925 37.3119 53.093 38.4412 53.093 40.0155V44.1907H72.7371C73.9349 44.1907 74.8932 45.149 74.8932 46.3468V59.728C74.8932 60.9258 73.9349 61.8841 72.7371 61.8841H53.093V66.0593C53.093 67.6336 51.7925 68.7629 50.3894 68.7629C49.9445 68.7629 49.4654 68.6603 49.0547 68.3865L26.4674 55.3475C24.6878 54.3208 24.6878 51.7198 26.4674 50.6931L49.0547 37.6541C49.4996 37.4145 49.9445 37.3119 50.3894 37.3119ZM50.3894 35.498C49.6023 35.498 48.8151 35.7034 48.1307 36.1141L25.5434 49.1531C24.1403 49.9744 23.2847 51.4118 23.2847 53.0545C23.2847 54.6972 24.1403 56.1346 25.5434 56.9559L48.1307 69.995C48.8151 70.4056 49.6023 70.611 50.3894 70.611C52.8877 70.611 54.9068 68.5918 54.9068 66.0935V63.7321H72.7371C74.9274 63.7321 76.707 61.9525 76.707 59.7623V46.381C76.707 44.1907 74.9274 42.4111 72.7371 42.4111H54.9068V40.0497C54.9068 37.5172 52.8877 35.498 50.3894 35.498Z" fill="#5A2903"/>
<path d="M72.2238 45.5938V57.8799C72.2238 58.975 71.2997 59.8648 70.1704 59.8648H51.5872V63.6978C51.5872 65.6143 49.4654 66.7779 47.7542 65.8196L32.9014 57.5034L26.3648 53.8415C24.6536 52.8833 24.6536 50.5219 26.3648 49.5636L47.7542 37.5855C49.4312 36.6273 51.5872 37.8251 51.5872 39.7074V43.5404H70.1704C70.4442 43.5404 70.6837 43.5746 70.9233 43.6773C71.7104 44.0537 72.2238 44.7724 72.2238 45.5938Z" fill="url(#paint12_linear_41_3958)"/>
<g opacity="0.25">
<path d="M72.2238 45.5939V57.8801C72.2238 58.9752 71.2997 59.865 70.1704 59.865H51.5872V63.698C51.5872 65.6145 49.4654 66.7781 47.7542 65.8198L32.9014 57.5036C53.709 55.5529 65.4133 48.3318 70.9233 43.7117C71.7104 44.0539 72.2238 44.7726 72.2238 45.5939Z" fill="#318063"/>
</g>
<defs>
<linearGradient id="paint0_linear_41_3958" x1="13.2007" y1="107.374" x2="37.0734" y2="64.524" gradientUnits="userSpaceOnUse">
<stop offset="2.7e-07" stop-color="#95D543"/>
<stop offset="0.2613" stop-color="#72B74E"/>
<stop offset="0.5762" stop-color="#4F9959"/>
<stop offset="0.8338" stop-color="#398760"/>
<stop offset="1" stop-color="#318063"/>
</linearGradient>
<linearGradient id="paint1_linear_41_3958" x1="91.5295" y1="102.603" x2="54.9992" y2="69.8721" gradientUnits="userSpaceOnUse">
<stop offset="2.7e-07" stop-color="#95D543"/>
<stop offset="0.2613" stop-color="#72B74E"/>
<stop offset="0.5762" stop-color="#4F9959"/>
<stop offset="0.8338" stop-color="#398760"/>
<stop offset="1" stop-color="#318063"/>
</linearGradient>
<linearGradient id="paint2_linear_41_3958" x1="13.2008" y1="1.30689" x2="37.0734" y2="44.1565" gradientUnits="userSpaceOnUse">
<stop offset="2.7e-07" stop-color="#95D543"/>
<stop offset="0.2613" stop-color="#72B74E"/>
<stop offset="0.5762" stop-color="#4F9959"/>
<stop offset="0.8338" stop-color="#398760"/>
<stop offset="1" stop-color="#318063"/>
</linearGradient>
<linearGradient id="paint3_linear_41_3958" x1="91.5295" y1="6.07714" x2="54.9992" y2="38.8084" gradientUnits="userSpaceOnUse">
<stop offset="2.7e-07" stop-color="#95D543"/>
<stop offset="0.2613" stop-color="#72B74E"/>
<stop offset="0.5762" stop-color="#4F9959"/>
<stop offset="0.8338" stop-color="#398760"/>
<stop offset="1" stop-color="#318063"/>
</linearGradient>
<linearGradient id="paint4_linear_41_3958" x1="40.9869" y1="31.0566" x2="70.629" y2="98.4013" gradientUnits="userSpaceOnUse">
<stop stop-color="#F8A45B"/>
<stop offset="0.2171" stop-color="#C97F40"/>
<stop offset="0.4733" stop-color="#985825"/>
<stop offset="0.6987" stop-color="#743C11"/>
<stop offset="0.8819" stop-color="#5E2B04"/>
<stop offset="1" stop-color="#562500"/>
</linearGradient>
<linearGradient id="paint5_linear_41_3958" x1="122.549" y1="105.02" x2="31.283" y2="35.3999" gradientUnits="userSpaceOnUse">
<stop stop-color="#F8A45B"/>
<stop offset="0.3936" stop-color="#CC7937"/>
<stop offset="0.7917" stop-color="#A55318"/>
<stop offset="1" stop-color="#96440C"/>
</linearGradient>
<linearGradient id="paint6_linear_41_3958" x1="37.713" y1="24.988" x2="71.4006" y2="92.8773" gradientUnits="userSpaceOnUse">
<stop stop-color="#F8A45B"/>
<stop offset="0.3936" stop-color="#CC7937"/>
<stop offset="0.7917" stop-color="#A55318"/>
<stop offset="1" stop-color="#96440C"/>
</linearGradient>
<linearGradient id="paint7_linear_41_3958" x1="17.2107" y1="38.8912" x2="17.7307" y2="45.7817" gradientUnits="userSpaceOnUse">
<stop offset="0.3844" stop-color="#96440C"/>
<stop offset="0.3989" stop-color="#9A4810"/>
<stop offset="0.5039" stop-color="#B76427"/>
</linearGradient>
<linearGradient id="paint8_linear_41_3958" x1="51.8125" y1="54.5076" x2="53.1126" y2="64.2583" gradientUnits="userSpaceOnUse">
<stop offset="0.3844" stop-color="#96440C"/>
<stop offset="0.3989" stop-color="#9A4810"/>
<stop offset="0.5039" stop-color="#B76427"/>
</linearGradient>
<linearGradient id="paint9_linear_41_3958" x1="74.9374" y1="72.0263" x2="76.509" y2="78.9022" gradientUnits="userSpaceOnUse">
<stop offset="0.3844" stop-color="#96440C"/>
<stop offset="0.3989" stop-color="#9A4810"/>
<stop offset="0.5039" stop-color="#B76427"/>
</linearGradient>
<linearGradient id="paint10_linear_41_3958" x1="66.8966" y1="22.2559" x2="68.8468" y2="31.6165" gradientUnits="userSpaceOnUse">
<stop offset="0.3844" stop-color="#96440C"/>
<stop offset="0.3989" stop-color="#9A4810"/>
<stop offset="0.5039" stop-color="#B76427"/>
</linearGradient>
<linearGradient id="paint11_linear_41_3958" x1="47.5639" y1="44.8186" x2="60.5032" y2="70.8946" gradientUnits="userSpaceOnUse">
<stop stop-color="#318063"/>
<stop offset="0.354" stop-color="#23674D"/>
<stop offset="0.7462" stop-color="#16513A"/>
<stop offset="1" stop-color="#124933"/>
</linearGradient>
<linearGradient id="paint12_linear_41_3958" x1="46.674" y1="44.6993" x2="58.0365" y2="67.5978" gradientUnits="userSpaceOnUse">
<stop offset="2.7e-07" stop-color="#95D543"/>
<stop offset="0.0318762" stop-color="#98D748"/>
<stop offset="0.349" stop-color="#B8E879"/>
<stop offset="0.6275" stop-color="#D0F59D"/>
<stop offset="0.8539" stop-color="#DEFCB3"/>
<stop offset="1" stop-color="#E3FFBB"/>
</linearGradient>
</defs>
</svg>
