<svg width="101" height="109" viewBox="0 0 101 109" fill="none" xmlns="http://www.w3.org/2000/svg">
<path d="M13.5653 60.9309C13.5995 60.9309 13.5995 60.9309 13.6338 60.9309C13.8049 60.9309 13.976 60.9989 14.1129 61.135L49.1231 98.5183C49.2258 98.6204 49.2943 98.7904 49.2943 98.9605C49.2943 99.0285 49.2943 100.525 49.1231 102.056C48.8494 104.471 48.2333 105.628 47.2409 105.73C47.2066 105.73 47.2066 105.73 47.1724 105.73C47.0013 105.73 46.8302 105.662 46.6933 105.56C46.5564 105.424 46.488 105.253 46.488 105.083C46.488 103.859 45.9746 102.396 45.4613 101.24C45.4955 102.668 45.7008 104.709 46.488 107.158C46.5906 107.43 46.4537 107.737 46.2142 107.907C46.1457 107.941 46.0431 107.975 45.9404 108.009C45.7693 108.043 45.5639 107.975 45.427 107.839C43.9554 106.41 43.3394 104.573 42.7576 102.838C42.5523 102.192 42.3127 101.546 42.039 100.899C41.6625 102.532 40.7385 103.859 40.67 103.927C40.5674 104.097 40.3962 104.165 40.2251 104.199C40.1225 104.199 40.054 104.199 39.9513 104.165C39.6776 104.063 39.5064 103.825 39.5064 103.519C39.5064 103.519 39.5407 102.906 39.2327 101.784C39.1984 102.736 39.0958 103.451 39.0958 103.519C39.0615 103.825 38.822 104.029 38.514 104.063H38.4797C38.1717 104.063 37.898 103.859 37.8295 103.553C37.4188 101.478 36.0157 99.7769 35.1259 98.8585C34.5441 100.865 33.2778 102.838 33.2094 102.94C33.1067 103.11 32.9356 103.212 32.7303 103.212C32.5934 103.212 32.4565 103.212 32.3196 103.11C32.0116 102.906 31.9431 102.532 32.1142 102.226C32.1485 102.158 32.9356 100.797 31.7378 98.6884C31.4298 100.151 31.9431 102.906 32.5591 104.743C32.6618 105.049 32.4907 105.389 32.1827 105.526C32.1142 105.56 32.0458 105.56 32.0116 105.56C31.772 105.594 31.4982 105.458 31.3613 105.219C31.3271 105.117 30.1978 103.008 27.6995 97.2257C27.0834 98.3822 27.6652 100.219 27.6652 100.219C27.7679 100.559 27.5968 100.899 27.2888 101.035C27.2546 101.069 27.1861 101.069 27.1519 101.069C26.8781 101.104 26.6043 100.933 26.5017 100.661C26.4674 100.593 25.8172 98.8585 25.7487 95.593C24.5167 96.6474 22.6687 97.6679 21.0602 97.838C20.2046 97.94 19.4859 97.77 18.9041 97.3618C18.6988 97.2257 18.5961 96.9876 18.6646 96.7495C18.6988 96.5114 18.8699 96.3073 19.1095 96.2393C20.3073 95.8651 21.0944 95.2528 21.5735 94.3004C22.2922 92.8037 21.95 90.8648 21.6077 89.6742C20.8548 90.6947 19.7939 92.3955 19.657 94.0963C19.6228 94.3684 19.4175 94.6065 19.1437 94.6745C19.1095 94.6745 19.1095 94.6745 19.0752 94.6745C18.8357 94.7085 18.5961 94.5725 18.4592 94.3684C17.3983 92.5996 17.7405 89.7082 18.117 87.7693C16.6112 89.232 14.8316 91.409 14.7973 93.1778C14.7973 93.45 14.6262 93.6881 14.3524 93.7901C14.3182 93.7901 14.2498 93.8241 14.2155 93.8241C14.0102 93.8581 13.7706 93.7561 13.6338 93.586C10.7248 89.7422 12.5386 85.4903 13.976 83.1772C13.2915 83.3813 12.5044 83.5514 11.683 83.6534C9.97188 83.8235 8.56873 83.5514 7.50781 82.803C7.30247 82.633 7.1998 82.3608 7.26825 82.1227C7.3367 81.8506 7.54204 81.6805 7.81582 81.6465C9.01363 81.5104 10.4168 80.2519 11.6146 78.8572C10.759 79.4015 9.76654 79.8777 8.77407 80.1498C8.73985 80.1498 8.70562 80.1838 8.6714 80.1838C8.53451 80.1838 8.39761 80.1838 8.29494 80.1158C8.15805 80.0137 8.02116 79.8777 7.98694 79.7076C7.91849 79.4695 7.91849 79.1633 7.98694 78.8572C7.40514 79.8096 6.85757 80.8641 6.34423 82.0547C6.24156 82.2588 6.03622 82.4289 5.83088 82.4289C5.79666 82.4289 5.79666 82.4289 5.76243 82.4289C5.52287 82.4289 5.28331 82.2928 5.18064 82.0547C3.36681 78.1769 6.07044 72.8024 7.61048 70.2172C6.7549 70.4213 5.69399 70.6594 4.63307 70.7615C2.57968 70.9656 1.10809 70.6934 0.218285 69.9451C0.0129464 69.741 -0.0554999 69.4348 0.0471695 69.1967C0.149839 68.9926 0.355178 68.8566 0.560517 68.8566C0.628963 68.8566 0.697409 68.8566 0.765855 68.8566C1.10809 68.9246 1.45032 68.9246 1.861 68.8906C6.4469 68.4144 13.0862 61.203 13.1546 61.135C13.2573 61.033 13.4284 60.9649 13.5653 60.9309Z" fill="url(#paint0_linear_41_3896)"/>
<path d="M11.7172 69.639C11.7172 69.639 6.72067 76.6122 8.73983 80.9662C11.4092 74.5373 15.7214 72.3603 15.7214 72.3603C15.7214 72.3603 10.8617 77.2925 11.3066 78.9253C14.0444 78.1429 16.6796 75.5237 16.6796 75.5237C16.6796 75.5237 13.4626 81.1023 10.6563 81.3744C13.1204 83.1433 17.6721 81.0003 17.6721 81.0003C17.6721 81.0003 12.6755 86.4428 16.2689 91.171C16.3031 88.1776 20.8206 84.674 20.8206 84.674C20.8206 84.674 19.2121 89.6403 20.581 91.9533C20.8206 89.3681 23.1135 86.885 23.1135 86.885C23.1135 86.885 25.7145 93.0078 20.8206 94.4705C22.6002 95.7631 26.7754 93.0078 27.1861 91.7492C27.015 95.6951 27.8021 97.702 27.8021 97.702C27.8021 97.702 26.8439 94.9127 28.555 93.8242C31.0875 99.6409 32.1827 101.716 32.1827 101.716C32.1827 101.716 30.4715 96.4434 31.9089 94.9807C34.0307 97.668 32.8329 99.5729 32.8329 99.5729C32.8329 99.5729 34.4414 97.0897 34.681 95.1508C34.681 95.1508 37.453 97.3278 38.0348 100.321C38.0348 100.321 38.5482 96.6815 37.453 94.6746C39.6775 98.3143 39.5406 100.423 39.5406 100.423C39.5406 100.423 41.5256 97.5999 40.5331 95.559C42.5865 98.3483 42.4154 101.614 44.6741 103.859C43.2367 99.2667 43.887 96.3074 43.887 96.3074C43.887 96.3074 45.8035 99.4368 45.8035 101.818C47.2066 101.75 47.1382 96.3414 47.1382 96.3414L15.7898 62.8699C15.7898 62.8699 8.50027 70.8296 4.15393 69.9451C6.10465 71.5779 11.7172 69.639 11.7172 69.639Z" fill="#318063"/>
<path d="M46.6933 91.545C46.6933 91.511 46.6933 91.511 46.6933 91.477C46.7275 91.3069 46.8302 91.1368 47.0013 91.0688L91.3887 65.3529C91.5256 65.2848 91.6967 65.2508 91.8336 65.2848C91.9021 65.2848 93.3737 65.625 94.811 66.1352C97.104 66.9516 98.1307 67.768 98.028 68.7544C98.028 68.7885 98.028 68.7885 98.028 68.8225C97.9938 68.9925 97.8911 69.1626 97.7542 69.2307C97.6173 69.3327 97.412 69.3667 97.2409 69.3327C96.0431 69.0606 94.503 69.2307 93.271 69.4688C94.6742 69.7749 96.7275 70.013 99.3285 69.8089C99.6365 69.7749 99.9103 69.979 99.9787 70.2511C100.013 70.3532 100.013 70.4552 100.013 70.5233C99.9787 70.6933 99.8761 70.8634 99.7049 70.9995C97.9596 72.088 96.0431 72.2921 94.195 72.4962C93.5106 72.5642 92.8261 72.6322 92.1074 72.7683C93.6132 73.4826 94.7084 74.6732 94.7768 74.7752C94.9137 74.9113 94.9479 75.1154 94.9479 75.2855C94.9479 75.3875 94.9137 75.4555 94.8453 75.5576C94.7084 75.7957 94.4004 75.8977 94.1266 75.8297C94.1266 75.8297 93.5106 75.6596 92.3812 75.7277C93.3394 75.9658 93.9897 76.2039 94.0581 76.2379C94.3319 76.3399 94.503 76.6121 94.4688 76.9182V76.9522C94.4004 77.2584 94.1266 77.4625 93.8186 77.4625C91.6967 77.3944 89.7118 78.3809 88.6167 79.0612C90.4305 80.0477 92.1074 81.7485 92.1759 81.8165C92.3128 81.9525 92.3812 82.1566 92.347 82.3267C92.347 82.4628 92.2785 82.5988 92.1759 82.7009C91.9363 82.939 91.5256 82.939 91.2861 82.7009C91.2518 82.6669 90.054 81.5784 87.7268 82.2927C89.0958 82.905 91.9021 83.007 93.8528 82.837C94.195 82.8029 94.4688 83.041 94.5373 83.3472C94.5373 83.4152 94.5373 83.4833 94.5373 83.5173C94.503 83.7554 94.3319 83.9935 94.0581 84.0615C93.9555 84.0955 91.6283 84.7078 85.3997 85.8644C86.3922 86.7147 88.3086 86.5447 88.3429 86.5447C88.6851 86.5107 88.9931 86.7488 89.0273 87.0889C89.0273 87.157 89.0273 87.191 89.0273 87.259C88.9931 87.5311 88.7878 87.7692 88.4798 87.8033C88.3771 87.8033 86.5633 88.0754 83.3463 87.4291C84.1334 88.8577 84.7152 90.8987 84.5099 92.4634C84.4072 93.3138 84.0992 93.9941 83.5516 94.4363C83.3805 94.6064 83.1067 94.6404 82.9014 94.5384C82.6618 94.4363 82.5249 94.2322 82.4907 93.9941C82.388 92.7696 81.9431 91.8511 81.1218 91.1708C79.8213 90.1503 77.8364 90.0483 76.6043 90.1163C77.4257 91.0688 78.8973 92.4634 80.5058 93.0077C80.7796 93.1097 80.9507 93.3478 80.9507 93.62C80.9507 93.654 80.9507 93.654 80.9507 93.688C80.9165 93.9261 80.7453 94.1302 80.5058 94.2322C78.5551 94.8445 75.783 93.8921 73.9692 93.1097C75.0643 94.8785 76.8097 97.1236 78.5551 97.5318C78.8288 97.5998 79.0342 97.8039 79.0342 98.076C79.0342 98.11 79.0342 98.1781 79.0342 98.2121C79 98.4162 78.8631 98.6203 78.6577 98.7223C74.2429 100.695 70.4784 98.008 68.5277 96.1031C68.5619 96.8174 68.5619 97.6338 68.4592 98.4502C68.2539 100.151 67.6721 101.444 66.7138 102.294C66.5085 102.464 66.2347 102.498 65.9952 102.396C65.7556 102.26 65.6187 102.022 65.6529 101.75C65.7898 100.559 64.8658 98.9264 63.7364 97.4637C64.0787 98.4162 64.3182 99.4707 64.3867 100.491C64.3867 100.525 64.3867 100.559 64.3867 100.593C64.3867 100.729 64.3182 100.865 64.2156 100.933C64.1129 101.069 63.9418 101.137 63.7707 101.137C63.4969 101.137 63.2231 101.069 62.9493 100.933C63.7364 101.716 64.6605 102.464 65.7556 103.212C65.9609 103.348 66.0636 103.587 66.0294 103.825C66.0294 103.859 66.0294 103.859 66.0294 103.893C65.9952 104.131 65.7898 104.335 65.5503 104.403C61.3408 105.321 56.6522 101.512 54.4962 99.4366C54.5304 100.287 54.4962 101.376 54.3935 102.464C54.154 104.471 53.5379 105.866 52.6139 106.546C52.3744 106.716 52.0663 106.716 51.8268 106.546C51.6557 106.41 51.553 106.172 51.5872 105.968C51.5872 105.9 51.6214 105.832 51.6557 105.798C51.7926 105.491 51.8952 105.151 51.9295 104.743C52.477 100.219 46.8644 92.1573 46.796 92.0892C46.6933 91.8511 46.6591 91.6811 46.6933 91.545Z" fill="url(#paint1_linear_41_3896)"/>
<path d="M54.8042 95.2527C54.8042 95.2527 60.5537 101.648 65.2765 100.627C59.5612 96.6133 58.3634 91.9531 58.3634 91.9531C58.3634 91.9531 62.1279 97.7358 63.8391 97.7018C63.668 94.8785 61.683 91.7491 61.683 91.7491C61.683 91.7491 66.44 96.1031 66.0978 98.8924C68.3908 96.8854 67.2956 91.9872 67.2956 91.9872C67.2956 91.9872 71.5051 98.042 76.9465 95.5928C74.0376 94.8785 71.5735 89.7421 71.5735 89.7421C71.5735 89.7421 76.091 92.3954 78.6577 91.579C76.1936 90.7626 74.2429 88.0073 74.2429 88.0073C74.2429 88.0073 80.848 86.8168 81.1902 91.8851C82.8671 90.4224 81.0533 85.7963 79.8897 85.116C83.7227 86.1365 85.8788 85.8303 85.8788 85.8303C85.8788 85.8303 82.9356 86.1365 82.2169 84.2316C88.514 83.075 90.7727 82.4968 90.7727 82.4968C90.7727 82.4968 85.2285 82.973 84.0992 81.2722C87.1793 79.8095 88.7877 81.4083 88.7877 81.4083C88.7877 81.4083 86.7001 79.2993 84.8521 78.653C84.8521 78.653 87.5899 76.442 90.67 76.544C90.67 76.544 87.2135 75.2514 84.989 75.8637C89.0273 74.5031 91.0807 75.0813 91.0807 75.0813C91.0807 75.0813 88.7535 72.5302 86.529 73.0404C89.746 71.6457 92.8945 72.5642 95.5639 70.8634C90.7385 71.2716 87.9664 69.945 87.9664 69.945C87.9664 69.945 91.4571 68.7544 93.7843 69.2987C94.0239 67.938 88.6851 66.7815 88.6851 66.7815L49.0547 89.8102C49.0547 89.8102 55.2491 98.6202 53.4352 102.634C55.4886 101.137 54.8042 95.2527 54.8042 95.2527Z" fill="#318063"/>
<path d="M13.5653 47.0865C13.5995 47.0865 13.5995 47.0865 13.6338 47.0865C13.8049 47.0865 13.976 47.0184 14.1129 46.8824L49.1231 9.49906C49.2258 9.39701 49.2943 9.22694 49.2943 9.05686C49.2943 8.98883 49.2943 7.49213 49.1231 5.96142C48.8494 3.54631 48.2333 2.38977 47.2409 2.28772C47.2066 2.28772 47.2066 2.28772 47.1724 2.28772C47.0013 2.28772 46.8302 2.35576 46.6933 2.4578C46.5564 2.59387 46.488 2.76394 46.488 2.93402C46.488 4.15859 45.9746 5.62127 45.4613 6.7778C45.4955 5.34914 45.7008 3.3082 46.488 0.859062C46.5906 0.586936 46.4537 0.280794 46.2142 0.110716C46.1457 0.0766999 46.0431 0.0426841 45.9404 0.00866837C45.7693 -0.0253474 45.5639 0.0426841 45.427 0.178747C43.9554 1.60741 43.3394 3.44426 42.7576 5.17906C42.5523 5.82536 42.3127 6.47166 42.039 7.11796C41.6625 5.4852 40.7385 4.15859 40.67 4.09056C40.5674 3.92048 40.3962 3.85245 40.2251 3.81843C40.1225 3.81843 40.054 3.81843 39.9513 3.85245C39.6776 3.9545 39.5064 4.19261 39.5064 4.49875C39.5064 4.49875 39.5407 5.11103 39.2327 6.23355C39.1984 5.28111 39.0958 4.56678 39.0958 4.49875C39.0615 4.19261 38.822 3.98851 38.514 3.9545H38.4797C38.1717 3.9545 37.898 4.15859 37.8295 4.46473C37.4188 6.53969 36.0157 8.24048 35.1259 9.15891C34.5441 7.15198 33.2778 5.17906 33.2094 5.07701C33.1067 4.90694 32.9356 4.80489 32.7303 4.80489C32.5934 4.80489 32.4565 4.80489 32.3196 4.90694C32.0116 5.11103 31.9431 5.4852 32.1142 5.79135C32.1485 5.85938 32.9356 7.22001 31.7378 9.32898C31.4298 7.86631 31.9431 5.11103 32.5591 3.27418C32.6618 2.96804 32.4907 2.62788 32.1827 2.49182C32.1142 2.4578 32.0458 2.4578 32.0116 2.4578C31.7378 2.38977 31.4982 2.49182 31.3613 2.72993C31.3271 2.83198 30.1978 4.94095 27.6995 10.7236C27.0834 9.56709 27.6652 7.73024 27.6652 7.73024C27.7679 7.39009 27.5968 7.04993 27.2888 6.91387C27.2546 6.87985 27.1861 6.87985 27.1519 6.87985C26.8781 6.84583 26.6043 7.01591 26.5017 7.28804C26.4674 7.35607 25.8172 9.09087 25.7487 12.3564C24.5167 11.3019 22.6687 10.2814 21.0602 10.1113C20.2046 10.0093 19.4859 10.1794 18.9041 10.5876C18.6988 10.7236 18.5961 10.9617 18.6646 11.1998C18.6988 11.438 18.8699 11.6421 19.1095 11.7101C20.3073 12.0843 21.0944 12.6965 21.5735 13.649C22.2922 15.1457 21.95 17.0846 21.6077 18.2751C20.8548 17.2547 19.7939 15.5539 19.657 13.8531C19.6228 13.581 19.4175 13.3428 19.1437 13.2748C19.1095 13.2748 19.1095 13.2748 19.0752 13.2748C18.8357 13.2408 18.5961 13.3769 18.4592 13.581C17.3983 15.3498 17.7405 18.2411 18.117 20.18C16.6112 18.7173 14.8316 16.5403 14.7973 14.7715C14.7973 14.4994 14.6262 14.2613 14.3524 14.1592C14.3182 14.1592 14.2498 14.1252 14.2155 14.1252C14.0102 14.0912 13.7706 14.1932 13.6338 14.3633C10.7248 18.2071 12.5386 22.4591 13.976 24.7721C13.2915 24.568 12.5044 24.398 11.683 24.2959C9.97188 24.1258 8.56873 24.398 7.50781 25.1463C7.30247 25.3164 7.1998 25.5885 7.26825 25.8266C7.3367 26.0987 7.54204 26.2688 7.81582 26.3028C9.01363 26.4389 10.4168 27.6975 11.6146 29.0921C10.759 28.5479 9.76654 28.0717 8.77407 27.7995C8.73985 27.7995 8.70562 27.7655 8.6714 27.7655C8.53451 27.7655 8.39761 27.7655 8.29494 27.8336C8.15805 27.9356 8.02116 28.0717 7.98694 28.2417C7.91849 28.4798 7.91849 28.786 7.98694 29.0921C7.40514 28.1397 6.85757 27.0852 6.34423 25.8947C6.24156 25.6906 6.03622 25.5205 5.83088 25.5205C5.79666 25.5205 5.79666 25.5205 5.76243 25.5205C5.52287 25.5205 5.28331 25.6565 5.18064 25.8947C3.36681 29.7724 6.07044 35.1469 7.61048 37.7321C6.7549 37.528 5.69399 37.2899 4.63307 37.1879C2.57968 36.9838 1.10809 37.2559 0.218285 38.0043C0.0129464 38.2084 -0.0554999 38.5145 0.0471695 38.7526C0.149839 38.9567 0.355178 39.0928 0.560517 39.0928C0.628963 39.0928 0.697409 39.0928 0.765855 39.0928C1.10809 39.0247 1.45032 39.0247 1.861 39.0587C6.4469 39.535 13.0862 46.7463 13.1546 46.8143C13.2573 46.9844 13.4284 47.0524 13.5653 47.0865Z" fill="url(#paint2_linear_41_3896)"/>
<path d="M11.7172 38.3785C11.7172 38.3785 6.72067 31.4053 8.73983 27.0513C11.4092 33.4803 15.7214 35.6573 15.7214 35.6573C15.7214 35.6573 10.8617 30.725 11.3066 29.0922C14.0444 29.8746 16.6796 32.4938 16.6796 32.4938C16.6796 32.4938 13.4626 26.9152 10.6563 26.6431C13.1204 24.8743 17.6721 27.0173 17.6721 27.0173C17.6721 27.0173 12.6755 21.5748 16.2689 16.8466C16.3031 19.84 20.8206 23.3436 20.8206 23.3436C20.8206 23.3436 19.2121 18.3773 20.581 16.0642C20.8206 18.6494 23.1135 21.1325 23.1135 21.1325C23.1135 21.1325 25.7145 15.0097 20.8206 13.547C22.6002 12.2544 26.7754 15.0097 27.1861 16.2683C27.015 12.3225 27.8021 10.3155 27.8021 10.3155C27.8021 10.3155 26.8439 13.1048 28.555 14.1933C31.0875 8.37664 32.1827 6.30168 32.1827 6.30168C32.1827 6.30168 30.4715 11.5741 31.9089 13.0368C34.0307 10.3496 32.8329 8.44468 32.8329 8.44468C32.8329 8.44468 34.4414 10.9278 34.681 12.8667C34.681 12.8667 37.453 10.6897 38.0348 7.69633C38.0348 7.69633 38.5482 11.336 37.453 13.3429C39.6775 9.70326 39.5406 7.59428 39.5406 7.59428C39.5406 7.59428 41.5256 10.4176 40.5331 12.4585C42.5865 9.66924 42.4154 6.40373 44.6741 4.15869C43.2367 8.75082 43.887 11.7102 43.887 11.7102C43.887 11.7102 45.8035 8.58074 45.8035 6.19964C47.2066 6.26767 47.1382 11.6762 47.1382 11.6762L15.7898 45.1477C15.7898 45.1477 8.50027 37.188 4.15393 38.0724C6.10465 36.4396 11.7172 38.3785 11.7172 38.3785Z" fill="#318063"/>
<path d="M46.6933 16.5063C46.6933 16.5403 46.6933 16.5403 46.6933 16.5743C46.7275 16.7444 46.8302 16.9145 47.0013 16.9825L91.3887 42.6644C91.5256 42.7324 91.6967 42.7664 91.8336 42.7324C91.9021 42.7324 93.3737 42.3923 94.811 41.882C97.104 41.0656 98.1307 40.2493 98.028 39.2628C98.028 39.2288 98.028 39.2288 98.028 39.1948C97.9938 39.0247 97.8911 38.8546 97.7542 38.7866C97.6173 38.6845 97.412 38.6505 97.2409 38.6845C96.0431 38.9567 94.503 38.7866 93.271 38.5485C94.6742 38.2423 96.7275 38.0042 99.3285 38.2083C99.6365 38.2423 99.9103 38.0382 99.9787 37.7661C100.013 37.6641 100.013 37.562 100.013 37.494C99.9787 37.3239 99.8761 37.1538 99.7049 37.0178C97.9596 35.9293 96.0431 35.7252 94.195 35.5211C93.5106 35.453 92.8261 35.385 92.1074 35.2489C93.6132 34.5346 94.7084 33.3441 94.7768 33.242C94.9137 33.106 94.9479 32.9019 94.9479 32.7318C94.9479 32.6297 94.9137 32.5617 94.8453 32.4597C94.7084 32.2215 94.4004 32.1195 94.1266 32.1875C94.1266 32.1875 93.5106 32.3576 92.3812 32.2896C93.3394 32.0515 93.9897 31.8134 94.0581 31.7793C94.3319 31.6773 94.503 31.4052 94.4688 31.099V31.065C94.4004 30.7589 94.1266 30.5548 93.8186 30.5548C91.6967 30.6228 89.7118 29.6363 88.6167 28.956C90.4305 27.9696 92.1074 26.2688 92.1759 26.2008C92.3128 26.0647 92.3812 25.8606 92.347 25.6905C92.347 25.5545 92.2785 25.4184 92.1759 25.3163C91.9363 25.0782 91.5256 25.0782 91.2861 25.3163C91.2518 25.3504 90.054 26.4389 87.7268 25.7245C89.0958 25.1123 91.9021 25.0102 93.8528 25.1803C94.195 25.2143 94.4688 24.9762 94.5373 24.67C94.5373 24.602 94.5373 24.534 94.5373 24.5C94.503 24.2619 94.3319 24.0238 94.0581 23.9557C93.9555 23.9217 91.6283 23.3094 85.3997 22.1529C86.3922 21.3025 88.3086 21.4726 88.3429 21.4726C88.6851 21.5066 88.9931 21.2685 89.0273 20.9283C89.0273 20.8603 89.0273 20.8263 89.0273 20.7582C88.9931 20.4861 88.7878 20.248 88.4798 20.214C88.3771 20.214 86.5633 19.9419 83.3463 20.5882C84.1334 19.1595 84.7152 17.1186 84.5099 15.5538C84.4072 14.7034 84.0992 14.0231 83.5516 13.5809C83.3805 13.4108 83.1067 13.3768 82.9014 13.4789C82.6618 13.5809 82.5249 13.785 82.4907 14.0231C82.388 15.2477 81.9431 16.1661 81.1218 16.8464C79.8213 17.8669 77.8364 17.9689 76.6043 17.9009C77.4257 16.9485 78.8973 15.5538 80.5058 15.0096C80.7796 14.9075 80.9507 14.6694 80.9507 14.3973C80.9507 14.3633 80.9507 14.3633 80.9507 14.3293C80.9165 14.0912 80.7453 13.8871 80.5058 13.785C78.5551 13.1727 75.783 14.1252 73.9692 14.9075C75.0643 13.1387 76.8097 10.8937 78.5551 10.4855C78.8288 10.4175 79.0342 10.2134 79.0342 9.94123C79.0342 9.90722 79.0342 9.83918 79.0342 9.80517C79 9.60107 78.8631 9.39698 78.6577 9.29493C74.2429 7.32202 70.4784 10.0093 68.5277 11.9141C68.5619 11.1998 68.5619 10.3834 68.4592 9.56706C68.2539 7.86627 67.6721 6.57367 66.7138 5.72328C66.5085 5.5532 66.2347 5.51918 65.9952 5.62123C65.7556 5.75729 65.6187 5.9954 65.6529 6.26753C65.7898 7.45808 64.8658 9.09084 63.7364 10.5535C64.0787 9.60107 64.3182 8.54658 64.3867 7.52611C64.3867 7.4921 64.3867 7.45808 64.3867 7.42407C64.3867 7.288 64.3182 7.15194 64.2156 7.08391C64.1129 6.94784 63.9418 6.87981 63.7707 6.87981C63.4969 6.87981 63.2231 6.94784 62.9493 7.08391C63.7364 6.30155 64.6605 5.5532 65.7556 4.80485C65.9609 4.66879 66.0636 4.43068 66.0294 4.19257C66.0294 4.15855 66.0294 4.15855 66.0294 4.12454C65.9952 3.88643 65.7898 3.68233 65.5503 3.6143C61.3408 2.72989 56.6522 6.50564 54.4962 8.5806C54.5304 7.73021 54.4962 6.6417 54.3935 5.5532C54.154 3.54627 53.5379 2.15162 52.6139 1.47131C52.3744 1.30123 52.0663 1.30123 51.8268 1.47131C51.6557 1.60737 51.553 1.84548 51.5872 2.04958C51.5872 2.11761 51.6214 2.18564 51.6557 2.21966C51.7926 2.5258 51.8952 2.86595 51.9295 3.27414C52.477 7.79824 46.8644 15.86 46.796 15.928C46.6933 16.1661 46.6591 16.3362 46.6933 16.5063Z" fill="url(#paint3_linear_41_3896)"/>
<path d="M54.8042 12.7985C54.8042 12.7985 60.5537 6.40353 65.2765 7.424C59.5612 11.4379 58.3634 16.098 58.3634 16.098C58.3634 16.098 62.1279 10.3153 63.8391 10.3494C63.668 13.1727 61.683 16.3021 61.683 16.3021C61.683 16.3021 66.44 11.9481 66.0978 9.1588C68.3908 11.1657 67.2956 16.064 67.2956 16.064C67.2956 16.064 71.5051 10.0092 76.9465 12.4583C74.0376 13.1727 71.5735 18.309 71.5735 18.309C71.5735 18.309 76.091 15.6558 78.6577 16.4722C76.1936 17.2886 74.2429 20.0438 74.2429 20.0438C74.2429 20.0438 80.848 21.2344 81.1902 16.166C82.8671 17.6287 81.0533 22.2549 79.8897 22.9352C83.7227 21.9147 85.8788 22.2209 85.8788 22.2209C85.8788 22.2209 82.9356 21.9147 82.2169 23.8196C88.514 24.9761 90.7727 25.5544 90.7727 25.5544C90.7727 25.5544 85.2285 25.0782 84.0992 26.779C87.1793 28.2416 88.7877 26.6429 88.7877 26.6429C88.7877 26.6429 86.7001 28.7519 84.8521 29.3982C84.8521 29.3982 87.5899 31.6092 90.67 31.5072C90.67 31.5072 87.2135 32.7997 84.989 32.1875C89.0273 33.5481 91.0807 32.9698 91.0807 32.9698C91.0807 32.9698 88.7535 35.521 86.529 35.0108C89.746 36.4054 92.8945 35.487 95.5639 37.1878C90.7385 36.7796 87.9664 38.1062 87.9664 38.1062C87.9664 38.1062 91.4571 39.2968 93.7843 38.7525C94.0239 40.1131 88.6851 41.2697 88.6851 41.2697L49.0547 18.207C49.0547 18.207 55.2491 9.39692 53.4352 5.38306C55.4886 6.91377 54.8042 12.7985 54.8042 12.7985Z" fill="#318063"/>
<path d="M97.9253 52.0187C97.9253 56.0666 93.4763 59.5022 92.4839 63.2439C91.4572 67.1217 93.5448 72.2921 91.5598 75.6597C89.5749 79.0952 83.9965 79.8776 81.1902 82.6669C78.3839 85.4562 77.5968 91.0007 74.1403 92.9737C70.718 94.9466 65.5503 92.8716 61.6488 93.8921C57.8843 94.8785 54.4277 99.3006 50.3552 99.3006C46.2826 99.3006 42.8261 94.8785 39.0616 93.8921C35.1601 92.8716 29.9582 94.9466 26.5701 92.9737C23.0794 90.9667 22.3264 85.4562 19.5201 82.6669C16.7139 79.8776 11.1355 79.0952 9.15054 75.6597C7.1656 72.2581 9.25321 67.1217 8.22651 63.2439C7.23404 59.5022 2.78503 56.0666 2.78503 52.0187C2.78503 47.9708 7.23404 44.5352 8.22651 40.7935C9.25321 36.9157 7.1656 31.7453 9.15054 28.3778C11.1355 24.9082 16.7139 24.1598 19.5201 21.3705C22.3264 18.5812 23.1136 13.0367 26.5701 11.0637C29.9924 9.09083 35.1601 11.1658 39.0616 10.1453C42.8261 9.15886 46.2826 4.73682 50.3552 4.73682C54.4277 4.73682 57.8843 9.15886 61.6488 10.1453C65.5503 11.1658 70.7522 9.09083 74.1403 11.0637C77.5968 13.0367 78.3839 18.5812 81.1902 21.3705C83.9965 24.1598 89.5749 24.9422 91.5598 28.3778C93.5448 31.7793 91.4572 36.9157 92.4839 40.7935C93.4763 44.5352 97.9253 47.9368 97.9253 52.0187Z" fill="url(#paint4_linear_41_3896)"/>
<path d="M95.5298 49.6375C95.5298 50.4879 95.3244 51.3383 94.9822 52.1547C94.5373 53.1752 93.9213 54.1956 93.2368 55.1821C92.0732 56.8829 90.807 58.5837 90.3621 60.3185C89.7118 62.6996 90.3278 65.6249 90.3278 68.2441C90.3278 69.6388 90.1225 70.9994 89.4723 72.1219C89.2669 72.4621 89.0274 72.7682 88.7878 73.0404C86.5291 75.5575 82.0116 76.3739 79.616 78.755C76.9466 81.4082 76.2279 86.6467 72.9425 88.5515C69.6913 90.4224 64.7632 88.4495 61.0671 89.4359C57.5079 90.3884 54.2224 94.5723 50.3552 94.5723C46.488 94.5723 43.2026 90.3884 39.6434 89.4359C35.9473 88.4495 31.0191 90.4224 27.768 88.5515C24.4825 86.6467 23.7296 81.4082 21.0944 78.755C18.425 76.1018 13.1547 75.3874 11.2382 72.1219C11.1697 71.9859 11.1013 71.8498 11.0328 71.7137C10.5537 70.6933 10.4168 69.5707 10.4168 68.3462C10.3826 65.693 11.0328 62.7336 10.3826 60.3185C9.42435 56.7808 5.2149 53.5153 5.2149 49.6715C5.2149 45.8278 9.42435 42.5622 10.3826 39.0246C11.3751 35.3509 9.39013 30.4526 11.2724 27.2211C13.1889 23.9556 18.4593 23.2073 21.1287 20.5881C23.7981 17.9348 24.5168 12.6964 27.8022 10.7915C31.0534 8.92067 35.9815 10.8936 39.6776 9.90713C43.271 8.95469 46.5222 4.77075 50.3894 4.77075C54.2567 4.77075 57.5421 8.95469 61.1013 9.90713C64.7974 10.8936 69.7255 8.92067 72.9767 10.7915C76.1595 12.6284 76.9466 17.6627 79.4449 20.35C79.5133 20.418 79.5818 20.52 79.6502 20.5881C81.5667 22.493 84.8179 23.4114 87.2135 24.9761C88.1718 25.5884 88.9589 26.3027 89.5065 27.2211C91.3888 30.4526 89.4038 35.3509 90.3963 39.0246C91.3203 42.5282 95.5298 45.7937 95.5298 49.6375Z" fill="url(#paint5_linear_41_3896)"/>
<path d="M89.438 59.7063C88.4456 63.346 90.4305 68.2102 88.5825 71.3737C86.7002 74.6052 81.4641 75.3195 78.8289 77.9387C76.1937 80.5579 75.475 85.7623 72.2238 87.6332C69.0068 89.47 64.1471 87.5312 60.4853 88.4836C56.9603 89.436 53.7091 93.586 49.8761 93.586C46.0431 93.586 42.7919 89.436 39.2669 88.4836C35.605 87.4971 30.7111 89.47 27.5284 87.6332C24.2772 85.7623 23.5585 80.5579 20.9233 77.9387C18.2881 75.3195 13.052 74.6052 11.1697 71.3737C9.32168 68.1762 11.2724 63.346 10.3142 59.7063C9.3559 56.2026 5.2149 52.9711 5.2149 49.1614C5.2149 47.1885 6.34427 45.3516 7.54208 43.5828C8.36343 42.3582 9.21901 41.1677 9.8008 39.9771C10.0061 39.5349 10.1773 39.0927 10.3142 38.6165C11.3066 34.9768 9.32168 30.1126 11.1697 26.9491C13.0178 23.6836 18.2539 22.9693 20.8891 20.35C23.5243 17.7308 24.243 12.5264 27.4942 10.6556C30.7111 8.81871 35.5708 10.7576 39.2327 9.80516C42.7577 8.85272 46.0089 4.73682 49.8419 4.73682C53.6749 4.73682 56.9261 8.88674 60.451 9.80516C64.1129 10.7916 69.0068 8.81871 72.1896 10.6556C75.3039 12.4244 76.091 17.2546 78.4524 19.9759C78.5551 20.1119 78.692 20.214 78.7946 20.35C80.6769 22.2209 83.8939 23.1393 86.2895 24.67C87.2135 25.2823 88.0349 25.9967 88.5482 26.9151C90.3963 30.1126 88.4456 34.9428 89.4038 38.5825C90.3621 42.0861 94.5373 45.3176 94.5373 49.1274C94.5373 52.9711 90.3963 56.1686 89.438 59.7063Z" fill="url(#paint6_linear_41_3896)"/>
<path d="M26.7754 41.848C20.4784 42.8345 12.6413 43.3447 7.50781 43.5488C8.32917 42.3242 9.18475 41.1337 9.76654 39.9431C14.2498 40.2152 20.3757 40.4534 26.6043 40.1812C27.6652 40.1472 27.8364 41.6779 26.7754 41.848Z" fill="url(#paint7_linear_41_3896)"/>
<path d="M94.9821 52.1548C94.5372 53.1753 93.9212 54.1957 93.2368 55.1822C45.119 56.5428 21.7104 65.3869 10.9643 71.7479C10.4852 70.7274 10.3483 69.6049 10.3483 68.3803C11.1355 67.4619 11.991 66.4754 12.9493 65.3869C39.5407 55.0461 80.8822 52.665 94.9821 52.1548Z" fill="url(#paint8_linear_41_3896)"/>
<path d="M90.3278 68.2441C90.3278 69.6388 90.1225 70.9994 89.4722 72.1219C89.2669 72.4621 89.0273 72.7682 88.7878 73.0404C84.1334 74.2309 72.258 77.0542 60.8275 78.1767C60.0403 78.2448 59.8692 77.0882 60.6564 76.9522C72.3265 74.8092 84.065 70.6593 90.3278 68.2441Z" fill="url(#paint9_linear_41_3896)"/>
<path d="M87.2135 24.908C81.2587 26.4728 64.2498 30.6227 49.5681 30.6907C48.644 30.6907 48.5414 29.3981 49.4312 29.228C61.1013 27.051 73.0109 22.7991 79.4106 20.3159C79.4791 20.3839 79.5475 20.486 79.616 20.554C81.5667 22.4249 84.8179 23.3433 87.2135 24.908Z" fill="url(#paint10_linear_41_3896)"/>
<path d="M49.6365 69.0268C47.6515 69.0268 46.043 67.428 46.043 65.4551V62.1896H27.2888C25.6118 62.1896 24.2087 60.829 24.2087 59.1282V45.828C24.2087 44.1613 25.5776 42.7666 27.2888 42.7666H46.043V39.5011C46.043 37.5282 47.6515 35.9294 49.6365 35.9294C50.2525 35.9294 50.8685 36.0995 51.4161 36.4057L74.0033 49.3657C75.1327 50.012 75.8172 51.1685 75.8172 52.4611C75.8172 53.7537 75.1327 54.9102 74.0033 55.5565L51.4161 68.5165C50.8685 68.8567 50.2525 69.0268 49.6365 69.0268Z" fill="url(#paint11_linear_41_3896)"/>
<path d="M49.6365 36.8137C50.0814 36.8137 50.5605 36.9158 50.9712 37.1879L73.5585 50.1479C75.3381 51.1684 75.3381 53.7536 73.5585 54.7741L50.9712 67.7341C50.5263 67.9722 50.0814 68.1082 49.6365 68.1082C48.2334 68.1082 46.9329 66.9857 46.9329 65.421V61.2711H27.2888C26.091 61.2711 25.1327 60.3186 25.1327 59.1281V45.8279C25.1327 44.6374 26.091 43.6849 27.2888 43.6849H46.9329V39.535C46.9329 37.9363 48.2334 36.8137 49.6365 36.8137ZM49.6365 35.0449C47.1382 35.0449 45.119 37.0518 45.119 39.535V41.8821H27.2888C25.0985 41.8821 23.3189 43.6509 23.3189 45.8279V59.1281C23.3189 61.3051 25.0985 63.0739 27.2888 63.0739H45.119V65.421C45.119 67.9041 47.1382 69.9111 49.6365 69.9111C50.4236 69.9111 51.2108 69.707 51.8952 69.2988L74.4825 56.3388C75.8856 55.5224 76.7412 54.0937 76.7412 52.461C76.7412 50.8282 75.8856 49.3996 74.4825 48.5832L51.8952 35.6232C51.1765 35.249 50.4236 35.0449 49.6365 35.0449Z" fill="#5A2903"/>
<path d="M27.8021 45.0796V57.2912C27.8021 58.3797 28.7261 59.2641 29.8555 59.2641H48.4387V63.0739C48.4387 64.9788 50.5605 66.1353 52.2717 65.1829L67.1245 56.917L73.6611 53.2774C75.3723 52.3249 75.3723 49.9778 73.6611 49.0254L52.2717 37.1199C50.5947 36.1674 48.4387 37.358 48.4387 39.2289V43.0386H29.8555C29.5817 43.0386 29.3422 43.0726 29.1026 43.1747C28.3155 43.5148 27.8021 44.2292 27.8021 45.0796Z" fill="url(#paint12_linear_41_3896)"/>
<g opacity="0.25">
<path d="M27.8021 45.0796V57.2913C27.8021 58.3798 28.7261 59.2642 29.8555 59.2642H48.4387V63.0739C48.4387 64.9788 50.5605 66.1354 52.2717 65.1829L67.1245 56.9171C46.3168 54.9782 34.6125 47.8009 29.1026 43.2087C28.3155 43.5149 27.8021 44.2292 27.8021 45.0796Z" fill="#318063"/>
</g>
<defs>
<linearGradient id="paint0_linear_41_3896" x1="13.2008" y1="106.723" x2="36.8526" y2="64.0109" gradientUnits="userSpaceOnUse">
<stop offset="2.7e-07" stop-color="#95D543"/>
<stop offset="0.2613" stop-color="#72B74E"/>
<stop offset="0.5762" stop-color="#4F9959"/>
<stop offset="0.8338" stop-color="#398760"/>
<stop offset="1" stop-color="#318063"/>
</linearGradient>
<linearGradient id="paint1_linear_41_3896" x1="91.5294" y1="101.982" x2="55.197" y2="69.2292" gradientUnits="userSpaceOnUse">
<stop offset="2.7e-07" stop-color="#95D543"/>
<stop offset="0.2613" stop-color="#72B74E"/>
<stop offset="0.5762" stop-color="#4F9959"/>
<stop offset="0.8338" stop-color="#398760"/>
<stop offset="1" stop-color="#318063"/>
</linearGradient>
<linearGradient id="paint2_linear_41_3896" x1="13.2008" y1="1.29896" x2="36.8527" y2="44.0111" gradientUnits="userSpaceOnUse">
<stop offset="2.7e-07" stop-color="#95D543"/>
<stop offset="0.2613" stop-color="#72B74E"/>
<stop offset="0.5762" stop-color="#4F9959"/>
<stop offset="0.8338" stop-color="#398760"/>
<stop offset="1" stop-color="#318063"/>
</linearGradient>
<linearGradient id="paint3_linear_41_3896" x1="91.5295" y1="6.04026" x2="55.197" y2="38.7927" gradientUnits="userSpaceOnUse">
<stop offset="2.7e-07" stop-color="#95D543"/>
<stop offset="0.2613" stop-color="#72B74E"/>
<stop offset="0.5762" stop-color="#4F9959"/>
<stop offset="0.8338" stop-color="#398760"/>
<stop offset="1" stop-color="#318063"/>
</linearGradient>
<linearGradient id="paint4_linear_41_3896" x1="40.9869" y1="30.8685" x2="70.3284" y2="97.9366" gradientUnits="userSpaceOnUse">
<stop stop-color="#F8A45B"/>
<stop offset="0.2171" stop-color="#C97F40"/>
<stop offset="0.4733" stop-color="#985825"/>
<stop offset="0.6987" stop-color="#743C11"/>
<stop offset="0.8819" stop-color="#5E2B04"/>
<stop offset="1" stop-color="#562500"/>
</linearGradient>
<linearGradient id="paint5_linear_41_3896" x1="122.549" y1="104.383" x2="31.6918" y2="34.6528" gradientUnits="userSpaceOnUse">
<stop stop-color="#F8A45B"/>
<stop offset="0.3936" stop-color="#CC7937"/>
<stop offset="0.7917" stop-color="#A55318"/>
<stop offset="1" stop-color="#96440C"/>
</linearGradient>
<linearGradient id="paint6_linear_41_3896" x1="37.7131" y1="24.8367" x2="71.0732" y2="92.4761" gradientUnits="userSpaceOnUse">
<stop stop-color="#F8A45B"/>
<stop offset="0.3936" stop-color="#CC7937"/>
<stop offset="0.7917" stop-color="#A55318"/>
<stop offset="1" stop-color="#96440C"/>
</linearGradient>
<linearGradient id="paint7_linear_41_3896" x1="17.2107" y1="38.6557" x2="17.7245" y2="45.5049" gradientUnits="userSpaceOnUse">
<stop offset="0.3844" stop-color="#96440C"/>
<stop offset="0.3989" stop-color="#9A4810"/>
<stop offset="0.5039" stop-color="#B76427"/>
</linearGradient>
<linearGradient id="paint8_linear_41_3896" x1="51.8125" y1="54.1774" x2="53.0972" y2="63.8711" gradientUnits="userSpaceOnUse">
<stop offset="0.3844" stop-color="#96440C"/>
<stop offset="0.3989" stop-color="#9A4810"/>
<stop offset="0.5039" stop-color="#B76427"/>
</linearGradient>
<linearGradient id="paint9_linear_41_3896" x1="74.9374" y1="71.5899" x2="76.491" y2="78.4282" gradientUnits="userSpaceOnUse">
<stop offset="0.3844" stop-color="#96440C"/>
<stop offset="0.3989" stop-color="#9A4810"/>
<stop offset="0.5039" stop-color="#B76427"/>
</linearGradient>
<linearGradient id="paint10_linear_41_3896" x1="66.8967" y1="22.1209" x2="68.8242" y2="31.4295" gradientUnits="userSpaceOnUse">
<stop offset="0.3844" stop-color="#96440C"/>
<stop offset="0.3989" stop-color="#9A4810"/>
<stop offset="0.5039" stop-color="#B76427"/>
</linearGradient>
<linearGradient id="paint11_linear_41_3896" x1="52.4686" y1="44.2989" x2="39.655" y2="70.279" gradientUnits="userSpaceOnUse">
<stop stop-color="#318063"/>
<stop offset="0.354" stop-color="#23674D"/>
<stop offset="0.7462" stop-color="#16513A"/>
<stop offset="1" stop-color="#124933"/>
</linearGradient>
<linearGradient id="paint12_linear_41_3896" x1="53.3585" y1="44.1803" x2="42.1064" y2="66.9945" gradientUnits="userSpaceOnUse">
<stop offset="2.7e-07" stop-color="#95D543"/>
<stop offset="0.0318762" stop-color="#98D748"/>
<stop offset="0.349" stop-color="#B8E879"/>
<stop offset="0.6275" stop-color="#D0F59D"/>
<stop offset="0.8539" stop-color="#DEFCB3"/>
<stop offset="1" stop-color="#E3FFBB"/>
</linearGradient>
</defs>
</svg>
