<svg width="308" height="101" viewBox="0 0 308 101" fill="none" xmlns="http://www.w3.org/2000/svg">
<path fill-rule="evenodd" clip-rule="evenodd" d="M306.123 8.33416C305.148 6.82045 302.843 4.83369 301.425 3.88762C300.185 3.13076 298.501 2.65772 297.083 2.65772C221.928 0.576358 146.33 -0.0858933 71.1753 0.00871405C67.6303 0.00871405 61.4265 0.860181 60.4516 1.0494C59.0336 1.33322 44.6762 0.670966 40.5108 0.387144C30.6733 -0.180501 20.0382 0.103321 10.0235 0.197929C9.22583 0.197929 8.4282 0.197929 7.63056 0.197929C7.36469 0.197929 6.83293 0.481751 6.3898 1.0494C4.35141 2.94154 2.57889 6.15819 1.604 8.23956L306.123 8.33416Z" fill="url(#paint0_radial_16_16)"/>
<path fill-rule="evenodd" clip-rule="evenodd" d="M0.00826891 12.97C0.185521 16.0921 0.362772 19.2141 0.540024 22.3362C0.62865 23.7553 0.894528 23.9445 2.04666 24.6067C2.57842 24.8906 2.13529 24.9852 1.69216 25.269C0.540024 26.0258 0.805902 27.0665 0.894528 28.2964C1.86941 45.0419 2.8443 61.7874 4.35094 78.4383C4.52819 80.5197 4.88269 80.9927 6.56658 82.0334C7.54147 82.6957 7.00971 82.6957 6.21208 83.4525C5.5917 84.0202 5.2372 84.5878 5.14857 85.2501C4.97132 86.2907 5.2372 90.7373 5.9462 91.3995C6.38933 91.8726 7.45284 91.9672 7.71872 92.251C7.89597 92.4402 6.12345 92.9133 5.9462 93.4809C5.76895 93.8593 5.85758 94.7108 5.9462 95.5623V95.8461C6.03483 96.8868 9.93437 100.103 12.4159 100.103C107.866 98.8735 203.759 98.9681 296.55 100.103C297.348 100.103 300.539 96.0353 300.804 93.3863C300.893 92.1564 301.425 87.9937 301.248 87.0476C300.893 85.8177 299.564 85.5339 298.677 85.1555C298.234 84.9662 298.855 84.8716 299.121 84.777C302.045 83.9256 301.868 82.8849 302.134 79.9521C303.552 64.8149 304.97 49.7723 305.945 34.5405C306.033 32.9322 305.679 32.743 304.261 32.3645C303.286 32.0807 303.995 31.9861 304.527 31.7969C306.388 31.1346 306.211 30.1886 306.299 28.391C306.388 27.1611 306.477 25.742 306.477 24.5121C306.477 23.7553 306.388 23.1876 305.768 22.7146C305.413 22.4308 305.502 22.5254 305.856 22.2416C306.831 21.3901 306.742 20.2548 306.831 19.0249C306.831 18.0788 307.008 17.0381 306.565 16.1867C306.033 15.3352 306.033 15.9029 306.565 15.0514C307.097 14.2945 307.008 13.2538 307.097 12.3078C307.097 11.6455 307.097 10.9833 307.186 10.321C307.274 7.76662 303.641 6.1583 301.248 6.06369C199.86 4.07693 96.6991 5.11762 3.5533 6.2529C2.57842 6.2529 -0.168983 10.321 0.00826891 12.97Z" fill="url(#paint1_radial_16_16)"/>
<g style="mix-blend-mode:multiply">
<path fill-rule="evenodd" clip-rule="evenodd" d="M6.10808 13.5341C6.19524 15.7529 5.93376 21.2075 7.24118 22.8716C8.37427 24.3508 11.1634 24.7206 12.9067 24.9979C11.3378 25.3677 8.37427 26.0149 7.50266 27.3092C6.80537 28.1413 6.80537 29.3431 6.71821 30.3601C6.71821 32.1166 6.89253 33.8732 6.97969 35.6297C7.58982 48.6652 8.54859 63.3648 9.85601 76.4003C10.2047 79.6361 10.9019 80.2832 13.604 81.4851C14.6499 81.9473 13.7783 82.2247 13.081 82.5945C12.035 83.1492 10.9891 84.2586 10.9019 84.8133C10.8148 85.0907 11.1634 89.8981 11.5992 90.2679C11.7736 90.4528 12.558 91.0999 12.558 91.1924C12.558 91.2848 11.9479 91.8395 11.9479 92.1169C11.8607 92.3942 11.8607 92.6716 11.9479 93.2263C11.9479 93.4112 12.1222 93.5036 12.2094 93.5036C12.8195 93.9659 13.9526 94.7979 14.737 94.8904C33.3024 96.1847 59.7994 95.4451 82.3742 95.4451C84.3789 95.4451 86.2093 95.5375 87.9525 94.4281C90.2187 92.9489 93.3565 93.5961 95.8842 94.0583C100.068 94.7055 102.596 95.63 106.867 95.63C130.487 95.7224 154.108 95.8149 177.816 95.63C183.656 95.5375 210.501 93.0414 212.07 93.5961C215.208 94.7055 215.557 95.1677 219.217 95.3526C243.187 96.3696 279.882 96.0922 293.13 94.8904C293.828 94.0583 294.786 92.4867 294.873 91.8395C295.135 90.083 296.007 86.6623 294.438 85.4605C293.305 84.5359 291.126 84.351 290.777 83.9812C291.648 83.1492 294.525 83.3341 295.832 81.2077C296.53 80.0059 296.617 78.1569 296.704 76.6777C298.186 63.3648 299.493 50.1444 300.19 36.7391C300.277 33.7807 299.58 33.226 296.878 32.8562C295.658 32.6713 294.351 32.6713 293.217 32.4864C291.997 32.3015 294.089 32.2091 294.176 32.2091C296.094 32.0242 299.493 31.9317 300.277 29.7129C300.626 28.7884 300.626 26.9394 300.626 25.9224C300.713 24.3508 300.452 23.8885 298.97 23.3338C297.837 22.8716 298.011 22.964 299.144 22.5018C300.975 21.7622 300.8 20.9301 300.8 19.0811C300.8 17.3246 300.452 17.0472 298.97 16.585C298.709 16.4925 297.575 16.2152 297.401 16.0303C297.488 15.6605 300.365 16.1227 300.8 14.5511C300.975 14.0888 300.888 13.3492 300.888 12.7945C300.888 12.4247 300.888 12.0549 300.888 11.6851C300.277 11.3153 299.144 10.9455 298.621 10.9455C256 8.91159 213.116 7.98709 170.494 8.07954C166.834 8.07954 158.989 8.35689 155.677 9.74364C152.278 11.1304 153.149 11.3153 149.053 11.0379C143.474 10.6681 138.245 10.1134 132.666 9.37384C131.62 9.18894 130.662 9.09649 129.616 9.00404C121.771 8.07954 113.229 8.54179 105.298 8.72669C72.6993 9.18894 37.3118 9.28139 7.4155 11.0379C6.71821 11.7775 6.10808 12.887 6.10808 13.5341Z" fill="url(#paint2_radial_16_16)"/>
</g>
<g style="mix-blend-mode:screen">
<path fill-rule="evenodd" clip-rule="evenodd" d="M306.92 13.5376C289.284 13.2538 271.47 13.2538 253.656 13.6322C271.204 14.0107 288.663 14.7675 306.034 15.8082C306.034 15.7136 306.211 15.619 306.477 15.2406C306.831 14.6729 306.92 14.1053 306.92 13.5376Z" fill="url(#paint3_radial_16_16)"/>
</g>
<g style="mix-blend-mode:screen">
<path fill-rule="evenodd" clip-rule="evenodd" d="M25.9761 92.4402C19.9496 92.251 13.8344 92.1564 7.63057 92.3456C7.80782 92.5348 6.0353 93.0078 5.85805 93.5755C5.85805 93.6701 5.85805 93.7647 5.76942 93.8593C12.5936 93.197 19.3292 92.724 25.9761 92.4402Z" fill="url(#paint4_radial_16_16)"/>
</g>
<g style="mix-blend-mode:multiply">
<path fill-rule="evenodd" clip-rule="evenodd" d="M25.3595 33.7841C23.4741 31.754 21.9315 29.078 22.36 25.9406C23.0456 21.0499 28.2734 17.7279 31.7871 16.067C38.4718 12.8373 46.5278 12.4682 53.641 14.1291C56.5548 14.8674 59.3829 16.1592 61.6112 18.4662C62.8967 19.758 63.5823 22.1572 63.668 24.1873C63.7537 26.5865 62.811 28.8934 61.8683 30.9235C58.4402 37.4752 53.041 40.2435 46.7849 40.5203C41.0429 40.7972 29.7303 38.4902 25.3595 33.7841ZM32.9013 41.4431C34.9581 42.089 37.0149 42.4581 39.1574 42.8272C41.0429 43.1041 42.9283 43.1964 44.8137 43.1041C46.6992 43.0118 48.5846 42.735 50.3843 42.2736C51.5841 41.9968 52.6982 41.4431 53.8124 40.7972C54.9265 40.1512 55.8692 39.3207 56.8976 38.4902C57.926 37.5675 58.9544 36.5524 59.8114 35.3528C60.5828 34.3378 61.3541 33.1382 61.954 31.9386C62.5539 30.739 63.0681 29.4471 63.4966 28.063C63.9251 26.6788 64.0965 25.2946 64.0965 23.8182C64.0965 22.4341 63.8394 20.9576 63.3252 19.758C62.8967 18.5584 62.2968 17.4511 61.5255 16.6206C60.3256 15.3287 58.8687 14.3137 57.4118 13.5755C55.7835 12.6527 54.0695 12.0991 52.3554 11.6377C50.0415 11.084 47.7276 10.7149 45.3279 10.6226C43.0997 10.5304 40.9572 10.7149 38.8146 11.084C36.1579 11.6377 33.5012 12.3759 30.8444 13.3909C28.3591 14.406 25.8738 15.6056 23.5598 17.1743C22.4457 17.9125 21.4173 19.0198 20.5603 20.2194C19.789 21.419 19.1034 22.8032 18.7606 24.2796C18.5035 25.4792 18.5892 26.7711 18.7606 27.9707C19.0177 29.3548 19.6176 30.6467 20.2175 31.8463C21.0745 33.3227 22.1029 34.7992 23.217 35.9988C24.3311 37.1061 25.4452 38.1211 26.8165 38.8593C28.7876 39.9667 30.8444 40.7972 32.9013 41.4431ZM7.7051 48.6407C12.5044 50.2094 17.3893 51.7781 22.36 52.9777C27.9306 54.3618 33.6726 55.9306 39.3288 56.2074C44.728 56.4842 50.1272 56.1151 55.355 54.4541C61.4398 52.6086 67.5246 48.4561 72.5809 44.1191C76.6089 40.7049 81.4939 35.5374 83.465 30.0008C83.6364 29.5394 83.8078 28.9857 83.8935 28.4321C84.322 26.1251 83.9792 23.6337 83.2936 21.5113C82.3509 18.6507 80.8939 15.9747 79.2656 13.76C77.2945 11.084 75.0663 8.59254 72.5809 6.47017H70.4384C73.1808 8.86937 75.6662 11.5454 77.723 14.5905C80.3797 18.5584 82.608 23.5414 81.6653 28.8012C80.5511 34.7992 75.6662 39.5976 71.8096 43.1041C67.1817 47.3488 61.097 51.9627 55.4407 53.8082C50.6414 55.3769 45.6707 55.8383 40.7001 55.5614C35.4723 55.2846 30.1588 54.1773 25.0167 52.7931C19.1891 51.2244 13.4471 49.1021 7.7908 46.7951C7.61939 47.4411 7.7051 47.9947 7.7051 48.6407ZM296.775 89.427C288.634 88.8734 280.492 87.9506 272.351 87.1201C263.523 86.1974 254.696 85.1823 245.954 84.6286C238.07 84.075 230.185 83.8904 222.387 84.3518C214.931 84.8132 207.475 85.9205 200.104 87.6738C191.791 89.7039 183.735 92.5645 175.765 96.071C174.48 96.6246 173.108 97.1783 171.823 97.732C174.651 97.732 177.479 97.732 180.222 97.732C186.906 94.9637 193.762 92.5645 200.704 90.7189C208.16 88.6888 215.702 87.397 223.329 86.6587C239.613 85.1823 256.067 86.5665 272.351 88.3197C280.492 89.1502 288.548 90.5344 296.604 91.6417C296.604 91.1803 296.69 90.3498 296.775 89.427ZM119.545 97.8242C120.317 97.4551 121.088 97.1783 121.773 96.8092C146.97 85.9205 172.337 75.6778 198.048 66.6347C201.99 65.2505 206.018 64.0509 210.046 62.8513C214.331 61.6517 218.616 60.4521 222.815 59.2525C228.129 57.7761 233.356 56.1151 238.499 54.1773C243.212 52.424 247.926 50.3939 252.296 47.6256C252.896 47.2565 253.411 46.8874 253.925 46.5183C257.01 44.396 261.295 40.7049 261.981 36.1833C262.495 32.8613 260.952 30.0008 259.152 27.6938C256.667 24.6487 253.153 22.2495 250.068 20.404C240.984 15.0519 231.471 10.6226 222.13 6.10107C218.959 6.10107 215.788 6.10107 212.617 6.00879C222.987 11.084 233.442 15.7901 243.469 21.6959C246.554 23.4491 249.811 25.5715 252.468 28.2475C254.353 30.093 256.324 32.6768 256.41 35.8142C256.581 40.7972 251.782 44.396 248.611 46.3338C244.412 48.9175 239.784 50.9476 235.242 52.6086C230.271 54.4541 225.215 56.0228 220.073 57.4993C215.959 58.6989 211.931 59.8062 207.817 60.9135C204.047 62.0208 200.19 63.1282 196.505 64.5123C171.823 73.2786 147.398 83.06 123.145 93.5795C119.888 94.9637 116.717 96.3478 113.546 97.8242C115.603 97.8242 117.574 97.8242 119.545 97.8242ZM79.0942 98.0088C83.5507 96.4401 88.0071 94.5946 92.3779 92.6567C101.034 88.7811 109.432 84.3518 118.003 80.2916C128.801 75.1241 139.599 69.8644 150.398 64.8814C161.539 59.7139 189.135 46.8874 195.219 35.076C195.991 33.5996 196.505 32.0309 196.591 30.2776C196.762 24.9255 191.791 21.0499 188.363 18.9275C180.479 13.8523 172.68 10.069 164.967 6.00879C162.739 6.00879 160.51 6.00879 158.282 6.00879C162.567 8.31571 166.938 10.4381 171.309 12.745C173.965 14.1292 176.708 15.6056 179.365 17.1743C181.507 18.4662 183.65 19.758 185.621 21.3267C188.192 23.3568 191.363 26.402 191.706 30.3699C191.963 33.5996 190.249 36.3679 188.363 38.4902C186.992 40.0589 185.449 41.4431 183.821 42.735C181.679 44.396 179.45 45.9647 177.222 47.3488C175.08 48.733 172.851 50.0248 170.623 51.2244C166.424 53.5314 162.139 55.6537 157.768 57.6838C154.511 59.1602 151.255 60.6367 147.998 62.1131C141.742 64.9737 135.657 68.1111 129.487 71.2485C122.63 74.755 115.86 78.3538 109.004 81.8603C100.777 86.1051 92.3779 90.1653 83.9792 93.8563C80.4654 95.3328 76.9517 96.7169 73.4379 98.0088C75.2377 98.0088 77.1231 98.0088 79.0942 98.0088ZM10.1047 79.2766C17.1322 80.5685 24.074 81.7681 31.1872 82.6908C35.558 83.2445 39.9288 83.7982 44.2995 84.1673C47.9847 84.5364 51.6698 84.7209 55.355 84.5364C63.5823 84.2595 71.2097 82.3217 79.0942 79.5534C84.0649 77.8002 89.0356 75.8624 94.0062 73.74C100.262 71.1562 106.519 68.2957 112.603 65.3428C115.603 63.8664 118.517 62.3899 121.431 60.8212C126.316 58.1452 131.201 55.2846 135.743 52.0549C139.085 49.6557 142.942 46.7952 145.684 43.3809C146.712 42.089 147.569 40.7049 148.255 39.0439C148.855 37.6597 149.198 36.091 149.284 34.5223C149.369 32.8613 149.112 31.2004 148.598 29.6317C148.084 28.063 147.312 26.4942 146.37 25.2946C145.427 24.095 144.484 23.08 143.456 22.065C142.085 20.6808 140.713 19.2967 139.342 18.0048C135.914 14.7751 132.486 11.73 128.972 8.68482C127.944 7.76205 126.915 6.93156 125.973 6.00879C124.687 6.00879 123.402 6.00879 122.116 6.00879C123.23 7.02383 124.43 8.03888 125.544 9.1462C128.801 12.1913 132.058 15.2365 135.229 18.4662C136.514 19.758 137.885 21.1422 139.085 22.5263C140.028 23.5414 141.056 24.6487 141.913 25.8483C145.855 30.8313 145.256 37.6597 141.313 42.3659C138.657 45.5956 135.571 48.4561 132.486 50.9476C128.372 54.2696 124.002 57.1302 119.545 59.6216C113.375 62.9436 107.204 66.1733 100.948 69.1261C95.7203 71.6176 90.3211 73.9245 84.9219 75.9546C75.7519 79.3689 66.5818 81.7681 56.9833 82.5986C48.2418 83.4291 39.5002 82.9677 30.7587 81.9526C23.7312 81.0299 16.8751 79.8303 9.93333 78.5384C10.019 78.8152 10.019 79.092 10.1047 79.2766ZM8.90491 66.4501C12.4187 67.4652 15.9324 68.4802 19.4462 69.3107C25.9595 70.8794 32.5585 71.9867 39.2431 72.079C45.8421 72.1713 52.3554 71.3408 58.783 69.6798C66.5818 67.6497 74.2949 64.5123 81.6653 61.0058C86.6359 58.6066 91.6923 55.6537 96.3202 52.424C101.119 49.1021 110.632 41.6276 111.489 34.4301C112.261 27.8784 109.004 21.8804 105.576 17.082C102.833 13.2987 100.091 9.60759 97.3486 6.19334C95.5489 6.19334 93.7491 6.19334 91.9494 6.19334C95.206 10.069 98.2056 14.2214 101.119 18.2816C104.29 22.7109 105.833 27.417 105.147 33.3227C104.376 39.7821 98.9769 45.0419 94.7775 48.4561C78.3229 62.0208 59.4686 69.0339 39.5002 69.1261C29.0447 69.2184 18.932 67.0961 8.81921 64.42C8.81921 65.1582 8.90491 65.8042 8.90491 66.4501Z" fill="url(#paint5_radial_16_16)"/>
</g>
<g style="mix-blend-mode:screen">
<path fill-rule="evenodd" clip-rule="evenodd" d="M287.068 5.96905C244.35 6.15827 196.758 6.15827 153.686 6.15827C111.146 6.15827 62.5786 6.5367 20.9244 5.96905C60.2743 4.64455 111.677 3.9823 153.686 3.88769C195.783 3.79308 244.971 4.07691 287.068 5.96905Z" fill="url(#paint6_radial_16_16)"/>
</g>
<defs>
<radialGradient id="paint0_radial_16_16" cx="0" cy="0" r="1" gradientUnits="userSpaceOnUse" gradientTransform="translate(124.989 113.287) scale(245.447 262.012)">
<stop stop-color="#EE7F23"/>
<stop offset="1" stop-color="#4F2B00"/>
</radialGradient>
<radialGradient id="paint1_radial_16_16" cx="0" cy="0" r="1" gradientUnits="userSpaceOnUse" gradientTransform="translate(148.958 -75.3724) scale(230.211 245.748)">
<stop stop-color="#F08323"/>
<stop offset="1" stop-color="#6E3F05"/>
</radialGradient>
<radialGradient id="paint2_radial_16_16" cx="0" cy="0" r="1" gradientUnits="userSpaceOnUse" gradientTransform="translate(189.276 194.733) scale(359.576 381.395)">
<stop stop-color="#C49D7C"/>
<stop offset="0.4444" stop-color="#E1CDBD"/>
<stop offset="0.8158" stop-color="#F7F1ED"/>
<stop offset="1" stop-color="white"/>
</radialGradient>
<radialGradient id="paint3_radial_16_16" cx="0" cy="0" r="1" gradientUnits="userSpaceOnUse" gradientTransform="translate(305.46 43.5779) scale(103.047 110.002)">
<stop stop-color="#918173"/>
<stop offset="1"/>
</radialGradient>
<radialGradient id="paint4_radial_16_16" cx="0" cy="0" r="1" gradientUnits="userSpaceOnUse" gradientTransform="translate(4.84027 110.378) scale(45.0595 48.1006)">
<stop stop-color="#918173"/>
<stop offset="1"/>
</radialGradient>
<radialGradient id="paint5_radial_16_16" cx="0" cy="0" r="1" gradientUnits="userSpaceOnUse" gradientTransform="translate(142.125 -10.4063) scale(334.847 360.539)">
<stop stop-color="#E6CCB6"/>
<stop offset="0.0843647" stop-color="#E8D1BD"/>
<stop offset="0.6954" stop-color="#F9F2ED"/>
<stop offset="1" stop-color="white"/>
</radialGradient>
<radialGradient id="paint6_radial_16_16" cx="0" cy="0" r="1" gradientUnits="userSpaceOnUse" gradientTransform="translate(124.032 -145.734) scale(320.222 341.834)">
<stop stop-color="#918173"/>
<stop offset="1"/>
</radialGradient>
</defs>
</svg>
